<?xml version="1.0" encoding="utf-8"?>
<svg xmlns="http://www.w3.org/2000/svg" xmlns:xlink="http://www.w3.org/1999/xlink" width="528" height="336" viewBox="0 0 2112 1344">
<defs>
  <clipPath id="clip270">
    <rect x="0" y="0" width="2112" height="1344"/>
  </clipPath>
</defs>
<path clip-path="url(#clip270)" d="M0 1344 L2112 1344 L2112 0 L0 0  Z" fill="#ffffff" fill-rule="evenodd" fill-opacity="1"/>
<defs>
  <clipPath id="clip271">
    <rect x="422" y="0" width="1479" height="1344"/>
  </clipPath>
</defs>
<path clip-path="url(#clip270)" d="M137.816 1234.58 L2064.76 1234.58 L2064.76 47.2441 L137.816 47.2441  Z" fill="#ffffff" fill-rule="evenodd" fill-opacity="1"/>
<defs>
  <clipPath id="clip272">
    <rect x="137" y="47" width="1928" height="1188"/>
  </clipPath>
</defs>
<polyline clip-path="url(#clip272)" style="stroke:#000000; stroke-linecap:round; stroke-linejoin:round; stroke-width:2; stroke-opacity:0.1; fill:none" points="369.286,1234.58 369.286,47.2441 "/>
<polyline clip-path="url(#clip272)" style="stroke:#000000; stroke-linecap:round; stroke-linejoin:round; stroke-width:2; stroke-opacity:0.1; fill:none" points="787.572,1234.58 787.572,47.2441 "/>
<polyline clip-path="url(#clip272)" style="stroke:#000000; stroke-linecap:round; stroke-linejoin:round; stroke-width:2; stroke-opacity:0.1; fill:none" points="1205.86,1234.58 1205.86,47.2441 "/>
<polyline clip-path="url(#clip272)" style="stroke:#000000; stroke-linecap:round; stroke-linejoin:round; stroke-width:2; stroke-opacity:0.1; fill:none" points="1624.14,1234.58 1624.14,47.2441 "/>
<polyline clip-path="url(#clip272)" style="stroke:#000000; stroke-linecap:round; stroke-linejoin:round; stroke-width:2; stroke-opacity:0.1; fill:none" points="2042.43,1234.58 2042.43,47.2441 "/>
<polyline clip-path="url(#clip270)" style="stroke:#000000; stroke-linecap:round; stroke-linejoin:round; stroke-width:4; stroke-opacity:1; fill:none" points="137.816,1234.58 2064.76,1234.58 "/>
<polyline clip-path="url(#clip270)" style="stroke:#000000; stroke-linecap:round; stroke-linejoin:round; stroke-width:4; stroke-opacity:1; fill:none" points="369.286,1234.58 369.286,1215.68 "/>
<polyline clip-path="url(#clip270)" style="stroke:#000000; stroke-linecap:round; stroke-linejoin:round; stroke-width:4; stroke-opacity:1; fill:none" points="787.572,1234.58 787.572,1215.68 "/>
<polyline clip-path="url(#clip270)" style="stroke:#000000; stroke-linecap:round; stroke-linejoin:round; stroke-width:4; stroke-opacity:1; fill:none" points="1205.86,1234.58 1205.86,1215.68 "/>
<polyline clip-path="url(#clip270)" style="stroke:#000000; stroke-linecap:round; stroke-linejoin:round; stroke-width:4; stroke-opacity:1; fill:none" points="1624.14,1234.58 1624.14,1215.68 "/>
<polyline clip-path="url(#clip270)" style="stroke:#000000; stroke-linecap:round; stroke-linejoin:round; stroke-width:4; stroke-opacity:1; fill:none" points="2042.43,1234.58 2042.43,1215.68 "/>
<path clip-path="url(#clip270)" d="M346.995 1263.19 Q343.384 1263.19 341.555 1266.76 Q339.749 1270.3 339.749 1277.43 Q339.749 1284.54 341.555 1288.1 Q343.384 1291.64 346.995 1291.64 Q350.629 1291.64 352.435 1288.1 Q354.263 1284.54 354.263 1277.43 Q354.263 1270.3 352.435 1266.76 Q350.629 1263.19 346.995 1263.19 M346.995 1259.49 Q352.805 1259.49 355.86 1264.1 Q358.939 1268.68 358.939 1277.43 Q358.939 1286.16 355.86 1290.76 Q352.805 1295.35 346.995 1295.35 Q341.185 1295.35 338.106 1290.76 Q335.05 1286.16 335.05 1277.43 Q335.05 1268.68 338.106 1264.1 Q341.185 1259.49 346.995 1259.49 Z" fill="#000000" fill-rule="nonzero" fill-opacity="1" /><path clip-path="url(#clip270)" d="M367.157 1288.8 L372.041 1288.8 L372.041 1294.67 L367.157 1294.67 L367.157 1288.8 Z" fill="#000000" fill-rule="nonzero" fill-opacity="1" /><path clip-path="url(#clip270)" d="M396.393 1276.04 Q399.749 1276.76 401.624 1279.03 Q403.522 1281.3 403.522 1284.63 Q403.522 1289.74 400.004 1292.55 Q396.485 1295.35 390.004 1295.35 Q387.828 1295.35 385.513 1294.91 Q383.221 1294.49 380.768 1293.63 L380.768 1289.12 Q382.712 1290.25 385.027 1290.83 Q387.342 1291.41 389.865 1291.41 Q394.263 1291.41 396.555 1289.67 Q398.869 1287.94 398.869 1284.63 Q398.869 1281.57 396.717 1279.86 Q394.587 1278.12 390.768 1278.12 L386.74 1278.12 L386.74 1274.28 L390.953 1274.28 Q394.402 1274.28 396.231 1272.92 Q398.059 1271.53 398.059 1268.93 Q398.059 1266.27 396.161 1264.86 Q394.286 1263.42 390.768 1263.42 Q388.846 1263.42 386.647 1263.84 Q384.448 1264.26 381.809 1265.14 L381.809 1260.97 Q384.471 1260.23 386.786 1259.86 Q389.124 1259.49 391.184 1259.49 Q396.508 1259.49 399.61 1261.92 Q402.712 1264.33 402.712 1268.45 Q402.712 1271.32 401.069 1273.31 Q399.425 1275.28 396.393 1276.04 Z" fill="#000000" fill-rule="nonzero" fill-opacity="1" /><path clip-path="url(#clip270)" d="M764.713 1263.19 Q761.102 1263.19 759.273 1266.76 Q757.468 1270.3 757.468 1277.43 Q757.468 1284.54 759.273 1288.1 Q761.102 1291.64 764.713 1291.64 Q768.347 1291.64 770.153 1288.1 Q771.981 1284.54 771.981 1277.43 Q771.981 1270.3 770.153 1266.76 Q768.347 1263.19 764.713 1263.19 M764.713 1259.49 Q770.523 1259.49 773.579 1264.1 Q776.657 1268.68 776.657 1277.43 Q776.657 1286.16 773.579 1290.76 Q770.523 1295.35 764.713 1295.35 Q758.903 1295.35 755.824 1290.76 Q752.769 1286.16 752.769 1277.43 Q752.769 1268.68 755.824 1264.1 Q758.903 1259.49 764.713 1259.49 Z" fill="#000000" fill-rule="nonzero" fill-opacity="1" /><path clip-path="url(#clip270)" d="M784.875 1288.8 L789.759 1288.8 L789.759 1294.67 L784.875 1294.67 L784.875 1288.8 Z" fill="#000000" fill-rule="nonzero" fill-opacity="1" /><path clip-path="url(#clip270)" d="M812.791 1264.19 L800.986 1282.64 L812.791 1282.64 L812.791 1264.19 M811.565 1260.11 L817.444 1260.11 L817.444 1282.64 L822.375 1282.64 L822.375 1286.53 L817.444 1286.53 L817.444 1294.67 L812.791 1294.67 L812.791 1286.53 L797.19 1286.53 L797.19 1282.01 L811.565 1260.11 Z" fill="#000000" fill-rule="nonzero" fill-opacity="1" /><path clip-path="url(#clip270)" d="M1183.74 1263.19 Q1180.13 1263.19 1178.3 1266.76 Q1176.49 1270.3 1176.49 1277.43 Q1176.49 1284.54 1178.3 1288.1 Q1180.13 1291.64 1183.74 1291.64 Q1187.37 1291.64 1189.18 1288.1 Q1191.01 1284.54 1191.01 1277.43 Q1191.01 1270.3 1189.18 1266.76 Q1187.37 1263.19 1183.74 1263.19 M1183.74 1259.49 Q1189.55 1259.49 1192.6 1264.1 Q1195.68 1268.68 1195.68 1277.43 Q1195.68 1286.16 1192.6 1290.76 Q1189.55 1295.35 1183.74 1295.35 Q1177.93 1295.35 1174.85 1290.76 Q1171.79 1286.16 1171.79 1277.43 Q1171.79 1268.68 1174.85 1264.1 Q1177.93 1259.49 1183.74 1259.49 Z" fill="#000000" fill-rule="nonzero" fill-opacity="1" /><path clip-path="url(#clip270)" d="M1203.9 1288.8 L1208.79 1288.8 L1208.79 1294.67 L1203.9 1294.67 L1203.9 1288.8 Z" fill="#000000" fill-rule="nonzero" fill-opacity="1" /><path clip-path="url(#clip270)" d="M1219.02 1260.11 L1237.37 1260.11 L1237.37 1264.05 L1223.3 1264.05 L1223.3 1272.52 Q1224.32 1272.17 1225.34 1272.01 Q1226.35 1271.83 1227.37 1271.83 Q1233.16 1271.83 1236.54 1275 Q1239.92 1278.17 1239.92 1283.59 Q1239.92 1289.17 1236.45 1292.27 Q1232.97 1295.35 1226.66 1295.35 Q1224.48 1295.35 1222.21 1294.98 Q1219.97 1294.61 1217.56 1293.86 L1217.56 1289.17 Q1219.64 1290.3 1221.86 1290.86 Q1224.09 1291.41 1226.56 1291.41 Q1230.57 1291.41 1232.91 1289.3 Q1235.24 1287.2 1235.24 1283.59 Q1235.24 1279.98 1232.91 1277.87 Q1230.57 1275.76 1226.56 1275.76 Q1224.69 1275.76 1222.81 1276.18 Q1220.96 1276.6 1219.02 1277.48 L1219.02 1260.11 Z" fill="#000000" fill-rule="nonzero" fill-opacity="1" /><path clip-path="url(#clip270)" d="M1601.45 1263.19 Q1597.83 1263.19 1596.01 1266.76 Q1594.2 1270.3 1594.2 1277.43 Q1594.2 1284.54 1596.01 1288.1 Q1597.83 1291.64 1601.45 1291.64 Q1605.08 1291.64 1606.89 1288.1 Q1608.71 1284.54 1608.71 1277.43 Q1608.71 1270.3 1606.89 1266.76 Q1605.08 1263.19 1601.45 1263.19 M1601.45 1259.49 Q1607.26 1259.49 1610.31 1264.1 Q1613.39 1268.68 1613.39 1277.43 Q1613.39 1286.16 1610.31 1290.76 Q1607.26 1295.35 1601.45 1295.35 Q1595.64 1295.35 1592.56 1290.76 Q1589.5 1286.16 1589.5 1277.43 Q1589.5 1268.68 1592.56 1264.1 Q1595.64 1259.49 1601.45 1259.49 Z" fill="#000000" fill-rule="nonzero" fill-opacity="1" /><path clip-path="url(#clip270)" d="M1621.61 1288.8 L1626.49 1288.8 L1626.49 1294.67 L1621.61 1294.67 L1621.61 1288.8 Z" fill="#000000" fill-rule="nonzero" fill-opacity="1" /><path clip-path="url(#clip270)" d="M1647.26 1275.53 Q1644.11 1275.53 1642.26 1277.68 Q1640.43 1279.84 1640.43 1283.59 Q1640.43 1287.31 1642.26 1289.49 Q1644.11 1291.64 1647.26 1291.64 Q1650.4 1291.64 1652.23 1289.49 Q1654.08 1287.31 1654.08 1283.59 Q1654.08 1279.84 1652.23 1277.68 Q1650.4 1275.53 1647.26 1275.53 M1656.54 1260.88 L1656.54 1265.14 Q1654.78 1264.3 1652.97 1263.86 Q1651.19 1263.42 1649.43 1263.42 Q1644.8 1263.42 1642.35 1266.55 Q1639.92 1269.67 1639.57 1275.99 Q1640.94 1273.98 1643 1272.92 Q1645.06 1271.83 1647.53 1271.83 Q1652.74 1271.83 1655.75 1275 Q1658.78 1278.15 1658.78 1283.59 Q1658.78 1288.91 1655.64 1292.13 Q1652.49 1295.35 1647.26 1295.35 Q1641.26 1295.35 1638.09 1290.76 Q1634.92 1286.16 1634.92 1277.43 Q1634.92 1269.24 1638.81 1264.37 Q1642.7 1259.49 1649.25 1259.49 Q1651.01 1259.49 1652.79 1259.84 Q1654.59 1260.18 1656.54 1260.88 Z" fill="#000000" fill-rule="nonzero" fill-opacity="1" /><path clip-path="url(#clip270)" d="M2020.26 1263.19 Q2016.65 1263.19 2014.82 1266.76 Q2013.02 1270.3 2013.02 1277.43 Q2013.02 1284.54 2014.82 1288.1 Q2016.65 1291.64 2020.26 1291.64 Q2023.9 1291.64 2025.7 1288.1 Q2027.53 1284.54 2027.53 1277.43 Q2027.53 1270.3 2025.7 1266.76 Q2023.9 1263.19 2020.26 1263.19 M2020.26 1259.49 Q2026.07 1259.49 2029.13 1264.1 Q2032.21 1268.68 2032.21 1277.43 Q2032.21 1286.16 2029.13 1290.76 Q2026.07 1295.35 2020.26 1295.35 Q2014.45 1295.35 2011.37 1290.76 Q2008.32 1286.16 2008.32 1277.43 Q2008.32 1268.68 2011.37 1264.1 Q2014.45 1259.49 2020.26 1259.49 Z" fill="#000000" fill-rule="nonzero" fill-opacity="1" /><path clip-path="url(#clip270)" d="M2040.43 1288.8 L2045.31 1288.8 L2045.31 1294.67 L2040.43 1294.67 L2040.43 1288.8 Z" fill="#000000" fill-rule="nonzero" fill-opacity="1" /><path clip-path="url(#clip270)" d="M2054.31 1260.11 L2076.54 1260.11 L2076.54 1262.11 L2063.99 1294.67 L2059.11 1294.67 L2070.91 1264.05 L2054.31 1264.05 L2054.31 1260.11 Z" fill="#000000" fill-rule="nonzero" fill-opacity="1" /><polyline clip-path="url(#clip272)" style="stroke:#000000; stroke-linecap:round; stroke-linejoin:round; stroke-width:2; stroke-opacity:0.1; fill:none" points="137.816,1234.58 2064.76,1234.58 "/>
<polyline clip-path="url(#clip272)" style="stroke:#000000; stroke-linecap:round; stroke-linejoin:round; stroke-width:2; stroke-opacity:0.1; fill:none" points="137.816,976.463 2064.76,976.463 "/>
<polyline clip-path="url(#clip272)" style="stroke:#000000; stroke-linecap:round; stroke-linejoin:round; stroke-width:2; stroke-opacity:0.1; fill:none" points="137.816,718.346 2064.76,718.346 "/>
<polyline clip-path="url(#clip272)" style="stroke:#000000; stroke-linecap:round; stroke-linejoin:round; stroke-width:2; stroke-opacity:0.1; fill:none" points="137.816,460.23 2064.76,460.23 "/>
<polyline clip-path="url(#clip272)" style="stroke:#000000; stroke-linecap:round; stroke-linejoin:round; stroke-width:2; stroke-opacity:0.1; fill:none" points="137.816,202.114 2064.76,202.114 "/>
<polyline clip-path="url(#clip270)" style="stroke:#000000; stroke-linecap:round; stroke-linejoin:round; stroke-width:4; stroke-opacity:1; fill:none" points="137.816,1234.58 137.816,47.2441 "/>
<polyline clip-path="url(#clip270)" style="stroke:#000000; stroke-linecap:round; stroke-linejoin:round; stroke-width:4; stroke-opacity:1; fill:none" points="137.816,1234.58 156.713,1234.58 "/>
<polyline clip-path="url(#clip270)" style="stroke:#000000; stroke-linecap:round; stroke-linejoin:round; stroke-width:4; stroke-opacity:1; fill:none" points="137.816,976.463 156.713,976.463 "/>
<polyline clip-path="url(#clip270)" style="stroke:#000000; stroke-linecap:round; stroke-linejoin:round; stroke-width:4; stroke-opacity:1; fill:none" points="137.816,718.346 156.713,718.346 "/>
<polyline clip-path="url(#clip270)" style="stroke:#000000; stroke-linecap:round; stroke-linejoin:round; stroke-width:4; stroke-opacity:1; fill:none" points="137.816,460.23 156.713,460.23 "/>
<polyline clip-path="url(#clip270)" style="stroke:#000000; stroke-linecap:round; stroke-linejoin:round; stroke-width:4; stroke-opacity:1; fill:none" points="137.816,202.114 156.713,202.114 "/>
<path clip-path="url(#clip270)" d="M94.1912 1220.38 Q90.5801 1220.38 88.7514 1223.94 Q86.9458 1227.48 86.9458 1234.61 Q86.9458 1241.72 88.7514 1245.28 Q90.5801 1248.83 94.1912 1248.83 Q97.8254 1248.83 99.6309 1245.28 Q101.46 1241.72 101.46 1234.61 Q101.46 1227.48 99.6309 1223.94 Q97.8254 1220.38 94.1912 1220.38 M94.1912 1216.67 Q100.001 1216.67 103.057 1221.28 Q106.136 1225.86 106.136 1234.61 Q106.136 1243.34 103.057 1247.95 Q100.001 1252.53 94.1912 1252.53 Q88.381 1252.53 85.3023 1247.95 Q82.2468 1243.34 82.2468 1234.61 Q82.2468 1225.86 85.3023 1221.28 Q88.381 1216.67 94.1912 1216.67 Z" fill="#000000" fill-rule="nonzero" fill-opacity="1" /><path clip-path="url(#clip270)" d="M85.2329 959.183 L103.589 959.183 L103.589 963.118 L89.5153 963.118 L89.5153 971.59 Q90.5338 971.243 91.5523 971.081 Q92.5708 970.895 93.5893 970.895 Q99.3763 970.895 102.756 974.067 Q106.136 977.238 106.136 982.655 Q106.136 988.233 102.663 991.335 Q99.1911 994.414 92.8717 994.414 Q90.6958 994.414 88.4273 994.043 Q86.1819 993.673 83.7746 992.932 L83.7746 988.233 Q85.8579 989.368 88.0801 989.923 Q90.3023 990.479 92.7791 990.479 Q96.7837 990.479 99.1217 988.372 Q101.46 986.266 101.46 982.655 Q101.46 979.044 99.1217 976.937 Q96.7837 974.831 92.7791 974.831 Q90.9041 974.831 89.0292 975.247 Q87.1773 975.664 85.2329 976.544 L85.2329 959.183 Z" fill="#000000" fill-rule="nonzero" fill-opacity="1" /><path clip-path="url(#clip270)" d="M54.8395 731.691 L62.4784 731.691 L62.4784 705.326 L54.1682 706.992 L54.1682 702.733 L62.4321 701.066 L67.108 701.066 L67.108 731.691 L74.7468 731.691 L74.7468 735.626 L54.8395 735.626 L54.8395 731.691 Z" fill="#000000" fill-rule="nonzero" fill-opacity="1" /><path clip-path="url(#clip270)" d="M94.1912 704.145 Q90.5801 704.145 88.7514 707.71 Q86.9458 711.251 86.9458 718.381 Q86.9458 725.487 88.7514 729.052 Q90.5801 732.594 94.1912 732.594 Q97.8254 732.594 99.6309 729.052 Q101.46 725.487 101.46 718.381 Q101.46 711.251 99.6309 707.71 Q97.8254 704.145 94.1912 704.145 M94.1912 700.441 Q100.001 700.441 103.057 705.048 Q106.136 709.631 106.136 718.381 Q106.136 727.108 103.057 731.714 Q100.001 736.298 94.1912 736.298 Q88.381 736.298 85.3023 731.714 Q82.2468 727.108 82.2468 718.381 Q82.2468 709.631 85.3023 705.048 Q88.381 700.441 94.1912 700.441 Z" fill="#000000" fill-rule="nonzero" fill-opacity="1" /><path clip-path="url(#clip270)" d="M55.8349 473.575 L63.4737 473.575 L63.4737 447.209 L55.1636 448.876 L55.1636 444.617 L63.4274 442.95 L68.1033 442.95 L68.1033 473.575 L75.7422 473.575 L75.7422 477.51 L55.8349 477.51 L55.8349 473.575 Z" fill="#000000" fill-rule="nonzero" fill-opacity="1" /><path clip-path="url(#clip270)" d="M85.2329 442.95 L103.589 442.95 L103.589 446.885 L89.5153 446.885 L89.5153 455.357 Q90.5338 455.01 91.5523 454.848 Q92.5708 454.663 93.5893 454.663 Q99.3763 454.663 102.756 457.834 Q106.136 461.006 106.136 466.422 Q106.136 472.001 102.663 475.103 Q99.1911 478.181 92.8717 478.181 Q90.6958 478.181 88.4273 477.811 Q86.1819 477.441 83.7746 476.7 L83.7746 472.001 Q85.8579 473.135 88.0801 473.691 Q90.3023 474.246 92.7791 474.246 Q96.7837 474.246 99.1217 472.14 Q101.46 470.033 101.46 466.422 Q101.46 462.811 99.1217 460.705 Q96.7837 458.598 92.7791 458.598 Q90.9041 458.598 89.0292 459.015 Q87.1773 459.431 85.2329 460.311 L85.2329 442.95 Z" fill="#000000" fill-rule="nonzero" fill-opacity="1" /><path clip-path="url(#clip270)" d="M58.0571 215.459 L74.3765 215.459 L74.3765 219.394 L52.4321 219.394 L52.4321 215.459 Q55.0941 212.704 59.6775 208.074 Q64.2839 203.422 65.4645 202.079 Q67.7098 199.556 68.5894 197.82 Q69.4922 196.061 69.4922 194.371 Q69.4922 191.616 67.5478 189.88 Q65.6265 188.144 62.5247 188.144 Q60.3256 188.144 57.8719 188.908 Q55.4414 189.672 52.6636 191.223 L52.6636 186.5 Q55.4877 185.366 57.9414 184.788 Q60.395 184.209 62.4321 184.209 Q67.8024 184.209 70.9968 186.894 Q74.1913 189.579 74.1913 194.07 Q74.1913 196.2 73.3811 198.121 Q72.5941 200.019 70.4876 202.612 Q69.9089 203.283 66.807 206.5 Q63.7052 209.695 58.0571 215.459 Z" fill="#000000" fill-rule="nonzero" fill-opacity="1" /><path clip-path="url(#clip270)" d="M94.1912 187.913 Q90.5801 187.913 88.7514 191.477 Q86.9458 195.019 86.9458 202.149 Q86.9458 209.255 88.7514 212.82 Q90.5801 216.361 94.1912 216.361 Q97.8254 216.361 99.6309 212.82 Q101.46 209.255 101.46 202.149 Q101.46 195.019 99.6309 191.477 Q97.8254 187.913 94.1912 187.913 M94.1912 184.209 Q100.001 184.209 103.057 188.815 Q106.136 193.399 106.136 202.149 Q106.136 210.875 103.057 215.482 Q100.001 220.065 94.1912 220.065 Q88.381 220.065 85.3023 215.482 Q82.2468 210.875 82.2468 202.149 Q82.2468 193.399 85.3023 188.815 Q88.381 184.209 94.1912 184.209 Z" fill="#000000" fill-rule="nonzero" fill-opacity="1" /><path clip-path="url(#clip272)" d="M243.801 769.97 L243.801 1234.58 L285.629 1234.58 L285.629 769.97 L243.801 769.97 L243.801 769.97  Z" fill="#009af9" fill-rule="evenodd" fill-opacity="1"/>
<polyline clip-path="url(#clip272)" style="stroke:#000000; stroke-linecap:round; stroke-linejoin:round; stroke-width:4; stroke-opacity:1; fill:none" points="243.801,769.97 243.801,1234.58 285.629,1234.58 285.629,769.97 243.801,769.97 "/>
<path clip-path="url(#clip272)" d="M285.629 202.114 L285.629 1234.58 L327.458 1234.58 L327.458 202.114 L285.629 202.114 L285.629 202.114  Z" fill="#009af9" fill-rule="evenodd" fill-opacity="1"/>
<polyline clip-path="url(#clip272)" style="stroke:#000000; stroke-linecap:round; stroke-linejoin:round; stroke-width:4; stroke-opacity:1; fill:none" points="285.629,202.114 285.629,1234.58 327.458,1234.58 327.458,202.114 285.629,202.114 "/>
<path clip-path="url(#clip272)" d="M327.458 47.2441 L327.458 1234.58 L369.286 1234.58 L369.286 47.2441 L327.458 47.2441 L327.458 47.2441  Z" fill="#009af9" fill-rule="evenodd" fill-opacity="1"/>
<polyline clip-path="url(#clip272)" style="stroke:#000000; stroke-linecap:round; stroke-linejoin:round; stroke-width:4; stroke-opacity:1; fill:none" points="327.458,47.2441 327.458,1234.58 369.286,1234.58 369.286,47.2441 327.458,47.2441 "/>
<path clip-path="url(#clip272)" d="M369.286 615.1 L369.286 1234.58 L411.115 1234.58 L411.115 615.1 L369.286 615.1 L369.286 615.1  Z" fill="#009af9" fill-rule="evenodd" fill-opacity="1"/>
<polyline clip-path="url(#clip272)" style="stroke:#000000; stroke-linecap:round; stroke-linejoin:round; stroke-width:4; stroke-opacity:1; fill:none" points="369.286,615.1 369.286,1234.58 411.115,1234.58 411.115,615.1 369.286,615.1 "/>
<path clip-path="url(#clip272)" d="M411.115 821.593 L411.115 1234.58 L452.943 1234.58 L452.943 821.593 L411.115 821.593 L411.115 821.593  Z" fill="#009af9" fill-rule="evenodd" fill-opacity="1"/>
<polyline clip-path="url(#clip272)" style="stroke:#000000; stroke-linecap:round; stroke-linejoin:round; stroke-width:4; stroke-opacity:1; fill:none" points="411.115,821.593 411.115,1234.58 452.943,1234.58 452.943,821.593 411.115,821.593 "/>
<path clip-path="url(#clip272)" d="M452.943 769.97 L452.943 1234.58 L494.772 1234.58 L494.772 769.97 L452.943 769.97 L452.943 769.97  Z" fill="#009af9" fill-rule="evenodd" fill-opacity="1"/>
<polyline clip-path="url(#clip272)" style="stroke:#000000; stroke-linecap:round; stroke-linejoin:round; stroke-width:4; stroke-opacity:1; fill:none" points="452.943,769.97 452.943,1234.58 494.772,1234.58 494.772,769.97 452.943,769.97 "/>
<path clip-path="url(#clip272)" d="M494.772 1028.09 L494.772 1234.58 L536.6 1234.58 L536.6 1028.09 L494.772 1028.09 L494.772 1028.09  Z" fill="#009af9" fill-rule="evenodd" fill-opacity="1"/>
<polyline clip-path="url(#clip272)" style="stroke:#000000; stroke-linecap:round; stroke-linejoin:round; stroke-width:4; stroke-opacity:1; fill:none" points="494.772,1028.09 494.772,1234.58 536.6,1234.58 536.6,1028.09 494.772,1028.09 "/>
<path clip-path="url(#clip272)" d="M536.6 769.97 L536.6 1234.58 L578.429 1234.58 L578.429 769.97 L536.6 769.97 L536.6 769.97  Z" fill="#009af9" fill-rule="evenodd" fill-opacity="1"/>
<polyline clip-path="url(#clip272)" style="stroke:#000000; stroke-linecap:round; stroke-linejoin:round; stroke-width:4; stroke-opacity:1; fill:none" points="536.6,769.97 536.6,1234.58 578.429,1234.58 578.429,769.97 536.6,769.97 "/>
<path clip-path="url(#clip272)" d="M578.429 769.97 L578.429 1234.58 L620.258 1234.58 L620.258 769.97 L578.429 769.97 L578.429 769.97  Z" fill="#009af9" fill-rule="evenodd" fill-opacity="1"/>
<polyline clip-path="url(#clip272)" style="stroke:#000000; stroke-linecap:round; stroke-linejoin:round; stroke-width:4; stroke-opacity:1; fill:none" points="578.429,769.97 578.429,1234.58 620.258,1234.58 620.258,769.97 578.429,769.97 "/>
<path clip-path="url(#clip272)" d="M620.258 873.216 L620.258 1234.58 L662.086 1234.58 L662.086 873.216 L620.258 873.216 L620.258 873.216  Z" fill="#009af9" fill-rule="evenodd" fill-opacity="1"/>
<polyline clip-path="url(#clip272)" style="stroke:#000000; stroke-linecap:round; stroke-linejoin:round; stroke-width:4; stroke-opacity:1; fill:none" points="620.258,873.216 620.258,1234.58 662.086,1234.58 662.086,873.216 620.258,873.216 "/>
<path clip-path="url(#clip272)" d="M662.086 1079.71 L662.086 1234.58 L703.915 1234.58 L703.915 1079.71 L662.086 1079.71 L662.086 1079.71  Z" fill="#009af9" fill-rule="evenodd" fill-opacity="1"/>
<polyline clip-path="url(#clip272)" style="stroke:#000000; stroke-linecap:round; stroke-linejoin:round; stroke-width:4; stroke-opacity:1; fill:none" points="662.086,1079.71 662.086,1234.58 703.915,1234.58 703.915,1079.71 662.086,1079.71 "/>
<path clip-path="url(#clip272)" d="M703.915 1028.09 L703.915 1234.58 L745.743 1234.58 L745.743 1028.09 L703.915 1028.09 L703.915 1028.09  Z" fill="#009af9" fill-rule="evenodd" fill-opacity="1"/>
<polyline clip-path="url(#clip272)" style="stroke:#000000; stroke-linecap:round; stroke-linejoin:round; stroke-width:4; stroke-opacity:1; fill:none" points="703.915,1028.09 703.915,1234.58 745.743,1234.58 745.743,1028.09 703.915,1028.09 "/>
<path clip-path="url(#clip272)" d="M745.743 976.463 L745.743 1234.58 L787.572 1234.58 L787.572 976.463 L745.743 976.463 L745.743 976.463  Z" fill="#009af9" fill-rule="evenodd" fill-opacity="1"/>
<polyline clip-path="url(#clip272)" style="stroke:#000000; stroke-linecap:round; stroke-linejoin:round; stroke-width:4; stroke-opacity:1; fill:none" points="745.743,976.463 745.743,1234.58 787.572,1234.58 787.572,976.463 745.743,976.463 "/>
<path clip-path="url(#clip272)" d="M787.572 718.346 L787.572 1234.58 L829.4 1234.58 L829.4 718.346 L787.572 718.346 L787.572 718.346  Z" fill="#009af9" fill-rule="evenodd" fill-opacity="1"/>
<polyline clip-path="url(#clip272)" style="stroke:#000000; stroke-linecap:round; stroke-linejoin:round; stroke-width:4; stroke-opacity:1; fill:none" points="787.572,718.346 787.572,1234.58 829.4,1234.58 829.4,718.346 787.572,718.346 "/>
<path clip-path="url(#clip272)" d="M829.4 821.593 L829.4 1234.58 L871.229 1234.58 L871.229 821.593 L829.4 821.593 L829.4 821.593  Z" fill="#009af9" fill-rule="evenodd" fill-opacity="1"/>
<polyline clip-path="url(#clip272)" style="stroke:#000000; stroke-linecap:round; stroke-linejoin:round; stroke-width:4; stroke-opacity:1; fill:none" points="829.4,821.593 829.4,1234.58 871.229,1234.58 871.229,821.593 829.4,821.593 "/>
<path clip-path="url(#clip272)" d="M871.229 1079.71 L871.229 1234.58 L913.057 1234.58 L913.057 1079.71 L871.229 1079.71 L871.229 1079.71  Z" fill="#009af9" fill-rule="evenodd" fill-opacity="1"/>
<polyline clip-path="url(#clip272)" style="stroke:#000000; stroke-linecap:round; stroke-linejoin:round; stroke-width:4; stroke-opacity:1; fill:none" points="871.229,1079.71 871.229,1234.58 913.057,1234.58 913.057,1079.71 871.229,1079.71 "/>
<path clip-path="url(#clip272)" d="M913.057 1079.71 L913.057 1234.58 L954.886 1234.58 L954.886 1079.71 L913.057 1079.71 L913.057 1079.71  Z" fill="#009af9" fill-rule="evenodd" fill-opacity="1"/>
<polyline clip-path="url(#clip272)" style="stroke:#000000; stroke-linecap:round; stroke-linejoin:round; stroke-width:4; stroke-opacity:1; fill:none" points="913.057,1079.71 913.057,1234.58 954.886,1234.58 954.886,1079.71 913.057,1079.71 "/>
<path clip-path="url(#clip272)" d="M954.886 1182.96 L954.886 1234.58 L996.714 1234.58 L996.714 1182.96 L954.886 1182.96 L954.886 1182.96  Z" fill="#009af9" fill-rule="evenodd" fill-opacity="1"/>
<polyline clip-path="url(#clip272)" style="stroke:#000000; stroke-linecap:round; stroke-linejoin:round; stroke-width:4; stroke-opacity:1; fill:none" points="954.886,1182.96 954.886,1234.58 996.714,1234.58 996.714,1182.96 954.886,1182.96 "/>
<path clip-path="url(#clip272)" d="M996.714 1079.71 L996.714 1234.58 L1038.54 1234.58 L1038.54 1079.71 L996.714 1079.71 L996.714 1079.71  Z" fill="#009af9" fill-rule="evenodd" fill-opacity="1"/>
<polyline clip-path="url(#clip272)" style="stroke:#000000; stroke-linecap:round; stroke-linejoin:round; stroke-width:4; stroke-opacity:1; fill:none" points="996.714,1079.71 996.714,1234.58 1038.54,1234.58 1038.54,1079.71 996.714,1079.71 "/>
<path clip-path="url(#clip272)" d="M1038.54 1079.71 L1038.54 1234.58 L1080.37 1234.58 L1080.37 1079.71 L1038.54 1079.71 L1038.54 1079.71  Z" fill="#009af9" fill-rule="evenodd" fill-opacity="1"/>
<polyline clip-path="url(#clip272)" style="stroke:#000000; stroke-linecap:round; stroke-linejoin:round; stroke-width:4; stroke-opacity:1; fill:none" points="1038.54,1079.71 1038.54,1234.58 1080.37,1234.58 1080.37,1079.71 1038.54,1079.71 "/>
<path clip-path="url(#clip272)" d="M1080.37 976.463 L1080.37 1234.58 L1122.2 1234.58 L1122.2 976.463 L1080.37 976.463 L1080.37 976.463  Z" fill="#009af9" fill-rule="evenodd" fill-opacity="1"/>
<polyline clip-path="url(#clip272)" style="stroke:#000000; stroke-linecap:round; stroke-linejoin:round; stroke-width:4; stroke-opacity:1; fill:none" points="1080.37,976.463 1080.37,1234.58 1122.2,1234.58 1122.2,976.463 1080.37,976.463 "/>
<path clip-path="url(#clip272)" d="M1122.2 1131.33 L1122.2 1234.58 L1164.03 1234.58 L1164.03 1131.33 L1122.2 1131.33 L1122.2 1131.33  Z" fill="#009af9" fill-rule="evenodd" fill-opacity="1"/>
<polyline clip-path="url(#clip272)" style="stroke:#000000; stroke-linecap:round; stroke-linejoin:round; stroke-width:4; stroke-opacity:1; fill:none" points="1122.2,1131.33 1122.2,1234.58 1164.03,1234.58 1164.03,1131.33 1122.2,1131.33 "/>
<path clip-path="url(#clip272)" d="M1164.03 1079.71 L1164.03 1234.58 L1205.86 1234.58 L1205.86 1079.71 L1164.03 1079.71 L1164.03 1079.71  Z" fill="#009af9" fill-rule="evenodd" fill-opacity="1"/>
<polyline clip-path="url(#clip272)" style="stroke:#000000; stroke-linecap:round; stroke-linejoin:round; stroke-width:4; stroke-opacity:1; fill:none" points="1164.03,1079.71 1164.03,1234.58 1205.86,1234.58 1205.86,1079.71 1164.03,1079.71 "/>
<path clip-path="url(#clip272)" d="M1205.86 1182.96 L1205.86 1234.58 L1247.69 1234.58 L1247.69 1182.96 L1205.86 1182.96 L1205.86 1182.96  Z" fill="#009af9" fill-rule="evenodd" fill-opacity="1"/>
<polyline clip-path="url(#clip272)" style="stroke:#000000; stroke-linecap:round; stroke-linejoin:round; stroke-width:4; stroke-opacity:1; fill:none" points="1205.86,1182.96 1205.86,1234.58 1247.69,1234.58 1247.69,1182.96 1205.86,1182.96 "/>
<path clip-path="url(#clip272)" d="M1247.69 1234.58 L1247.69 1234.58 L1289.51 1234.58 L1289.51 1234.58 L1247.69 1234.58 L1247.69 1234.58  Z" fill="#009af9" fill-rule="evenodd" fill-opacity="1"/>
<polyline clip-path="url(#clip272)" style="stroke:#000000; stroke-linecap:round; stroke-linejoin:round; stroke-width:4; stroke-opacity:1; fill:none" points="1247.69,1234.58 1247.69,1234.58 1289.51,1234.58 1247.69,1234.58 "/>
<path clip-path="url(#clip272)" d="M1289.51 1234.58 L1289.51 1234.58 L1331.34 1234.58 L1331.34 1234.58 L1289.51 1234.58 L1289.51 1234.58  Z" fill="#009af9" fill-rule="evenodd" fill-opacity="1"/>
<polyline clip-path="url(#clip272)" style="stroke:#000000; stroke-linecap:round; stroke-linejoin:round; stroke-width:4; stroke-opacity:1; fill:none" points="1289.51,1234.58 1289.51,1234.58 1331.34,1234.58 1289.51,1234.58 "/>
<path clip-path="url(#clip272)" d="M1331.34 1234.58 L1331.34 1234.58 L1373.17 1234.58 L1373.17 1234.58 L1331.34 1234.58 L1331.34 1234.58  Z" fill="#009af9" fill-rule="evenodd" fill-opacity="1"/>
<polyline clip-path="url(#clip272)" style="stroke:#000000; stroke-linecap:round; stroke-linejoin:round; stroke-width:4; stroke-opacity:1; fill:none" points="1331.34,1234.58 1331.34,1234.58 1373.17,1234.58 1331.34,1234.58 "/>
<path clip-path="url(#clip272)" d="M1373.17 1234.58 L1373.17 1234.58 L1415 1234.58 L1415 1234.58 L1373.17 1234.58 L1373.17 1234.58  Z" fill="#009af9" fill-rule="evenodd" fill-opacity="1"/>
<polyline clip-path="url(#clip272)" style="stroke:#000000; stroke-linecap:round; stroke-linejoin:round; stroke-width:4; stroke-opacity:1; fill:none" points="1373.17,1234.58 1373.17,1234.58 1415,1234.58 1373.17,1234.58 "/>
<path clip-path="url(#clip272)" d="M1415 1234.58 L1415 1234.58 L1456.83 1234.58 L1456.83 1234.58 L1415 1234.58 L1415 1234.58  Z" fill="#009af9" fill-rule="evenodd" fill-opacity="1"/>
<polyline clip-path="url(#clip272)" style="stroke:#000000; stroke-linecap:round; stroke-linejoin:round; stroke-width:4; stroke-opacity:1; fill:none" points="1415,1234.58 1415,1234.58 1456.83,1234.58 1415,1234.58 "/>
<path clip-path="url(#clip272)" d="M1456.83 1182.96 L1456.83 1234.58 L1498.66 1234.58 L1498.66 1182.96 L1456.83 1182.96 L1456.83 1182.96  Z" fill="#009af9" fill-rule="evenodd" fill-opacity="1"/>
<polyline clip-path="url(#clip272)" style="stroke:#000000; stroke-linecap:round; stroke-linejoin:round; stroke-width:4; stroke-opacity:1; fill:none" points="1456.83,1182.96 1456.83,1234.58 1498.66,1234.58 1498.66,1182.96 1456.83,1182.96 "/>
<path clip-path="url(#clip272)" d="M1498.66 1234.58 L1498.66 1234.58 L1540.49 1234.58 L1540.49 1234.58 L1498.66 1234.58 L1498.66 1234.58  Z" fill="#009af9" fill-rule="evenodd" fill-opacity="1"/>
<polyline clip-path="url(#clip272)" style="stroke:#000000; stroke-linecap:round; stroke-linejoin:round; stroke-width:4; stroke-opacity:1; fill:none" points="1498.66,1234.58 1498.66,1234.58 1540.49,1234.58 1498.66,1234.58 "/>
<path clip-path="url(#clip272)" d="M1540.49 1182.96 L1540.49 1234.58 L1582.31 1234.58 L1582.31 1182.96 L1540.49 1182.96 L1540.49 1182.96  Z" fill="#009af9" fill-rule="evenodd" fill-opacity="1"/>
<polyline clip-path="url(#clip272)" style="stroke:#000000; stroke-linecap:round; stroke-linejoin:round; stroke-width:4; stroke-opacity:1; fill:none" points="1540.49,1182.96 1540.49,1234.58 1582.31,1234.58 1582.31,1182.96 1540.49,1182.96 "/>
<path clip-path="url(#clip272)" d="M1582.31 1234.58 L1582.31 1234.58 L1624.14 1234.58 L1624.14 1234.58 L1582.31 1234.58 L1582.31 1234.58  Z" fill="#009af9" fill-rule="evenodd" fill-opacity="1"/>
<polyline clip-path="url(#clip272)" style="stroke:#000000; stroke-linecap:round; stroke-linejoin:round; stroke-width:4; stroke-opacity:1; fill:none" points="1582.31,1234.58 1582.31,1234.58 1624.14,1234.58 1582.31,1234.58 "/>
<path clip-path="url(#clip272)" d="M1624.14 1234.58 L1624.14 1234.58 L1665.97 1234.58 L1665.97 1234.58 L1624.14 1234.58 L1624.14 1234.58  Z" fill="#009af9" fill-rule="evenodd" fill-opacity="1"/>
<polyline clip-path="url(#clip272)" style="stroke:#000000; stroke-linecap:round; stroke-linejoin:round; stroke-width:4; stroke-opacity:1; fill:none" points="1624.14,1234.58 1624.14,1234.58 1665.97,1234.58 1624.14,1234.58 "/>
<path clip-path="url(#clip272)" d="M1665.97 1234.58 L1665.97 1234.58 L1707.8 1234.58 L1707.8 1234.58 L1665.97 1234.58 L1665.97 1234.58  Z" fill="#009af9" fill-rule="evenodd" fill-opacity="1"/>
<polyline clip-path="url(#clip272)" style="stroke:#000000; stroke-linecap:round; stroke-linejoin:round; stroke-width:4; stroke-opacity:1; fill:none" points="1665.97,1234.58 1665.97,1234.58 1707.8,1234.58 1665.97,1234.58 "/>
<path clip-path="url(#clip272)" d="M1707.8 1182.96 L1707.8 1234.58 L1749.63 1234.58 L1749.63 1182.96 L1707.8 1182.96 L1707.8 1182.96  Z" fill="#009af9" fill-rule="evenodd" fill-opacity="1"/>
<polyline clip-path="url(#clip272)" style="stroke:#000000; stroke-linecap:round; stroke-linejoin:round; stroke-width:4; stroke-opacity:1; fill:none" points="1707.8,1182.96 1707.8,1234.58 1749.63,1234.58 1749.63,1182.96 1707.8,1182.96 "/>
<path clip-path="url(#clip272)" d="M1749.63 1234.58 L1749.63 1234.58 L1791.46 1234.58 L1791.46 1234.58 L1749.63 1234.58 L1749.63 1234.58  Z" fill="#009af9" fill-rule="evenodd" fill-opacity="1"/>
<polyline clip-path="url(#clip272)" style="stroke:#000000; stroke-linecap:round; stroke-linejoin:round; stroke-width:4; stroke-opacity:1; fill:none" points="1749.63,1234.58 1749.63,1234.58 1791.46,1234.58 1749.63,1234.58 "/>
<path clip-path="url(#clip272)" d="M1791.46 1234.58 L1791.46 1234.58 L1833.29 1234.58 L1833.29 1234.58 L1791.46 1234.58 L1791.46 1234.58  Z" fill="#009af9" fill-rule="evenodd" fill-opacity="1"/>
<polyline clip-path="url(#clip272)" style="stroke:#000000; stroke-linecap:round; stroke-linejoin:round; stroke-width:4; stroke-opacity:1; fill:none" points="1791.46,1234.58 1791.46,1234.58 1833.29,1234.58 1791.46,1234.58 "/>
<path clip-path="url(#clip272)" d="M1833.29 1182.96 L1833.29 1234.58 L1875.11 1234.58 L1875.11 1182.96 L1833.29 1182.96 L1833.29 1182.96  Z" fill="#009af9" fill-rule="evenodd" fill-opacity="1"/>
<polyline clip-path="url(#clip272)" style="stroke:#000000; stroke-linecap:round; stroke-linejoin:round; stroke-width:4; stroke-opacity:1; fill:none" points="1833.29,1182.96 1833.29,1234.58 1875.11,1234.58 1875.11,1182.96 1833.29,1182.96 "/>
<path clip-path="url(#clip272)" d="M1875.11 1234.58 L1875.11 1234.58 L1916.94 1234.58 L1916.94 1234.58 L1875.11 1234.58 L1875.11 1234.58  Z" fill="#009af9" fill-rule="evenodd" fill-opacity="1"/>
<polyline clip-path="url(#clip272)" style="stroke:#000000; stroke-linecap:round; stroke-linejoin:round; stroke-width:4; stroke-opacity:1; fill:none" points="1875.11,1234.58 1875.11,1234.58 1916.94,1234.58 1875.11,1234.58 "/>
<path clip-path="url(#clip272)" d="M1916.94 1182.96 L1916.94 1234.58 L1958.77 1234.58 L1958.77 1182.96 L1916.94 1182.96 L1916.94 1182.96  Z" fill="#009af9" fill-rule="evenodd" fill-opacity="1"/>
<polyline clip-path="url(#clip272)" style="stroke:#000000; stroke-linecap:round; stroke-linejoin:round; stroke-width:4; stroke-opacity:1; fill:none" points="1916.94,1182.96 1916.94,1234.58 1958.77,1234.58 1958.77,1182.96 1916.94,1182.96 "/>
<circle clip-path="url(#clip272)" style="fill:#009af9; stroke:none; fill-opacity:0" cx="264.715" cy="769.97" r="2"/>
<circle clip-path="url(#clip272)" style="fill:#009af9; stroke:none; fill-opacity:0" cx="306.543" cy="202.114" r="2"/>
<circle clip-path="url(#clip272)" style="fill:#009af9; stroke:none; fill-opacity:0" cx="348.372" cy="47.2441" r="2"/>
<circle clip-path="url(#clip272)" style="fill:#009af9; stroke:none; fill-opacity:0" cx="390.201" cy="615.1" r="2"/>
<circle clip-path="url(#clip272)" style="fill:#009af9; stroke:none; fill-opacity:0" cx="432.029" cy="821.593" r="2"/>
<circle clip-path="url(#clip272)" style="fill:#009af9; stroke:none; fill-opacity:0" cx="473.858" cy="769.97" r="2"/>
<circle clip-path="url(#clip272)" style="fill:#009af9; stroke:none; fill-opacity:0" cx="515.686" cy="1028.09" r="2"/>
<circle clip-path="url(#clip272)" style="fill:#009af9; stroke:none; fill-opacity:0" cx="557.515" cy="769.97" r="2"/>
<circle clip-path="url(#clip272)" style="fill:#009af9; stroke:none; fill-opacity:0" cx="599.343" cy="769.97" r="2"/>
<circle clip-path="url(#clip272)" style="fill:#009af9; stroke:none; fill-opacity:0" cx="641.172" cy="873.216" r="2"/>
<circle clip-path="url(#clip272)" style="fill:#009af9; stroke:none; fill-opacity:0" cx="683" cy="1079.71" r="2"/>
<circle clip-path="url(#clip272)" style="fill:#009af9; stroke:none; fill-opacity:0" cx="724.829" cy="1028.09" r="2"/>
<circle clip-path="url(#clip272)" style="fill:#009af9; stroke:none; fill-opacity:0" cx="766.657" cy="976.463" r="2"/>
<circle clip-path="url(#clip272)" style="fill:#009af9; stroke:none; fill-opacity:0" cx="808.486" cy="718.346" r="2"/>
<circle clip-path="url(#clip272)" style="fill:#009af9; stroke:none; fill-opacity:0" cx="850.314" cy="821.593" r="2"/>
<circle clip-path="url(#clip272)" style="fill:#009af9; stroke:none; fill-opacity:0" cx="892.143" cy="1079.71" r="2"/>
<circle clip-path="url(#clip272)" style="fill:#009af9; stroke:none; fill-opacity:0" cx="933.972" cy="1079.71" r="2"/>
<circle clip-path="url(#clip272)" style="fill:#009af9; stroke:none; fill-opacity:0" cx="975.8" cy="1182.96" r="2"/>
<circle clip-path="url(#clip272)" style="fill:#009af9; stroke:none; fill-opacity:0" cx="1017.63" cy="1079.71" r="2"/>
<circle clip-path="url(#clip272)" style="fill:#009af9; stroke:none; fill-opacity:0" cx="1059.46" cy="1079.71" r="2"/>
<circle clip-path="url(#clip272)" style="fill:#009af9; stroke:none; fill-opacity:0" cx="1101.29" cy="976.463" r="2"/>
<circle clip-path="url(#clip272)" style="fill:#009af9; stroke:none; fill-opacity:0" cx="1143.11" cy="1131.33" r="2"/>
<circle clip-path="url(#clip272)" style="fill:#009af9; stroke:none; fill-opacity:0" cx="1184.94" cy="1079.71" r="2"/>
<circle clip-path="url(#clip272)" style="fill:#009af9; stroke:none; fill-opacity:0" cx="1226.77" cy="1182.96" r="2"/>
<circle clip-path="url(#clip272)" style="fill:#009af9; stroke:none; fill-opacity:0" cx="1268.6" cy="1234.58" r="2"/>
<circle clip-path="url(#clip272)" style="fill:#009af9; stroke:none; fill-opacity:0" cx="1310.43" cy="1234.58" r="2"/>
<circle clip-path="url(#clip272)" style="fill:#009af9; stroke:none; fill-opacity:0" cx="1352.26" cy="1234.58" r="2"/>
<circle clip-path="url(#clip272)" style="fill:#009af9; stroke:none; fill-opacity:0" cx="1394.09" cy="1234.58" r="2"/>
<circle clip-path="url(#clip272)" style="fill:#009af9; stroke:none; fill-opacity:0" cx="1435.91" cy="1234.58" r="2"/>
<circle clip-path="url(#clip272)" style="fill:#009af9; stroke:none; fill-opacity:0" cx="1477.74" cy="1182.96" r="2"/>
<circle clip-path="url(#clip272)" style="fill:#009af9; stroke:none; fill-opacity:0" cx="1519.57" cy="1234.58" r="2"/>
<circle clip-path="url(#clip272)" style="fill:#009af9; stroke:none; fill-opacity:0" cx="1561.4" cy="1182.96" r="2"/>
<circle clip-path="url(#clip272)" style="fill:#009af9; stroke:none; fill-opacity:0" cx="1603.23" cy="1234.58" r="2"/>
<circle clip-path="url(#clip272)" style="fill:#009af9; stroke:none; fill-opacity:0" cx="1645.06" cy="1234.58" r="2"/>
<circle clip-path="url(#clip272)" style="fill:#009af9; stroke:none; fill-opacity:0" cx="1686.89" cy="1234.58" r="2"/>
<circle clip-path="url(#clip272)" style="fill:#009af9; stroke:none; fill-opacity:0" cx="1728.71" cy="1182.96" r="2"/>
<circle clip-path="url(#clip272)" style="fill:#009af9; stroke:none; fill-opacity:0" cx="1770.54" cy="1234.58" r="2"/>
<circle clip-path="url(#clip272)" style="fill:#009af9; stroke:none; fill-opacity:0" cx="1812.37" cy="1234.58" r="2"/>
<circle clip-path="url(#clip272)" style="fill:#009af9; stroke:none; fill-opacity:0" cx="1854.2" cy="1182.96" r="2"/>
<circle clip-path="url(#clip272)" style="fill:#009af9; stroke:none; fill-opacity:0" cx="1896.03" cy="1234.58" r="2"/>
<circle clip-path="url(#clip272)" style="fill:#009af9; stroke:none; fill-opacity:0" cx="1937.86" cy="1182.96" r="2"/>
</svg>
