<?xml version="1.0" encoding="utf-8"?>
<svg xmlns="http://www.w3.org/2000/svg" xmlns:xlink="http://www.w3.org/1999/xlink" width="528" height="336" viewBox="0 0 2112 1344">
<defs>
  <clipPath id="clip730">
    <rect x="0" y="0" width="2112" height="1344"/>
  </clipPath>
</defs>
<path clip-path="url(#clip730)" d="M0 1344 L2112 1344 L2112 0 L0 0  Z" fill="#ffffff" fill-rule="evenodd" fill-opacity="1"/>
<defs>
  <clipPath id="clip731">
    <rect x="422" y="0" width="1479" height="1344"/>
  </clipPath>
</defs>
<path clip-path="url(#clip730)" d="M170.405 1161.75 L2064.76 1161.75 L2064.76 47.2441 L170.405 47.2441  Z" fill="#ffffff" fill-rule="evenodd" fill-opacity="1"/>
<defs>
  <clipPath id="clip732">
    <rect x="170" y="47" width="1895" height="1116"/>
  </clipPath>
</defs>
<polyline clip-path="url(#clip732)" style="stroke:#000000; stroke-linecap:round; stroke-linejoin:round; stroke-width:2; stroke-opacity:0.1; fill:none" points="606.775,1161.75 606.775,47.2441 "/>
<polyline clip-path="url(#clip732)" style="stroke:#000000; stroke-linecap:round; stroke-linejoin:round; stroke-width:2; stroke-opacity:0.1; fill:none" points="1134.16,1161.75 1134.16,47.2441 "/>
<polyline clip-path="url(#clip732)" style="stroke:#000000; stroke-linecap:round; stroke-linejoin:round; stroke-width:2; stroke-opacity:0.1; fill:none" points="1661.54,1161.75 1661.54,47.2441 "/>
<polyline clip-path="url(#clip730)" style="stroke:#000000; stroke-linecap:round; stroke-linejoin:round; stroke-width:4; stroke-opacity:1; fill:none" points="170.405,1161.75 2064.76,1161.75 "/>
<polyline clip-path="url(#clip730)" style="stroke:#000000; stroke-linecap:round; stroke-linejoin:round; stroke-width:4; stroke-opacity:1; fill:none" points="606.775,1161.75 606.775,1142.85 "/>
<polyline clip-path="url(#clip730)" style="stroke:#000000; stroke-linecap:round; stroke-linejoin:round; stroke-width:4; stroke-opacity:1; fill:none" points="1134.16,1161.75 1134.16,1142.85 "/>
<polyline clip-path="url(#clip730)" style="stroke:#000000; stroke-linecap:round; stroke-linejoin:round; stroke-width:4; stroke-opacity:1; fill:none" points="1661.54,1161.75 1661.54,1142.85 "/>
<path clip-path="url(#clip730)" d="M498.604 1202.94 L516.961 1202.94 L516.961 1206.88 L502.887 1206.88 L502.887 1215.35 Q503.905 1215 504.924 1214.84 Q505.942 1214.65 506.961 1214.65 Q512.748 1214.65 516.128 1217.83 Q519.507 1221 519.507 1226.41 Q519.507 1231.99 516.035 1235.09 Q512.563 1238.17 506.243 1238.17 Q504.067 1238.17 501.799 1237.8 Q499.554 1237.43 497.146 1236.69 L497.146 1231.99 Q499.229 1233.13 501.452 1233.68 Q503.674 1234.24 506.151 1234.24 Q510.155 1234.24 512.493 1232.13 Q514.831 1230.03 514.831 1226.41 Q514.831 1222.8 512.493 1220.7 Q510.155 1218.59 506.151 1218.59 Q504.276 1218.59 502.401 1219.01 Q500.549 1219.42 498.604 1220.3 L498.604 1202.94 Z" fill="#000000" fill-rule="nonzero" fill-opacity="1" /><path clip-path="url(#clip730)" d="M528.72 1231.62 L533.604 1231.62 L533.604 1237.5 L528.72 1237.5 L528.72 1231.62 Z" fill="#000000" fill-rule="nonzero" fill-opacity="1" /><path clip-path="url(#clip730)" d="M553.789 1206.02 Q550.178 1206.02 548.35 1209.59 Q546.544 1213.13 546.544 1220.26 Q546.544 1227.36 548.35 1230.93 Q550.178 1234.47 553.789 1234.47 Q557.424 1234.47 559.229 1230.93 Q561.058 1227.36 561.058 1220.26 Q561.058 1213.13 559.229 1209.59 Q557.424 1206.02 553.789 1206.02 M553.789 1202.32 Q559.6 1202.32 562.655 1206.92 Q565.734 1211.51 565.734 1220.26 Q565.734 1228.98 562.655 1233.59 Q559.6 1238.17 553.789 1238.17 Q547.979 1238.17 544.901 1233.59 Q541.845 1228.98 541.845 1220.26 Q541.845 1211.51 544.901 1206.92 Q547.979 1202.32 553.789 1202.32 Z" fill="#000000" fill-rule="nonzero" fill-opacity="1" /><path clip-path="url(#clip730)" d="M583.951 1206.02 Q580.34 1206.02 578.511 1209.59 Q576.706 1213.13 576.706 1220.26 Q576.706 1227.36 578.511 1230.93 Q580.34 1234.47 583.951 1234.47 Q587.585 1234.47 589.391 1230.93 Q591.22 1227.36 591.22 1220.26 Q591.22 1213.13 589.391 1209.59 Q587.585 1206.02 583.951 1206.02 M583.951 1202.32 Q589.761 1202.32 592.817 1206.92 Q595.896 1211.51 595.896 1220.26 Q595.896 1228.98 592.817 1233.59 Q589.761 1238.17 583.951 1238.17 Q578.141 1238.17 575.062 1233.59 Q572.007 1228.98 572.007 1220.26 Q572.007 1211.51 575.062 1206.92 Q578.141 1202.32 583.951 1202.32 Z" fill="#000000" fill-rule="nonzero" fill-opacity="1" /><path clip-path="url(#clip730)" d="M632.284 1212.04 L621.706 1222.66 L632.284 1233.24 L629.53 1236.04 L618.905 1225.42 L608.28 1236.04 L605.548 1233.24 L616.104 1222.66 L605.548 1212.04 L608.28 1209.24 L618.905 1219.86 L629.53 1209.24 L632.284 1212.04 Z" fill="#000000" fill-rule="nonzero" fill-opacity="1" /><path clip-path="url(#clip730)" d="M644.645 1233.57 L652.284 1233.57 L652.284 1207.2 L643.974 1208.87 L643.974 1204.61 L652.238 1202.94 L656.914 1202.94 L656.914 1233.57 L664.553 1233.57 L664.553 1237.5 L644.645 1237.5 L644.645 1233.57 Z" fill="#000000" fill-rule="nonzero" fill-opacity="1" /><path clip-path="url(#clip730)" d="M683.997 1206.02 Q680.386 1206.02 678.557 1209.59 Q676.752 1213.13 676.752 1220.26 Q676.752 1227.36 678.557 1230.93 Q680.386 1234.47 683.997 1234.47 Q687.631 1234.47 689.437 1230.93 Q691.265 1227.36 691.265 1220.26 Q691.265 1213.13 689.437 1209.59 Q687.631 1206.02 683.997 1206.02 M683.997 1202.32 Q689.807 1202.32 692.863 1206.92 Q695.941 1211.51 695.941 1220.26 Q695.941 1228.98 692.863 1233.59 Q689.807 1238.17 683.997 1238.17 Q678.187 1238.17 675.108 1233.59 Q672.053 1228.98 672.053 1220.26 Q672.053 1211.51 675.108 1206.92 Q678.187 1202.32 683.997 1202.32 Z" fill="#000000" fill-rule="nonzero" fill-opacity="1" /><path clip-path="url(#clip730)" d="M708.618 1185.32 L699.026 1200.31 L708.618 1200.31 L708.618 1185.32 M707.621 1182.01 L712.398 1182.01 L712.398 1200.31 L716.404 1200.31 L716.404 1203.47 L712.398 1203.47 L712.398 1210.09 L708.618 1210.09 L708.618 1203.47 L695.941 1203.47 L695.941 1199.8 L707.621 1182.01 Z" fill="#000000" fill-rule="nonzero" fill-opacity="1" /><path clip-path="url(#clip730)" d="M1027.12 1233.57 L1034.76 1233.57 L1034.76 1207.2 L1026.45 1208.87 L1026.45 1204.61 L1034.72 1202.94 L1039.39 1202.94 L1039.39 1233.57 L1047.03 1233.57 L1047.03 1237.5 L1027.12 1237.5 L1027.12 1233.57 Z" fill="#000000" fill-rule="nonzero" fill-opacity="1" /><path clip-path="url(#clip730)" d="M1056.48 1231.62 L1061.36 1231.62 L1061.36 1237.5 L1056.48 1237.5 L1056.48 1231.62 Z" fill="#000000" fill-rule="nonzero" fill-opacity="1" /><path clip-path="url(#clip730)" d="M1081.55 1206.02 Q1077.93 1206.02 1076.11 1209.59 Q1074.3 1213.13 1074.3 1220.26 Q1074.3 1227.36 1076.11 1230.93 Q1077.93 1234.47 1081.55 1234.47 Q1085.18 1234.47 1086.99 1230.93 Q1088.81 1227.36 1088.81 1220.26 Q1088.81 1213.13 1086.99 1209.59 Q1085.18 1206.02 1081.55 1206.02 M1081.55 1202.32 Q1087.36 1202.32 1090.41 1206.92 Q1093.49 1211.51 1093.49 1220.26 Q1093.49 1228.98 1090.41 1233.59 Q1087.36 1238.17 1081.55 1238.17 Q1075.74 1238.17 1072.66 1233.59 Q1069.6 1228.98 1069.6 1220.26 Q1069.6 1211.51 1072.66 1206.92 Q1075.74 1202.32 1081.55 1202.32 Z" fill="#000000" fill-rule="nonzero" fill-opacity="1" /><path clip-path="url(#clip730)" d="M1111.71 1206.02 Q1108.1 1206.02 1106.27 1209.59 Q1104.46 1213.13 1104.46 1220.26 Q1104.46 1227.36 1106.27 1230.93 Q1108.1 1234.47 1111.71 1234.47 Q1115.34 1234.47 1117.15 1230.93 Q1118.98 1227.36 1118.98 1220.26 Q1118.98 1213.13 1117.15 1209.59 Q1115.34 1206.02 1111.71 1206.02 M1111.71 1202.32 Q1117.52 1202.32 1120.57 1206.92 Q1123.65 1211.51 1123.65 1220.26 Q1123.65 1228.98 1120.57 1233.59 Q1117.52 1238.17 1111.71 1238.17 Q1105.9 1238.17 1102.82 1233.59 Q1099.76 1228.98 1099.76 1220.26 Q1099.76 1211.51 1102.82 1206.92 Q1105.9 1202.32 1111.71 1202.32 Z" fill="#000000" fill-rule="nonzero" fill-opacity="1" /><path clip-path="url(#clip730)" d="M1160.04 1212.04 L1149.46 1222.66 L1160.04 1233.24 L1157.29 1236.04 L1146.66 1225.42 L1136.04 1236.04 L1133.3 1233.24 L1143.86 1222.66 L1133.3 1212.04 L1136.04 1209.24 L1146.66 1219.86 L1157.29 1209.24 L1160.04 1212.04 Z" fill="#000000" fill-rule="nonzero" fill-opacity="1" /><path clip-path="url(#clip730)" d="M1172.4 1233.57 L1180.04 1233.57 L1180.04 1207.2 L1171.73 1208.87 L1171.73 1204.61 L1179.99 1202.94 L1184.67 1202.94 L1184.67 1233.57 L1192.31 1233.57 L1192.31 1237.5 L1172.4 1237.5 L1172.4 1233.57 Z" fill="#000000" fill-rule="nonzero" fill-opacity="1" /><path clip-path="url(#clip730)" d="M1211.75 1206.02 Q1208.14 1206.02 1206.31 1209.59 Q1204.51 1213.13 1204.51 1220.26 Q1204.51 1227.36 1206.31 1230.93 Q1208.14 1234.47 1211.75 1234.47 Q1215.39 1234.47 1217.19 1230.93 Q1219.02 1227.36 1219.02 1220.26 Q1219.02 1213.13 1217.19 1209.59 Q1215.39 1206.02 1211.75 1206.02 M1211.75 1202.32 Q1217.56 1202.32 1220.62 1206.92 Q1223.7 1211.51 1223.7 1220.26 Q1223.7 1228.98 1220.62 1233.59 Q1217.56 1238.17 1211.75 1238.17 Q1205.94 1238.17 1202.86 1233.59 Q1199.81 1228.98 1199.81 1220.26 Q1199.81 1211.51 1202.86 1206.92 Q1205.94 1202.32 1211.75 1202.32 Z" fill="#000000" fill-rule="nonzero" fill-opacity="1" /><path clip-path="url(#clip730)" d="M1224.88 1182.01 L1239.8 1182.01 L1239.8 1185.21 L1228.36 1185.21 L1228.36 1192.09 Q1229.19 1191.81 1230.02 1191.68 Q1230.84 1191.53 1231.67 1191.53 Q1236.37 1191.53 1239.12 1194.1 Q1241.87 1196.68 1241.87 1201.08 Q1241.87 1205.62 1239.04 1208.14 Q1236.22 1210.64 1231.09 1210.64 Q1229.32 1210.64 1227.48 1210.34 Q1225.65 1210.04 1223.7 1209.43 L1223.7 1205.62 Q1225.39 1206.54 1227.2 1206.99 Q1229 1207.44 1231.01 1207.44 Q1234.27 1207.44 1236.17 1205.73 Q1238.07 1204.02 1238.07 1201.08 Q1238.07 1198.15 1236.17 1196.44 Q1234.27 1194.73 1231.01 1194.73 Q1229.49 1194.73 1227.97 1195.06 Q1226.46 1195.4 1224.88 1196.12 L1224.88 1182.01 Z" fill="#000000" fill-rule="nonzero" fill-opacity="1" /><path clip-path="url(#clip730)" d="M1554.51 1233.57 L1562.15 1233.57 L1562.15 1207.2 L1553.84 1208.87 L1553.84 1204.61 L1562.1 1202.94 L1566.78 1202.94 L1566.78 1233.57 L1574.42 1233.57 L1574.42 1237.5 L1554.51 1237.5 L1554.51 1233.57 Z" fill="#000000" fill-rule="nonzero" fill-opacity="1" /><path clip-path="url(#clip730)" d="M1583.86 1231.62 L1588.74 1231.62 L1588.74 1237.5 L1583.86 1237.5 L1583.86 1231.62 Z" fill="#000000" fill-rule="nonzero" fill-opacity="1" /><path clip-path="url(#clip730)" d="M1598.98 1202.94 L1617.33 1202.94 L1617.33 1206.88 L1603.26 1206.88 L1603.26 1215.35 Q1604.28 1215 1605.3 1214.84 Q1606.31 1214.65 1607.33 1214.65 Q1613.12 1214.65 1616.5 1217.83 Q1619.88 1221 1619.88 1226.41 Q1619.88 1231.99 1616.41 1235.09 Q1612.93 1238.17 1606.61 1238.17 Q1604.44 1238.17 1602.17 1237.8 Q1599.92 1237.43 1597.52 1236.69 L1597.52 1231.99 Q1599.6 1233.13 1601.82 1233.68 Q1604.05 1234.24 1606.52 1234.24 Q1610.53 1234.24 1612.86 1232.13 Q1615.2 1230.03 1615.2 1226.41 Q1615.2 1222.8 1612.86 1220.7 Q1610.53 1218.59 1606.52 1218.59 Q1604.65 1218.59 1602.77 1219.01 Q1600.92 1219.42 1598.98 1220.3 L1598.98 1202.94 Z" fill="#000000" fill-rule="nonzero" fill-opacity="1" /><path clip-path="url(#clip730)" d="M1639.09 1206.02 Q1635.48 1206.02 1633.65 1209.59 Q1631.85 1213.13 1631.85 1220.26 Q1631.85 1227.36 1633.65 1230.93 Q1635.48 1234.47 1639.09 1234.47 Q1642.73 1234.47 1644.53 1230.93 Q1646.36 1227.36 1646.36 1220.26 Q1646.36 1213.13 1644.53 1209.59 Q1642.73 1206.02 1639.09 1206.02 M1639.09 1202.32 Q1644.9 1202.32 1647.96 1206.92 Q1651.04 1211.51 1651.04 1220.26 Q1651.04 1228.98 1647.96 1233.59 Q1644.9 1238.17 1639.09 1238.17 Q1633.28 1238.17 1630.2 1233.59 Q1627.15 1228.98 1627.15 1220.26 Q1627.15 1211.51 1630.2 1206.92 Q1633.28 1202.32 1639.09 1202.32 Z" fill="#000000" fill-rule="nonzero" fill-opacity="1" /><path clip-path="url(#clip730)" d="M1687.42 1212.04 L1676.85 1222.66 L1687.42 1233.24 L1684.67 1236.04 L1674.04 1225.42 L1663.42 1236.04 L1660.69 1233.24 L1671.24 1222.66 L1660.69 1212.04 L1663.42 1209.24 L1674.04 1219.86 L1684.67 1209.24 L1687.42 1212.04 Z" fill="#000000" fill-rule="nonzero" fill-opacity="1" /><path clip-path="url(#clip730)" d="M1699.79 1233.57 L1707.42 1233.57 L1707.42 1207.2 L1699.11 1208.87 L1699.11 1204.61 L1707.38 1202.94 L1712.05 1202.94 L1712.05 1233.57 L1719.69 1233.57 L1719.69 1237.5 L1699.79 1237.5 L1699.79 1233.57 Z" fill="#000000" fill-rule="nonzero" fill-opacity="1" /><path clip-path="url(#clip730)" d="M1739.14 1206.02 Q1735.53 1206.02 1733.7 1209.59 Q1731.89 1213.13 1731.89 1220.26 Q1731.89 1227.36 1733.7 1230.93 Q1735.53 1234.47 1739.14 1234.47 Q1742.77 1234.47 1744.58 1230.93 Q1746.41 1227.36 1746.41 1220.26 Q1746.41 1213.13 1744.58 1209.59 Q1742.77 1206.02 1739.14 1206.02 M1739.14 1202.32 Q1744.95 1202.32 1748 1206.92 Q1751.08 1211.51 1751.08 1220.26 Q1751.08 1228.98 1748 1233.59 Q1744.95 1238.17 1739.14 1238.17 Q1733.33 1238.17 1730.25 1233.59 Q1727.19 1228.98 1727.19 1220.26 Q1727.19 1211.51 1730.25 1206.92 Q1733.33 1202.32 1739.14 1202.32 Z" fill="#000000" fill-rule="nonzero" fill-opacity="1" /><path clip-path="url(#clip730)" d="M1752.27 1182.01 L1767.18 1182.01 L1767.18 1185.21 L1755.75 1185.21 L1755.75 1192.09 Q1756.57 1191.81 1757.4 1191.68 Q1758.23 1191.53 1759.06 1191.53 Q1763.76 1191.53 1766.5 1194.1 Q1769.25 1196.68 1769.25 1201.08 Q1769.25 1205.62 1766.43 1208.14 Q1763.61 1210.64 1758.47 1210.64 Q1756.71 1210.64 1754.86 1210.34 Q1753.04 1210.04 1751.08 1209.43 L1751.08 1205.62 Q1752.77 1206.54 1754.58 1206.99 Q1756.39 1207.44 1758.4 1207.44 Q1761.65 1207.44 1763.55 1205.73 Q1765.45 1204.02 1765.45 1201.08 Q1765.45 1198.15 1763.55 1196.44 Q1761.65 1194.73 1758.4 1194.73 Q1756.87 1194.73 1755.35 1195.06 Q1753.85 1195.4 1752.27 1196.12 L1752.27 1182.01 Z" fill="#000000" fill-rule="nonzero" fill-opacity="1" /><path clip-path="url(#clip730)" d="M1065.16 1274.75 L1065.16 1281.02 Q1061.5 1279.27 1058.25 1278.41 Q1055.01 1277.56 1051.98 1277.56 Q1046.73 1277.56 1043.87 1279.59 Q1041.03 1281.63 1041.03 1285.39 Q1041.03 1288.54 1042.91 1290.16 Q1044.82 1291.75 1050.1 1292.74 L1053.99 1293.53 Q1061.18 1294.9 1064.59 1298.37 Q1068.02 1301.81 1068.02 1307.6 Q1068.02 1314.51 1063.38 1318.07 Q1058.76 1321.64 1049.82 1321.64 Q1046.44 1321.64 1042.62 1320.87 Q1038.84 1320.11 1034.76 1318.61 L1034.76 1311.99 Q1038.68 1314.19 1042.43 1315.3 Q1046.19 1316.42 1049.82 1316.42 Q1055.32 1316.42 1058.32 1314.25 Q1061.31 1312.09 1061.31 1308.08 Q1061.31 1304.58 1059.14 1302.6 Q1057.01 1300.63 1052.11 1299.64 L1048.19 1298.88 Q1041 1297.45 1037.79 1294.39 Q1034.57 1291.34 1034.57 1285.89 Q1034.57 1279.59 1039 1275.96 Q1043.45 1272.34 1051.25 1272.34 Q1054.59 1272.34 1058.06 1272.94 Q1061.53 1273.54 1065.16 1274.75 Z" fill="#000000" fill-rule="nonzero" fill-opacity="1" /><path clip-path="url(#clip730)" d="M1094 1302.8 Q1086.9 1302.8 1084.16 1304.42 Q1081.42 1306.04 1081.42 1309.96 Q1081.42 1313.08 1083.46 1314.92 Q1085.53 1316.74 1089.06 1316.74 Q1093.93 1316.74 1096.86 1313.3 Q1099.82 1309.83 1099.82 1304.1 L1099.82 1302.8 L1094 1302.8 M1105.68 1300.38 L1105.68 1320.71 L1099.82 1320.71 L1099.82 1315.3 Q1097.82 1318.55 1094.82 1320.11 Q1091.83 1321.64 1087.5 1321.64 Q1082.03 1321.64 1078.78 1318.58 Q1075.57 1315.49 1075.57 1310.34 Q1075.57 1304.32 1079.58 1301.27 Q1083.62 1298.21 1091.61 1298.21 L1099.82 1298.21 L1099.82 1297.64 Q1099.82 1293.6 1097.15 1291.4 Q1094.5 1289.17 1089.7 1289.17 Q1086.64 1289.17 1083.75 1289.9 Q1080.85 1290.64 1078.18 1292.1 L1078.18 1286.69 Q1081.39 1285.45 1084.42 1284.84 Q1087.44 1284.21 1090.3 1284.21 Q1098.04 1284.21 1101.86 1288.22 Q1105.68 1292.23 1105.68 1300.38 Z" fill="#000000" fill-rule="nonzero" fill-opacity="1" /><path clip-path="url(#clip730)" d="M1117.74 1271.19 L1123.6 1271.19 L1123.6 1320.71 L1117.74 1320.71 L1117.74 1271.19 Z" fill="#000000" fill-rule="nonzero" fill-opacity="1" /><path clip-path="url(#clip730)" d="M1166.34 1301.43 L1166.34 1304.29 L1139.41 1304.29 Q1139.8 1310.34 1143.04 1313.52 Q1146.32 1316.67 1152.15 1316.67 Q1155.52 1316.67 1158.67 1315.84 Q1161.85 1315.02 1164.97 1313.36 L1164.97 1318.9 Q1161.82 1320.24 1158.51 1320.94 Q1155.2 1321.64 1151.8 1321.64 Q1143.27 1321.64 1138.27 1316.67 Q1133.3 1311.71 1133.3 1303.24 Q1133.3 1294.49 1138.01 1289.36 Q1142.76 1284.21 1150.78 1284.21 Q1157.97 1284.21 1162.14 1288.85 Q1166.34 1293.47 1166.34 1301.43 M1160.49 1299.71 Q1160.42 1294.9 1157.78 1292.04 Q1155.17 1289.17 1150.84 1289.17 Q1145.94 1289.17 1142.98 1291.94 Q1140.05 1294.71 1139.61 1299.74 L1160.49 1299.71 Z" fill="#000000" fill-rule="nonzero" fill-opacity="1" /><path clip-path="url(#clip730)" d="M1198.68 1286.12 L1198.68 1291.66 Q1196.2 1290.38 1193.52 1289.75 Q1190.85 1289.11 1187.99 1289.11 Q1183.62 1289.11 1181.43 1290.45 Q1179.26 1291.78 1179.26 1294.46 Q1179.26 1296.49 1180.82 1297.67 Q1182.38 1298.82 1187.09 1299.87 L1189.1 1300.31 Q1195.34 1301.65 1197.95 1304.1 Q1200.59 1306.52 1200.59 1310.88 Q1200.59 1315.84 1196.64 1318.74 Q1192.73 1321.64 1185.85 1321.64 Q1182.99 1321.64 1179.87 1321.06 Q1176.78 1320.52 1173.34 1319.41 L1173.34 1313.36 Q1176.59 1315.05 1179.74 1315.91 Q1182.89 1316.74 1185.98 1316.74 Q1190.12 1316.74 1192.35 1315.34 Q1194.57 1313.9 1194.57 1311.33 Q1194.57 1308.94 1192.95 1307.66 Q1191.36 1306.39 1185.92 1305.21 L1183.88 1304.74 Q1178.44 1303.59 1176.02 1301.24 Q1173.6 1298.85 1173.6 1294.71 Q1173.6 1289.68 1177.16 1286.94 Q1180.73 1284.21 1187.29 1284.21 Q1190.53 1284.21 1193.4 1284.68 Q1196.26 1285.16 1198.68 1286.12 Z" fill="#000000" fill-rule="nonzero" fill-opacity="1" /><polyline clip-path="url(#clip732)" style="stroke:#000000; stroke-linecap:round; stroke-linejoin:round; stroke-width:2; stroke-opacity:0.1; fill:none" points="170.405,973.609 2064.76,973.609 "/>
<polyline clip-path="url(#clip732)" style="stroke:#000000; stroke-linecap:round; stroke-linejoin:round; stroke-width:2; stroke-opacity:0.1; fill:none" points="170.405,749.904 2064.76,749.904 "/>
<polyline clip-path="url(#clip732)" style="stroke:#000000; stroke-linecap:round; stroke-linejoin:round; stroke-width:2; stroke-opacity:0.1; fill:none" points="170.405,526.198 2064.76,526.198 "/>
<polyline clip-path="url(#clip732)" style="stroke:#000000; stroke-linecap:round; stroke-linejoin:round; stroke-width:2; stroke-opacity:0.1; fill:none" points="170.405,302.492 2064.76,302.492 "/>
<polyline clip-path="url(#clip732)" style="stroke:#000000; stroke-linecap:round; stroke-linejoin:round; stroke-width:2; stroke-opacity:0.1; fill:none" points="170.405,78.7866 2064.76,78.7866 "/>
<polyline clip-path="url(#clip730)" style="stroke:#000000; stroke-linecap:round; stroke-linejoin:round; stroke-width:4; stroke-opacity:1; fill:none" points="170.405,1161.75 170.405,47.2441 "/>
<polyline clip-path="url(#clip730)" style="stroke:#000000; stroke-linecap:round; stroke-linejoin:round; stroke-width:4; stroke-opacity:1; fill:none" points="170.405,973.609 189.303,973.609 "/>
<polyline clip-path="url(#clip730)" style="stroke:#000000; stroke-linecap:round; stroke-linejoin:round; stroke-width:4; stroke-opacity:1; fill:none" points="170.405,749.904 189.303,749.904 "/>
<polyline clip-path="url(#clip730)" style="stroke:#000000; stroke-linecap:round; stroke-linejoin:round; stroke-width:4; stroke-opacity:1; fill:none" points="170.405,526.198 189.303,526.198 "/>
<polyline clip-path="url(#clip730)" style="stroke:#000000; stroke-linecap:round; stroke-linejoin:round; stroke-width:4; stroke-opacity:1; fill:none" points="170.405,302.492 189.303,302.492 "/>
<polyline clip-path="url(#clip730)" style="stroke:#000000; stroke-linecap:round; stroke-linejoin:round; stroke-width:4; stroke-opacity:1; fill:none" points="170.405,78.7866 189.303,78.7866 "/>
<path clip-path="url(#clip730)" d="M118.818 986.954 L126.457 986.954 L126.457 960.589 L118.147 962.255 L118.147 957.996 L126.41 956.329 L131.086 956.329 L131.086 986.954 L138.725 986.954 L138.725 990.889 L118.818 990.889 L118.818 986.954 Z" fill="#000000" fill-rule="nonzero" fill-opacity="1" /><path clip-path="url(#clip730)" d="M122.406 763.249 L138.725 763.249 L138.725 767.184 L116.781 767.184 L116.781 763.249 Q119.443 760.494 124.026 755.864 Q128.633 751.212 129.813 749.869 Q132.059 747.346 132.938 745.61 Q133.841 743.85 133.841 742.161 Q133.841 739.406 131.897 737.67 Q129.975 735.934 126.873 735.934 Q124.674 735.934 122.221 736.698 Q119.79 737.462 117.012 739.013 L117.012 734.29 Q119.836 733.156 122.29 732.577 Q124.744 731.999 126.781 731.999 Q132.151 731.999 135.346 734.684 Q138.54 737.369 138.54 741.86 Q138.54 743.989 137.73 745.911 Q136.943 747.809 134.836 750.401 Q134.258 751.073 131.156 754.29 Q128.054 757.485 122.406 763.249 Z" fill="#000000" fill-rule="nonzero" fill-opacity="1" /><path clip-path="url(#clip730)" d="M131.596 524.844 Q134.952 525.561 136.827 527.83 Q138.725 530.098 138.725 533.432 Q138.725 538.547 135.207 541.348 Q131.688 544.149 125.207 544.149 Q123.031 544.149 120.716 543.709 Q118.424 543.293 115.971 542.436 L115.971 537.922 Q117.915 539.057 120.23 539.635 Q122.545 540.214 125.068 540.214 Q129.466 540.214 131.758 538.478 Q134.072 536.742 134.072 533.432 Q134.072 530.376 131.92 528.663 Q129.79 526.927 125.971 526.927 L121.943 526.927 L121.943 523.085 L126.156 523.085 Q129.605 523.085 131.434 521.719 Q133.262 520.33 133.262 517.737 Q133.262 515.075 131.364 513.663 Q129.489 512.228 125.971 512.228 Q124.049 512.228 121.85 512.645 Q119.651 513.061 117.012 513.941 L117.012 509.774 Q119.674 509.034 121.989 508.663 Q124.327 508.293 126.387 508.293 Q131.711 508.293 134.813 510.724 Q137.915 513.131 137.915 517.251 Q137.915 520.122 136.272 522.112 Q134.628 524.08 131.596 524.844 Z" fill="#000000" fill-rule="nonzero" fill-opacity="1" /><path clip-path="url(#clip730)" d="M129.142 289.286 L117.336 307.735 L129.142 307.735 L129.142 289.286 M127.915 285.212 L133.795 285.212 L133.795 307.735 L138.725 307.735 L138.725 311.624 L133.795 311.624 L133.795 319.772 L129.142 319.772 L129.142 311.624 L113.54 311.624 L113.54 307.11 L127.915 285.212 Z" fill="#000000" fill-rule="nonzero" fill-opacity="1" /><path clip-path="url(#clip730)" d="M117.823 61.5066 L136.179 61.5066 L136.179 65.4418 L122.105 65.4418 L122.105 73.9139 Q123.123 73.5667 124.142 73.4047 Q125.16 73.2195 126.179 73.2195 Q131.966 73.2195 135.346 76.3908 Q138.725 79.5621 138.725 84.9787 Q138.725 90.5574 135.253 93.6592 Q131.781 96.7379 125.461 96.7379 Q123.285 96.7379 121.017 96.3675 Q118.772 95.9972 116.364 95.2564 L116.364 90.5574 Q118.448 91.6916 120.67 92.2472 Q122.892 92.8027 125.369 92.8027 Q129.373 92.8027 131.711 90.6963 Q134.049 88.5898 134.049 84.9787 Q134.049 81.3676 131.711 79.2611 Q129.373 77.1547 125.369 77.1547 Q123.494 77.1547 121.619 77.5713 Q119.767 77.988 117.823 78.8676 L117.823 61.5066 Z" fill="#000000" fill-rule="nonzero" fill-opacity="1" /><path clip-path="url(#clip730)" d="M25.3677 874.751 L43.2235 874.751 L43.2235 866.667 Q43.2235 862.179 40.9 859.728 Q38.5765 857.277 34.2797 857.277 Q30.0147 857.277 27.6912 859.728 Q25.3677 862.179 25.3677 866.667 L25.3677 874.751 M20.0842 881.18 L20.0842 866.667 Q20.0842 858.678 23.7126 854.604 Q27.3092 850.498 34.2797 850.498 Q41.3138 850.498 44.9104 854.604 Q48.507 858.678 48.507 866.667 L48.507 874.751 L67.6042 874.751 L67.6042 881.18 L20.0842 881.18 Z" fill="#000000" fill-rule="nonzero" fill-opacity="1" /><path clip-path="url(#clip730)" d="M37.4307 822.616 Q36.8578 823.603 36.6032 824.78 Q36.3167 825.926 36.3167 827.327 Q36.3167 832.292 39.5632 834.965 Q42.7779 837.607 48.8253 837.607 L67.6042 837.607 L67.6042 843.495 L31.9562 843.495 L31.9562 837.607 L37.4944 837.607 Q34.2479 835.761 32.6883 832.801 Q31.0968 829.841 31.0968 825.608 Q31.0968 825.003 31.1923 824.271 Q31.256 823.539 31.4151 822.648 L37.4307 822.616 Z" fill="#000000" fill-rule="nonzero" fill-opacity="1" /><path clip-path="url(#clip730)" d="M31.9562 816.473 L31.9562 810.617 L67.6042 810.617 L67.6042 816.473 L31.9562 816.473 M18.079 816.473 L18.079 810.617 L25.495 810.617 L25.495 816.473 L18.079 816.473 Z" fill="#000000" fill-rule="nonzero" fill-opacity="1" /><path clip-path="url(#clip730)" d="M33.3248 772.709 L38.7993 772.709 Q37.4307 775.191 36.7623 777.706 Q36.0621 780.188 36.0621 782.735 Q36.0621 788.432 39.6905 791.583 Q43.2872 794.734 49.812 794.734 Q56.3369 794.734 59.9653 791.583 Q63.5619 788.432 63.5619 782.735 Q63.5619 780.188 62.8935 777.706 Q62.1933 775.191 60.8247 772.709 L66.2355 772.709 Q67.3814 775.16 67.9543 777.801 Q68.5272 780.411 68.5272 783.371 Q68.5272 791.424 63.4664 796.166 Q58.4057 800.909 49.812 800.909 Q41.091 800.909 36.0939 796.135 Q31.0968 791.328 31.0968 782.989 Q31.0968 780.284 31.6697 777.706 Q32.2108 775.128 33.3248 772.709 Z" fill="#000000" fill-rule="nonzero" fill-opacity="1" /><path clip-path="url(#clip730)" d="M48.3161 732.032 L51.1806 732.032 L51.1806 758.959 Q57.2281 758.577 60.4109 755.33 Q63.5619 752.052 63.5619 746.227 Q63.5619 742.854 62.7344 739.703 Q61.9069 736.52 60.2518 733.401 L65.7899 733.401 Q67.1267 736.552 67.827 739.862 Q68.5272 743.172 68.5272 746.578 Q68.5272 755.108 63.5619 760.105 Q58.5967 765.07 50.1303 765.07 Q41.3774 765.07 36.2531 760.359 Q31.0968 755.617 31.0968 747.596 Q31.0968 740.403 35.7438 736.233 Q40.3589 732.032 48.3161 732.032 M46.5973 737.888 Q41.7912 737.952 38.9266 740.594 Q36.0621 743.204 36.0621 747.532 Q36.0621 752.434 38.8312 755.394 Q41.6002 758.322 46.6292 758.768 L46.5973 737.888 Z" fill="#000000" fill-rule="nonzero" fill-opacity="1" /><path clip-path="url(#clip730)" d="M18.1426 687.631 Q25.4632 691.896 32.6246 693.965 Q39.786 696.034 47.1384 696.034 Q54.4908 696.034 61.7159 693.965 Q68.9091 691.864 76.1979 687.631 L76.1979 692.724 Q68.7182 697.498 61.4931 699.885 Q54.268 702.24 47.1384 702.24 Q40.0406 702.24 32.8474 699.885 Q25.6542 697.53 18.1426 692.724 L18.1426 687.631 Z" fill="#000000" fill-rule="nonzero" fill-opacity="1" /><path clip-path="url(#clip730)" d="M38.7993 648.514 Q34.8526 646.318 32.9747 643.262 Q31.0968 640.207 31.0968 636.069 Q31.0968 630.499 35.0117 627.475 Q38.8948 624.451 46.0881 624.451 L67.6042 624.451 L67.6042 630.34 L46.279 630.34 Q41.1546 630.34 38.672 632.154 Q36.1894 633.968 36.1894 637.692 Q36.1894 642.244 39.2131 644.885 Q42.2368 647.527 47.4567 647.527 L67.6042 647.527 L67.6042 653.415 L46.279 653.415 Q41.1228 653.415 38.672 655.23 Q36.1894 657.044 36.1894 660.831 Q36.1894 665.319 39.2449 667.961 Q42.2686 670.603 47.4567 670.603 L67.6042 670.603 L67.6042 676.491 L31.9562 676.491 L31.9562 670.603 L37.4944 670.603 Q34.216 668.598 32.6564 665.797 Q31.0968 662.996 31.0968 659.145 Q31.0968 655.261 33.0702 652.556 Q35.0436 649.819 38.7993 648.514 Z" fill="#000000" fill-rule="nonzero" fill-opacity="1" /><path clip-path="url(#clip730)" d="M31.9562 612.77 L31.9562 606.914 L67.6042 606.914 L67.6042 612.77 L31.9562 612.77 M18.079 612.77 L18.079 606.914 L25.495 606.914 L25.495 612.77 L18.079 612.77 Z" fill="#000000" fill-rule="nonzero" fill-opacity="1" /><path clip-path="url(#clip730)" d="M18.079 594.66 L18.079 588.804 L67.6042 588.804 L67.6042 594.66 L18.079 594.66 Z" fill="#000000" fill-rule="nonzero" fill-opacity="1" /><path clip-path="url(#clip730)" d="M18.079 576.55 L18.079 570.693 L67.6042 570.693 L67.6042 576.55 L18.079 576.55 Z" fill="#000000" fill-rule="nonzero" fill-opacity="1" /><path clip-path="url(#clip730)" d="M31.9562 558.439 L31.9562 552.583 L67.6042 552.583 L67.6042 558.439 L31.9562 558.439 M18.079 558.439 L18.079 552.583 L25.495 552.583 L25.495 558.439 L18.079 558.439 Z" fill="#000000" fill-rule="nonzero" fill-opacity="1" /><path clip-path="url(#clip730)" d="M36.0621 526.515 Q36.0621 531.226 39.7542 533.963 Q43.4145 536.7 49.812 536.7 Q56.2095 536.7 59.9017 533.995 Q63.5619 531.258 63.5619 526.515 Q63.5619 521.836 59.8698 519.099 Q56.1777 516.362 49.812 516.362 Q43.4781 516.362 39.786 519.099 Q36.0621 521.836 36.0621 526.515 M31.0968 526.515 Q31.0968 518.876 36.0621 514.516 Q41.0273 510.155 49.812 510.155 Q58.5649 510.155 63.5619 514.516 Q68.5272 518.876 68.5272 526.515 Q68.5272 534.186 63.5619 538.546 Q58.5649 542.875 49.812 542.875 Q41.0273 542.875 36.0621 538.546 Q31.0968 534.186 31.0968 526.515 Z" fill="#000000" fill-rule="nonzero" fill-opacity="1" /><path clip-path="url(#clip730)" d="M46.0881 470.815 L67.6042 470.815 L67.6042 476.672 L46.279 476.672 Q41.2183 476.672 38.7038 478.645 Q36.1894 480.618 36.1894 484.565 Q36.1894 489.308 39.2131 492.045 Q42.2368 494.782 47.4567 494.782 L67.6042 494.782 L67.6042 500.67 L31.9562 500.67 L31.9562 494.782 L37.4944 494.782 Q34.2797 492.681 32.6883 489.849 Q31.0968 486.984 31.0968 483.26 Q31.0968 477.117 34.9163 473.966 Q38.7038 470.815 46.0881 470.815 Z" fill="#000000" fill-rule="nonzero" fill-opacity="1" /><path clip-path="url(#clip730)" d="M20.0842 438.159 L20.0842 431.73 L64.294 431.73 Q72.8877 431.73 76.7708 435.008 Q80.6539 438.255 80.6539 445.48 L80.6539 447.93 L75.243 447.93 L75.243 445.925 Q75.243 441.66 72.8559 439.91 Q70.4687 438.159 64.294 438.159 L20.0842 438.159 Z" fill="#000000" fill-rule="nonzero" fill-opacity="1" /><path clip-path="url(#clip730)" d="M25.3677 412.505 L43.2235 412.505 L43.2235 404.421 Q43.2235 399.933 40.9 397.482 Q38.5765 395.031 34.2797 395.031 Q30.0147 395.031 27.6912 397.482 Q25.3677 399.933 25.3677 404.421 L25.3677 412.505 M20.0842 418.935 L20.0842 404.421 Q20.0842 396.432 23.7126 392.358 Q27.3092 388.252 34.2797 388.252 Q41.3138 388.252 44.9104 392.358 Q48.507 396.432 48.507 404.421 L48.507 412.505 L67.6042 412.505 L67.6042 418.935 L20.0842 418.935 Z" fill="#000000" fill-rule="nonzero" fill-opacity="1" /><path clip-path="url(#clip730)" d="M20.0842 387.584 L20.0842 380.677 L39.6269 367.5 L20.0842 354.418 L20.0842 347.511 L44.9741 364.317 L67.6042 364.317 L67.6042 370.778 L44.9741 370.778 L20.0842 387.584 Z" fill="#000000" fill-rule="nonzero" fill-opacity="1" /><path clip-path="url(#clip730)" d="M18.1426 342.419 L18.1426 337.326 Q25.6542 332.552 32.8474 330.197 Q40.0406 327.81 47.1384 327.81 Q54.268 327.81 61.4931 330.197 Q68.7182 332.552 76.1979 337.326 L76.1979 342.419 Q68.9091 338.186 61.7159 336.117 Q54.4908 334.016 47.1384 334.016 Q39.786 334.016 32.6246 336.117 Q25.4632 338.186 18.1426 342.419 Z" fill="#000000" fill-rule="nonzero" fill-opacity="1" /><polyline clip-path="url(#clip732)" style="stroke:#009af9; stroke-linecap:round; stroke-linejoin:round; stroke-width:4; stroke-opacity:1; fill:none" points="2011.14,1130.2 1958.71,1119.02 1907.69,1107.83 1858.06,1096.65 1809.77,1085.46 1762.78,1074.28 1717.07,1063.09 1672.6,1051.91 1629.33,1040.72 1587.23,1029.54 1546.27,1018.35 1506.43,1007.17 1467.66,995.98 1429.94,984.795 1393.25,973.609 1357.55,962.424 1322.82,951.239 1289.03,940.054 1256.16,928.868 1224.18,917.683 1193.07,906.498 1162.8,895.312 1133.35,884.127 1104.7,872.942 1076.83,861.757 1049.71,850.571 1023.33,839.386 997.67,828.201 972.704,817.015 948.415,805.83 924.786,794.645 901.798,783.46 879.435,772.274 857.679,761.089 836.514,749.904 815.924,738.718 795.893,727.533 776.406,716.348 757.448,705.163 739.006,693.977 721.065,682.792 703.611,671.607 686.631,660.421 670.113,649.236 654.044,638.051 638.411,626.866 623.204,615.68 608.409,604.495 594.017,593.31 580.016,582.124 566.396,570.939 553.146,559.754 540.256,548.569 527.716,537.383 515.518,526.198 503.651,515.013 492.107,503.827 480.877,492.642 469.952,481.457 459.324,470.272 448.985,459.086 438.928,447.901 429.144,436.716 419.626,425.53 410.367,414.345 401.359,403.16 392.597,391.975 384.073,380.789 375.781,369.604 367.715,358.419 359.868,347.233 352.234,336.048 344.808,324.863 337.584,313.678 330.557,302.492 323.721,291.307 317.071,280.122 310.601,268.936 304.308,257.751 298.186,246.566 292.231,235.381 286.437,224.195 280.802,213.01 275.319,201.825 269.986,190.639 264.798,179.454 259.751,168.269 254.842,157.084 250.066,145.898 245.42,134.713 240.9,123.528 236.504,112.342 232.227,101.157 228.066,89.9719 224.019,78.7866 "/>
</svg>
