<?xml version="1.0" encoding="utf-8"?>
<svg xmlns="http://www.w3.org/2000/svg" xmlns:xlink="http://www.w3.org/1999/xlink" width="528" height="336" viewBox="0 0 2112 1344">
<defs>
  <clipPath id="clip790">
    <rect x="0" y="0" width="2112" height="1344"/>
  </clipPath>
</defs>
<path clip-path="url(#clip790)" d="M0 1344 L2112 1344 L2112 0 L0 0  Z" fill="#ffffff" fill-rule="evenodd" fill-opacity="1"/>
<defs>
  <clipPath id="clip791">
    <rect x="422" y="0" width="1479" height="1344"/>
  </clipPath>
</defs>
<path clip-path="url(#clip790)" d="M227.349 1173.47 L2064.76 1173.47 L2064.76 47.2441 L227.349 47.2441  Z" fill="#ffffff" fill-rule="evenodd" fill-opacity="1"/>
<defs>
  <clipPath id="clip792">
    <rect x="227" y="47" width="1838" height="1127"/>
  </clipPath>
</defs>
<polyline clip-path="url(#clip792)" style="stroke:#000000; stroke-linecap:round; stroke-linejoin:round; stroke-width:2; stroke-opacity:0.1; fill:none" points="537.518,1173.47 537.518,47.2441 "/>
<polyline clip-path="url(#clip792)" style="stroke:#000000; stroke-linecap:round; stroke-linejoin:round; stroke-width:2; stroke-opacity:0.1; fill:none" points="906.327,1173.47 906.327,47.2441 "/>
<polyline clip-path="url(#clip792)" style="stroke:#000000; stroke-linecap:round; stroke-linejoin:round; stroke-width:2; stroke-opacity:0.1; fill:none" points="1275.14,1173.47 1275.14,47.2441 "/>
<polyline clip-path="url(#clip792)" style="stroke:#000000; stroke-linecap:round; stroke-linejoin:round; stroke-width:2; stroke-opacity:0.1; fill:none" points="1643.94,1173.47 1643.94,47.2441 "/>
<polyline clip-path="url(#clip792)" style="stroke:#000000; stroke-linecap:round; stroke-linejoin:round; stroke-width:2; stroke-opacity:0.1; fill:none" points="2012.75,1173.47 2012.75,47.2441 "/>
<polyline clip-path="url(#clip790)" style="stroke:#000000; stroke-linecap:round; stroke-linejoin:round; stroke-width:4; stroke-opacity:1; fill:none" points="227.349,1173.47 2064.76,1173.47 "/>
<polyline clip-path="url(#clip790)" style="stroke:#000000; stroke-linecap:round; stroke-linejoin:round; stroke-width:4; stroke-opacity:1; fill:none" points="537.518,1173.47 537.518,1154.57 "/>
<polyline clip-path="url(#clip790)" style="stroke:#000000; stroke-linecap:round; stroke-linejoin:round; stroke-width:4; stroke-opacity:1; fill:none" points="906.327,1173.47 906.327,1154.57 "/>
<polyline clip-path="url(#clip790)" style="stroke:#000000; stroke-linecap:round; stroke-linejoin:round; stroke-width:4; stroke-opacity:1; fill:none" points="1275.14,1173.47 1275.14,1154.57 "/>
<polyline clip-path="url(#clip790)" style="stroke:#000000; stroke-linecap:round; stroke-linejoin:round; stroke-width:4; stroke-opacity:1; fill:none" points="1643.94,1173.47 1643.94,1154.57 "/>
<polyline clip-path="url(#clip790)" style="stroke:#000000; stroke-linecap:round; stroke-linejoin:round; stroke-width:4; stroke-opacity:1; fill:none" points="2012.75,1173.47 2012.75,1154.57 "/>
<path clip-path="url(#clip790)" d="M527.9 1229.63 L535.539 1229.63 L535.539 1203.27 L527.228 1204.93 L527.228 1200.67 L535.492 1199.01 L540.168 1199.01 L540.168 1229.63 L547.807 1229.63 L547.807 1233.57 L527.9 1233.57 L527.9 1229.63 Z" fill="#000000" fill-rule="nonzero" fill-opacity="1" /><path clip-path="url(#clip790)" d="M900.98 1229.63 L917.299 1229.63 L917.299 1233.57 L895.355 1233.57 L895.355 1229.63 Q898.017 1226.88 902.6 1222.25 Q907.206 1217.59 908.387 1216.25 Q910.632 1213.73 911.512 1211.99 Q912.415 1210.23 912.415 1208.54 Q912.415 1205.79 910.47 1204.05 Q908.549 1202.32 905.447 1202.32 Q903.248 1202.32 900.794 1203.08 Q898.364 1203.84 895.586 1205.4 L895.586 1200.67 Q898.41 1199.54 900.864 1198.96 Q903.318 1198.38 905.355 1198.38 Q910.725 1198.38 913.919 1201.07 Q917.114 1203.75 917.114 1208.24 Q917.114 1210.37 916.304 1212.29 Q915.517 1214.19 913.41 1216.78 Q912.831 1217.46 909.73 1220.67 Q906.628 1223.87 900.98 1229.63 Z" fill="#000000" fill-rule="nonzero" fill-opacity="1" /><path clip-path="url(#clip790)" d="M1279.38 1214.93 Q1282.74 1215.65 1284.61 1217.92 Q1286.51 1220.19 1286.51 1223.52 Q1286.51 1228.64 1282.99 1231.44 Q1279.48 1234.24 1272.99 1234.24 Q1270.82 1234.24 1268.5 1233.8 Q1266.21 1233.38 1263.76 1232.53 L1263.76 1228.01 Q1265.7 1229.15 1268.02 1229.72 Q1270.33 1230.3 1272.86 1230.3 Q1277.25 1230.3 1279.55 1228.57 Q1281.86 1226.83 1281.86 1223.52 Q1281.86 1220.46 1279.71 1218.75 Q1277.58 1217.02 1273.76 1217.02 L1269.73 1217.02 L1269.73 1213.17 L1273.94 1213.17 Q1277.39 1213.17 1279.22 1211.81 Q1281.05 1210.42 1281.05 1207.83 Q1281.05 1205.16 1279.15 1203.75 Q1277.28 1202.32 1273.76 1202.32 Q1271.84 1202.32 1269.64 1202.73 Q1267.44 1203.15 1264.8 1204.03 L1264.8 1199.86 Q1267.46 1199.12 1269.78 1198.75 Q1272.11 1198.38 1274.18 1198.38 Q1279.5 1198.38 1282.6 1200.81 Q1285.7 1203.22 1285.7 1207.34 Q1285.7 1210.21 1284.06 1212.2 Q1282.42 1214.17 1279.38 1214.93 Z" fill="#000000" fill-rule="nonzero" fill-opacity="1" /><path clip-path="url(#clip790)" d="M1646.95 1203.08 L1635.15 1221.53 L1646.95 1221.53 L1646.95 1203.08 M1645.73 1199.01 L1651.61 1199.01 L1651.61 1221.53 L1656.54 1221.53 L1656.54 1225.42 L1651.61 1225.42 L1651.61 1233.57 L1646.95 1233.57 L1646.95 1225.42 L1631.35 1225.42 L1631.35 1220.9 L1645.73 1199.01 Z" fill="#000000" fill-rule="nonzero" fill-opacity="1" /><path clip-path="url(#clip790)" d="M2003.03 1199.01 L2021.39 1199.01 L2021.39 1202.94 L2007.31 1202.94 L2007.31 1211.41 Q2008.33 1211.07 2009.35 1210.9 Q2010.37 1210.72 2011.39 1210.72 Q2017.18 1210.72 2020.55 1213.89 Q2023.93 1217.06 2023.93 1222.48 Q2023.93 1228.06 2020.46 1231.16 Q2016.99 1234.24 2010.67 1234.24 Q2008.49 1234.24 2006.23 1233.87 Q2003.98 1233.5 2001.57 1232.76 L2001.57 1228.06 Q2003.66 1229.19 2005.88 1229.75 Q2008.1 1230.3 2010.58 1230.3 Q2014.58 1230.3 2016.92 1228.2 Q2019.26 1226.09 2019.26 1222.48 Q2019.26 1218.87 2016.92 1216.76 Q2014.58 1214.65 2010.58 1214.65 Q2008.7 1214.65 2006.83 1215.07 Q2004.98 1215.49 2003.03 1216.37 L2003.03 1199.01 Z" fill="#000000" fill-rule="nonzero" fill-opacity="1" /><path clip-path="url(#clip790)" d="M875.797 1271.78 L875.797 1289.63 L883.881 1289.63 Q888.369 1289.63 890.82 1287.31 Q893.27 1284.99 893.27 1280.69 Q893.27 1276.43 890.82 1274.1 Q888.369 1271.78 883.881 1271.78 L875.797 1271.78 M869.367 1266.49 L883.881 1266.49 Q891.87 1266.49 895.944 1270.12 Q900.05 1273.72 900.05 1280.69 Q900.05 1287.72 895.944 1291.32 Q891.87 1294.92 883.881 1294.92 L875.797 1294.92 L875.797 1314.01 L869.367 1314.01 L869.367 1266.49 Z" fill="#000000" fill-rule="nonzero" fill-opacity="1" /><path clip-path="url(#clip790)" d="M927.932 1283.84 Q926.945 1283.27 925.767 1283.01 Q924.622 1282.73 923.221 1282.73 Q918.256 1282.73 915.582 1285.97 Q912.94 1289.19 912.94 1295.24 L912.94 1314.01 L907.052 1314.01 L907.052 1278.37 L912.94 1278.37 L912.94 1283.9 Q914.787 1280.66 917.747 1279.1 Q920.707 1277.51 924.94 1277.51 Q925.545 1277.51 926.277 1277.6 Q927.009 1277.67 927.9 1277.83 L927.932 1283.84 Z" fill="#000000" fill-rule="nonzero" fill-opacity="1" /><path clip-path="url(#clip790)" d="M934.075 1278.37 L939.931 1278.37 L939.931 1314.01 L934.075 1314.01 L934.075 1278.37 M934.075 1264.49 L939.931 1264.49 L939.931 1271.91 L934.075 1271.91 L934.075 1264.49 Z" fill="#000000" fill-rule="nonzero" fill-opacity="1" /><path clip-path="url(#clip790)" d="M977.839 1279.74 L977.839 1285.21 Q975.356 1283.84 972.842 1283.17 Q970.359 1282.47 967.813 1282.47 Q962.116 1282.47 958.965 1286.1 Q955.813 1289.7 955.813 1296.22 Q955.813 1302.75 958.965 1306.38 Q962.116 1309.97 967.813 1309.97 Q970.359 1309.97 972.842 1309.3 Q975.356 1308.6 977.839 1307.24 L977.839 1312.65 Q975.388 1313.79 972.746 1314.36 Q970.136 1314.94 967.176 1314.94 Q959.124 1314.94 954.381 1309.88 Q949.639 1304.82 949.639 1296.22 Q949.639 1287.5 954.413 1282.5 Q959.219 1277.51 967.558 1277.51 Q970.264 1277.51 972.842 1278.08 Q975.42 1278.62 977.839 1279.74 Z" fill="#000000" fill-rule="nonzero" fill-opacity="1" /><path clip-path="url(#clip790)" d="M1018.52 1294.73 L1018.52 1297.59 L991.589 1297.59 Q991.971 1303.64 995.217 1306.82 Q998.496 1309.97 1004.32 1309.97 Q1007.69 1309.97 1010.85 1309.14 Q1014.03 1308.32 1017.15 1306.66 L1017.15 1312.2 Q1014 1313.54 1010.69 1314.24 Q1007.38 1314.94 1003.97 1314.94 Q995.44 1314.94 990.443 1309.97 Q985.478 1305.01 985.478 1296.54 Q985.478 1287.79 990.188 1282.66 Q994.931 1277.51 1002.95 1277.51 Q1010.14 1277.51 1014.31 1282.15 Q1018.52 1286.77 1018.52 1294.73 M1012.66 1293.01 Q1012.6 1288.2 1009.95 1285.34 Q1007.34 1282.47 1003.02 1282.47 Q998.114 1282.47 995.154 1285.24 Q992.225 1288.01 991.78 1293.04 L1012.66 1293.01 Z" fill="#000000" fill-rule="nonzero" fill-opacity="1" /><path clip-path="url(#clip790)" d="M1062.92 1264.55 Q1058.65 1271.87 1056.58 1279.04 Q1054.51 1286.2 1054.51 1293.55 Q1054.51 1300.9 1056.58 1308.13 Q1058.68 1315.32 1062.92 1322.61 L1057.82 1322.61 Q1053.05 1315.13 1050.66 1307.9 Q1048.31 1300.68 1048.31 1293.55 Q1048.31 1286.45 1050.66 1279.26 Q1053.02 1272.06 1057.82 1264.55 L1062.92 1264.55 Z" fill="#000000" fill-rule="nonzero" fill-opacity="1" /><path clip-path="url(#clip790)" d="M1102.03 1285.21 Q1104.23 1281.26 1107.29 1279.39 Q1110.34 1277.51 1114.48 1277.51 Q1120.05 1277.51 1123.07 1281.42 Q1126.1 1285.31 1126.1 1292.5 L1126.1 1314.01 L1120.21 1314.01 L1120.21 1292.69 Q1120.21 1287.57 1118.39 1285.08 Q1116.58 1282.6 1112.86 1282.6 Q1108.3 1282.6 1105.66 1285.62 Q1103.02 1288.65 1103.02 1293.87 L1103.02 1314.01 L1097.13 1314.01 L1097.13 1292.69 Q1097.13 1287.53 1095.32 1285.08 Q1093.5 1282.6 1089.72 1282.6 Q1085.23 1282.6 1082.59 1285.66 Q1079.94 1288.68 1079.94 1293.87 L1079.94 1314.01 L1074.06 1314.01 L1074.06 1278.37 L1079.94 1278.37 L1079.94 1283.9 Q1081.95 1280.63 1084.75 1279.07 Q1087.55 1277.51 1091.4 1277.51 Q1095.29 1277.51 1097.99 1279.48 Q1100.73 1281.45 1102.03 1285.21 Z" fill="#000000" fill-rule="nonzero" fill-opacity="1" /><path clip-path="url(#clip790)" d="M1137.78 1278.37 L1143.63 1278.37 L1143.63 1314.01 L1137.78 1314.01 L1137.78 1278.37 M1137.78 1264.49 L1143.63 1264.49 L1143.63 1271.91 L1137.78 1271.91 L1137.78 1264.49 Z" fill="#000000" fill-rule="nonzero" fill-opacity="1" /><path clip-path="url(#clip790)" d="M1155.89 1264.49 L1161.74 1264.49 L1161.74 1314.01 L1155.89 1314.01 L1155.89 1264.49 Z" fill="#000000" fill-rule="nonzero" fill-opacity="1" /><path clip-path="url(#clip790)" d="M1174 1264.49 L1179.85 1264.49 L1179.85 1314.01 L1174 1314.01 L1174 1264.49 Z" fill="#000000" fill-rule="nonzero" fill-opacity="1" /><path clip-path="url(#clip790)" d="M1192.11 1278.37 L1197.96 1278.37 L1197.96 1314.01 L1192.11 1314.01 L1192.11 1278.37 M1192.11 1264.49 L1197.96 1264.49 L1197.96 1271.91 L1192.11 1271.91 L1192.11 1264.49 Z" fill="#000000" fill-rule="nonzero" fill-opacity="1" /><path clip-path="url(#clip790)" d="M1224.03 1282.47 Q1219.32 1282.47 1216.58 1286.16 Q1213.85 1289.83 1213.85 1296.22 Q1213.85 1302.62 1216.55 1306.31 Q1219.29 1309.97 1224.03 1309.97 Q1228.71 1309.97 1231.45 1306.28 Q1234.19 1302.59 1234.19 1296.22 Q1234.19 1289.89 1231.45 1286.2 Q1228.71 1282.47 1224.03 1282.47 M1224.03 1277.51 Q1231.67 1277.51 1236.03 1282.47 Q1240.39 1287.44 1240.39 1296.22 Q1240.39 1304.98 1236.03 1309.97 Q1231.67 1314.94 1224.03 1314.94 Q1216.36 1314.94 1212 1309.97 Q1207.67 1304.98 1207.67 1296.22 Q1207.67 1287.44 1212 1282.47 Q1216.36 1277.51 1224.03 1277.51 Z" fill="#000000" fill-rule="nonzero" fill-opacity="1" /><path clip-path="url(#clip790)" d="M1279.73 1292.5 L1279.73 1314.01 L1273.88 1314.01 L1273.88 1292.69 Q1273.88 1287.63 1271.9 1285.11 Q1269.93 1282.6 1265.98 1282.6 Q1261.24 1282.6 1258.5 1285.62 Q1255.77 1288.65 1255.77 1293.87 L1255.77 1314.01 L1249.88 1314.01 L1249.88 1278.37 L1255.77 1278.37 L1255.77 1283.9 Q1257.87 1280.69 1260.7 1279.1 Q1263.56 1277.51 1267.29 1277.51 Q1273.43 1277.51 1276.58 1281.33 Q1279.73 1285.11 1279.73 1292.5 Z" fill="#000000" fill-rule="nonzero" fill-opacity="1" /><path clip-path="url(#clip790)" d="M1312.39 1266.49 L1318.82 1266.49 L1318.82 1310.7 Q1318.82 1319.3 1315.54 1323.18 Q1312.29 1327.06 1305.07 1327.06 L1302.62 1327.06 L1302.62 1321.65 L1304.62 1321.65 Q1308.89 1321.65 1310.64 1319.27 Q1312.39 1316.88 1312.39 1310.7 L1312.39 1266.49 Z" fill="#000000" fill-rule="nonzero" fill-opacity="1" /><path clip-path="url(#clip790)" d="M1338.04 1271.78 L1338.04 1289.63 L1346.13 1289.63 Q1350.61 1289.63 1353.07 1287.31 Q1355.52 1284.99 1355.52 1280.69 Q1355.52 1276.43 1353.07 1274.1 Q1350.61 1271.78 1346.13 1271.78 L1338.04 1271.78 M1331.61 1266.49 L1346.13 1266.49 Q1354.12 1266.49 1358.19 1270.12 Q1362.3 1273.72 1362.3 1280.69 Q1362.3 1287.72 1358.19 1291.32 Q1354.12 1294.92 1346.13 1294.92 L1338.04 1294.92 L1338.04 1314.01 L1331.61 1314.01 L1331.61 1266.49 Z" fill="#000000" fill-rule="nonzero" fill-opacity="1" /><path clip-path="url(#clip790)" d="M1362.96 1266.49 L1369.87 1266.49 L1383.05 1286.04 L1396.13 1266.49 L1403.04 1266.49 L1386.23 1291.38 L1386.23 1314.01 L1379.77 1314.01 L1379.77 1291.38 L1362.96 1266.49 Z" fill="#000000" fill-rule="nonzero" fill-opacity="1" /><path clip-path="url(#clip790)" d="M1408.13 1264.55 L1413.22 1264.55 Q1418 1272.06 1420.35 1279.26 Q1422.74 1286.45 1422.74 1293.55 Q1422.74 1300.68 1420.35 1307.9 Q1418 1315.13 1413.22 1322.61 L1408.13 1322.61 Q1412.36 1315.32 1414.43 1308.13 Q1416.53 1300.9 1416.53 1293.55 Q1416.53 1286.2 1414.43 1279.04 Q1412.36 1271.87 1408.13 1264.55 Z" fill="#000000" fill-rule="nonzero" fill-opacity="1" /><polyline clip-path="url(#clip792)" style="stroke:#000000; stroke-linecap:round; stroke-linejoin:round; stroke-width:2; stroke-opacity:0.1; fill:none" points="227.349,1081.45 2064.76,1081.45 "/>
<polyline clip-path="url(#clip792)" style="stroke:#000000; stroke-linecap:round; stroke-linejoin:round; stroke-width:2; stroke-opacity:0.1; fill:none" points="227.349,843.564 2064.76,843.564 "/>
<polyline clip-path="url(#clip792)" style="stroke:#000000; stroke-linecap:round; stroke-linejoin:round; stroke-width:2; stroke-opacity:0.1; fill:none" points="227.349,605.677 2064.76,605.677 "/>
<polyline clip-path="url(#clip792)" style="stroke:#000000; stroke-linecap:round; stroke-linejoin:round; stroke-width:2; stroke-opacity:0.1; fill:none" points="227.349,367.79 2064.76,367.79 "/>
<polyline clip-path="url(#clip792)" style="stroke:#000000; stroke-linecap:round; stroke-linejoin:round; stroke-width:2; stroke-opacity:0.1; fill:none" points="227.349,129.904 2064.76,129.904 "/>
<polyline clip-path="url(#clip790)" style="stroke:#000000; stroke-linecap:round; stroke-linejoin:round; stroke-width:4; stroke-opacity:1; fill:none" points="227.349,1173.47 227.349,47.2441 "/>
<polyline clip-path="url(#clip790)" style="stroke:#000000; stroke-linecap:round; stroke-linejoin:round; stroke-width:4; stroke-opacity:1; fill:none" points="227.349,1081.45 246.247,1081.45 "/>
<polyline clip-path="url(#clip790)" style="stroke:#000000; stroke-linecap:round; stroke-linejoin:round; stroke-width:4; stroke-opacity:1; fill:none" points="227.349,843.564 246.247,843.564 "/>
<polyline clip-path="url(#clip790)" style="stroke:#000000; stroke-linecap:round; stroke-linejoin:round; stroke-width:4; stroke-opacity:1; fill:none" points="227.349,605.677 246.247,605.677 "/>
<polyline clip-path="url(#clip790)" style="stroke:#000000; stroke-linecap:round; stroke-linejoin:round; stroke-width:4; stroke-opacity:1; fill:none" points="227.349,367.79 246.247,367.79 "/>
<polyline clip-path="url(#clip790)" style="stroke:#000000; stroke-linecap:round; stroke-linejoin:round; stroke-width:4; stroke-opacity:1; fill:none" points="227.349,129.904 246.247,129.904 "/>
<path clip-path="url(#clip790)" d="M154.142 1079.59 Q150.994 1079.59 149.142 1081.74 Q147.313 1083.89 147.313 1087.64 Q147.313 1091.37 149.142 1093.55 Q150.994 1095.7 154.142 1095.7 Q157.29 1095.7 159.119 1093.55 Q160.97 1091.37 160.97 1087.64 Q160.97 1083.89 159.119 1081.74 Q157.29 1079.59 154.142 1079.59 M163.424 1064.94 L163.424 1069.19 Q161.665 1068.36 159.859 1067.92 Q158.077 1067.48 156.318 1067.48 Q151.688 1067.48 149.234 1070.61 Q146.804 1073.73 146.457 1080.05 Q147.822 1078.04 149.883 1076.97 Q151.943 1075.88 154.42 1075.88 Q159.628 1075.88 162.637 1079.06 Q165.67 1082.2 165.67 1087.64 Q165.67 1092.97 162.521 1096.18 Q159.373 1099.4 154.142 1099.4 Q148.146 1099.4 144.975 1094.82 Q141.804 1090.21 141.804 1081.49 Q141.804 1073.29 145.693 1068.43 Q149.582 1063.55 156.133 1063.55 Q157.892 1063.55 159.674 1063.89 Q161.48 1064.24 163.424 1064.94 Z" fill="#000000" fill-rule="nonzero" fill-opacity="1" /><path clip-path="url(#clip790)" d="M183.725 1067.25 Q180.114 1067.25 178.285 1070.81 Q176.48 1074.36 176.48 1081.49 Q176.48 1088.59 178.285 1092.16 Q180.114 1095.7 183.725 1095.7 Q187.359 1095.7 189.165 1092.16 Q190.993 1088.59 190.993 1081.49 Q190.993 1074.36 189.165 1070.81 Q187.359 1067.25 183.725 1067.25 M183.725 1063.55 Q189.535 1063.55 192.591 1068.15 Q195.669 1072.74 195.669 1081.49 Q195.669 1090.21 192.591 1094.82 Q189.535 1099.4 183.725 1099.4 Q177.915 1099.4 174.836 1094.82 Q171.781 1090.21 171.781 1081.49 Q171.781 1072.74 174.836 1068.15 Q177.915 1063.55 183.725 1063.55 Z" fill="#000000" fill-rule="nonzero" fill-opacity="1" /><path clip-path="url(#clip790)" d="M153.563 844.432 Q150.23 844.432 148.308 846.215 Q146.41 847.997 146.41 851.122 Q146.41 854.247 148.308 856.029 Q150.23 857.812 153.563 857.812 Q156.896 857.812 158.818 856.029 Q160.739 854.224 160.739 851.122 Q160.739 847.997 158.818 846.215 Q156.92 844.432 153.563 844.432 M148.887 842.442 Q145.878 841.701 144.188 839.641 Q142.521 837.581 142.521 834.618 Q142.521 830.474 145.461 828.067 Q148.424 825.659 153.563 825.659 Q158.725 825.659 161.665 828.067 Q164.605 830.474 164.605 834.618 Q164.605 837.581 162.915 839.641 Q161.248 841.701 158.262 842.442 Q161.642 843.229 163.517 845.52 Q165.415 847.812 165.415 851.122 Q165.415 856.145 162.336 858.83 Q159.281 861.516 153.563 861.516 Q147.846 861.516 144.767 858.83 Q141.711 856.145 141.711 851.122 Q141.711 847.812 143.609 845.52 Q145.508 843.229 148.887 842.442 M147.174 835.057 Q147.174 837.743 148.841 839.247 Q150.531 840.752 153.563 840.752 Q156.572 840.752 158.262 839.247 Q159.975 837.743 159.975 835.057 Q159.975 832.372 158.262 830.868 Q156.572 829.363 153.563 829.363 Q150.531 829.363 148.841 830.868 Q147.174 832.372 147.174 835.057 Z" fill="#000000" fill-rule="nonzero" fill-opacity="1" /><path clip-path="url(#clip790)" d="M183.725 829.363 Q180.114 829.363 178.285 832.928 Q176.48 836.469 176.48 843.599 Q176.48 850.705 178.285 854.27 Q180.114 857.812 183.725 857.812 Q187.359 857.812 189.165 854.27 Q190.993 850.705 190.993 843.599 Q190.993 836.469 189.165 832.928 Q187.359 829.363 183.725 829.363 M183.725 825.659 Q189.535 825.659 192.591 830.266 Q195.669 834.849 195.669 843.599 Q195.669 852.326 192.591 856.932 Q189.535 861.516 183.725 861.516 Q177.915 861.516 174.836 856.932 Q171.781 852.326 171.781 843.599 Q171.781 834.849 174.836 830.266 Q177.915 825.659 183.725 825.659 Z" fill="#000000" fill-rule="nonzero" fill-opacity="1" /><path clip-path="url(#clip790)" d="M114.211 619.022 L121.85 619.022 L121.85 592.657 L113.54 594.323 L113.54 590.064 L121.804 588.397 L126.48 588.397 L126.48 619.022 L134.119 619.022 L134.119 622.957 L114.211 622.957 L114.211 619.022 Z" fill="#000000" fill-rule="nonzero" fill-opacity="1" /><path clip-path="url(#clip790)" d="M153.563 591.476 Q149.952 591.476 148.123 595.041 Q146.318 598.583 146.318 605.712 Q146.318 612.819 148.123 616.383 Q149.952 619.925 153.563 619.925 Q157.197 619.925 159.003 616.383 Q160.832 612.819 160.832 605.712 Q160.832 598.583 159.003 595.041 Q157.197 591.476 153.563 591.476 M153.563 587.772 Q159.373 587.772 162.429 592.379 Q165.507 596.962 165.507 605.712 Q165.507 614.439 162.429 619.045 Q159.373 623.629 153.563 623.629 Q147.753 623.629 144.674 619.045 Q141.619 614.439 141.619 605.712 Q141.619 596.962 144.674 592.379 Q147.753 587.772 153.563 587.772 Z" fill="#000000" fill-rule="nonzero" fill-opacity="1" /><path clip-path="url(#clip790)" d="M183.725 591.476 Q180.114 591.476 178.285 595.041 Q176.48 598.583 176.48 605.712 Q176.48 612.819 178.285 616.383 Q180.114 619.925 183.725 619.925 Q187.359 619.925 189.165 616.383 Q190.993 612.819 190.993 605.712 Q190.993 598.583 189.165 595.041 Q187.359 591.476 183.725 591.476 M183.725 587.772 Q189.535 587.772 192.591 592.379 Q195.669 596.962 195.669 605.712 Q195.669 614.439 192.591 619.045 Q189.535 623.629 183.725 623.629 Q177.915 623.629 174.836 619.045 Q171.781 614.439 171.781 605.712 Q171.781 596.962 174.836 592.379 Q177.915 587.772 183.725 587.772 Z" fill="#000000" fill-rule="nonzero" fill-opacity="1" /><path clip-path="url(#clip790)" d="M114.211 381.135 L121.85 381.135 L121.85 354.77 L113.54 356.436 L113.54 352.177 L121.804 350.51 L126.48 350.51 L126.48 381.135 L134.119 381.135 L134.119 385.07 L114.211 385.07 L114.211 381.135 Z" fill="#000000" fill-rule="nonzero" fill-opacity="1" /><path clip-path="url(#clip790)" d="M147.591 381.135 L163.91 381.135 L163.91 385.07 L141.966 385.07 L141.966 381.135 Q144.628 378.381 149.211 373.751 Q153.818 369.098 154.998 367.756 Q157.244 365.233 158.123 363.497 Q159.026 361.737 159.026 360.047 Q159.026 357.293 157.082 355.557 Q155.16 353.821 152.058 353.821 Q149.859 353.821 147.406 354.585 Q144.975 355.348 142.197 356.899 L142.197 352.177 Q145.021 351.043 147.475 350.464 Q149.929 349.885 151.966 349.885 Q157.336 349.885 160.531 352.571 Q163.725 355.256 163.725 359.747 Q163.725 361.876 162.915 363.797 Q162.128 365.696 160.021 368.288 Q159.443 368.959 156.341 372.177 Q153.239 375.371 147.591 381.135 Z" fill="#000000" fill-rule="nonzero" fill-opacity="1" /><path clip-path="url(#clip790)" d="M183.725 353.589 Q180.114 353.589 178.285 357.154 Q176.48 360.696 176.48 367.825 Q176.48 374.932 178.285 378.496 Q180.114 382.038 183.725 382.038 Q187.359 382.038 189.165 378.496 Q190.993 374.932 190.993 367.825 Q190.993 360.696 189.165 357.154 Q187.359 353.589 183.725 353.589 M183.725 349.885 Q189.535 349.885 192.591 354.492 Q195.669 359.075 195.669 367.825 Q195.669 376.552 192.591 381.158 Q189.535 385.742 183.725 385.742 Q177.915 385.742 174.836 381.158 Q171.781 376.552 171.781 367.825 Q171.781 359.075 174.836 354.492 Q177.915 349.885 183.725 349.885 Z" fill="#000000" fill-rule="nonzero" fill-opacity="1" /><path clip-path="url(#clip790)" d="M114.211 143.248 L121.85 143.248 L121.85 116.883 L113.54 118.549 L113.54 114.29 L121.804 112.624 L126.48 112.624 L126.48 143.248 L134.119 143.248 L134.119 147.184 L114.211 147.184 L114.211 143.248 Z" fill="#000000" fill-rule="nonzero" fill-opacity="1" /><path clip-path="url(#clip790)" d="M156.41 116.698 L144.605 135.147 L156.41 135.147 L156.41 116.698 M155.183 112.624 L161.063 112.624 L161.063 135.147 L165.994 135.147 L165.994 139.035 L161.063 139.035 L161.063 147.184 L156.41 147.184 L156.41 139.035 L140.809 139.035 L140.809 134.522 L155.183 112.624 Z" fill="#000000" fill-rule="nonzero" fill-opacity="1" /><path clip-path="url(#clip790)" d="M183.725 115.702 Q180.114 115.702 178.285 119.267 Q176.48 122.809 176.48 129.938 Q176.48 137.045 178.285 140.61 Q180.114 144.151 183.725 144.151 Q187.359 144.151 189.165 140.61 Q190.993 137.045 190.993 129.938 Q190.993 122.809 189.165 119.267 Q187.359 115.702 183.725 115.702 M183.725 111.999 Q189.535 111.999 192.591 116.605 Q195.669 121.188 195.669 129.938 Q195.669 138.665 192.591 143.272 Q189.535 147.855 183.725 147.855 Q177.915 147.855 174.836 143.272 Q171.781 138.665 171.781 129.938 Q171.781 121.188 174.836 116.605 Q177.915 111.999 183.725 111.999 Z" fill="#000000" fill-rule="nonzero" fill-opacity="1" /><path clip-path="url(#clip790)" d="M45.3242 915.88 Q46.0244 913.811 48.3161 911.869 Q50.6077 909.896 54.6181 907.922 L67.6042 901.398 L67.6042 908.304 L55.4138 914.384 Q50.6395 916.739 49.08 918.967 Q47.5204 921.163 47.5204 924.982 L47.5204 931.985 L67.6042 931.985 L67.6042 938.414 L20.0842 938.414 L20.0842 923.9 Q20.0842 915.752 23.4898 911.742 Q26.8955 907.731 33.7704 907.731 Q38.2582 907.731 41.2183 909.832 Q44.1784 911.901 45.3242 915.88 M25.3677 931.985 L42.2368 931.985 L42.2368 923.9 Q42.2368 919.253 40.1043 916.898 Q37.94 914.511 33.7704 914.511 Q29.6009 914.511 27.5002 916.898 Q25.3677 919.253 25.3677 923.9 L25.3677 931.985 Z" fill="#000000" fill-rule="nonzero" fill-opacity="1" /><path clip-path="url(#clip790)" d="M48.3161 865.813 L51.1806 865.813 L51.1806 892.74 Q57.2281 892.358 60.4109 889.112 Q63.5619 885.833 63.5619 880.009 Q63.5619 876.635 62.7344 873.484 Q61.9069 870.301 60.2518 867.182 L65.7899 867.182 Q67.1267 870.333 67.827 873.643 Q68.5272 876.953 68.5272 880.359 Q68.5272 888.889 63.5619 893.886 Q58.5967 898.851 50.1303 898.851 Q41.3774 898.851 36.2531 894.141 Q31.0968 889.398 31.0968 881.377 Q31.0968 874.184 35.7438 870.015 Q40.3589 865.813 48.3161 865.813 M46.5973 871.67 Q41.7912 871.733 38.9266 874.375 Q36.0621 876.985 36.0621 881.314 Q36.0621 886.215 38.8312 889.175 Q41.6002 892.104 46.6292 892.549 L46.5973 871.67 Z" fill="#000000" fill-rule="nonzero" fill-opacity="1" /><path clip-path="url(#clip790)" d="M31.9562 860.402 L31.9562 854.196 L61.875 843.056 L31.9562 831.916 L31.9562 825.709 L67.6042 839.077 L67.6042 847.034 L31.9562 860.402 Z" fill="#000000" fill-rule="nonzero" fill-opacity="1" /><path clip-path="url(#clip790)" d="M48.3161 787.133 L51.1806 787.133 L51.1806 814.06 Q57.2281 813.678 60.4109 810.432 Q63.5619 807.153 63.5619 801.329 Q63.5619 797.955 62.7344 794.804 Q61.9069 791.621 60.2518 788.502 L65.7899 788.502 Q67.1267 791.653 67.827 794.963 Q68.5272 798.273 68.5272 801.679 Q68.5272 810.209 63.5619 815.206 Q58.5967 820.171 50.1303 820.171 Q41.3774 820.171 36.2531 815.46 Q31.0968 810.718 31.0968 802.697 Q31.0968 795.504 35.7438 791.334 Q40.3589 787.133 48.3161 787.133 M46.5973 792.99 Q41.7912 793.053 38.9266 795.695 Q36.0621 798.305 36.0621 802.634 Q36.0621 807.535 38.8312 810.495 Q41.6002 813.423 46.6292 813.869 L46.5973 792.99 Z" fill="#000000" fill-rule="nonzero" fill-opacity="1" /><path clip-path="url(#clip790)" d="M46.0881 747.889 L67.6042 747.889 L67.6042 753.745 L46.279 753.745 Q41.2183 753.745 38.7038 755.718 Q36.1894 757.692 36.1894 761.638 Q36.1894 766.381 39.2131 769.118 Q42.2368 771.855 47.4567 771.855 L67.6042 771.855 L67.6042 777.744 L31.9562 777.744 L31.9562 771.855 L37.4944 771.855 Q34.2797 769.755 32.6883 766.922 Q31.0968 764.057 31.0968 760.333 Q31.0968 754.191 34.9163 751.04 Q38.7038 747.889 46.0881 747.889 Z" fill="#000000" fill-rule="nonzero" fill-opacity="1" /><path clip-path="url(#clip790)" d="M53.5359 736.812 L31.9562 736.812 L31.9562 730.956 L53.3131 730.956 Q58.3739 730.956 60.9202 728.982 Q63.4346 727.009 63.4346 723.062 Q63.4346 718.32 60.4109 715.583 Q57.3872 712.813 52.1673 712.813 L31.9562 712.813 L31.9562 706.957 L67.6042 706.957 L67.6042 712.813 L62.1296 712.813 Q65.3762 714.946 66.9676 717.779 Q68.5272 720.58 68.5272 724.304 Q68.5272 730.446 64.7078 733.629 Q60.8883 736.812 53.5359 736.812 M31.0968 722.076 L31.0968 722.076 Z" fill="#000000" fill-rule="nonzero" fill-opacity="1" /><path clip-path="url(#clip790)" d="M48.3161 664.402 L51.1806 664.402 L51.1806 691.329 Q57.2281 690.947 60.4109 687.701 Q63.5619 684.422 63.5619 678.598 Q63.5619 675.224 62.7344 672.073 Q61.9069 668.89 60.2518 665.771 L65.7899 665.771 Q67.1267 668.922 67.827 672.232 Q68.5272 675.542 68.5272 678.948 Q68.5272 687.478 63.5619 692.475 Q58.5967 697.44 50.1303 697.44 Q41.3774 697.44 36.2531 692.73 Q31.0968 687.987 31.0968 679.966 Q31.0968 672.773 35.7438 668.604 Q40.3589 664.402 48.3161 664.402 M46.5973 670.259 Q41.7912 670.322 38.9266 672.964 Q36.0621 675.574 36.0621 679.903 Q36.0621 684.804 38.8312 687.764 Q41.6002 690.693 46.6292 691.138 L46.5973 670.259 Z" fill="#000000" fill-rule="nonzero" fill-opacity="1" /><path clip-path="url(#clip790)" d="M18.1426 620.001 Q25.4632 624.266 32.6246 626.335 Q39.786 628.404 47.1384 628.404 Q54.4908 628.404 61.7159 626.335 Q68.9091 624.235 76.1979 620.001 L76.1979 625.094 Q68.7182 629.868 61.4931 632.255 Q54.268 634.611 47.1384 634.611 Q40.0406 634.611 32.8474 632.255 Q25.6542 629.9 18.1426 625.094 L18.1426 620.001 Z" fill="#000000" fill-rule="nonzero" fill-opacity="1" /><path clip-path="url(#clip790)" d="M49.812 583.049 Q43.3508 583.049 39.6905 585.722 Q35.9984 588.364 35.9984 593.011 Q35.9984 597.658 39.6905 600.331 Q43.3508 602.973 49.812 602.973 Q56.2732 602.973 59.9653 600.331 Q63.6256 597.658 63.6256 593.011 Q63.6256 588.364 59.9653 585.722 Q56.2732 583.049 49.812 583.049 M37.3671 602.973 Q34.1842 601.127 32.6564 598.326 Q31.0968 595.493 31.0968 591.579 Q31.0968 585.086 36.2531 581.043 Q41.4093 576.969 49.812 576.969 Q58.2147 576.969 63.371 581.043 Q68.5272 585.086 68.5272 591.579 Q68.5272 595.493 66.9994 598.326 Q65.4398 601.127 62.257 602.973 L67.6042 602.973 L67.6042 608.861 L18.079 608.861 L18.079 602.973 L37.3671 602.973 Z" fill="#000000" fill-rule="nonzero" fill-opacity="1" /><path clip-path="url(#clip790)" d="M31.9562 567.262 L31.9562 561.405 L67.6042 561.405 L67.6042 567.262 L31.9562 567.262 M18.079 567.262 L18.079 561.405 L25.495 561.405 L25.495 567.262 L18.079 567.262 Z" fill="#000000" fill-rule="nonzero" fill-opacity="1" /><path clip-path="url(#clip790)" d="M18.079 549.151 L18.079 543.295 L67.6042 543.295 L67.6042 549.151 L18.079 549.151 Z" fill="#000000" fill-rule="nonzero" fill-opacity="1" /><path clip-path="url(#clip790)" d="M18.079 531.041 L18.079 525.184 L67.6042 525.184 L67.6042 531.041 L18.079 531.041 Z" fill="#000000" fill-rule="nonzero" fill-opacity="1" /><path clip-path="url(#clip790)" d="M31.9562 512.93 L31.9562 507.074 L67.6042 507.074 L67.6042 512.93 L31.9562 512.93 M18.079 512.93 L18.079 507.074 L25.495 507.074 L25.495 512.93 L18.079 512.93 Z" fill="#000000" fill-rule="nonzero" fill-opacity="1" /><path clip-path="url(#clip790)" d="M36.0621 481.006 Q36.0621 485.717 39.7542 488.454 Q43.4145 491.191 49.812 491.191 Q56.2095 491.191 59.9017 488.486 Q63.5619 485.749 63.5619 481.006 Q63.5619 476.327 59.8698 473.59 Q56.1777 470.853 49.812 470.853 Q43.4781 470.853 39.786 473.59 Q36.0621 476.327 36.0621 481.006 M31.0968 481.006 Q31.0968 473.367 36.0621 469.007 Q41.0273 464.646 49.812 464.646 Q58.5649 464.646 63.5619 469.007 Q68.5272 473.367 68.5272 481.006 Q68.5272 488.677 63.5619 493.037 Q58.5649 497.366 49.812 497.366 Q41.0273 497.366 36.0621 493.037 Q31.0968 488.677 31.0968 481.006 Z" fill="#000000" fill-rule="nonzero" fill-opacity="1" /><path clip-path="url(#clip790)" d="M46.0881 425.306 L67.6042 425.306 L67.6042 431.163 L46.279 431.163 Q41.2183 431.163 38.7038 433.136 Q36.1894 435.11 36.1894 439.056 Q36.1894 443.799 39.2131 446.536 Q42.2368 449.273 47.4567 449.273 L67.6042 449.273 L67.6042 455.161 L31.9562 455.161 L31.9562 449.273 L37.4944 449.273 Q34.2797 447.173 32.6883 444.34 Q31.0968 441.475 31.0968 437.751 Q31.0968 431.608 34.9163 428.457 Q38.7038 425.306 46.0881 425.306 Z" fill="#000000" fill-rule="nonzero" fill-opacity="1" /><path clip-path="url(#clip790)" d="M20.0842 392.65 L20.0842 386.221 L64.294 386.221 Q72.8877 386.221 76.7708 389.499 Q80.6539 392.746 80.6539 399.971 L80.6539 402.422 L75.243 402.422 L75.243 400.416 Q75.243 396.151 72.8559 394.401 Q70.4687 392.65 64.294 392.65 L20.0842 392.65 Z" fill="#000000" fill-rule="nonzero" fill-opacity="1" /><path clip-path="url(#clip790)" d="M25.3677 366.996 L43.2235 366.996 L43.2235 358.912 Q43.2235 354.424 40.9 351.973 Q38.5765 349.523 34.2797 349.523 Q30.0147 349.523 27.6912 351.973 Q25.3677 354.424 25.3677 358.912 L25.3677 366.996 M20.0842 373.426 L20.0842 358.912 Q20.0842 350.923 23.7126 346.849 Q27.3092 342.743 34.2797 342.743 Q41.3138 342.743 44.9104 346.849 Q48.507 350.923 48.507 358.912 L48.507 366.996 L67.6042 366.996 L67.6042 373.426 L20.0842 373.426 Z" fill="#000000" fill-rule="nonzero" fill-opacity="1" /><path clip-path="url(#clip790)" d="M20.0842 342.075 L20.0842 335.168 L39.6269 321.991 L20.0842 308.909 L20.0842 302.003 L44.9741 318.808 L67.6042 318.808 L67.6042 325.269 L44.9741 325.269 L20.0842 342.075 Z" fill="#000000" fill-rule="nonzero" fill-opacity="1" /><path clip-path="url(#clip790)" d="M18.1426 296.91 L18.1426 291.817 Q25.6542 287.043 32.8474 284.688 Q40.0406 282.301 47.1384 282.301 Q54.268 282.301 61.4931 284.688 Q68.7182 287.043 76.1979 291.817 L76.1979 296.91 Q68.9091 292.677 61.7159 290.608 Q54.4908 288.507 47.1384 288.507 Q39.786 288.507 32.6246 290.608 Q25.4632 292.677 18.1426 296.91 Z" fill="#000000" fill-rule="nonzero" fill-opacity="1" /><polyline clip-path="url(#clip792)" style="stroke:#009af9; stroke-linecap:round; stroke-linejoin:round; stroke-width:4; stroke-opacity:1; fill:none" points="279.351,1141.6 297.792,1053.37 316.232,970.421 334.673,892.522 353.113,819.463 371.554,751.039 389.994,687.052 408.435,627.312 426.875,571.637 445.315,519.849 463.756,471.78 482.196,427.266 500.637,386.149 519.077,348.278 537.518,313.507 555.958,281.696 574.399,252.71 592.839,226.419 611.28,202.698 629.72,181.428 648.16,162.492 666.601,145.78 685.041,131.184 703.482,118.603 721.922,107.937 740.363,99.0925 758.803,91.9775 777.244,86.5049 795.684,82.5908 814.125,80.1544 832.565,79.1184 851.005,79.4085 869.446,80.9534 887.886,83.6846 906.327,87.5366 924.767,92.4464 943.208,98.3536 961.648,105.2 980.089,112.931 998.529,121.493 1016.97,130.835 1035.41,140.909 1053.85,151.667 1072.29,163.064 1090.73,175.06 1109.17,187.611 1127.61,200.68 1146.05,214.228 1164.49,228.22 1182.93,242.622 1201.37,257.401 1219.81,272.526 1238.25,287.967 1256.7,303.696 1275.14,319.685 1293.58,335.91 1312.02,352.344 1330.46,368.966 1348.9,385.751 1367.34,402.68 1385.78,419.732 1404.22,436.888 1422.66,454.128 1441.1,471.437 1459.54,488.798 1477.98,506.195 1496.42,523.612 1514.86,541.037 1533.3,558.455 1551.74,575.855 1570.18,593.224 1588.62,610.551 1607.06,627.826 1625.5,645.038 1643.94,662.179 1662.39,679.238 1680.83,696.209 1699.27,713.083 1717.71,729.852 1736.15,746.511 1754.59,763.052 1773.03,779.47 1791.47,795.759 1809.91,811.915 1828.35,827.931 1846.79,843.804 1865.23,859.53 1883.67,875.105 1902.11,890.525 1920.55,905.788 1938.99,920.89 1957.43,935.829 1975.87,950.603 1994.31,965.209 2012.75,979.646 "/>
</svg>
