<?xml version="1.0" encoding="utf-8"?>
<svg xmlns="http://www.w3.org/2000/svg" xmlns:xlink="http://www.w3.org/1999/xlink" width="528" height="336" viewBox="0 0 2112 1344">
<defs>
  <clipPath id="clip160">
    <rect x="0" y="0" width="2112" height="1344"/>
  </clipPath>
</defs>
<path clip-path="url(#clip160)" d="M0 1344 L2112 1344 L2112 0 L0 0  Z" fill="#ffffff" fill-rule="evenodd" fill-opacity="1"/>
<defs>
  <clipPath id="clip161">
    <rect x="422" y="0" width="1479" height="1344"/>
  </clipPath>
</defs>
<path clip-path="url(#clip160)" d="M274.551 1234.58 L2064.76 1234.58 L2064.76 47.2441 L274.551 47.2441  Z" fill="#ffffff" fill-rule="evenodd" fill-opacity="1"/>
<defs>
  <clipPath id="clip162">
    <rect x="274" y="47" width="1791" height="1188"/>
  </clipPath>
</defs>
<polyline clip-path="url(#clip162)" style="stroke:#000000; stroke-linecap:round; stroke-linejoin:round; stroke-width:2; stroke-opacity:0.1; fill:none" points="478.751,1234.58 478.751,47.2441 "/>
<polyline clip-path="url(#clip162)" style="stroke:#000000; stroke-linecap:round; stroke-linejoin:round; stroke-width:2; stroke-opacity:0.1; fill:none" points="862.586,1234.58 862.586,47.2441 "/>
<polyline clip-path="url(#clip162)" style="stroke:#000000; stroke-linecap:round; stroke-linejoin:round; stroke-width:2; stroke-opacity:0.1; fill:none" points="1246.42,1234.58 1246.42,47.2441 "/>
<polyline clip-path="url(#clip162)" style="stroke:#000000; stroke-linecap:round; stroke-linejoin:round; stroke-width:2; stroke-opacity:0.1; fill:none" points="1630.26,1234.58 1630.26,47.2441 "/>
<polyline clip-path="url(#clip162)" style="stroke:#000000; stroke-linecap:round; stroke-linejoin:round; stroke-width:2; stroke-opacity:0.1; fill:none" points="2014.09,1234.58 2014.09,47.2441 "/>
<polyline clip-path="url(#clip160)" style="stroke:#000000; stroke-linecap:round; stroke-linejoin:round; stroke-width:4; stroke-opacity:1; fill:none" points="274.551,1234.58 2064.76,1234.58 "/>
<polyline clip-path="url(#clip160)" style="stroke:#000000; stroke-linecap:round; stroke-linejoin:round; stroke-width:4; stroke-opacity:1; fill:none" points="478.751,1234.58 478.751,1215.68 "/>
<polyline clip-path="url(#clip160)" style="stroke:#000000; stroke-linecap:round; stroke-linejoin:round; stroke-width:4; stroke-opacity:1; fill:none" points="862.586,1234.58 862.586,1215.68 "/>
<polyline clip-path="url(#clip160)" style="stroke:#000000; stroke-linecap:round; stroke-linejoin:round; stroke-width:4; stroke-opacity:1; fill:none" points="1246.42,1234.58 1246.42,1215.68 "/>
<polyline clip-path="url(#clip160)" style="stroke:#000000; stroke-linecap:round; stroke-linejoin:round; stroke-width:4; stroke-opacity:1; fill:none" points="1630.26,1234.58 1630.26,1215.68 "/>
<polyline clip-path="url(#clip160)" style="stroke:#000000; stroke-linecap:round; stroke-linejoin:round; stroke-width:4; stroke-opacity:1; fill:none" points="2014.09,1234.58 2014.09,1215.68 "/>
<path clip-path="url(#clip160)" d="M449.99 1290.74 L466.309 1290.74 L466.309 1294.67 L444.365 1294.67 L444.365 1290.74 Q447.027 1287.99 451.61 1283.36 Q456.216 1278.7 457.397 1277.36 Q459.642 1274.84 460.522 1273.1 Q461.425 1271.34 461.425 1269.65 Q461.425 1266.9 459.48 1265.16 Q457.559 1263.42 454.457 1263.42 Q452.258 1263.42 449.804 1264.19 Q447.374 1264.95 444.596 1266.5 L444.596 1261.78 Q447.42 1260.65 449.874 1260.07 Q452.328 1259.49 454.365 1259.49 Q459.735 1259.49 462.929 1262.17 Q466.124 1264.86 466.124 1269.35 Q466.124 1271.48 465.314 1273.4 Q464.527 1275.3 462.42 1277.89 Q461.841 1278.56 458.74 1281.78 Q455.638 1284.98 449.99 1290.74 Z" fill="#000000" fill-rule="nonzero" fill-opacity="1" /><path clip-path="url(#clip160)" d="M476.124 1288.8 L481.008 1288.8 L481.008 1294.67 L476.124 1294.67 L476.124 1288.8 Z" fill="#000000" fill-rule="nonzero" fill-opacity="1" /><path clip-path="url(#clip160)" d="M501.193 1263.19 Q497.582 1263.19 495.753 1266.76 Q493.948 1270.3 493.948 1277.43 Q493.948 1284.54 495.753 1288.1 Q497.582 1291.64 501.193 1291.64 Q504.827 1291.64 506.633 1288.1 Q508.461 1284.54 508.461 1277.43 Q508.461 1270.3 506.633 1266.76 Q504.827 1263.19 501.193 1263.19 M501.193 1259.49 Q507.003 1259.49 510.059 1264.1 Q513.137 1268.68 513.137 1277.43 Q513.137 1286.16 510.059 1290.76 Q507.003 1295.35 501.193 1295.35 Q495.383 1295.35 492.304 1290.76 Q489.249 1286.16 489.249 1277.43 Q489.249 1268.68 492.304 1264.1 Q495.383 1259.49 501.193 1259.49 Z" fill="#000000" fill-rule="nonzero" fill-opacity="1" /><path clip-path="url(#clip160)" d="M834.322 1290.74 L850.641 1290.74 L850.641 1294.67 L828.697 1294.67 L828.697 1290.74 Q831.359 1287.99 835.942 1283.36 Q840.549 1278.7 841.729 1277.36 Q843.975 1274.84 844.854 1273.1 Q845.757 1271.34 845.757 1269.65 Q845.757 1266.9 843.813 1265.16 Q841.891 1263.42 838.789 1263.42 Q836.59 1263.42 834.137 1264.19 Q831.706 1264.95 828.928 1266.5 L828.928 1261.78 Q831.752 1260.65 834.206 1260.07 Q836.66 1259.49 838.697 1259.49 Q844.067 1259.49 847.262 1262.17 Q850.456 1264.86 850.456 1269.35 Q850.456 1271.48 849.646 1273.4 Q848.859 1275.3 846.752 1277.89 Q846.174 1278.56 843.072 1281.78 Q839.97 1284.98 834.322 1290.74 Z" fill="#000000" fill-rule="nonzero" fill-opacity="1" /><path clip-path="url(#clip160)" d="M860.456 1288.8 L865.34 1288.8 L865.34 1294.67 L860.456 1294.67 L860.456 1288.8 Z" fill="#000000" fill-rule="nonzero" fill-opacity="1" /><path clip-path="url(#clip160)" d="M875.572 1260.11 L893.928 1260.11 L893.928 1264.05 L879.854 1264.05 L879.854 1272.52 Q880.873 1272.17 881.891 1272.01 Q882.91 1271.83 883.928 1271.83 Q889.715 1271.83 893.095 1275 Q896.474 1278.17 896.474 1283.59 Q896.474 1289.17 893.002 1292.27 Q889.53 1295.35 883.211 1295.35 Q881.035 1295.35 878.766 1294.98 Q876.521 1294.61 874.113 1293.86 L874.113 1289.17 Q876.197 1290.3 878.419 1290.86 Q880.641 1291.41 883.118 1291.41 Q887.123 1291.41 889.461 1289.3 Q891.798 1287.2 891.798 1283.59 Q891.798 1279.98 889.461 1277.87 Q887.123 1275.76 883.118 1275.76 Q881.243 1275.76 879.368 1276.18 Q877.516 1276.6 875.572 1277.48 L875.572 1260.11 Z" fill="#000000" fill-rule="nonzero" fill-opacity="1" /><path clip-path="url(#clip160)" d="M1227.73 1276.04 Q1231.08 1276.76 1232.96 1279.03 Q1234.86 1281.3 1234.86 1284.63 Q1234.86 1289.74 1231.34 1292.55 Q1227.82 1295.35 1221.34 1295.35 Q1219.16 1295.35 1216.85 1294.91 Q1214.56 1294.49 1212.1 1293.63 L1212.1 1289.12 Q1214.05 1290.25 1216.36 1290.83 Q1218.68 1291.41 1221.2 1291.41 Q1225.6 1291.41 1227.89 1289.67 Q1230.21 1287.94 1230.21 1284.63 Q1230.21 1281.57 1228.05 1279.86 Q1225.92 1278.12 1222.1 1278.12 L1218.08 1278.12 L1218.08 1274.28 L1222.29 1274.28 Q1225.74 1274.28 1227.57 1272.92 Q1229.39 1271.53 1229.39 1268.93 Q1229.39 1266.27 1227.5 1264.86 Q1225.62 1263.42 1222.1 1263.42 Q1220.18 1263.42 1217.98 1263.84 Q1215.78 1264.26 1213.15 1265.14 L1213.15 1260.97 Q1215.81 1260.23 1218.12 1259.86 Q1220.46 1259.49 1222.52 1259.49 Q1227.84 1259.49 1230.95 1261.92 Q1234.05 1264.33 1234.05 1268.45 Q1234.05 1271.32 1232.4 1273.31 Q1230.76 1275.28 1227.73 1276.04 Z" fill="#000000" fill-rule="nonzero" fill-opacity="1" /><path clip-path="url(#clip160)" d="M1243.72 1288.8 L1248.61 1288.8 L1248.61 1294.67 L1243.72 1294.67 L1243.72 1288.8 Z" fill="#000000" fill-rule="nonzero" fill-opacity="1" /><path clip-path="url(#clip160)" d="M1268.79 1263.19 Q1265.18 1263.19 1263.35 1266.76 Q1261.55 1270.3 1261.55 1277.43 Q1261.55 1284.54 1263.35 1288.1 Q1265.18 1291.64 1268.79 1291.64 Q1272.43 1291.64 1274.23 1288.1 Q1276.06 1284.54 1276.06 1277.43 Q1276.06 1270.3 1274.23 1266.76 Q1272.43 1263.19 1268.79 1263.19 M1268.79 1259.49 Q1274.6 1259.49 1277.66 1264.1 Q1280.74 1268.68 1280.74 1277.43 Q1280.74 1286.16 1277.66 1290.76 Q1274.6 1295.35 1268.79 1295.35 Q1262.98 1295.35 1259.9 1290.76 Q1256.85 1286.16 1256.85 1277.43 Q1256.85 1268.68 1259.9 1264.1 Q1262.98 1259.49 1268.79 1259.49 Z" fill="#000000" fill-rule="nonzero" fill-opacity="1" /><path clip-path="url(#clip160)" d="M1612.06 1276.04 Q1615.42 1276.76 1617.29 1279.03 Q1619.19 1281.3 1619.19 1284.63 Q1619.19 1289.74 1615.67 1292.55 Q1612.15 1295.35 1605.67 1295.35 Q1603.5 1295.35 1601.18 1294.91 Q1598.89 1294.49 1596.44 1293.63 L1596.44 1289.12 Q1598.38 1290.25 1600.7 1290.83 Q1603.01 1291.41 1605.53 1291.41 Q1609.93 1291.41 1612.22 1289.67 Q1614.54 1287.94 1614.54 1284.63 Q1614.54 1281.57 1612.38 1279.86 Q1610.26 1278.12 1606.44 1278.12 L1602.41 1278.12 L1602.41 1274.28 L1606.62 1274.28 Q1610.07 1274.28 1611.9 1272.92 Q1613.73 1271.53 1613.73 1268.93 Q1613.73 1266.27 1611.83 1264.86 Q1609.95 1263.42 1606.44 1263.42 Q1604.51 1263.42 1602.32 1263.84 Q1600.12 1264.26 1597.48 1265.14 L1597.48 1260.97 Q1600.14 1260.23 1602.45 1259.86 Q1604.79 1259.49 1606.85 1259.49 Q1612.18 1259.49 1615.28 1261.92 Q1618.38 1264.33 1618.38 1268.45 Q1618.38 1271.32 1616.74 1273.31 Q1615.09 1275.28 1612.06 1276.04 Z" fill="#000000" fill-rule="nonzero" fill-opacity="1" /><path clip-path="url(#clip160)" d="M1628.06 1288.8 L1632.94 1288.8 L1632.94 1294.67 L1628.06 1294.67 L1628.06 1288.8 Z" fill="#000000" fill-rule="nonzero" fill-opacity="1" /><path clip-path="url(#clip160)" d="M1643.17 1260.11 L1661.53 1260.11 L1661.53 1264.05 L1647.45 1264.05 L1647.45 1272.52 Q1648.47 1272.17 1649.49 1272.01 Q1650.51 1271.83 1651.53 1271.83 Q1657.32 1271.83 1660.69 1275 Q1664.07 1278.17 1664.07 1283.59 Q1664.07 1289.17 1660.6 1292.27 Q1657.13 1295.35 1650.81 1295.35 Q1648.63 1295.35 1646.37 1294.98 Q1644.12 1294.61 1641.71 1293.86 L1641.71 1289.17 Q1643.8 1290.3 1646.02 1290.86 Q1648.24 1291.41 1650.72 1291.41 Q1654.72 1291.41 1657.06 1289.3 Q1659.4 1287.2 1659.4 1283.59 Q1659.4 1279.98 1657.06 1277.87 Q1654.72 1275.76 1650.72 1275.76 Q1648.84 1275.76 1646.97 1276.18 Q1645.12 1276.6 1643.17 1277.48 L1643.17 1260.11 Z" fill="#000000" fill-rule="nonzero" fill-opacity="1" /><path clip-path="url(#clip160)" d="M1994.73 1264.19 L1982.92 1282.64 L1994.73 1282.64 L1994.73 1264.19 M1993.5 1260.11 L1999.38 1260.11 L1999.38 1282.64 L2004.31 1282.64 L2004.31 1286.53 L1999.38 1286.53 L1999.38 1294.67 L1994.73 1294.67 L1994.73 1286.53 L1979.12 1286.53 L1979.12 1282.01 L1993.5 1260.11 Z" fill="#000000" fill-rule="nonzero" fill-opacity="1" /><path clip-path="url(#clip160)" d="M2012.04 1288.8 L2016.93 1288.8 L2016.93 1294.67 L2012.04 1294.67 L2012.04 1288.8 Z" fill="#000000" fill-rule="nonzero" fill-opacity="1" /><path clip-path="url(#clip160)" d="M2037.11 1263.19 Q2033.5 1263.19 2031.67 1266.76 Q2029.87 1270.3 2029.87 1277.43 Q2029.87 1284.54 2031.67 1288.1 Q2033.5 1291.64 2037.11 1291.64 Q2040.74 1291.64 2042.55 1288.1 Q2044.38 1284.54 2044.38 1277.43 Q2044.38 1270.3 2042.55 1266.76 Q2040.74 1263.19 2037.11 1263.19 M2037.11 1259.49 Q2042.92 1259.49 2045.98 1264.1 Q2049.05 1268.68 2049.05 1277.43 Q2049.05 1286.16 2045.98 1290.76 Q2042.92 1295.35 2037.11 1295.35 Q2031.3 1295.35 2028.22 1290.76 Q2025.17 1286.16 2025.17 1277.43 Q2025.17 1268.68 2028.22 1264.1 Q2031.3 1259.49 2037.11 1259.49 Z" fill="#000000" fill-rule="nonzero" fill-opacity="1" /><polyline clip-path="url(#clip162)" style="stroke:#000000; stroke-linecap:round; stroke-linejoin:round; stroke-width:2; stroke-opacity:0.1; fill:none" points="274.551,1198.99 2064.76,1198.99 "/>
<polyline clip-path="url(#clip162)" style="stroke:#000000; stroke-linecap:round; stroke-linejoin:round; stroke-width:2; stroke-opacity:0.1; fill:none" points="274.551,969.581 2064.76,969.581 "/>
<polyline clip-path="url(#clip162)" style="stroke:#000000; stroke-linecap:round; stroke-linejoin:round; stroke-width:2; stroke-opacity:0.1; fill:none" points="274.551,740.169 2064.76,740.169 "/>
<polyline clip-path="url(#clip162)" style="stroke:#000000; stroke-linecap:round; stroke-linejoin:round; stroke-width:2; stroke-opacity:0.1; fill:none" points="274.551,510.758 2064.76,510.758 "/>
<polyline clip-path="url(#clip162)" style="stroke:#000000; stroke-linecap:round; stroke-linejoin:round; stroke-width:2; stroke-opacity:0.1; fill:none" points="274.551,281.347 2064.76,281.347 "/>
<polyline clip-path="url(#clip162)" style="stroke:#000000; stroke-linecap:round; stroke-linejoin:round; stroke-width:2; stroke-opacity:0.1; fill:none" points="274.551,51.9354 2064.76,51.9354 "/>
<polyline clip-path="url(#clip160)" style="stroke:#000000; stroke-linecap:round; stroke-linejoin:round; stroke-width:4; stroke-opacity:1; fill:none" points="274.551,1234.58 274.551,47.2441 "/>
<polyline clip-path="url(#clip160)" style="stroke:#000000; stroke-linecap:round; stroke-linejoin:round; stroke-width:4; stroke-opacity:1; fill:none" points="274.551,1198.99 293.449,1198.99 "/>
<polyline clip-path="url(#clip160)" style="stroke:#000000; stroke-linecap:round; stroke-linejoin:round; stroke-width:4; stroke-opacity:1; fill:none" points="274.551,969.581 293.449,969.581 "/>
<polyline clip-path="url(#clip160)" style="stroke:#000000; stroke-linecap:round; stroke-linejoin:round; stroke-width:4; stroke-opacity:1; fill:none" points="274.551,740.169 293.449,740.169 "/>
<polyline clip-path="url(#clip160)" style="stroke:#000000; stroke-linecap:round; stroke-linejoin:round; stroke-width:4; stroke-opacity:1; fill:none" points="274.551,510.758 293.449,510.758 "/>
<polyline clip-path="url(#clip160)" style="stroke:#000000; stroke-linecap:round; stroke-linejoin:round; stroke-width:4; stroke-opacity:1; fill:none" points="274.551,281.347 293.449,281.347 "/>
<polyline clip-path="url(#clip160)" style="stroke:#000000; stroke-linecap:round; stroke-linejoin:round; stroke-width:4; stroke-opacity:1; fill:none" points="274.551,51.9354 293.449,51.9354 "/>
<path clip-path="url(#clip160)" d="M55.9969 1218.78 L63.6358 1218.78 L63.6358 1192.42 L55.3256 1194.09 L55.3256 1189.83 L63.5895 1188.16 L68.2654 1188.16 L68.2654 1218.78 L75.9042 1218.78 L75.9042 1222.72 L55.9969 1222.72 L55.9969 1218.78 Z" fill="#000000" fill-rule="nonzero" fill-opacity="1" /><path clip-path="url(#clip160)" d="M85.3486 1216.84 L90.2328 1216.84 L90.2328 1222.72 L85.3486 1222.72 L85.3486 1216.84 Z" fill="#000000" fill-rule="nonzero" fill-opacity="1" /><path clip-path="url(#clip160)" d="M110.418 1191.24 Q106.807 1191.24 104.978 1194.8 Q103.173 1198.34 103.173 1205.47 Q103.173 1212.58 104.978 1216.15 Q106.807 1219.69 110.418 1219.69 Q114.052 1219.69 115.858 1216.15 Q117.686 1212.58 117.686 1205.47 Q117.686 1198.34 115.858 1194.8 Q114.052 1191.24 110.418 1191.24 M110.418 1187.53 Q116.228 1187.53 119.284 1192.14 Q122.362 1196.72 122.362 1205.47 Q122.362 1214.2 119.284 1218.81 Q116.228 1223.39 110.418 1223.39 Q104.608 1223.39 101.529 1218.81 Q98.4735 1214.2 98.4735 1205.47 Q98.4735 1196.72 101.529 1192.14 Q104.608 1187.53 110.418 1187.53 Z" fill="#000000" fill-rule="nonzero" fill-opacity="1" /><path clip-path="url(#clip160)" d="M158.751 1197.26 L148.172 1207.88 L158.751 1218.46 L155.996 1221.26 L145.371 1210.64 L134.746 1221.26 L132.015 1218.46 L142.571 1207.88 L132.015 1197.26 L134.746 1194.46 L145.371 1205.08 L155.996 1194.46 L158.751 1197.26 Z" fill="#000000" fill-rule="nonzero" fill-opacity="1" /><path clip-path="url(#clip160)" d="M171.112 1218.78 L178.751 1218.78 L178.751 1192.42 L170.441 1194.09 L170.441 1189.83 L178.705 1188.16 L183.38 1188.16 L183.38 1218.78 L191.019 1218.78 L191.019 1222.72 L171.112 1222.72 L171.112 1218.78 Z" fill="#000000" fill-rule="nonzero" fill-opacity="1" /><path clip-path="url(#clip160)" d="M210.464 1191.24 Q206.853 1191.24 205.024 1194.8 Q203.218 1198.34 203.218 1205.47 Q203.218 1212.58 205.024 1216.15 Q206.853 1219.69 210.464 1219.69 Q214.098 1219.69 215.903 1216.15 Q217.732 1212.58 217.732 1205.47 Q217.732 1198.34 215.903 1194.8 Q214.098 1191.24 210.464 1191.24 M210.464 1187.53 Q216.274 1187.53 219.329 1192.14 Q222.408 1196.72 222.408 1205.47 Q222.408 1214.2 219.329 1218.81 Q216.274 1223.39 210.464 1223.39 Q204.654 1223.39 201.575 1218.81 Q198.519 1214.2 198.519 1205.47 Q198.519 1196.72 201.575 1192.14 Q204.654 1187.53 210.464 1187.53 Z" fill="#000000" fill-rule="nonzero" fill-opacity="1" /><path clip-path="url(#clip160)" d="M235.085 1170.54 L225.493 1185.53 L235.085 1185.53 L235.085 1170.54 M234.088 1167.23 L238.865 1167.23 L238.865 1185.53 L242.871 1185.53 L242.871 1188.69 L238.865 1188.69 L238.865 1195.31 L235.085 1195.31 L235.085 1188.69 L222.408 1188.69 L222.408 1185.02 L234.088 1167.23 Z" fill="#000000" fill-rule="nonzero" fill-opacity="1" /><path clip-path="url(#clip160)" d="M59.2145 989.373 L75.5339 989.373 L75.5339 993.308 L53.5895 993.308 L53.5895 989.373 Q56.2515 986.619 60.8349 981.989 Q65.4413 977.336 66.6219 975.994 Q68.8672 973.471 69.7468 971.734 Q70.6496 969.975 70.6496 968.285 Q70.6496 965.531 68.7052 963.795 Q66.7839 962.059 63.6821 962.059 Q61.483 962.059 59.0293 962.822 Q56.5988 963.586 53.821 965.137 L53.821 960.415 Q56.6451 959.281 59.0988 958.702 Q61.5524 958.123 63.5895 958.123 Q68.9598 958.123 72.1542 960.809 Q75.3487 963.494 75.3487 967.984 Q75.3487 970.114 74.5385 972.035 Q73.7515 973.933 71.645 976.526 Q71.0663 977.197 67.9645 980.415 Q64.8626 983.609 59.2145 989.373 Z" fill="#000000" fill-rule="nonzero" fill-opacity="1" /><path clip-path="url(#clip160)" d="M85.3486 987.429 L90.2328 987.429 L90.2328 993.308 L85.3486 993.308 L85.3486 987.429 Z" fill="#000000" fill-rule="nonzero" fill-opacity="1" /><path clip-path="url(#clip160)" d="M110.418 961.827 Q106.807 961.827 104.978 965.392 Q103.173 968.934 103.173 976.063 Q103.173 983.17 104.978 986.734 Q106.807 990.276 110.418 990.276 Q114.052 990.276 115.858 986.734 Q117.686 983.17 117.686 976.063 Q117.686 968.934 115.858 965.392 Q114.052 961.827 110.418 961.827 M110.418 958.123 Q116.228 958.123 119.284 962.73 Q122.362 967.313 122.362 976.063 Q122.362 984.79 119.284 989.396 Q116.228 993.98 110.418 993.98 Q104.608 993.98 101.529 989.396 Q98.4735 984.79 98.4735 976.063 Q98.4735 967.313 101.529 962.73 Q104.608 958.123 110.418 958.123 Z" fill="#000000" fill-rule="nonzero" fill-opacity="1" /><path clip-path="url(#clip160)" d="M158.751 967.846 L148.172 978.47 L158.751 989.049 L155.996 991.85 L145.371 981.225 L134.746 991.85 L132.015 989.049 L142.571 978.47 L132.015 967.846 L134.746 965.045 L145.371 975.67 L155.996 965.045 L158.751 967.846 Z" fill="#000000" fill-rule="nonzero" fill-opacity="1" /><path clip-path="url(#clip160)" d="M171.112 989.373 L178.751 989.373 L178.751 963.008 L170.441 964.674 L170.441 960.415 L178.705 958.748 L183.38 958.748 L183.38 989.373 L191.019 989.373 L191.019 993.308 L171.112 993.308 L171.112 989.373 Z" fill="#000000" fill-rule="nonzero" fill-opacity="1" /><path clip-path="url(#clip160)" d="M210.464 961.827 Q206.853 961.827 205.024 965.392 Q203.218 968.934 203.218 976.063 Q203.218 983.17 205.024 986.734 Q206.853 990.276 210.464 990.276 Q214.098 990.276 215.903 986.734 Q217.732 983.17 217.732 976.063 Q217.732 968.934 215.903 965.392 Q214.098 961.827 210.464 961.827 M210.464 958.123 Q216.274 958.123 219.329 962.73 Q222.408 967.313 222.408 976.063 Q222.408 984.79 219.329 989.396 Q216.274 993.98 210.464 993.98 Q204.654 993.98 201.575 989.396 Q198.519 984.79 198.519 976.063 Q198.519 967.313 201.575 962.73 Q204.654 958.123 210.464 958.123 Z" fill="#000000" fill-rule="nonzero" fill-opacity="1" /><path clip-path="url(#clip160)" d="M235.085 941.128 L225.493 956.118 L235.085 956.118 L235.085 941.128 M234.088 937.818 L238.865 937.818 L238.865 956.118 L242.871 956.118 L242.871 959.278 L238.865 959.278 L238.865 965.898 L235.085 965.898 L235.085 959.278 L222.408 959.278 L222.408 955.61 L234.088 937.818 Z" fill="#000000" fill-rule="nonzero" fill-opacity="1" /><path clip-path="url(#clip160)" d="M69.3533 745.263 Q72.7098 745.98 74.5848 748.249 Q76.4829 750.517 76.4829 753.851 Q76.4829 758.967 72.9644 761.767 Q69.4459 764.568 62.9645 764.568 Q60.7886 764.568 58.4738 764.129 Q56.1821 763.712 53.7284 762.855 L53.7284 758.342 Q55.6728 759.476 57.9877 760.054 Q60.3025 760.633 62.8256 760.633 Q67.2237 760.633 69.5154 758.897 Q71.8302 757.161 71.8302 753.851 Q71.8302 750.795 69.6774 749.082 Q67.5478 747.346 63.7284 747.346 L59.7006 747.346 L59.7006 743.504 L63.9135 743.504 Q67.3626 743.504 69.1913 742.138 Q71.02 740.749 71.02 738.156 Q71.02 735.494 69.1219 734.082 Q67.2469 732.647 63.7284 732.647 Q61.8071 732.647 59.608 733.064 Q57.409 733.481 54.7701 734.36 L54.7701 730.194 Q57.4321 729.453 59.7469 729.082 Q62.0849 728.712 64.145 728.712 Q69.4691 728.712 72.5709 731.143 Q75.6727 733.55 75.6727 737.67 Q75.6727 740.541 74.0292 742.531 Q72.3857 744.499 69.3533 745.263 Z" fill="#000000" fill-rule="nonzero" fill-opacity="1" /><path clip-path="url(#clip160)" d="M85.3486 758.017 L90.2328 758.017 L90.2328 763.897 L85.3486 763.897 L85.3486 758.017 Z" fill="#000000" fill-rule="nonzero" fill-opacity="1" /><path clip-path="url(#clip160)" d="M110.418 732.416 Q106.807 732.416 104.978 735.981 Q103.173 739.522 103.173 746.652 Q103.173 753.758 104.978 757.323 Q106.807 760.865 110.418 760.865 Q114.052 760.865 115.858 757.323 Q117.686 753.758 117.686 746.652 Q117.686 739.522 115.858 735.981 Q114.052 732.416 110.418 732.416 M110.418 728.712 Q116.228 728.712 119.284 733.318 Q122.362 737.902 122.362 746.652 Q122.362 755.379 119.284 759.985 Q116.228 764.568 110.418 764.568 Q104.608 764.568 101.529 759.985 Q98.4735 755.379 98.4735 746.652 Q98.4735 737.902 101.529 733.318 Q104.608 728.712 110.418 728.712 Z" fill="#000000" fill-rule="nonzero" fill-opacity="1" /><path clip-path="url(#clip160)" d="M158.751 738.434 L148.172 749.059 L158.751 759.638 L155.996 762.439 L145.371 751.814 L134.746 762.439 L132.015 759.638 L142.571 749.059 L132.015 738.434 L134.746 735.633 L145.371 746.258 L155.996 735.633 L158.751 738.434 Z" fill="#000000" fill-rule="nonzero" fill-opacity="1" /><path clip-path="url(#clip160)" d="M171.112 759.962 L178.751 759.962 L178.751 733.596 L170.441 735.263 L170.441 731.004 L178.705 729.337 L183.38 729.337 L183.38 759.962 L191.019 759.962 L191.019 763.897 L171.112 763.897 L171.112 759.962 Z" fill="#000000" fill-rule="nonzero" fill-opacity="1" /><path clip-path="url(#clip160)" d="M210.464 732.416 Q206.853 732.416 205.024 735.981 Q203.218 739.522 203.218 746.652 Q203.218 753.758 205.024 757.323 Q206.853 760.865 210.464 760.865 Q214.098 760.865 215.903 757.323 Q217.732 753.758 217.732 746.652 Q217.732 739.522 215.903 735.981 Q214.098 732.416 210.464 732.416 M210.464 728.712 Q216.274 728.712 219.329 733.318 Q222.408 737.902 222.408 746.652 Q222.408 755.379 219.329 759.985 Q216.274 764.568 210.464 764.568 Q204.654 764.568 201.575 759.985 Q198.519 755.379 198.519 746.652 Q198.519 737.902 201.575 733.318 Q204.654 728.712 210.464 728.712 Z" fill="#000000" fill-rule="nonzero" fill-opacity="1" /><path clip-path="url(#clip160)" d="M235.085 711.717 L225.493 726.707 L235.085 726.707 L235.085 711.717 M234.088 708.407 L238.865 708.407 L238.865 726.707 L242.871 726.707 L242.871 729.866 L238.865 729.866 L238.865 736.487 L235.085 736.487 L235.085 729.866 L222.408 729.866 L222.408 726.199 L234.088 708.407 Z" fill="#000000" fill-rule="nonzero" fill-opacity="1" /><path clip-path="url(#clip160)" d="M68.0339 504 L56.2284 522.449 L68.0339 522.449 L68.0339 504 M66.807 499.926 L72.6866 499.926 L72.6866 522.449 L77.6172 522.449 L77.6172 526.338 L72.6866 526.338 L72.6866 534.486 L68.0339 534.486 L68.0339 526.338 L52.4321 526.338 L52.4321 521.824 L66.807 499.926 Z" fill="#000000" fill-rule="nonzero" fill-opacity="1" /><path clip-path="url(#clip160)" d="M85.3486 528.606 L90.2328 528.606 L90.2328 534.486 L85.3486 534.486 L85.3486 528.606 Z" fill="#000000" fill-rule="nonzero" fill-opacity="1" /><path clip-path="url(#clip160)" d="M110.418 503.004 Q106.807 503.004 104.978 506.569 Q103.173 510.111 103.173 517.24 Q103.173 524.347 104.978 527.912 Q106.807 531.453 110.418 531.453 Q114.052 531.453 115.858 527.912 Q117.686 524.347 117.686 517.24 Q117.686 510.111 115.858 506.569 Q114.052 503.004 110.418 503.004 M110.418 499.301 Q116.228 499.301 119.284 503.907 Q122.362 508.49 122.362 517.24 Q122.362 525.967 119.284 530.574 Q116.228 535.157 110.418 535.157 Q104.608 535.157 101.529 530.574 Q98.4735 525.967 98.4735 517.24 Q98.4735 508.49 101.529 503.907 Q104.608 499.301 110.418 499.301 Z" fill="#000000" fill-rule="nonzero" fill-opacity="1" /><path clip-path="url(#clip160)" d="M158.751 509.023 L148.172 519.648 L158.751 530.226 L155.996 533.027 L145.371 522.402 L134.746 533.027 L132.015 530.226 L142.571 519.648 L132.015 509.023 L134.746 506.222 L145.371 516.847 L155.996 506.222 L158.751 509.023 Z" fill="#000000" fill-rule="nonzero" fill-opacity="1" /><path clip-path="url(#clip160)" d="M171.112 530.551 L178.751 530.551 L178.751 504.185 L170.441 505.852 L170.441 501.592 L178.705 499.926 L183.38 499.926 L183.38 530.551 L191.019 530.551 L191.019 534.486 L171.112 534.486 L171.112 530.551 Z" fill="#000000" fill-rule="nonzero" fill-opacity="1" /><path clip-path="url(#clip160)" d="M210.464 503.004 Q206.853 503.004 205.024 506.569 Q203.218 510.111 203.218 517.24 Q203.218 524.347 205.024 527.912 Q206.853 531.453 210.464 531.453 Q214.098 531.453 215.903 527.912 Q217.732 524.347 217.732 517.24 Q217.732 510.111 215.903 506.569 Q214.098 503.004 210.464 503.004 M210.464 499.301 Q216.274 499.301 219.329 503.907 Q222.408 508.49 222.408 517.24 Q222.408 525.967 219.329 530.574 Q216.274 535.157 210.464 535.157 Q204.654 535.157 201.575 530.574 Q198.519 525.967 198.519 517.24 Q198.519 508.49 201.575 503.907 Q204.654 499.301 210.464 499.301 Z" fill="#000000" fill-rule="nonzero" fill-opacity="1" /><path clip-path="url(#clip160)" d="M235.085 482.305 L225.493 497.295 L235.085 497.295 L235.085 482.305 M234.088 478.995 L238.865 478.995 L238.865 497.295 L242.871 497.295 L242.871 500.455 L238.865 500.455 L238.865 507.075 L235.085 507.075 L235.085 500.455 L222.408 500.455 L222.408 496.787 L234.088 478.995 Z" fill="#000000" fill-rule="nonzero" fill-opacity="1" /><path clip-path="url(#clip160)" d="M55.233 270.514 L73.5894 270.514 L73.5894 274.45 L59.5154 274.45 L59.5154 282.922 Q60.5339 282.574 61.5524 282.412 Q62.571 282.227 63.5895 282.227 Q69.3765 282.227 72.7561 285.399 Q76.1357 288.57 76.1357 293.986 Q76.1357 299.565 72.6635 302.667 Q69.1913 305.746 62.8719 305.746 Q60.696 305.746 58.4275 305.375 Q56.1821 305.005 53.7747 304.264 L53.7747 299.565 Q55.858 300.699 58.0802 301.255 Q60.3025 301.81 62.7793 301.81 Q66.7839 301.81 69.1219 299.704 Q71.4598 297.598 71.4598 293.986 Q71.4598 290.375 69.1219 288.269 Q66.7839 286.162 62.7793 286.162 Q60.9043 286.162 59.0293 286.579 Q57.1775 286.996 55.233 287.875 L55.233 270.514 Z" fill="#000000" fill-rule="nonzero" fill-opacity="1" /><path clip-path="url(#clip160)" d="M85.3486 299.195 L90.2328 299.195 L90.2328 305.074 L85.3486 305.074 L85.3486 299.195 Z" fill="#000000" fill-rule="nonzero" fill-opacity="1" /><path clip-path="url(#clip160)" d="M110.418 273.593 Q106.807 273.593 104.978 277.158 Q103.173 280.699 103.173 287.829 Q103.173 294.936 104.978 298.5 Q106.807 302.042 110.418 302.042 Q114.052 302.042 115.858 298.5 Q117.686 294.936 117.686 287.829 Q117.686 280.699 115.858 277.158 Q114.052 273.593 110.418 273.593 M110.418 269.889 Q116.228 269.889 119.284 274.496 Q122.362 279.079 122.362 287.829 Q122.362 296.556 119.284 301.162 Q116.228 305.746 110.418 305.746 Q104.608 305.746 101.529 301.162 Q98.4735 296.556 98.4735 287.829 Q98.4735 279.079 101.529 274.496 Q104.608 269.889 110.418 269.889 Z" fill="#000000" fill-rule="nonzero" fill-opacity="1" /><path clip-path="url(#clip160)" d="M158.751 279.612 L148.172 290.236 L158.751 300.815 L155.996 303.616 L145.371 292.991 L134.746 303.616 L132.015 300.815 L142.571 290.236 L132.015 279.612 L134.746 276.811 L145.371 287.436 L155.996 276.811 L158.751 279.612 Z" fill="#000000" fill-rule="nonzero" fill-opacity="1" /><path clip-path="url(#clip160)" d="M171.112 301.139 L178.751 301.139 L178.751 274.774 L170.441 276.44 L170.441 272.181 L178.705 270.514 L183.38 270.514 L183.38 301.139 L191.019 301.139 L191.019 305.074 L171.112 305.074 L171.112 301.139 Z" fill="#000000" fill-rule="nonzero" fill-opacity="1" /><path clip-path="url(#clip160)" d="M210.464 273.593 Q206.853 273.593 205.024 277.158 Q203.218 280.699 203.218 287.829 Q203.218 294.936 205.024 298.5 Q206.853 302.042 210.464 302.042 Q214.098 302.042 215.903 298.5 Q217.732 294.936 217.732 287.829 Q217.732 280.699 215.903 277.158 Q214.098 273.593 210.464 273.593 M210.464 269.889 Q216.274 269.889 219.329 274.496 Q222.408 279.079 222.408 287.829 Q222.408 296.556 219.329 301.162 Q216.274 305.746 210.464 305.746 Q204.654 305.746 201.575 301.162 Q198.519 296.556 198.519 287.829 Q198.519 279.079 201.575 274.496 Q204.654 269.889 210.464 269.889 Z" fill="#000000" fill-rule="nonzero" fill-opacity="1" /><path clip-path="url(#clip160)" d="M235.085 252.894 L225.493 267.884 L235.085 267.884 L235.085 252.894 M234.088 249.584 L238.865 249.584 L238.865 267.884 L242.871 267.884 L242.871 271.044 L238.865 271.044 L238.865 277.664 L235.085 277.664 L235.085 271.044 L222.408 271.044 L222.408 267.376 L234.088 249.584 Z" fill="#000000" fill-rule="nonzero" fill-opacity="1" /><path clip-path="url(#clip160)" d="M65.7654 56.5196 Q62.6173 56.5196 60.7654 58.6724 Q58.9367 60.8251 58.9367 64.5751 Q58.9367 68.3019 60.7654 70.4779 Q62.6173 72.6306 65.7654 72.6306 Q68.9135 72.6306 70.7422 70.4779 Q72.5941 68.3019 72.5941 64.5751 Q72.5941 60.8251 70.7422 58.6724 Q68.9135 56.5196 65.7654 56.5196 M75.0477 41.8669 L75.0477 46.1261 Q73.2885 45.2928 71.4829 44.853 Q69.7006 44.4132 67.9413 44.4132 Q63.3117 44.4132 60.858 47.5382 Q58.4275 50.6632 58.0802 56.9826 Q59.446 54.9687 61.5062 53.9039 Q63.5663 52.8159 66.0432 52.8159 Q71.2515 52.8159 74.2607 55.9872 Q77.2931 59.1353 77.2931 64.5751 Q77.2931 69.8992 74.145 73.1167 Q70.9968 76.3343 65.7654 76.3343 Q59.77 76.3343 56.5988 71.751 Q53.4275 67.1445 53.4275 58.4177 Q53.4275 50.2233 57.3164 45.3623 Q61.2052 40.478 67.7561 40.478 Q69.5154 40.478 71.2978 40.8252 Q73.1033 41.1725 75.0477 41.8669 Z" fill="#000000" fill-rule="nonzero" fill-opacity="1" /><path clip-path="url(#clip160)" d="M85.3486 69.7834 L90.2328 69.7834 L90.2328 75.663 L85.3486 75.663 L85.3486 69.7834 Z" fill="#000000" fill-rule="nonzero" fill-opacity="1" /><path clip-path="url(#clip160)" d="M110.418 44.1817 Q106.807 44.1817 104.978 47.7465 Q103.173 51.2881 103.173 58.4177 Q103.173 65.5242 104.978 69.089 Q106.807 72.6306 110.418 72.6306 Q114.052 72.6306 115.858 69.089 Q117.686 65.5242 117.686 58.4177 Q117.686 51.2881 115.858 47.7465 Q114.052 44.1817 110.418 44.1817 M110.418 40.478 Q116.228 40.478 119.284 45.0845 Q122.362 49.6678 122.362 58.4177 Q122.362 67.1445 119.284 71.751 Q116.228 76.3343 110.418 76.3343 Q104.608 76.3343 101.529 71.751 Q98.4735 67.1445 98.4735 58.4177 Q98.4735 49.6678 101.529 45.0845 Q104.608 40.478 110.418 40.478 Z" fill="#000000" fill-rule="nonzero" fill-opacity="1" /><path clip-path="url(#clip160)" d="M158.751 50.2002 L148.172 60.8251 L158.751 71.4038 L155.996 74.2047 L145.371 63.5797 L134.746 74.2047 L132.015 71.4038 L142.571 60.8251 L132.015 50.2002 L134.746 47.3993 L145.371 58.0242 L155.996 47.3993 L158.751 50.2002 Z" fill="#000000" fill-rule="nonzero" fill-opacity="1" /><path clip-path="url(#clip160)" d="M171.112 71.7279 L178.751 71.7279 L178.751 45.3623 L170.441 47.0289 L170.441 42.7697 L178.705 41.103 L183.38 41.103 L183.38 71.7279 L191.019 71.7279 L191.019 75.663 L171.112 75.663 L171.112 71.7279 Z" fill="#000000" fill-rule="nonzero" fill-opacity="1" /><path clip-path="url(#clip160)" d="M210.464 44.1817 Q206.853 44.1817 205.024 47.7465 Q203.218 51.2881 203.218 58.4177 Q203.218 65.5242 205.024 69.089 Q206.853 72.6306 210.464 72.6306 Q214.098 72.6306 215.903 69.089 Q217.732 65.5242 217.732 58.4177 Q217.732 51.2881 215.903 47.7465 Q214.098 44.1817 210.464 44.1817 M210.464 40.478 Q216.274 40.478 219.329 45.0845 Q222.408 49.6678 222.408 58.4177 Q222.408 67.1445 219.329 71.751 Q216.274 76.3343 210.464 76.3343 Q204.654 76.3343 201.575 71.751 Q198.519 67.1445 198.519 58.4177 Q198.519 49.6678 201.575 45.0845 Q204.654 40.478 210.464 40.478 Z" fill="#000000" fill-rule="nonzero" fill-opacity="1" /><path clip-path="url(#clip160)" d="M235.085 23.4828 L225.493 38.4726 L235.085 38.4726 L235.085 23.4828 M234.088 20.1726 L238.865 20.1726 L238.865 38.4726 L242.871 38.4726 L242.871 41.6323 L238.865 41.6323 L238.865 48.2526 L235.085 48.2526 L235.085 41.6323 L222.408 41.6323 L222.408 37.9648 L234.088 20.1726 Z" fill="#000000" fill-rule="nonzero" fill-opacity="1" /><polyline clip-path="url(#clip162)" style="stroke:#009af9; stroke-linecap:round; stroke-linejoin:round; stroke-width:4; stroke-opacity:1; fill:none" points="325.217,1200.97 363.601,1070.81 401.984,952.384 440.368,844.854 478.751,747.445 517.134,659.43 555.518,580.124 593.901,508.889 632.285,445.127 670.668,388.279 709.052,337.824 747.435,293.273 785.819,254.171 824.202,220.096 862.586,190.65 900.969,165.466 939.353,144.2 977.736,126.533 1016.12,112.168 1054.5,100.828 1092.89,92.2561 1131.27,86.2139 1169.65,82.4798 1208.04,80.8479 1246.42,81.1276 1284.8,83.1419 1323.19,86.7269 1361.57,91.7308 1399.95,98.013 1438.34,105.444 1476.72,113.902 1515.1,123.278 1553.49,133.469 1591.87,144.379 1630.26,155.923 1668.64,168.018 1707.02,180.593 1745.41,193.577 1783.79,206.91 1822.17,220.533 1860.56,234.394 1898.94,248.445 1937.32,262.641 1975.71,276.943 2014.09,291.314 "/>
</svg>
