<?xml version="1.0" encoding="utf-8"?>
<svg xmlns="http://www.w3.org/2000/svg" xmlns:xlink="http://www.w3.org/1999/xlink" width="528" height="336" viewBox="0 0 2112 1344">
<defs>
  <clipPath id="clip220">
    <rect x="0" y="0" width="2112" height="1344"/>
  </clipPath>
</defs>
<path clip-path="url(#clip220)" d="M0 1344 L2112 1344 L2112 0 L0 0  Z" fill="#ffffff" fill-rule="evenodd" fill-opacity="1"/>
<defs>
  <clipPath id="clip221">
    <rect x="422" y="0" width="1479" height="1344"/>
  </clipPath>
</defs>
<path clip-path="url(#clip220)" d="M300.844 1234.58 L2064.76 1234.58 L2064.76 47.2441 L300.844 47.2441  Z" fill="#ffffff" fill-rule="evenodd" fill-opacity="1"/>
<defs>
  <clipPath id="clip222">
    <rect x="300" y="47" width="1765" height="1188"/>
  </clipPath>
</defs>
<polyline clip-path="url(#clip222)" style="stroke:#000000; stroke-linecap:round; stroke-linejoin:round; stroke-width:2; stroke-opacity:0.1; fill:none" points="502.045,1234.58 502.045,47.2441 "/>
<polyline clip-path="url(#clip222)" style="stroke:#000000; stroke-linecap:round; stroke-linejoin:round; stroke-width:2; stroke-opacity:0.1; fill:none" points="880.242,1234.58 880.242,47.2441 "/>
<polyline clip-path="url(#clip222)" style="stroke:#000000; stroke-linecap:round; stroke-linejoin:round; stroke-width:2; stroke-opacity:0.1; fill:none" points="1258.44,1234.58 1258.44,47.2441 "/>
<polyline clip-path="url(#clip222)" style="stroke:#000000; stroke-linecap:round; stroke-linejoin:round; stroke-width:2; stroke-opacity:0.1; fill:none" points="1636.64,1234.58 1636.64,47.2441 "/>
<polyline clip-path="url(#clip222)" style="stroke:#000000; stroke-linecap:round; stroke-linejoin:round; stroke-width:2; stroke-opacity:0.1; fill:none" points="2014.83,1234.58 2014.83,47.2441 "/>
<polyline clip-path="url(#clip220)" style="stroke:#000000; stroke-linecap:round; stroke-linejoin:round; stroke-width:4; stroke-opacity:1; fill:none" points="300.844,1234.58 2064.76,1234.58 "/>
<polyline clip-path="url(#clip220)" style="stroke:#000000; stroke-linecap:round; stroke-linejoin:round; stroke-width:4; stroke-opacity:1; fill:none" points="502.045,1234.58 502.045,1215.68 "/>
<polyline clip-path="url(#clip220)" style="stroke:#000000; stroke-linecap:round; stroke-linejoin:round; stroke-width:4; stroke-opacity:1; fill:none" points="880.242,1234.58 880.242,1215.68 "/>
<polyline clip-path="url(#clip220)" style="stroke:#000000; stroke-linecap:round; stroke-linejoin:round; stroke-width:4; stroke-opacity:1; fill:none" points="1258.44,1234.58 1258.44,1215.68 "/>
<polyline clip-path="url(#clip220)" style="stroke:#000000; stroke-linecap:round; stroke-linejoin:round; stroke-width:4; stroke-opacity:1; fill:none" points="1636.64,1234.58 1636.64,1215.68 "/>
<polyline clip-path="url(#clip220)" style="stroke:#000000; stroke-linecap:round; stroke-linejoin:round; stroke-width:4; stroke-opacity:1; fill:none" points="2014.83,1234.58 2014.83,1215.68 "/>
<path clip-path="url(#clip220)" d="M473.284 1290.74 L489.603 1290.74 L489.603 1294.67 L467.659 1294.67 L467.659 1290.74 Q470.321 1287.99 474.904 1283.36 Q479.51 1278.7 480.691 1277.36 Q482.936 1274.84 483.816 1273.1 Q484.719 1271.34 484.719 1269.65 Q484.719 1266.9 482.774 1265.16 Q480.853 1263.42 477.751 1263.42 Q475.552 1263.42 473.098 1264.19 Q470.668 1264.95 467.89 1266.5 L467.89 1261.78 Q470.714 1260.65 473.168 1260.07 Q475.622 1259.49 477.659 1259.49 Q483.029 1259.49 486.223 1262.17 Q489.418 1264.86 489.418 1269.35 Q489.418 1271.48 488.608 1273.4 Q487.821 1275.3 485.714 1277.89 Q485.135 1278.56 482.034 1281.78 Q478.932 1284.98 473.284 1290.74 Z" fill="#000000" fill-rule="nonzero" fill-opacity="1" /><path clip-path="url(#clip220)" d="M499.418 1288.8 L504.302 1288.8 L504.302 1294.67 L499.418 1294.67 L499.418 1288.8 Z" fill="#000000" fill-rule="nonzero" fill-opacity="1" /><path clip-path="url(#clip220)" d="M524.487 1263.19 Q520.876 1263.19 519.047 1266.76 Q517.242 1270.3 517.242 1277.43 Q517.242 1284.54 519.047 1288.1 Q520.876 1291.64 524.487 1291.64 Q528.121 1291.64 529.927 1288.1 Q531.756 1284.54 531.756 1277.43 Q531.756 1270.3 529.927 1266.76 Q528.121 1263.19 524.487 1263.19 M524.487 1259.49 Q530.297 1259.49 533.353 1264.1 Q536.431 1268.68 536.431 1277.43 Q536.431 1286.16 533.353 1290.76 Q530.297 1295.35 524.487 1295.35 Q518.677 1295.35 515.598 1290.76 Q512.543 1286.16 512.543 1277.43 Q512.543 1268.68 515.598 1264.1 Q518.677 1259.49 524.487 1259.49 Z" fill="#000000" fill-rule="nonzero" fill-opacity="1" /><path clip-path="url(#clip220)" d="M851.979 1290.74 L868.298 1290.74 L868.298 1294.67 L846.354 1294.67 L846.354 1290.74 Q849.016 1287.99 853.599 1283.36 Q858.205 1278.7 859.386 1277.36 Q861.631 1274.84 862.511 1273.1 Q863.414 1271.34 863.414 1269.65 Q863.414 1266.9 861.469 1265.16 Q859.548 1263.42 856.446 1263.42 Q854.247 1263.42 851.793 1264.19 Q849.363 1264.95 846.585 1266.5 L846.585 1261.78 Q849.409 1260.65 851.863 1260.07 Q854.316 1259.49 856.354 1259.49 Q861.724 1259.49 864.918 1262.17 Q868.113 1264.86 868.113 1269.35 Q868.113 1271.48 867.303 1273.4 Q866.516 1275.3 864.409 1277.89 Q863.83 1278.56 860.729 1281.78 Q857.627 1284.98 851.979 1290.74 Z" fill="#000000" fill-rule="nonzero" fill-opacity="1" /><path clip-path="url(#clip220)" d="M878.113 1288.8 L882.997 1288.8 L882.997 1294.67 L878.113 1294.67 L878.113 1288.8 Z" fill="#000000" fill-rule="nonzero" fill-opacity="1" /><path clip-path="url(#clip220)" d="M893.228 1260.11 L911.585 1260.11 L911.585 1264.05 L897.511 1264.05 L897.511 1272.52 Q898.529 1272.17 899.548 1272.01 Q900.566 1271.83 901.585 1271.83 Q907.372 1271.83 910.751 1275 Q914.131 1278.17 914.131 1283.59 Q914.131 1289.17 910.659 1292.27 Q907.187 1295.35 900.867 1295.35 Q898.691 1295.35 896.423 1294.98 Q894.177 1294.61 891.77 1293.86 L891.77 1289.17 Q893.853 1290.3 896.076 1290.86 Q898.298 1291.41 900.775 1291.41 Q904.779 1291.41 907.117 1289.3 Q909.455 1287.2 909.455 1283.59 Q909.455 1279.98 907.117 1277.87 Q904.779 1275.76 900.775 1275.76 Q898.9 1275.76 897.025 1276.18 Q895.173 1276.6 893.228 1277.48 L893.228 1260.11 Z" fill="#000000" fill-rule="nonzero" fill-opacity="1" /><path clip-path="url(#clip220)" d="M1239.75 1276.04 Q1243.1 1276.76 1244.98 1279.03 Q1246.88 1281.3 1246.88 1284.63 Q1246.88 1289.74 1243.36 1292.55 Q1239.84 1295.35 1233.36 1295.35 Q1231.18 1295.35 1228.87 1294.91 Q1226.58 1294.49 1224.12 1293.63 L1224.12 1289.12 Q1226.07 1290.25 1228.38 1290.83 Q1230.7 1291.41 1233.22 1291.41 Q1237.62 1291.41 1239.91 1289.67 Q1242.22 1287.94 1242.22 1284.63 Q1242.22 1281.57 1240.07 1279.86 Q1237.94 1278.12 1234.12 1278.12 L1230.09 1278.12 L1230.09 1274.28 L1234.31 1274.28 Q1237.76 1274.28 1239.59 1272.92 Q1241.41 1271.53 1241.41 1268.93 Q1241.41 1266.27 1239.52 1264.86 Q1237.64 1263.42 1234.12 1263.42 Q1232.2 1263.42 1230 1263.84 Q1227.8 1264.26 1225.16 1265.14 L1225.16 1260.97 Q1227.83 1260.23 1230.14 1259.86 Q1232.48 1259.49 1234.54 1259.49 Q1239.86 1259.49 1242.97 1261.92 Q1246.07 1264.33 1246.07 1268.45 Q1246.07 1271.32 1244.42 1273.31 Q1242.78 1275.28 1239.75 1276.04 Z" fill="#000000" fill-rule="nonzero" fill-opacity="1" /><path clip-path="url(#clip220)" d="M1255.74 1288.8 L1260.63 1288.8 L1260.63 1294.67 L1255.74 1294.67 L1255.74 1288.8 Z" fill="#000000" fill-rule="nonzero" fill-opacity="1" /><path clip-path="url(#clip220)" d="M1280.81 1263.19 Q1277.2 1263.19 1275.37 1266.76 Q1273.57 1270.3 1273.57 1277.43 Q1273.57 1284.54 1275.37 1288.1 Q1277.2 1291.64 1280.81 1291.64 Q1284.45 1291.64 1286.25 1288.1 Q1288.08 1284.54 1288.08 1277.43 Q1288.08 1270.3 1286.25 1266.76 Q1284.45 1263.19 1280.81 1263.19 M1280.81 1259.49 Q1286.62 1259.49 1289.68 1264.1 Q1292.76 1268.68 1292.76 1277.43 Q1292.76 1286.16 1289.68 1290.76 Q1286.62 1295.35 1280.81 1295.35 Q1275 1295.35 1271.92 1290.76 Q1268.87 1286.16 1268.87 1277.43 Q1268.87 1268.68 1271.92 1264.1 Q1275 1259.49 1280.81 1259.49 Z" fill="#000000" fill-rule="nonzero" fill-opacity="1" /><path clip-path="url(#clip220)" d="M1618.44 1276.04 Q1621.8 1276.76 1623.67 1279.03 Q1625.57 1281.3 1625.57 1284.63 Q1625.57 1289.74 1622.05 1292.55 Q1618.53 1295.35 1612.05 1295.35 Q1609.88 1295.35 1607.56 1294.91 Q1605.27 1294.49 1602.82 1293.63 L1602.82 1289.12 Q1604.76 1290.25 1607.08 1290.83 Q1609.39 1291.41 1611.91 1291.41 Q1616.31 1291.41 1618.6 1289.67 Q1620.92 1287.94 1620.92 1284.63 Q1620.92 1281.57 1618.77 1279.86 Q1616.64 1278.12 1612.82 1278.12 L1608.79 1278.12 L1608.79 1274.28 L1613 1274.28 Q1616.45 1274.28 1618.28 1272.92 Q1620.11 1271.53 1620.11 1268.93 Q1620.11 1266.27 1618.21 1264.86 Q1616.34 1263.42 1612.82 1263.42 Q1610.9 1263.42 1608.7 1263.84 Q1606.5 1264.26 1603.86 1265.14 L1603.86 1260.97 Q1606.52 1260.23 1608.84 1259.86 Q1611.17 1259.49 1613.23 1259.49 Q1618.56 1259.49 1621.66 1261.92 Q1624.76 1264.33 1624.76 1268.45 Q1624.76 1271.32 1623.12 1273.31 Q1621.47 1275.28 1618.44 1276.04 Z" fill="#000000" fill-rule="nonzero" fill-opacity="1" /><path clip-path="url(#clip220)" d="M1634.44 1288.8 L1639.32 1288.8 L1639.32 1294.67 L1634.44 1294.67 L1634.44 1288.8 Z" fill="#000000" fill-rule="nonzero" fill-opacity="1" /><path clip-path="url(#clip220)" d="M1649.55 1260.11 L1667.91 1260.11 L1667.91 1264.05 L1653.84 1264.05 L1653.84 1272.52 Q1654.85 1272.17 1655.87 1272.01 Q1656.89 1271.83 1657.91 1271.83 Q1663.7 1271.83 1667.08 1275 Q1670.46 1278.17 1670.46 1283.59 Q1670.46 1289.17 1666.98 1292.27 Q1663.51 1295.35 1657.19 1295.35 Q1655.02 1295.35 1652.75 1294.98 Q1650.5 1294.61 1648.09 1293.86 L1648.09 1289.17 Q1650.18 1290.3 1652.4 1290.86 Q1654.62 1291.41 1657.1 1291.41 Q1661.1 1291.41 1663.44 1289.3 Q1665.78 1287.2 1665.78 1283.59 Q1665.78 1279.98 1663.44 1277.87 Q1661.1 1275.76 1657.1 1275.76 Q1655.22 1275.76 1653.35 1276.18 Q1651.5 1276.6 1649.55 1277.48 L1649.55 1260.11 Z" fill="#000000" fill-rule="nonzero" fill-opacity="1" /><path clip-path="url(#clip220)" d="M1995.47 1264.19 L1983.67 1282.64 L1995.47 1282.64 L1995.47 1264.19 M1994.24 1260.11 L2000.12 1260.11 L2000.12 1282.64 L2005.05 1282.64 L2005.05 1286.53 L2000.12 1286.53 L2000.12 1294.67 L1995.47 1294.67 L1995.47 1286.53 L1979.87 1286.53 L1979.87 1282.01 L1994.24 1260.11 Z" fill="#000000" fill-rule="nonzero" fill-opacity="1" /><path clip-path="url(#clip220)" d="M2012.79 1288.8 L2017.67 1288.8 L2017.67 1294.67 L2012.79 1294.67 L2012.79 1288.8 Z" fill="#000000" fill-rule="nonzero" fill-opacity="1" /><path clip-path="url(#clip220)" d="M2037.85 1263.19 Q2034.24 1263.19 2032.41 1266.76 Q2030.61 1270.3 2030.61 1277.43 Q2030.61 1284.54 2032.41 1288.1 Q2034.24 1291.64 2037.85 1291.64 Q2041.49 1291.64 2043.29 1288.1 Q2045.12 1284.54 2045.12 1277.43 Q2045.12 1270.3 2043.29 1266.76 Q2041.49 1263.19 2037.85 1263.19 M2037.85 1259.49 Q2043.66 1259.49 2046.72 1264.1 Q2049.8 1268.68 2049.8 1277.43 Q2049.8 1286.16 2046.72 1290.76 Q2043.66 1295.35 2037.85 1295.35 Q2032.04 1295.35 2028.97 1290.76 Q2025.91 1286.16 2025.91 1277.43 Q2025.91 1268.68 2028.97 1264.1 Q2032.04 1259.49 2037.85 1259.49 Z" fill="#000000" fill-rule="nonzero" fill-opacity="1" /><polyline clip-path="url(#clip222)" style="stroke:#000000; stroke-linecap:round; stroke-linejoin:round; stroke-width:2; stroke-opacity:0.1; fill:none" points="300.844,1141.77 2064.76,1141.77 "/>
<polyline clip-path="url(#clip222)" style="stroke:#000000; stroke-linecap:round; stroke-linejoin:round; stroke-width:2; stroke-opacity:0.1; fill:none" points="300.844,957.414 2064.76,957.414 "/>
<polyline clip-path="url(#clip222)" style="stroke:#000000; stroke-linecap:round; stroke-linejoin:round; stroke-width:2; stroke-opacity:0.1; fill:none" points="300.844,773.06 2064.76,773.06 "/>
<polyline clip-path="url(#clip222)" style="stroke:#000000; stroke-linecap:round; stroke-linejoin:round; stroke-width:2; stroke-opacity:0.1; fill:none" points="300.844,588.706 2064.76,588.706 "/>
<polyline clip-path="url(#clip222)" style="stroke:#000000; stroke-linecap:round; stroke-linejoin:round; stroke-width:2; stroke-opacity:0.1; fill:none" points="300.844,404.353 2064.76,404.353 "/>
<polyline clip-path="url(#clip222)" style="stroke:#000000; stroke-linecap:round; stroke-linejoin:round; stroke-width:2; stroke-opacity:0.1; fill:none" points="300.844,219.999 2064.76,219.999 "/>
<polyline clip-path="url(#clip220)" style="stroke:#000000; stroke-linecap:round; stroke-linejoin:round; stroke-width:4; stroke-opacity:1; fill:none" points="300.844,1234.58 300.844,47.2441 "/>
<polyline clip-path="url(#clip220)" style="stroke:#000000; stroke-linecap:round; stroke-linejoin:round; stroke-width:4; stroke-opacity:1; fill:none" points="300.844,1141.77 319.742,1141.77 "/>
<polyline clip-path="url(#clip220)" style="stroke:#000000; stroke-linecap:round; stroke-linejoin:round; stroke-width:4; stroke-opacity:1; fill:none" points="300.844,957.414 319.742,957.414 "/>
<polyline clip-path="url(#clip220)" style="stroke:#000000; stroke-linecap:round; stroke-linejoin:round; stroke-width:4; stroke-opacity:1; fill:none" points="300.844,773.06 319.742,773.06 "/>
<polyline clip-path="url(#clip220)" style="stroke:#000000; stroke-linecap:round; stroke-linejoin:round; stroke-width:4; stroke-opacity:1; fill:none" points="300.844,588.706 319.742,588.706 "/>
<polyline clip-path="url(#clip220)" style="stroke:#000000; stroke-linecap:round; stroke-linejoin:round; stroke-width:4; stroke-opacity:1; fill:none" points="300.844,404.353 319.742,404.353 "/>
<polyline clip-path="url(#clip220)" style="stroke:#000000; stroke-linecap:round; stroke-linejoin:round; stroke-width:4; stroke-opacity:1; fill:none" points="300.844,219.999 319.742,219.999 "/>
<path clip-path="url(#clip220)" d="M52.4321 1130.94 L74.6542 1130.94 L74.6542 1132.93 L62.108 1165.5 L57.2238 1165.5 L69.0293 1134.87 L52.4321 1134.87 L52.4321 1130.94 Z" fill="#000000" fill-rule="nonzero" fill-opacity="1" /><path clip-path="url(#clip220)" d="M83.7746 1159.62 L88.6588 1159.62 L88.6588 1165.5 L83.7746 1165.5 L83.7746 1159.62 Z" fill="#000000" fill-rule="nonzero" fill-opacity="1" /><path clip-path="url(#clip220)" d="M113.011 1146.86 Q116.367 1147.58 118.242 1149.85 Q120.14 1152.12 120.14 1155.45 Q120.14 1160.56 116.622 1163.37 Q113.103 1166.17 106.622 1166.17 Q104.446 1166.17 102.131 1165.73 Q99.8393 1165.31 97.3856 1164.45 L97.3856 1159.94 Q99.33 1161.07 101.645 1161.65 Q103.96 1162.23 106.483 1162.23 Q110.881 1162.23 113.173 1160.5 Q115.487 1158.76 115.487 1155.45 Q115.487 1152.39 113.335 1150.68 Q111.205 1148.94 107.386 1148.94 L103.358 1148.94 L103.358 1145.1 L107.571 1145.1 Q111.02 1145.1 112.848 1143.74 Q114.677 1142.35 114.677 1139.75 Q114.677 1137.09 112.779 1135.68 Q110.904 1134.25 107.386 1134.25 Q105.464 1134.25 103.265 1134.66 Q101.066 1135.08 98.4272 1135.96 L98.4272 1131.79 Q101.089 1131.05 103.404 1130.68 Q105.742 1130.31 107.802 1130.31 Q113.126 1130.31 116.228 1132.74 Q119.33 1135.15 119.33 1139.27 Q119.33 1142.14 117.686 1144.13 Q116.043 1146.1 113.011 1146.86 Z" fill="#000000" fill-rule="nonzero" fill-opacity="1" /><path clip-path="url(#clip220)" d="M139.006 1134.01 Q135.395 1134.01 133.566 1137.58 Q131.76 1141.12 131.76 1148.25 Q131.76 1155.36 133.566 1158.92 Q135.395 1162.46 139.006 1162.46 Q142.64 1162.46 144.446 1158.92 Q146.274 1155.36 146.274 1148.25 Q146.274 1141.12 144.446 1137.58 Q142.64 1134.01 139.006 1134.01 M139.006 1130.31 Q144.816 1130.31 147.871 1134.92 Q150.95 1139.5 150.95 1148.25 Q150.95 1156.98 147.871 1161.58 Q144.816 1166.17 139.006 1166.17 Q133.196 1166.17 130.117 1161.58 Q127.061 1156.98 127.061 1148.25 Q127.061 1139.5 130.117 1134.92 Q133.196 1130.31 139.006 1130.31 Z" fill="#000000" fill-rule="nonzero" fill-opacity="1" /><path clip-path="url(#clip220)" d="M187.339 1140.03 L176.76 1150.66 L187.339 1161.24 L184.584 1164.04 L173.959 1153.41 L163.334 1164.04 L160.603 1161.24 L171.158 1150.66 L160.603 1140.03 L163.334 1137.23 L173.959 1147.86 L184.584 1137.23 L187.339 1140.03 Z" fill="#000000" fill-rule="nonzero" fill-opacity="1" /><path clip-path="url(#clip220)" d="M199.7 1161.56 L207.339 1161.56 L207.339 1135.19 L199.029 1136.86 L199.029 1132.6 L207.292 1130.94 L211.968 1130.94 L211.968 1161.56 L219.607 1161.56 L219.607 1165.5 L199.7 1165.5 L199.7 1161.56 Z" fill="#000000" fill-rule="nonzero" fill-opacity="1" /><path clip-path="url(#clip220)" d="M239.051 1134.01 Q235.44 1134.01 233.612 1137.58 Q231.806 1141.12 231.806 1148.25 Q231.806 1155.36 233.612 1158.92 Q235.44 1162.46 239.051 1162.46 Q242.686 1162.46 244.491 1158.92 Q246.32 1155.36 246.32 1148.25 Q246.32 1141.12 244.491 1137.58 Q242.686 1134.01 239.051 1134.01 M239.051 1130.31 Q244.862 1130.31 247.917 1134.92 Q250.996 1139.5 250.996 1148.25 Q250.996 1156.98 247.917 1161.58 Q244.862 1166.17 239.051 1166.17 Q233.241 1166.17 230.163 1161.58 Q227.107 1156.98 227.107 1148.25 Q227.107 1139.5 230.163 1134.92 Q233.241 1130.31 239.051 1130.31 Z" fill="#000000" fill-rule="nonzero" fill-opacity="1" /><path clip-path="url(#clip220)" d="M252.181 1110.01 L267.095 1110.01 L267.095 1113.2 L255.66 1113.2 L255.66 1120.09 Q256.488 1119.8 257.315 1119.67 Q258.143 1119.52 258.97 1119.52 Q263.672 1119.52 266.418 1122.1 Q269.164 1124.68 269.164 1129.08 Q269.164 1133.61 266.343 1136.13 Q263.522 1138.63 258.387 1138.63 Q256.619 1138.63 254.776 1138.33 Q252.952 1138.03 250.996 1137.43 L250.996 1133.61 Q252.689 1134.53 254.494 1134.98 Q256.3 1135.43 258.312 1135.43 Q261.566 1135.43 263.465 1133.72 Q265.365 1132.01 265.365 1129.08 Q265.365 1126.14 263.465 1124.43 Q261.566 1122.72 258.312 1122.72 Q256.789 1122.72 255.265 1123.06 Q253.761 1123.4 252.181 1124.11 L252.181 1110.01 Z" fill="#000000" fill-rule="nonzero" fill-opacity="1" /><path clip-path="url(#clip220)" d="M52.4321 946.582 L74.6542 946.582 L74.6542 948.572 L62.108 981.142 L57.2238 981.142 L69.0293 950.517 L52.4321 950.517 L52.4321 946.582 Z" fill="#000000" fill-rule="nonzero" fill-opacity="1" /><path clip-path="url(#clip220)" d="M83.7746 975.262 L88.6588 975.262 L88.6588 981.142 L83.7746 981.142 L83.7746 975.262 Z" fill="#000000" fill-rule="nonzero" fill-opacity="1" /><path clip-path="url(#clip220)" d="M111.691 950.656 L99.8856 969.105 L111.691 969.105 L111.691 950.656 M110.464 946.582 L116.344 946.582 L116.344 969.105 L121.274 969.105 L121.274 972.994 L116.344 972.994 L116.344 981.142 L111.691 981.142 L111.691 972.994 L96.0893 972.994 L96.0893 968.48 L110.464 946.582 Z" fill="#000000" fill-rule="nonzero" fill-opacity="1" /><path clip-path="url(#clip220)" d="M139.006 949.66 Q135.395 949.66 133.566 953.225 Q131.76 956.767 131.76 963.896 Q131.76 971.003 133.566 974.568 Q135.395 978.109 139.006 978.109 Q142.64 978.109 144.446 974.568 Q146.274 971.003 146.274 963.896 Q146.274 956.767 144.446 953.225 Q142.64 949.66 139.006 949.66 M139.006 945.957 Q144.816 945.957 147.871 950.563 Q150.95 955.146 150.95 963.896 Q150.95 972.623 147.871 977.23 Q144.816 981.813 139.006 981.813 Q133.196 981.813 130.117 977.23 Q127.061 972.623 127.061 963.896 Q127.061 955.146 130.117 950.563 Q133.196 945.957 139.006 945.957 Z" fill="#000000" fill-rule="nonzero" fill-opacity="1" /><path clip-path="url(#clip220)" d="M187.339 955.679 L176.76 966.304 L187.339 976.882 L184.584 979.683 L173.959 969.058 L163.334 979.683 L160.603 976.882 L171.158 966.304 L160.603 955.679 L163.334 952.878 L173.959 963.503 L184.584 952.878 L187.339 955.679 Z" fill="#000000" fill-rule="nonzero" fill-opacity="1" /><path clip-path="url(#clip220)" d="M199.7 977.206 L207.339 977.206 L207.339 950.841 L199.029 952.508 L199.029 948.248 L207.292 946.582 L211.968 946.582 L211.968 977.206 L219.607 977.206 L219.607 981.142 L199.7 981.142 L199.7 977.206 Z" fill="#000000" fill-rule="nonzero" fill-opacity="1" /><path clip-path="url(#clip220)" d="M239.051 949.66 Q235.44 949.66 233.612 953.225 Q231.806 956.767 231.806 963.896 Q231.806 971.003 233.612 974.568 Q235.44 978.109 239.051 978.109 Q242.686 978.109 244.491 974.568 Q246.32 971.003 246.32 963.896 Q246.32 956.767 244.491 953.225 Q242.686 949.66 239.051 949.66 M239.051 945.957 Q244.862 945.957 247.917 950.563 Q250.996 955.146 250.996 963.896 Q250.996 972.623 247.917 977.23 Q244.862 981.813 239.051 981.813 Q233.241 981.813 230.163 977.23 Q227.107 972.623 227.107 963.896 Q227.107 955.146 230.163 950.563 Q233.241 945.957 239.051 945.957 Z" fill="#000000" fill-rule="nonzero" fill-opacity="1" /><path clip-path="url(#clip220)" d="M252.181 925.651 L267.095 925.651 L267.095 928.849 L255.66 928.849 L255.66 935.732 Q256.488 935.45 257.315 935.318 Q258.143 935.168 258.97 935.168 Q263.672 935.168 266.418 937.745 Q269.164 940.321 269.164 944.722 Q269.164 949.255 266.343 951.775 Q263.522 954.277 258.387 954.277 Q256.619 954.277 254.776 953.976 Q252.952 953.675 250.996 953.073 L250.996 949.255 Q252.689 950.177 254.494 950.628 Q256.3 951.079 258.312 951.079 Q261.566 951.079 263.465 949.368 Q265.365 947.656 265.365 944.722 Q265.365 941.788 263.465 940.077 Q261.566 938.365 258.312 938.365 Q256.789 938.365 255.265 938.704 Q253.761 939.042 252.181 939.757 L252.181 925.651 Z" fill="#000000" fill-rule="nonzero" fill-opacity="1" /><path clip-path="url(#clip220)" d="M52.4321 762.228 L74.6542 762.228 L74.6542 764.219 L62.108 796.788 L57.2238 796.788 L69.0293 766.163 L52.4321 766.163 L52.4321 762.228 Z" fill="#000000" fill-rule="nonzero" fill-opacity="1" /><path clip-path="url(#clip220)" d="M83.7746 790.908 L88.6588 790.908 L88.6588 796.788 L83.7746 796.788 L83.7746 790.908 Z" fill="#000000" fill-rule="nonzero" fill-opacity="1" /><path clip-path="url(#clip220)" d="M98.8902 762.228 L117.247 762.228 L117.247 766.163 L103.173 766.163 L103.173 774.635 Q104.191 774.288 105.21 774.126 Q106.228 773.941 107.247 773.941 Q113.034 773.941 116.413 777.112 Q119.793 780.283 119.793 785.7 Q119.793 791.279 116.321 794.38 Q112.848 797.459 106.529 797.459 Q104.353 797.459 102.085 797.089 Q99.8393 796.718 97.4319 795.978 L97.4319 791.279 Q99.5152 792.413 101.737 792.968 Q103.96 793.524 106.436 793.524 Q110.441 793.524 112.779 791.417 Q115.117 789.311 115.117 785.7 Q115.117 782.089 112.779 779.982 Q110.441 777.876 106.436 777.876 Q104.561 777.876 102.686 778.293 Q100.835 778.709 98.8902 779.589 L98.8902 762.228 Z" fill="#000000" fill-rule="nonzero" fill-opacity="1" /><path clip-path="url(#clip220)" d="M139.006 765.306 Q135.395 765.306 133.566 768.871 Q131.76 772.413 131.76 779.543 Q131.76 786.649 133.566 790.214 Q135.395 793.755 139.006 793.755 Q142.64 793.755 144.446 790.214 Q146.274 786.649 146.274 779.543 Q146.274 772.413 144.446 768.871 Q142.64 765.306 139.006 765.306 M139.006 761.603 Q144.816 761.603 147.871 766.209 Q150.95 770.793 150.95 779.543 Q150.95 788.269 147.871 792.876 Q144.816 797.459 139.006 797.459 Q133.196 797.459 130.117 792.876 Q127.061 788.269 127.061 779.543 Q127.061 770.793 130.117 766.209 Q133.196 761.603 139.006 761.603 Z" fill="#000000" fill-rule="nonzero" fill-opacity="1" /><path clip-path="url(#clip220)" d="M187.339 771.325 L176.76 781.95 L187.339 792.529 L184.584 795.329 L173.959 784.705 L163.334 795.329 L160.603 792.529 L171.158 781.95 L160.603 771.325 L163.334 768.524 L173.959 779.149 L184.584 768.524 L187.339 771.325 Z" fill="#000000" fill-rule="nonzero" fill-opacity="1" /><path clip-path="url(#clip220)" d="M199.7 792.853 L207.339 792.853 L207.339 766.487 L199.029 768.154 L199.029 763.894 L207.292 762.228 L211.968 762.228 L211.968 792.853 L219.607 792.853 L219.607 796.788 L199.7 796.788 L199.7 792.853 Z" fill="#000000" fill-rule="nonzero" fill-opacity="1" /><path clip-path="url(#clip220)" d="M239.051 765.306 Q235.44 765.306 233.612 768.871 Q231.806 772.413 231.806 779.543 Q231.806 786.649 233.612 790.214 Q235.44 793.755 239.051 793.755 Q242.686 793.755 244.491 790.214 Q246.32 786.649 246.32 779.543 Q246.32 772.413 244.491 768.871 Q242.686 765.306 239.051 765.306 M239.051 761.603 Q244.862 761.603 247.917 766.209 Q250.996 770.793 250.996 779.543 Q250.996 788.269 247.917 792.876 Q244.862 797.459 239.051 797.459 Q233.241 797.459 230.163 792.876 Q227.107 788.269 227.107 779.543 Q227.107 770.793 230.163 766.209 Q233.241 761.603 239.051 761.603 Z" fill="#000000" fill-rule="nonzero" fill-opacity="1" /><path clip-path="url(#clip220)" d="M252.181 741.297 L267.095 741.297 L267.095 744.495 L255.66 744.495 L255.66 751.378 Q256.488 751.096 257.315 750.965 Q258.143 750.814 258.97 750.814 Q263.672 750.814 266.418 753.391 Q269.164 755.967 269.164 760.368 Q269.164 764.901 266.343 767.421 Q263.522 769.923 258.387 769.923 Q256.619 769.923 254.776 769.622 Q252.952 769.321 250.996 768.719 L250.996 764.901 Q252.689 765.823 254.494 766.274 Q256.3 766.725 258.312 766.725 Q261.566 766.725 263.465 765.014 Q265.365 763.302 265.365 760.368 Q265.365 757.434 263.465 755.723 Q261.566 754.011 258.312 754.011 Q256.789 754.011 255.265 754.35 Q253.761 754.689 252.181 755.403 L252.181 741.297 Z" fill="#000000" fill-rule="nonzero" fill-opacity="1" /><path clip-path="url(#clip220)" d="M52.4321 577.874 L74.6542 577.874 L74.6542 579.865 L62.108 612.434 L57.2238 612.434 L69.0293 581.809 L52.4321 581.809 L52.4321 577.874 Z" fill="#000000" fill-rule="nonzero" fill-opacity="1" /><path clip-path="url(#clip220)" d="M83.7746 606.554 L88.6588 606.554 L88.6588 612.434 L83.7746 612.434 L83.7746 606.554 Z" fill="#000000" fill-rule="nonzero" fill-opacity="1" /><path clip-path="url(#clip220)" d="M109.423 593.291 Q106.274 593.291 104.423 595.443 Q102.594 597.596 102.594 601.346 Q102.594 605.073 104.423 607.249 Q106.274 609.402 109.423 609.402 Q112.571 609.402 114.399 607.249 Q116.251 605.073 116.251 601.346 Q116.251 597.596 114.399 595.443 Q112.571 593.291 109.423 593.291 M118.705 578.638 L118.705 582.897 Q116.946 582.064 115.14 581.624 Q113.358 581.184 111.598 581.184 Q106.969 581.184 104.515 584.309 Q102.085 587.434 101.737 593.754 Q103.103 591.74 105.163 590.675 Q107.223 589.587 109.7 589.587 Q114.909 589.587 117.918 592.758 Q120.95 595.906 120.95 601.346 Q120.95 606.67 117.802 609.888 Q114.654 613.105 109.423 613.105 Q103.427 613.105 100.256 608.522 Q97.0847 603.915 97.0847 595.189 Q97.0847 586.994 100.974 582.133 Q104.862 577.249 111.413 577.249 Q113.173 577.249 114.955 577.596 Q116.76 577.943 118.705 578.638 Z" fill="#000000" fill-rule="nonzero" fill-opacity="1" /><path clip-path="url(#clip220)" d="M139.006 580.953 Q135.395 580.953 133.566 584.517 Q131.76 588.059 131.76 595.189 Q131.76 602.295 133.566 605.86 Q135.395 609.402 139.006 609.402 Q142.64 609.402 144.446 605.86 Q146.274 602.295 146.274 595.189 Q146.274 588.059 144.446 584.517 Q142.64 580.953 139.006 580.953 M139.006 577.249 Q144.816 577.249 147.871 581.855 Q150.95 586.439 150.95 595.189 Q150.95 603.915 147.871 608.522 Q144.816 613.105 139.006 613.105 Q133.196 613.105 130.117 608.522 Q127.061 603.915 127.061 595.189 Q127.061 586.439 130.117 581.855 Q133.196 577.249 139.006 577.249 Z" fill="#000000" fill-rule="nonzero" fill-opacity="1" /><path clip-path="url(#clip220)" d="M187.339 586.971 L176.76 597.596 L187.339 608.175 L184.584 610.976 L173.959 600.351 L163.334 610.976 L160.603 608.175 L171.158 597.596 L160.603 586.971 L163.334 584.17 L173.959 594.795 L184.584 584.17 L187.339 586.971 Z" fill="#000000" fill-rule="nonzero" fill-opacity="1" /><path clip-path="url(#clip220)" d="M199.7 608.499 L207.339 608.499 L207.339 582.133 L199.029 583.8 L199.029 579.541 L207.292 577.874 L211.968 577.874 L211.968 608.499 L219.607 608.499 L219.607 612.434 L199.7 612.434 L199.7 608.499 Z" fill="#000000" fill-rule="nonzero" fill-opacity="1" /><path clip-path="url(#clip220)" d="M239.051 580.953 Q235.44 580.953 233.612 584.517 Q231.806 588.059 231.806 595.189 Q231.806 602.295 233.612 605.86 Q235.44 609.402 239.051 609.402 Q242.686 609.402 244.491 605.86 Q246.32 602.295 246.32 595.189 Q246.32 588.059 244.491 584.517 Q242.686 580.953 239.051 580.953 M239.051 577.249 Q244.862 577.249 247.917 581.855 Q250.996 586.439 250.996 595.189 Q250.996 603.915 247.917 608.522 Q244.862 613.105 239.051 613.105 Q233.241 613.105 230.163 608.522 Q227.107 603.915 227.107 595.189 Q227.107 586.439 230.163 581.855 Q233.241 577.249 239.051 577.249 Z" fill="#000000" fill-rule="nonzero" fill-opacity="1" /><path clip-path="url(#clip220)" d="M252.181 556.944 L267.095 556.944 L267.095 560.141 L255.66 560.141 L255.66 567.025 Q256.488 566.742 257.315 566.611 Q258.143 566.46 258.97 566.46 Q263.672 566.46 266.418 569.037 Q269.164 571.614 269.164 576.015 Q269.164 580.547 266.343 583.068 Q263.522 585.569 258.387 585.569 Q256.619 585.569 254.776 585.268 Q252.952 584.967 250.996 584.365 L250.996 580.547 Q252.689 581.469 254.494 581.92 Q256.3 582.372 258.312 582.372 Q261.566 582.372 263.465 580.66 Q265.365 578.949 265.365 576.015 Q265.365 573.081 263.465 571.369 Q261.566 569.658 258.312 569.658 Q256.789 569.658 255.265 569.996 Q253.761 570.335 252.181 571.049 L252.181 556.944 Z" fill="#000000" fill-rule="nonzero" fill-opacity="1" /><path clip-path="url(#clip220)" d="M52.4321 393.52 L74.6542 393.52 L74.6542 395.511 L62.108 428.08 L57.2238 428.08 L69.0293 397.455 L52.4321 397.455 L52.4321 393.52 Z" fill="#000000" fill-rule="nonzero" fill-opacity="1" /><path clip-path="url(#clip220)" d="M83.7746 422.201 L88.6588 422.201 L88.6588 428.08 L83.7746 428.08 L83.7746 422.201 Z" fill="#000000" fill-rule="nonzero" fill-opacity="1" /><path clip-path="url(#clip220)" d="M97.6634 393.52 L119.885 393.52 L119.885 395.511 L107.339 428.08 L102.455 428.08 L114.26 397.455 L97.6634 397.455 L97.6634 393.52 Z" fill="#000000" fill-rule="nonzero" fill-opacity="1" /><path clip-path="url(#clip220)" d="M139.006 396.599 Q135.395 396.599 133.566 400.164 Q131.76 403.705 131.76 410.835 Q131.76 417.941 133.566 421.506 Q135.395 425.048 139.006 425.048 Q142.64 425.048 144.446 421.506 Q146.274 417.941 146.274 410.835 Q146.274 403.705 144.446 400.164 Q142.64 396.599 139.006 396.599 M139.006 392.895 Q144.816 392.895 147.871 397.502 Q150.95 402.085 150.95 410.835 Q150.95 419.562 147.871 424.168 Q144.816 428.751 139.006 428.751 Q133.196 428.751 130.117 424.168 Q127.061 419.562 127.061 410.835 Q127.061 402.085 130.117 397.502 Q133.196 392.895 139.006 392.895 Z" fill="#000000" fill-rule="nonzero" fill-opacity="1" /><path clip-path="url(#clip220)" d="M187.339 402.617 L176.76 413.242 L187.339 423.821 L184.584 426.622 L173.959 415.997 L163.334 426.622 L160.603 423.821 L171.158 413.242 L160.603 402.617 L163.334 399.816 L173.959 410.441 L184.584 399.816 L187.339 402.617 Z" fill="#000000" fill-rule="nonzero" fill-opacity="1" /><path clip-path="url(#clip220)" d="M199.7 424.145 L207.339 424.145 L207.339 397.779 L199.029 399.446 L199.029 395.187 L207.292 393.52 L211.968 393.52 L211.968 424.145 L219.607 424.145 L219.607 428.08 L199.7 428.08 L199.7 424.145 Z" fill="#000000" fill-rule="nonzero" fill-opacity="1" /><path clip-path="url(#clip220)" d="M239.051 396.599 Q235.44 396.599 233.612 400.164 Q231.806 403.705 231.806 410.835 Q231.806 417.941 233.612 421.506 Q235.44 425.048 239.051 425.048 Q242.686 425.048 244.491 421.506 Q246.32 417.941 246.32 410.835 Q246.32 403.705 244.491 400.164 Q242.686 396.599 239.051 396.599 M239.051 392.895 Q244.862 392.895 247.917 397.502 Q250.996 402.085 250.996 410.835 Q250.996 419.562 247.917 424.168 Q244.862 428.751 239.051 428.751 Q233.241 428.751 230.163 424.168 Q227.107 419.562 227.107 410.835 Q227.107 402.085 230.163 397.502 Q233.241 392.895 239.051 392.895 Z" fill="#000000" fill-rule="nonzero" fill-opacity="1" /><path clip-path="url(#clip220)" d="M252.181 372.59 L267.095 372.59 L267.095 375.787 L255.66 375.787 L255.66 382.671 Q256.488 382.389 257.315 382.257 Q258.143 382.106 258.97 382.106 Q263.672 382.106 266.418 384.683 Q269.164 387.26 269.164 391.661 Q269.164 396.194 266.343 398.714 Q263.522 401.215 258.387 401.215 Q256.619 401.215 254.776 400.914 Q252.952 400.613 250.996 400.011 L250.996 396.194 Q252.689 397.115 254.494 397.566 Q256.3 398.018 258.312 398.018 Q261.566 398.018 263.465 396.306 Q265.365 394.595 265.365 391.661 Q265.365 388.727 263.465 387.015 Q261.566 385.304 258.312 385.304 Q256.789 385.304 255.265 385.642 Q253.761 385.981 252.181 386.696 L252.181 372.59 Z" fill="#000000" fill-rule="nonzero" fill-opacity="1" /><path clip-path="url(#clip220)" d="M52.4321 209.166 L74.6542 209.166 L74.6542 211.157 L62.108 243.726 L57.2238 243.726 L69.0293 213.101 L52.4321 213.101 L52.4321 209.166 Z" fill="#000000" fill-rule="nonzero" fill-opacity="1" /><path clip-path="url(#clip220)" d="M83.7746 237.847 L88.6588 237.847 L88.6588 243.726 L83.7746 243.726 L83.7746 237.847 Z" fill="#000000" fill-rule="nonzero" fill-opacity="1" /><path clip-path="url(#clip220)" d="M108.844 227.314 Q105.511 227.314 103.589 229.097 Q101.691 230.879 101.691 234.004 Q101.691 237.129 103.589 238.912 Q105.511 240.694 108.844 240.694 Q112.177 240.694 114.098 238.912 Q116.02 237.106 116.02 234.004 Q116.02 230.879 114.098 229.097 Q112.2 227.314 108.844 227.314 M104.168 225.324 Q101.159 224.583 99.4689 222.523 Q97.8023 220.463 97.8023 217.5 Q97.8023 213.356 100.742 210.949 Q103.705 208.541 108.844 208.541 Q114.006 208.541 116.946 210.949 Q119.885 213.356 119.885 217.5 Q119.885 220.463 118.196 222.523 Q116.529 224.583 113.543 225.324 Q116.923 226.111 118.798 228.402 Q120.696 230.694 120.696 234.004 Q120.696 239.027 117.617 241.712 Q114.561 244.398 108.844 244.398 Q103.126 244.398 100.048 241.712 Q96.9921 239.027 96.9921 234.004 Q96.9921 230.694 98.8902 228.402 Q100.788 226.111 104.168 225.324 M102.455 217.939 Q102.455 220.625 104.122 222.129 Q105.811 223.634 108.844 223.634 Q111.853 223.634 113.543 222.129 Q115.256 220.625 115.256 217.939 Q115.256 215.254 113.543 213.75 Q111.853 212.245 108.844 212.245 Q105.811 212.245 104.122 213.75 Q102.455 215.254 102.455 217.939 Z" fill="#000000" fill-rule="nonzero" fill-opacity="1" /><path clip-path="url(#clip220)" d="M139.006 212.245 Q135.395 212.245 133.566 215.81 Q131.76 219.351 131.76 226.481 Q131.76 233.587 133.566 237.152 Q135.395 240.694 139.006 240.694 Q142.64 240.694 144.446 237.152 Q146.274 233.587 146.274 226.481 Q146.274 219.351 144.446 215.81 Q142.64 212.245 139.006 212.245 M139.006 208.541 Q144.816 208.541 147.871 213.148 Q150.95 217.731 150.95 226.481 Q150.95 235.208 147.871 239.814 Q144.816 244.398 139.006 244.398 Q133.196 244.398 130.117 239.814 Q127.061 235.208 127.061 226.481 Q127.061 217.731 130.117 213.148 Q133.196 208.541 139.006 208.541 Z" fill="#000000" fill-rule="nonzero" fill-opacity="1" /><path clip-path="url(#clip220)" d="M187.339 218.264 L176.76 228.888 L187.339 239.467 L184.584 242.268 L173.959 231.643 L163.334 242.268 L160.603 239.467 L171.158 228.888 L160.603 218.264 L163.334 215.463 L173.959 226.088 L184.584 215.463 L187.339 218.264 Z" fill="#000000" fill-rule="nonzero" fill-opacity="1" /><path clip-path="url(#clip220)" d="M199.7 239.791 L207.339 239.791 L207.339 213.426 L199.029 215.092 L199.029 210.833 L207.292 209.166 L211.968 209.166 L211.968 239.791 L219.607 239.791 L219.607 243.726 L199.7 243.726 L199.7 239.791 Z" fill="#000000" fill-rule="nonzero" fill-opacity="1" /><path clip-path="url(#clip220)" d="M239.051 212.245 Q235.44 212.245 233.612 215.81 Q231.806 219.351 231.806 226.481 Q231.806 233.587 233.612 237.152 Q235.44 240.694 239.051 240.694 Q242.686 240.694 244.491 237.152 Q246.32 233.587 246.32 226.481 Q246.32 219.351 244.491 215.81 Q242.686 212.245 239.051 212.245 M239.051 208.541 Q244.862 208.541 247.917 213.148 Q250.996 217.731 250.996 226.481 Q250.996 235.208 247.917 239.814 Q244.862 244.398 239.051 244.398 Q233.241 244.398 230.163 239.814 Q227.107 235.208 227.107 226.481 Q227.107 217.731 230.163 213.148 Q233.241 208.541 239.051 208.541 Z" fill="#000000" fill-rule="nonzero" fill-opacity="1" /><path clip-path="url(#clip220)" d="M252.181 188.236 L267.095 188.236 L267.095 191.433 L255.66 191.433 L255.66 198.317 Q256.488 198.035 257.315 197.903 Q258.143 197.753 258.97 197.753 Q263.672 197.753 266.418 200.329 Q269.164 202.906 269.164 207.307 Q269.164 211.84 266.343 214.36 Q263.522 216.861 258.387 216.861 Q256.619 216.861 254.776 216.56 Q252.952 216.26 250.996 215.658 L250.996 211.84 Q252.689 212.761 254.494 213.213 Q256.3 213.664 258.312 213.664 Q261.566 213.664 263.465 211.953 Q265.365 210.241 265.365 207.307 Q265.365 204.373 263.465 202.661 Q261.566 200.95 258.312 200.95 Q256.789 200.95 255.265 201.289 Q253.761 201.627 252.181 202.342 L252.181 188.236 Z" fill="#000000" fill-rule="nonzero" fill-opacity="1" /><polyline clip-path="url(#clip222)" style="stroke:#009af9; stroke-linecap:round; stroke-linejoin:round; stroke-width:4; stroke-opacity:1; fill:none" points="350.766,1200.97 388.586,1081.67 426.406,972.485 464.225,872.711 502.045,781.695 539.865,698.824 577.685,623.52 615.504,555.242 653.324,493.485 691.144,437.776 728.963,387.671 766.783,342.756 804.603,302.645 842.423,266.976 880.242,235.412 918.062,207.639 955.882,183.362 993.701,162.309 1031.52,144.225 1069.34,128.872 1107.16,116.029 1144.98,105.491 1182.8,97.0665 1220.62,90.5778 1258.44,85.8596 1296.26,82.7585 1334.08,81.132 1371.9,80.8479 1409.72,81.7835 1447.54,83.8252 1485.36,86.8675 1523.18,90.8129 1561,95.571 1598.82,101.058 1636.64,107.198 1674.46,113.917 1712.28,121.152 1750.1,128.84 1787.92,136.926 1825.74,145.358 1863.55,154.088 1901.37,163.074 1939.19,172.273 1977.01,181.65 2014.83,191.171 "/>
</svg>
