<?xml version="1.0" encoding="utf-8"?>
<svg xmlns="http://www.w3.org/2000/svg" xmlns:xlink="http://www.w3.org/1999/xlink" width="528" height="336" viewBox="0 0 2112 1344">
<defs>
  <clipPath id="clip450">
    <rect x="0" y="0" width="2112" height="1344"/>
  </clipPath>
</defs>
<path clip-path="url(#clip450)" d="M0 1344 L2112 1344 L2112 0 L0 0  Z" fill="#ffffff" fill-rule="evenodd" fill-opacity="1"/>
<defs>
  <clipPath id="clip451">
    <rect x="422" y="0" width="1479" height="1344"/>
  </clipPath>
</defs>
<path clip-path="url(#clip450)" d="M229.085 1173.47 L2064.76 1173.47 L2064.76 47.2441 L229.085 47.2441  Z" fill="#ffffff" fill-rule="evenodd" fill-opacity="1"/>
<defs>
  <clipPath id="clip452">
    <rect x="229" y="47" width="1837" height="1127"/>
  </clipPath>
</defs>
<polyline clip-path="url(#clip452)" style="stroke:#000000; stroke-linecap:round; stroke-linejoin:round; stroke-width:2; stroke-opacity:0.1; fill:none" points="443.437,1173.47 443.437,47.2441 "/>
<polyline clip-path="url(#clip452)" style="stroke:#000000; stroke-linecap:round; stroke-linejoin:round; stroke-width:2; stroke-opacity:0.1; fill:none" points="795.179,1173.47 795.179,47.2441 "/>
<polyline clip-path="url(#clip452)" style="stroke:#000000; stroke-linecap:round; stroke-linejoin:round; stroke-width:2; stroke-opacity:0.1; fill:none" points="1146.92,1173.47 1146.92,47.2441 "/>
<polyline clip-path="url(#clip452)" style="stroke:#000000; stroke-linecap:round; stroke-linejoin:round; stroke-width:2; stroke-opacity:0.1; fill:none" points="1498.66,1173.47 1498.66,47.2441 "/>
<polyline clip-path="url(#clip452)" style="stroke:#000000; stroke-linecap:round; stroke-linejoin:round; stroke-width:2; stroke-opacity:0.1; fill:none" points="1850.4,1173.47 1850.4,47.2441 "/>
<polyline clip-path="url(#clip450)" style="stroke:#000000; stroke-linecap:round; stroke-linejoin:round; stroke-width:4; stroke-opacity:1; fill:none" points="229.085,1173.47 2064.76,1173.47 "/>
<polyline clip-path="url(#clip450)" style="stroke:#000000; stroke-linecap:round; stroke-linejoin:round; stroke-width:4; stroke-opacity:1; fill:none" points="443.437,1173.47 443.437,1154.57 "/>
<polyline clip-path="url(#clip450)" style="stroke:#000000; stroke-linecap:round; stroke-linejoin:round; stroke-width:4; stroke-opacity:1; fill:none" points="795.179,1173.47 795.179,1154.57 "/>
<polyline clip-path="url(#clip450)" style="stroke:#000000; stroke-linecap:round; stroke-linejoin:round; stroke-width:4; stroke-opacity:1; fill:none" points="1146.92,1173.47 1146.92,1154.57 "/>
<polyline clip-path="url(#clip450)" style="stroke:#000000; stroke-linecap:round; stroke-linejoin:round; stroke-width:4; stroke-opacity:1; fill:none" points="1498.66,1173.47 1498.66,1154.57 "/>
<polyline clip-path="url(#clip450)" style="stroke:#000000; stroke-linecap:round; stroke-linejoin:round; stroke-width:4; stroke-opacity:1; fill:none" points="1850.4,1173.47 1850.4,1154.57 "/>
<path clip-path="url(#clip450)" d="M443.437 1202.09 Q439.826 1202.09 437.998 1205.65 Q436.192 1209.19 436.192 1216.32 Q436.192 1223.43 437.998 1226.99 Q439.826 1230.53 443.437 1230.53 Q447.072 1230.53 448.877 1226.99 Q450.706 1223.43 450.706 1216.32 Q450.706 1209.19 448.877 1205.65 Q447.072 1202.09 443.437 1202.09 M443.437 1198.38 Q449.248 1198.38 452.303 1202.99 Q455.382 1207.57 455.382 1216.32 Q455.382 1225.05 452.303 1229.65 Q449.248 1234.24 443.437 1234.24 Q437.627 1234.24 434.549 1229.65 Q431.493 1225.05 431.493 1216.32 Q431.493 1207.57 434.549 1202.99 Q437.627 1198.38 443.437 1198.38 Z" fill="#000000" fill-rule="nonzero" fill-opacity="1" /><path clip-path="url(#clip450)" d="M785.561 1229.63 L793.2 1229.63 L793.2 1203.27 L784.89 1204.93 L784.89 1200.67 L793.154 1199.01 L797.83 1199.01 L797.83 1229.63 L805.468 1229.63 L805.468 1233.57 L785.561 1233.57 L785.561 1229.63 Z" fill="#000000" fill-rule="nonzero" fill-opacity="1" /><path clip-path="url(#clip450)" d="M1141.57 1229.63 L1157.89 1229.63 L1157.89 1233.57 L1135.95 1233.57 L1135.95 1229.63 Q1138.61 1226.88 1143.19 1222.25 Q1147.8 1217.59 1148.98 1216.25 Q1151.23 1213.73 1152.11 1211.99 Q1153.01 1210.23 1153.01 1208.54 Q1153.01 1205.79 1151.06 1204.05 Q1149.14 1202.32 1146.04 1202.32 Q1143.84 1202.32 1141.39 1203.08 Q1138.96 1203.84 1136.18 1205.4 L1136.18 1200.67 Q1139 1199.54 1141.46 1198.96 Q1143.91 1198.38 1145.95 1198.38 Q1151.32 1198.38 1154.51 1201.07 Q1157.71 1203.75 1157.71 1208.24 Q1157.71 1210.37 1156.9 1212.29 Q1156.11 1214.19 1154 1216.78 Q1153.43 1217.46 1150.32 1220.67 Q1147.22 1223.87 1141.57 1229.63 Z" fill="#000000" fill-rule="nonzero" fill-opacity="1" /><path clip-path="url(#clip450)" d="M1502.91 1214.93 Q1506.27 1215.65 1508.14 1217.92 Q1510.04 1220.19 1510.04 1223.52 Q1510.04 1228.64 1506.52 1231.44 Q1503 1234.24 1496.52 1234.24 Q1494.35 1234.24 1492.03 1233.8 Q1489.74 1233.38 1487.29 1232.53 L1487.29 1228.01 Q1489.23 1229.15 1491.54 1229.72 Q1493.86 1230.3 1496.38 1230.3 Q1500.78 1230.3 1503.07 1228.57 Q1505.39 1226.83 1505.39 1223.52 Q1505.39 1220.46 1503.23 1218.75 Q1501.1 1217.02 1497.28 1217.02 L1493.26 1217.02 L1493.26 1213.17 L1497.47 1213.17 Q1500.92 1213.17 1502.75 1211.81 Q1504.58 1210.42 1504.58 1207.83 Q1504.58 1205.16 1502.68 1203.75 Q1500.8 1202.32 1497.28 1202.32 Q1495.36 1202.32 1493.16 1202.73 Q1490.97 1203.15 1488.33 1204.03 L1488.33 1199.86 Q1490.99 1199.12 1493.3 1198.75 Q1495.64 1198.38 1497.7 1198.38 Q1503.03 1198.38 1506.13 1200.81 Q1509.23 1203.22 1509.23 1207.34 Q1509.23 1210.21 1507.59 1212.2 Q1505.94 1214.17 1502.91 1214.93 Z" fill="#000000" fill-rule="nonzero" fill-opacity="1" /><path clip-path="url(#clip450)" d="M1853.41 1203.08 L1841.61 1221.53 L1853.41 1221.53 L1853.41 1203.08 M1852.19 1199.01 L1858.07 1199.01 L1858.07 1221.53 L1863 1221.53 L1863 1225.42 L1858.07 1225.42 L1858.07 1233.57 L1853.41 1233.57 L1853.41 1225.42 L1837.81 1225.42 L1837.81 1220.9 L1852.19 1199.01 Z" fill="#000000" fill-rule="nonzero" fill-opacity="1" /><path clip-path="url(#clip450)" d="M1060.6 1278.37 L1066.81 1278.37 L1077.95 1308.29 L1089.09 1278.37 L1095.29 1278.37 L1081.93 1314.01 L1073.97 1314.01 L1060.6 1278.37 Z" fill="#000000" fill-rule="nonzero" fill-opacity="1" /><path clip-path="url(#clip450)" d="M1119.58 1296.1 Q1112.48 1296.1 1109.74 1297.72 Q1107.01 1299.34 1107.01 1303.26 Q1107.01 1306.38 1109.04 1308.22 Q1111.11 1310.04 1114.65 1310.04 Q1119.52 1310.04 1122.44 1306.6 Q1125.4 1303.13 1125.4 1297.4 L1125.4 1296.1 L1119.58 1296.1 M1131.26 1293.68 L1131.26 1314.01 L1125.4 1314.01 L1125.4 1308.6 Q1123.4 1311.85 1120.41 1313.41 Q1117.42 1314.94 1113.09 1314.94 Q1107.61 1314.94 1104.37 1311.88 Q1101.15 1308.79 1101.15 1303.64 Q1101.15 1297.62 1105.16 1294.57 Q1109.2 1291.51 1117.19 1291.51 L1125.4 1291.51 L1125.4 1290.94 Q1125.4 1286.9 1122.73 1284.7 Q1120.09 1282.47 1115.28 1282.47 Q1112.23 1282.47 1109.33 1283.2 Q1106.43 1283.94 1103.76 1285.4 L1103.76 1279.99 Q1106.98 1278.75 1110 1278.14 Q1113.02 1277.51 1115.89 1277.51 Q1123.62 1277.51 1127.44 1281.52 Q1131.26 1285.53 1131.26 1293.68 Z" fill="#000000" fill-rule="nonzero" fill-opacity="1" /><path clip-path="url(#clip450)" d="M1143.32 1264.49 L1149.18 1264.49 L1149.18 1314.01 L1143.32 1314.01 L1143.32 1264.49 Z" fill="#000000" fill-rule="nonzero" fill-opacity="1" /><path clip-path="url(#clip450)" d="M1160.83 1299.95 L1160.83 1278.37 L1166.69 1278.37 L1166.69 1299.72 Q1166.69 1304.78 1168.66 1307.33 Q1170.63 1309.85 1174.58 1309.85 Q1179.32 1309.85 1182.06 1306.82 Q1184.83 1303.8 1184.83 1298.58 L1184.83 1278.37 L1190.68 1278.37 L1190.68 1314.01 L1184.83 1314.01 L1184.83 1308.54 Q1182.7 1311.79 1179.86 1313.38 Q1177.06 1314.94 1173.34 1314.94 Q1167.2 1314.94 1164.01 1311.12 Q1160.83 1307.3 1160.83 1299.95 M1175.57 1277.51 L1175.57 1277.51 Z" fill="#000000" fill-rule="nonzero" fill-opacity="1" /><path clip-path="url(#clip450)" d="M1233.24 1294.73 L1233.24 1297.59 L1206.31 1297.59 Q1206.69 1303.64 1209.94 1306.82 Q1213.22 1309.97 1219.04 1309.97 Q1222.42 1309.97 1225.57 1309.14 Q1228.75 1308.32 1231.87 1306.66 L1231.87 1312.2 Q1228.72 1313.54 1225.41 1314.24 Q1222.1 1314.94 1218.69 1314.94 Q1210.16 1314.94 1205.17 1309.97 Q1200.2 1305.01 1200.2 1296.54 Q1200.2 1287.79 1204.91 1282.66 Q1209.65 1277.51 1217.68 1277.51 Q1224.87 1277.51 1229.04 1282.15 Q1233.24 1286.77 1233.24 1294.73 M1227.38 1293.01 Q1227.32 1288.2 1224.68 1285.34 Q1222.07 1282.47 1217.74 1282.47 Q1212.84 1282.47 1209.88 1285.24 Q1206.95 1288.01 1206.5 1293.04 L1227.38 1293.01 Z" fill="#000000" fill-rule="nonzero" fill-opacity="1" /><polyline clip-path="url(#clip452)" style="stroke:#000000; stroke-linecap:round; stroke-linejoin:round; stroke-width:2; stroke-opacity:0.1; fill:none" points="229.085,1173.47 2064.76,1173.47 "/>
<polyline clip-path="url(#clip452)" style="stroke:#000000; stroke-linecap:round; stroke-linejoin:round; stroke-width:2; stroke-opacity:0.1; fill:none" points="229.085,872.341 2064.76,872.341 "/>
<polyline clip-path="url(#clip452)" style="stroke:#000000; stroke-linecap:round; stroke-linejoin:round; stroke-width:2; stroke-opacity:0.1; fill:none" points="229.085,571.211 2064.76,571.211 "/>
<polyline clip-path="url(#clip452)" style="stroke:#000000; stroke-linecap:round; stroke-linejoin:round; stroke-width:2; stroke-opacity:0.1; fill:none" points="229.085,270.08 2064.76,270.08 "/>
<polyline clip-path="url(#clip450)" style="stroke:#000000; stroke-linecap:round; stroke-linejoin:round; stroke-width:4; stroke-opacity:1; fill:none" points="229.085,1173.47 229.085,47.2441 "/>
<polyline clip-path="url(#clip450)" style="stroke:#000000; stroke-linecap:round; stroke-linejoin:round; stroke-width:4; stroke-opacity:1; fill:none" points="229.085,1173.47 247.983,1173.47 "/>
<polyline clip-path="url(#clip450)" style="stroke:#000000; stroke-linecap:round; stroke-linejoin:round; stroke-width:4; stroke-opacity:1; fill:none" points="229.085,872.341 247.983,872.341 "/>
<polyline clip-path="url(#clip450)" style="stroke:#000000; stroke-linecap:round; stroke-linejoin:round; stroke-width:4; stroke-opacity:1; fill:none" points="229.085,571.211 247.983,571.211 "/>
<polyline clip-path="url(#clip450)" style="stroke:#000000; stroke-linecap:round; stroke-linejoin:round; stroke-width:4; stroke-opacity:1; fill:none" points="229.085,270.08 247.983,270.08 "/>
<path clip-path="url(#clip450)" d="M185.461 1159.27 Q181.85 1159.27 180.021 1162.83 Q178.216 1166.38 178.216 1173.51 Q178.216 1180.61 180.021 1184.18 Q181.85 1187.72 185.461 1187.72 Q189.095 1187.72 190.901 1184.18 Q192.73 1180.61 192.73 1173.51 Q192.73 1166.38 190.901 1162.83 Q189.095 1159.27 185.461 1159.27 M185.461 1155.57 Q191.271 1155.57 194.327 1160.17 Q197.405 1164.76 197.405 1173.51 Q197.405 1182.23 194.327 1186.84 Q191.271 1191.42 185.461 1191.42 Q179.651 1191.42 176.572 1186.84 Q173.517 1182.23 173.517 1173.51 Q173.517 1164.76 176.572 1160.17 Q179.651 1155.57 185.461 1155.57 Z" fill="#000000" fill-rule="nonzero" fill-opacity="1" /><path clip-path="url(#clip450)" d="M115.948 885.685 L123.586 885.685 L123.586 859.32 L115.276 860.987 L115.276 856.727 L123.54 855.061 L128.216 855.061 L128.216 885.685 L135.855 885.685 L135.855 889.621 L115.948 889.621 L115.948 885.685 Z" fill="#000000" fill-rule="nonzero" fill-opacity="1" /><path clip-path="url(#clip450)" d="M155.299 858.139 Q151.688 858.139 149.859 861.704 Q148.054 865.246 148.054 872.375 Q148.054 879.482 149.859 883.047 Q151.688 886.588 155.299 886.588 Q158.933 886.588 160.739 883.047 Q162.568 879.482 162.568 872.375 Q162.568 865.246 160.739 861.704 Q158.933 858.139 155.299 858.139 M155.299 854.436 Q161.109 854.436 164.165 859.042 Q167.244 863.625 167.244 872.375 Q167.244 881.102 164.165 885.709 Q161.109 890.292 155.299 890.292 Q149.489 890.292 146.41 885.709 Q143.355 881.102 143.355 872.375 Q143.355 863.625 146.41 859.042 Q149.489 854.436 155.299 854.436 Z" fill="#000000" fill-rule="nonzero" fill-opacity="1" /><path clip-path="url(#clip450)" d="M185.461 858.139 Q181.85 858.139 180.021 861.704 Q178.216 865.246 178.216 872.375 Q178.216 879.482 180.021 883.047 Q181.85 886.588 185.461 886.588 Q189.095 886.588 190.901 883.047 Q192.73 879.482 192.73 872.375 Q192.73 865.246 190.901 861.704 Q189.095 858.139 185.461 858.139 M185.461 854.436 Q191.271 854.436 194.327 859.042 Q197.405 863.625 197.405 872.375 Q197.405 881.102 194.327 885.709 Q191.271 890.292 185.461 890.292 Q179.651 890.292 176.572 885.709 Q173.517 881.102 173.517 872.375 Q173.517 863.625 176.572 859.042 Q179.651 854.436 185.461 854.436 Z" fill="#000000" fill-rule="nonzero" fill-opacity="1" /><path clip-path="url(#clip450)" d="M119.165 584.555 L135.484 584.555 L135.484 588.491 L113.54 588.491 L113.54 584.555 Q116.202 581.801 120.785 577.171 Q125.392 572.518 126.572 571.176 Q128.818 568.653 129.697 566.917 Q130.6 565.157 130.6 563.467 Q130.6 560.713 128.656 558.977 Q126.735 557.241 123.633 557.241 Q121.434 557.241 118.98 558.005 Q116.549 558.768 113.772 560.319 L113.772 555.597 Q116.596 554.463 119.049 553.884 Q121.503 553.306 123.54 553.306 Q128.91 553.306 132.105 555.991 Q135.299 558.676 135.299 563.167 Q135.299 565.296 134.489 567.217 Q133.702 569.116 131.596 571.708 Q131.017 572.379 127.915 575.597 Q124.813 578.791 119.165 584.555 Z" fill="#000000" fill-rule="nonzero" fill-opacity="1" /><path clip-path="url(#clip450)" d="M155.299 557.009 Q151.688 557.009 149.859 560.574 Q148.054 564.116 148.054 571.245 Q148.054 578.352 149.859 581.916 Q151.688 585.458 155.299 585.458 Q158.933 585.458 160.739 581.916 Q162.568 578.352 162.568 571.245 Q162.568 564.116 160.739 560.574 Q158.933 557.009 155.299 557.009 M155.299 553.306 Q161.109 553.306 164.165 557.912 Q167.244 562.495 167.244 571.245 Q167.244 579.972 164.165 584.578 Q161.109 589.162 155.299 589.162 Q149.489 589.162 146.41 584.578 Q143.355 579.972 143.355 571.245 Q143.355 562.495 146.41 557.912 Q149.489 553.306 155.299 553.306 Z" fill="#000000" fill-rule="nonzero" fill-opacity="1" /><path clip-path="url(#clip450)" d="M185.461 557.009 Q181.85 557.009 180.021 560.574 Q178.216 564.116 178.216 571.245 Q178.216 578.352 180.021 581.916 Q181.85 585.458 185.461 585.458 Q189.095 585.458 190.901 581.916 Q192.73 578.352 192.73 571.245 Q192.73 564.116 190.901 560.574 Q189.095 557.009 185.461 557.009 M185.461 553.306 Q191.271 553.306 194.327 557.912 Q197.405 562.495 197.405 571.245 Q197.405 579.972 194.327 584.578 Q191.271 589.162 185.461 589.162 Q179.651 589.162 176.572 584.578 Q173.517 579.972 173.517 571.245 Q173.517 562.495 176.572 557.912 Q179.651 553.306 185.461 553.306 Z" fill="#000000" fill-rule="nonzero" fill-opacity="1" /><path clip-path="url(#clip450)" d="M129.304 268.726 Q132.66 269.444 134.535 271.712 Q136.434 273.981 136.434 277.314 Q136.434 282.43 132.915 285.231 Q129.397 288.032 122.915 288.032 Q120.739 288.032 118.424 287.592 Q116.133 287.175 113.679 286.319 L113.679 281.805 Q115.623 282.939 117.938 283.518 Q120.253 284.097 122.776 284.097 Q127.174 284.097 129.466 282.36 Q131.781 280.624 131.781 277.314 Q131.781 274.259 129.628 272.546 Q127.498 270.81 123.679 270.81 L119.651 270.81 L119.651 266.967 L123.864 266.967 Q127.313 266.967 129.142 265.601 Q130.971 264.212 130.971 261.62 Q130.971 258.958 129.072 257.546 Q127.197 256.111 123.679 256.111 Q121.758 256.111 119.559 256.527 Q117.36 256.944 114.721 257.824 L114.721 253.657 Q117.383 252.916 119.698 252.546 Q122.035 252.175 124.096 252.175 Q129.42 252.175 132.522 254.606 Q135.623 257.013 135.623 261.134 Q135.623 264.004 133.98 265.995 Q132.336 267.962 129.304 268.726 Z" fill="#000000" fill-rule="nonzero" fill-opacity="1" /><path clip-path="url(#clip450)" d="M155.299 255.879 Q151.688 255.879 149.859 259.444 Q148.054 262.986 148.054 270.115 Q148.054 277.222 149.859 280.786 Q151.688 284.328 155.299 284.328 Q158.933 284.328 160.739 280.786 Q162.568 277.222 162.568 270.115 Q162.568 262.986 160.739 259.444 Q158.933 255.879 155.299 255.879 M155.299 252.175 Q161.109 252.175 164.165 256.782 Q167.244 261.365 167.244 270.115 Q167.244 278.842 164.165 283.448 Q161.109 288.032 155.299 288.032 Q149.489 288.032 146.41 283.448 Q143.355 278.842 143.355 270.115 Q143.355 261.365 146.41 256.782 Q149.489 252.175 155.299 252.175 Z" fill="#000000" fill-rule="nonzero" fill-opacity="1" /><path clip-path="url(#clip450)" d="M185.461 255.879 Q181.85 255.879 180.021 259.444 Q178.216 262.986 178.216 270.115 Q178.216 277.222 180.021 280.786 Q181.85 284.328 185.461 284.328 Q189.095 284.328 190.901 280.786 Q192.73 277.222 192.73 270.115 Q192.73 262.986 190.901 259.444 Q189.095 255.879 185.461 255.879 M185.461 252.175 Q191.271 252.175 194.327 256.782 Q197.405 261.365 197.405 270.115 Q197.405 278.842 194.327 283.448 Q191.271 288.032 185.461 288.032 Q179.651 288.032 176.572 283.448 Q173.517 278.842 173.517 270.115 Q173.517 261.365 176.572 256.782 Q179.651 252.175 185.461 252.175 Z" fill="#000000" fill-rule="nonzero" fill-opacity="1" /><path clip-path="url(#clip450)" d="M33.3248 671.532 L38.7993 671.532 Q37.4307 674.014 36.7623 676.529 Q36.0621 679.012 36.0621 681.558 Q36.0621 687.255 39.6905 690.406 Q43.2872 693.557 49.812 693.557 Q56.3369 693.557 59.9653 690.406 Q63.5619 687.255 63.5619 681.558 Q63.5619 679.012 62.8935 676.529 Q62.1933 674.014 60.8247 671.532 L66.2355 671.532 Q67.3814 673.983 67.9543 676.624 Q68.5272 679.234 68.5272 682.194 Q68.5272 690.247 63.4664 694.989 Q58.4057 699.732 49.812 699.732 Q41.091 699.732 36.0939 694.958 Q31.0968 690.152 31.0968 681.812 Q31.0968 679.107 31.6697 676.529 Q32.2108 673.951 33.3248 671.532 Z" fill="#000000" fill-rule="nonzero" fill-opacity="1" /><path clip-path="url(#clip450)" d="M36.0621 647.533 Q36.0621 652.244 39.7542 654.981 Q43.4145 657.718 49.812 657.718 Q56.2095 657.718 59.9017 655.013 Q63.5619 652.276 63.5619 647.533 Q63.5619 642.854 59.8698 640.117 Q56.1777 637.38 49.812 637.38 Q43.4781 637.38 39.786 640.117 Q36.0621 642.854 36.0621 647.533 M31.0968 647.533 Q31.0968 639.894 36.0621 635.534 Q41.0273 631.173 49.812 631.173 Q58.5649 631.173 63.5619 635.534 Q68.5272 639.894 68.5272 647.533 Q68.5272 655.204 63.5619 659.564 Q58.5649 663.893 49.812 663.893 Q41.0273 663.893 36.0621 659.564 Q31.0968 655.204 31.0968 647.533 Z" fill="#000000" fill-rule="nonzero" fill-opacity="1" /><path clip-path="url(#clip450)" d="M53.5359 622.07 L31.9562 622.07 L31.9562 616.214 L53.3131 616.214 Q58.3739 616.214 60.9202 614.241 Q63.4346 612.267 63.4346 608.32 Q63.4346 603.578 60.4109 600.841 Q57.3872 598.072 52.1673 598.072 L31.9562 598.072 L31.9562 592.215 L67.6042 592.215 L67.6042 598.072 L62.1296 598.072 Q65.3762 600.204 66.9676 603.037 Q68.5272 605.838 68.5272 609.562 Q68.5272 615.705 64.7078 618.887 Q60.8883 622.07 53.5359 622.07 M31.0968 607.334 L31.0968 607.334 Z" fill="#000000" fill-rule="nonzero" fill-opacity="1" /><path clip-path="url(#clip450)" d="M46.0881 550.52 L67.6042 550.52 L67.6042 556.376 L46.279 556.376 Q41.2183 556.376 38.7038 558.35 Q36.1894 560.323 36.1894 564.27 Q36.1894 569.012 39.2131 571.749 Q42.2368 574.487 47.4567 574.487 L67.6042 574.487 L67.6042 580.375 L31.9562 580.375 L31.9562 574.487 L37.4944 574.487 Q34.2797 572.386 32.6883 569.553 Q31.0968 566.689 31.0968 562.965 Q31.0968 556.822 34.9163 553.671 Q38.7038 550.52 46.0881 550.52 Z" fill="#000000" fill-rule="nonzero" fill-opacity="1" /><path clip-path="url(#clip450)" d="M21.8347 533.046 L31.9562 533.046 L31.9562 520.983 L36.5077 520.983 L36.5077 533.046 L55.8594 533.046 Q60.2199 533.046 61.4613 531.868 Q62.7026 530.659 62.7026 526.998 L62.7026 520.983 L67.6042 520.983 L67.6042 526.998 Q67.6042 533.778 65.0897 536.356 Q62.5434 538.934 55.8594 538.934 L36.5077 538.934 L36.5077 543.231 L31.9562 543.231 L31.9562 538.934 L21.8347 538.934 L21.8347 533.046 Z" fill="#000000" fill-rule="nonzero" fill-opacity="1" /><path clip-path="url(#clip452)" d="M325.604 1056.03 L325.604 1173.47 L404.16 1173.47 L404.16 1056.03 L325.604 1056.03 L325.604 1056.03  Z" fill="#009af9" fill-rule="evenodd" fill-opacity="1"/>
<polyline clip-path="url(#clip452)" style="stroke:#000000; stroke-linecap:round; stroke-linejoin:round; stroke-width:0; stroke-opacity:1; fill:none" points="325.604,1056.03 325.604,1173.47 404.16,1173.47 404.16,1056.03 325.604,1056.03 "/>
<path clip-path="url(#clip452)" d="M677.346 89.4023 L677.346 1173.47 L755.901 1173.47 L755.901 89.4023 L677.346 89.4023 L677.346 89.4023  Z" fill="#009af9" fill-rule="evenodd" fill-opacity="1"/>
<polyline clip-path="url(#clip452)" style="stroke:#000000; stroke-linecap:round; stroke-linejoin:round; stroke-width:0; stroke-opacity:1; fill:none" points="677.346,89.4023 677.346,1173.47 755.901,1173.47 755.901,89.4023 677.346,89.4023 "/>
<path clip-path="url(#clip452)" d="M1029.09 845.239 L1029.09 1173.47 L1107.64 1173.47 L1107.64 845.239 L1029.09 845.239 L1029.09 845.239  Z" fill="#009af9" fill-rule="evenodd" fill-opacity="1"/>
<polyline clip-path="url(#clip452)" style="stroke:#000000; stroke-linecap:round; stroke-linejoin:round; stroke-width:0; stroke-opacity:1; fill:none" points="1029.09,845.239 1029.09,1173.47 1107.64,1173.47 1107.64,845.239 1029.09,845.239 "/>
<path clip-path="url(#clip452)" d="M1380.83 1037.96 L1380.83 1173.47 L1459.38 1173.47 L1459.38 1037.96 L1380.83 1037.96 L1380.83 1037.96  Z" fill="#009af9" fill-rule="evenodd" fill-opacity="1"/>
<polyline clip-path="url(#clip452)" style="stroke:#000000; stroke-linecap:round; stroke-linejoin:round; stroke-width:0; stroke-opacity:1; fill:none" points="1380.83,1037.96 1380.83,1173.47 1459.38,1173.47 1459.38,1037.96 1380.83,1037.96 "/>
<path clip-path="url(#clip452)" d="M1732.57 1137.34 L1732.57 1173.47 L1811.13 1173.47 L1811.13 1137.34 L1732.57 1137.34 L1732.57 1137.34  Z" fill="#009af9" fill-rule="evenodd" fill-opacity="1"/>
<polyline clip-path="url(#clip452)" style="stroke:#000000; stroke-linecap:round; stroke-linejoin:round; stroke-width:0; stroke-opacity:1; fill:none" points="1732.57,1137.34 1732.57,1173.47 1811.13,1173.47 1811.13,1137.34 1732.57,1137.34 "/>
<circle clip-path="url(#clip452)" style="fill:#009af9; stroke:none; fill-opacity:0" cx="364.882" cy="1056.03" r="2"/>
<circle clip-path="url(#clip452)" style="fill:#009af9; stroke:none; fill-opacity:0" cx="716.623" cy="89.4023" r="2"/>
<circle clip-path="url(#clip452)" style="fill:#009af9; stroke:none; fill-opacity:0" cx="1068.37" cy="845.239" r="2"/>
<circle clip-path="url(#clip452)" style="fill:#009af9; stroke:none; fill-opacity:0" cx="1420.11" cy="1037.96" r="2"/>
<circle clip-path="url(#clip452)" style="fill:#009af9; stroke:none; fill-opacity:0" cx="1771.85" cy="1137.34" r="2"/>
<path clip-path="url(#clip452)" d="M404.16 1149.38 L404.16 1173.47 L482.715 1173.47 L482.715 1149.38 L404.16 1149.38 L404.16 1149.38  Z" fill="#e26f46" fill-rule="evenodd" fill-opacity="1"/>
<polyline clip-path="url(#clip452)" style="stroke:#000000; stroke-linecap:round; stroke-linejoin:round; stroke-width:0; stroke-opacity:1; fill:none" points="404.16,1149.38 404.16,1173.47 482.715,1173.47 482.715,1149.38 404.16,1149.38 "/>
<path clip-path="url(#clip452)" d="M755.901 47.2441 L755.901 1173.47 L834.457 1173.47 L834.457 47.2441 L755.901 47.2441 L755.901 47.2441  Z" fill="#e26f46" fill-rule="evenodd" fill-opacity="1"/>
<polyline clip-path="url(#clip452)" style="stroke:#000000; stroke-linecap:round; stroke-linejoin:round; stroke-width:0; stroke-opacity:1; fill:none" points="755.901,47.2441 755.901,1173.47 834.457,1173.47 834.457,47.2441 755.901,47.2441 "/>
<path clip-path="url(#clip452)" d="M1107.64 821.149 L1107.64 1173.47 L1186.2 1173.47 L1186.2 821.149 L1107.64 821.149 L1107.64 821.149  Z" fill="#e26f46" fill-rule="evenodd" fill-opacity="1"/>
<polyline clip-path="url(#clip452)" style="stroke:#000000; stroke-linecap:round; stroke-linejoin:round; stroke-width:0; stroke-opacity:1; fill:none" points="1107.64,821.149 1107.64,1173.47 1186.2,1173.47 1186.2,821.149 1107.64,821.149 "/>
<path clip-path="url(#clip452)" d="M1459.38 1019.89 L1459.38 1173.47 L1537.94 1173.47 L1537.94 1019.89 L1459.38 1019.89 L1459.38 1019.89  Z" fill="#e26f46" fill-rule="evenodd" fill-opacity="1"/>
<polyline clip-path="url(#clip452)" style="stroke:#000000; stroke-linecap:round; stroke-linejoin:round; stroke-width:0; stroke-opacity:1; fill:none" points="1459.38,1019.89 1459.38,1173.47 1537.94,1173.47 1537.94,1019.89 1459.38,1019.89 "/>
<path clip-path="url(#clip452)" d="M1811.13 1128.3 L1811.13 1173.47 L1889.68 1173.47 L1889.68 1128.3 L1811.13 1128.3 L1811.13 1128.3  Z" fill="#e26f46" fill-rule="evenodd" fill-opacity="1"/>
<polyline clip-path="url(#clip452)" style="stroke:#000000; stroke-linecap:round; stroke-linejoin:round; stroke-width:0; stroke-opacity:1; fill:none" points="1811.13,1128.3 1811.13,1173.47 1889.68,1173.47 1889.68,1128.3 1811.13,1128.3 "/>
<circle clip-path="url(#clip452)" style="fill:#e26f46; stroke:none; fill-opacity:0" cx="443.437" cy="1149.38" r="2"/>
<circle clip-path="url(#clip452)" style="fill:#e26f46; stroke:none; fill-opacity:0" cx="795.179" cy="47.2441" r="2"/>
<circle clip-path="url(#clip452)" style="fill:#e26f46; stroke:none; fill-opacity:0" cx="1146.92" cy="821.149" r="2"/>
<circle clip-path="url(#clip452)" style="fill:#e26f46; stroke:none; fill-opacity:0" cx="1498.66" cy="1019.89" r="2"/>
<circle clip-path="url(#clip452)" style="fill:#e26f46; stroke:none; fill-opacity:0" cx="1850.4" cy="1128.3" r="2"/>
<path clip-path="url(#clip452)" d="M482.715 1128.3 L482.715 1173.47 L561.271 1173.47 L561.271 1128.3 L482.715 1128.3 L482.715 1128.3  Z" fill="#3da44d" fill-rule="evenodd" fill-opacity="1"/>
<polyline clip-path="url(#clip452)" style="stroke:#000000; stroke-linecap:round; stroke-linejoin:round; stroke-width:0; stroke-opacity:1; fill:none" points="482.715,1128.3 482.715,1173.47 561.271,1173.47 561.271,1128.3 482.715,1128.3 "/>
<path clip-path="url(#clip452)" d="M834.457 53.2667 L834.457 1173.47 L913.013 1173.47 L913.013 53.2667 L834.457 53.2667 L834.457 53.2667  Z" fill="#3da44d" fill-rule="evenodd" fill-opacity="1"/>
<polyline clip-path="url(#clip452)" style="stroke:#000000; stroke-linecap:round; stroke-linejoin:round; stroke-width:0; stroke-opacity:1; fill:none" points="834.457,53.2667 834.457,1173.47 913.013,1173.47 913.013,53.2667 834.457,53.2667 "/>
<path clip-path="url(#clip452)" d="M1186.2 836.205 L1186.2 1173.47 L1264.75 1173.47 L1264.75 836.205 L1186.2 836.205 L1186.2 836.205  Z" fill="#3da44d" fill-rule="evenodd" fill-opacity="1"/>
<polyline clip-path="url(#clip452)" style="stroke:#000000; stroke-linecap:round; stroke-linejoin:round; stroke-width:0; stroke-opacity:1; fill:none" points="1186.2,836.205 1186.2,1173.47 1264.75,1173.47 1264.75,836.205 1186.2,836.205 "/>
<path clip-path="url(#clip452)" d="M1537.94 1019.89 L1537.94 1173.47 L1616.5 1173.47 L1616.5 1019.89 L1537.94 1019.89 L1537.94 1019.89  Z" fill="#3da44d" fill-rule="evenodd" fill-opacity="1"/>
<polyline clip-path="url(#clip452)" style="stroke:#000000; stroke-linecap:round; stroke-linejoin:round; stroke-width:0; stroke-opacity:1; fill:none" points="1537.94,1019.89 1537.94,1173.47 1616.5,1173.47 1616.5,1019.89 1537.94,1019.89 "/>
<path clip-path="url(#clip452)" d="M1889.68 1128.3 L1889.68 1173.47 L1968.24 1173.47 L1968.24 1128.3 L1889.68 1128.3 L1889.68 1128.3  Z" fill="#3da44d" fill-rule="evenodd" fill-opacity="1"/>
<polyline clip-path="url(#clip452)" style="stroke:#000000; stroke-linecap:round; stroke-linejoin:round; stroke-width:0; stroke-opacity:1; fill:none" points="1889.68,1128.3 1889.68,1173.47 1968.24,1173.47 1968.24,1128.3 1889.68,1128.3 "/>
<circle clip-path="url(#clip452)" style="fill:#3da44d; stroke:none; fill-opacity:0" cx="521.993" cy="1128.3" r="2"/>
<circle clip-path="url(#clip452)" style="fill:#3da44d; stroke:none; fill-opacity:0" cx="873.735" cy="53.2667" r="2"/>
<circle clip-path="url(#clip452)" style="fill:#3da44d; stroke:none; fill-opacity:0" cx="1225.48" cy="836.205" r="2"/>
<circle clip-path="url(#clip452)" style="fill:#3da44d; stroke:none; fill-opacity:0" cx="1577.22" cy="1019.89" r="2"/>
<circle clip-path="url(#clip452)" style="fill:#3da44d; stroke:none; fill-opacity:0" cx="1928.96" cy="1128.3" r="2"/>
<path clip-path="url(#clip450)" d="M1468.77 292.145 L2003.57 292.145 L2003.57 84.785 L1468.77 84.785  Z" fill="#ffffff" fill-rule="evenodd" fill-opacity="1"/>
<polyline clip-path="url(#clip450)" style="stroke:#000000; stroke-linecap:round; stroke-linejoin:round; stroke-width:4; stroke-opacity:1; fill:none" points="1468.77,292.145 2003.57,292.145 2003.57,84.785 1468.77,84.785 1468.77,292.145 "/>
<path clip-path="url(#clip450)" d="M1489.17 157.361 L1611.55 157.361 L1611.55 115.889 L1489.17 115.889 L1489.17 157.361  Z" fill="#009af9" fill-rule="evenodd" fill-opacity="1"/>
<polyline clip-path="url(#clip450)" style="stroke:#000000; stroke-linecap:round; stroke-linejoin:round; stroke-width:0.8; stroke-opacity:1; fill:none" points="1489.17,157.361 1611.55,157.361 1611.55,115.889 1489.17,115.889 1489.17,157.361 "/>
<path clip-path="url(#clip450)" d="M1647.78 123.951 L1641.44 141.15 L1654.14 141.15 L1647.78 123.951 M1645.14 119.345 L1650.44 119.345 L1663.61 153.905 L1658.75 153.905 L1655.6 145.039 L1640.02 145.039 L1636.88 153.905 L1631.95 153.905 L1645.14 119.345 Z" fill="#000000" fill-rule="nonzero" fill-opacity="1" /><path clip-path="url(#clip450)" d="M1686.3 128.975 L1686.3 132.956 Q1684.49 131.961 1682.66 131.475 Q1680.86 130.965 1679.01 130.965 Q1674.86 130.965 1672.57 133.604 Q1670.28 136.22 1670.28 140.965 Q1670.28 145.711 1672.57 148.349 Q1674.86 150.965 1679.01 150.965 Q1680.86 150.965 1682.66 150.479 Q1684.49 149.97 1686.3 148.974 L1686.3 152.91 Q1684.51 153.743 1682.59 154.16 Q1680.7 154.576 1678.54 154.576 Q1672.69 154.576 1669.24 150.896 Q1665.79 147.215 1665.79 140.965 Q1665.79 134.623 1669.26 130.988 Q1672.76 127.354 1678.82 127.354 Q1680.79 127.354 1682.66 127.771 Q1684.54 128.164 1686.3 128.975 Z" fill="#000000" fill-rule="nonzero" fill-opacity="1" /><path clip-path="url(#clip450)" d="M1697.92 120.618 L1697.92 127.979 L1706.69 127.979 L1706.69 131.289 L1697.92 131.289 L1697.92 145.363 Q1697.92 148.535 1698.77 149.437 Q1699.65 150.34 1702.32 150.34 L1706.69 150.34 L1706.69 153.905 L1702.32 153.905 Q1697.39 153.905 1695.51 152.076 Q1693.64 150.224 1693.64 145.363 L1693.64 131.289 L1690.51 131.289 L1690.51 127.979 L1693.64 127.979 L1693.64 120.618 L1697.92 120.618 Z" fill="#000000" fill-rule="nonzero" fill-opacity="1" /><path clip-path="url(#clip450)" d="M1711.85 143.674 L1711.85 127.979 L1716.11 127.979 L1716.11 143.512 Q1716.11 147.192 1717.55 149.044 Q1718.98 150.873 1721.85 150.873 Q1725.3 150.873 1727.29 148.674 Q1729.31 146.474 1729.31 142.678 L1729.31 127.979 L1733.57 127.979 L1733.57 153.905 L1729.31 153.905 L1729.31 149.924 Q1727.76 152.285 1725.7 153.442 Q1723.66 154.576 1720.95 154.576 Q1716.48 154.576 1714.17 151.799 Q1711.85 149.021 1711.85 143.674 M1722.57 127.354 L1722.57 127.354 Z" fill="#000000" fill-rule="nonzero" fill-opacity="1" /><path clip-path="url(#clip450)" d="M1754.12 140.873 Q1748.96 140.873 1746.97 142.053 Q1744.98 143.234 1744.98 146.081 Q1744.98 148.349 1746.46 149.692 Q1747.96 151.011 1750.53 151.011 Q1754.07 151.011 1756.2 148.511 Q1758.36 145.988 1758.36 141.822 L1758.36 140.873 L1754.12 140.873 M1762.62 139.113 L1762.62 153.905 L1758.36 153.905 L1758.36 149.97 Q1756.9 152.331 1754.72 153.465 Q1752.55 154.576 1749.4 154.576 Q1745.42 154.576 1743.06 152.354 Q1740.72 150.109 1740.72 146.359 Q1740.72 141.984 1743.63 139.762 Q1746.57 137.539 1752.38 137.539 L1758.36 137.539 L1758.36 137.123 Q1758.36 134.183 1756.41 132.586 Q1754.49 130.965 1751 130.965 Q1748.77 130.965 1746.67 131.498 Q1744.56 132.03 1742.62 133.095 L1742.62 129.16 Q1744.95 128.257 1747.15 127.817 Q1749.35 127.354 1751.44 127.354 Q1757.06 127.354 1759.84 130.271 Q1762.62 133.188 1762.62 139.113 Z" fill="#000000" fill-rule="nonzero" fill-opacity="1" /><path clip-path="url(#clip450)" d="M1771.39 117.887 L1775.65 117.887 L1775.65 153.905 L1771.39 153.905 L1771.39 117.887 Z" fill="#000000" fill-rule="nonzero" fill-opacity="1" /><path clip-path="url(#clip450)" d="M1489.17 209.201 L1611.55 209.201 L1611.55 167.729 L1489.17 167.729 L1489.17 209.201  Z" fill="#e26f46" fill-rule="evenodd" fill-opacity="1"/>
<polyline clip-path="url(#clip450)" style="stroke:#000000; stroke-linecap:round; stroke-linejoin:round; stroke-width:0.8; stroke-opacity:1; fill:none" points="1489.17,209.201 1611.55,209.201 1611.55,167.729 1489.17,167.729 1489.17,209.201 "/>
<path clip-path="url(#clip450)" d="M1636.62 175.028 L1636.62 188.014 L1642.5 188.014 Q1645.76 188.014 1647.55 186.324 Q1649.33 184.634 1649.33 181.509 Q1649.33 178.407 1647.55 176.717 Q1645.76 175.028 1642.5 175.028 L1636.62 175.028 M1631.95 171.185 L1642.5 171.185 Q1648.31 171.185 1651.27 173.824 Q1654.26 176.44 1654.26 181.509 Q1654.26 186.625 1651.27 189.24 Q1648.31 191.856 1642.5 191.856 L1636.62 191.856 L1636.62 205.745 L1631.95 205.745 L1631.95 171.185 Z" fill="#000000" fill-rule="nonzero" fill-opacity="1" /><path clip-path="url(#clip450)" d="M1674.54 183.801 Q1673.82 183.384 1672.96 183.199 Q1672.13 182.99 1671.11 182.99 Q1667.5 182.99 1665.56 185.352 Q1663.64 187.69 1663.64 192.088 L1663.64 205.745 L1659.35 205.745 L1659.35 179.819 L1663.64 179.819 L1663.64 183.847 Q1664.98 181.486 1667.13 180.352 Q1669.28 179.194 1672.36 179.194 Q1672.8 179.194 1673.33 179.264 Q1673.87 179.31 1674.51 179.426 L1674.54 183.801 Z" fill="#000000" fill-rule="nonzero" fill-opacity="1" /><path clip-path="url(#clip450)" d="M1700.14 191.717 L1700.14 193.801 L1680.56 193.801 Q1680.83 198.199 1683.2 200.514 Q1685.58 202.805 1689.82 202.805 Q1692.27 202.805 1694.56 202.203 Q1696.88 201.601 1699.14 200.398 L1699.14 204.426 Q1696.85 205.398 1694.45 205.907 Q1692.04 206.416 1689.56 206.416 Q1683.36 206.416 1679.72 202.805 Q1676.11 199.194 1676.11 193.037 Q1676.11 186.671 1679.54 182.944 Q1682.99 179.194 1688.82 179.194 Q1694.05 179.194 1697.08 182.574 Q1700.14 185.93 1700.14 191.717 M1695.88 190.467 Q1695.83 186.972 1693.91 184.889 Q1692.01 182.805 1688.87 182.805 Q1685.3 182.805 1683.15 184.819 Q1681.02 186.833 1680.7 190.49 L1695.88 190.467 Z" fill="#000000" fill-rule="nonzero" fill-opacity="1" /><path clip-path="url(#clip450)" d="M1724.19 183.754 L1724.19 169.727 L1728.45 169.727 L1728.45 205.745 L1724.19 205.745 L1724.19 201.856 Q1722.85 204.171 1720.79 205.305 Q1718.75 206.416 1715.88 206.416 Q1711.18 206.416 1708.22 202.666 Q1705.28 198.916 1705.28 192.805 Q1705.28 186.694 1708.22 182.944 Q1711.18 179.194 1715.88 179.194 Q1718.75 179.194 1720.79 180.328 Q1722.85 181.44 1724.19 183.754 M1709.68 192.805 Q1709.68 197.504 1711.6 200.189 Q1713.54 202.851 1716.92 202.851 Q1720.3 202.851 1722.25 200.189 Q1724.19 197.504 1724.19 192.805 Q1724.19 188.106 1722.25 185.444 Q1720.3 182.759 1716.92 182.759 Q1713.54 182.759 1711.6 185.444 Q1709.68 188.106 1709.68 192.805 Z" fill="#000000" fill-rule="nonzero" fill-opacity="1" /><path clip-path="url(#clip450)" d="M1737.22 179.819 L1741.48 179.819 L1741.48 205.745 L1737.22 205.745 L1737.22 179.819 M1737.22 169.727 L1741.48 169.727 L1741.48 175.12 L1737.22 175.12 L1737.22 169.727 Z" fill="#000000" fill-rule="nonzero" fill-opacity="1" /><path clip-path="url(#clip450)" d="M1769.05 180.815 L1769.05 184.796 Q1767.25 183.801 1765.42 183.315 Q1763.61 182.805 1761.76 182.805 Q1757.62 182.805 1755.32 185.444 Q1753.03 188.06 1753.03 192.805 Q1753.03 197.551 1755.32 200.189 Q1757.62 202.805 1761.76 202.805 Q1763.61 202.805 1765.42 202.319 Q1767.25 201.81 1769.05 200.814 L1769.05 204.75 Q1767.27 205.583 1765.35 206 Q1763.45 206.416 1761.3 206.416 Q1755.44 206.416 1751.99 202.736 Q1748.54 199.055 1748.54 192.805 Q1748.54 186.463 1752.01 182.828 Q1755.51 179.194 1761.57 179.194 Q1763.54 179.194 1765.42 179.611 Q1767.29 180.004 1769.05 180.815 Z" fill="#000000" fill-rule="nonzero" fill-opacity="1" /><path clip-path="url(#clip450)" d="M1780.67 172.458 L1780.67 179.819 L1789.44 179.819 L1789.44 183.129 L1780.67 183.129 L1780.67 197.203 Q1780.67 200.375 1781.53 201.277 Q1782.41 202.18 1785.07 202.18 L1789.44 202.18 L1789.44 205.745 L1785.07 205.745 Q1780.14 205.745 1778.26 203.916 Q1776.39 202.064 1776.39 197.203 L1776.39 183.129 L1773.26 183.129 L1773.26 179.819 L1776.39 179.819 L1776.39 172.458 L1780.67 172.458 Z" fill="#000000" fill-rule="nonzero" fill-opacity="1" /><path clip-path="url(#clip450)" d="M1489.17 261.041 L1611.55 261.041 L1611.55 219.569 L1489.17 219.569 L1489.17 261.041  Z" fill="#3da44d" fill-rule="evenodd" fill-opacity="1"/>
<polyline clip-path="url(#clip450)" style="stroke:#000000; stroke-linecap:round; stroke-linejoin:round; stroke-width:0.8; stroke-opacity:1; fill:none" points="1489.17,261.041 1611.55,261.041 1611.55,219.569 1489.17,219.569 1489.17,261.041 "/>
<path clip-path="url(#clip450)" d="M1659.82 225.687 L1659.82 230.618 Q1657.45 228.418 1654.77 227.331 Q1652.11 226.243 1649.1 226.243 Q1643.17 226.243 1640.02 229.877 Q1636.88 233.488 1636.88 240.34 Q1636.88 247.168 1640.02 250.803 Q1643.17 254.414 1649.1 254.414 Q1652.11 254.414 1654.77 253.326 Q1657.45 252.238 1659.82 250.039 L1659.82 254.923 Q1657.36 256.59 1654.61 257.423 Q1651.88 258.256 1648.82 258.256 Q1640.97 258.256 1636.46 253.465 Q1631.95 248.65 1631.95 240.34 Q1631.95 232.006 1636.46 227.215 Q1640.97 222.4 1648.82 222.4 Q1651.92 222.4 1654.65 223.233 Q1657.41 224.043 1659.82 225.687 Z" fill="#000000" fill-rule="nonzero" fill-opacity="1" /><path clip-path="url(#clip450)" d="M1676.9 234.645 Q1673.47 234.645 1671.48 237.33 Q1669.49 239.992 1669.49 244.645 Q1669.49 249.298 1671.46 251.983 Q1673.45 254.645 1676.9 254.645 Q1680.3 254.645 1682.29 251.96 Q1684.28 249.275 1684.28 244.645 Q1684.28 240.039 1682.29 237.354 Q1680.3 234.645 1676.9 234.645 M1676.9 231.034 Q1682.45 231.034 1685.63 234.645 Q1688.8 238.256 1688.8 244.645 Q1688.8 251.011 1685.63 254.645 Q1682.45 258.256 1676.9 258.256 Q1671.32 258.256 1668.15 254.645 Q1665 251.011 1665 244.645 Q1665 238.256 1668.15 234.645 Q1671.32 231.034 1676.9 231.034 Z" fill="#000000" fill-rule="nonzero" fill-opacity="1" /><path clip-path="url(#clip450)" d="M1695.42 247.354 L1695.42 231.659 L1699.68 231.659 L1699.68 247.192 Q1699.68 250.872 1701.11 252.724 Q1702.55 254.553 1705.42 254.553 Q1708.87 254.553 1710.86 252.354 Q1712.87 250.154 1712.87 246.358 L1712.87 231.659 L1717.13 231.659 L1717.13 257.585 L1712.87 257.585 L1712.87 253.604 Q1711.32 255.965 1709.26 257.122 Q1707.22 258.256 1704.51 258.256 Q1700.05 258.256 1697.73 255.479 Q1695.42 252.701 1695.42 247.354 M1706.13 231.034 L1706.13 231.034 Z" fill="#000000" fill-rule="nonzero" fill-opacity="1" /><path clip-path="url(#clip450)" d="M1747.45 241.937 L1747.45 257.585 L1743.19 257.585 L1743.19 242.076 Q1743.19 238.395 1741.76 236.567 Q1740.32 234.738 1737.45 234.738 Q1734.01 234.738 1732.01 236.937 Q1730.02 239.136 1730.02 242.932 L1730.02 257.585 L1725.74 257.585 L1725.74 231.659 L1730.02 231.659 L1730.02 235.687 Q1731.55 233.349 1733.61 232.192 Q1735.7 231.034 1738.4 231.034 Q1742.87 231.034 1745.16 233.812 Q1747.45 236.567 1747.45 241.937 Z" fill="#000000" fill-rule="nonzero" fill-opacity="1" /><path clip-path="url(#clip450)" d="M1760.16 224.298 L1760.16 231.659 L1768.94 231.659 L1768.94 234.969 L1760.16 234.969 L1760.16 249.043 Q1760.16 252.215 1761.02 253.117 Q1761.9 254.02 1764.56 254.02 L1768.94 254.02 L1768.94 257.585 L1764.56 257.585 Q1759.63 257.585 1757.76 255.756 Q1755.88 253.904 1755.88 249.043 L1755.88 234.969 L1752.76 234.969 L1752.76 231.659 L1755.88 231.659 L1755.88 224.298 L1760.16 224.298 Z" fill="#000000" fill-rule="nonzero" fill-opacity="1" /><path clip-path="url(#clip450)" d="M1796.71 243.557 L1796.71 245.641 L1777.13 245.641 Q1777.41 250.039 1779.77 252.354 Q1782.15 254.645 1786.39 254.645 Q1788.84 254.645 1791.13 254.043 Q1793.45 253.441 1795.72 252.238 L1795.72 256.266 Q1793.43 257.238 1791.02 257.747 Q1788.61 258.256 1786.13 258.256 Q1779.93 258.256 1776.3 254.645 Q1772.69 251.034 1772.69 244.877 Q1772.69 238.511 1776.11 234.784 Q1779.56 231.034 1785.39 231.034 Q1790.63 231.034 1793.66 234.414 Q1796.71 237.77 1796.71 243.557 M1792.45 242.307 Q1792.41 238.812 1790.49 236.729 Q1788.59 234.645 1785.44 234.645 Q1781.88 234.645 1779.72 236.659 Q1777.59 238.673 1777.27 242.33 L1792.45 242.307 Z" fill="#000000" fill-rule="nonzero" fill-opacity="1" /><path clip-path="url(#clip450)" d="M1818.73 235.641 Q1818.01 235.224 1817.15 235.039 Q1816.32 234.83 1815.3 234.83 Q1811.69 234.83 1809.75 237.192 Q1807.82 239.53 1807.82 243.928 L1807.82 257.585 L1803.54 257.585 L1803.54 231.659 L1807.82 231.659 L1807.82 235.687 Q1809.17 233.326 1811.32 232.192 Q1813.47 231.034 1816.55 231.034 Q1816.99 231.034 1817.52 231.104 Q1818.06 231.15 1818.7 231.266 L1818.73 235.641 Z" fill="#000000" fill-rule="nonzero" fill-opacity="1" /><path clip-path="url(#clip450)" d="M1823.38 223.025 L1843.24 223.025 L1843.24 226.96 L1828.06 226.96 L1828.06 237.145 L1841.76 237.145 L1841.76 241.08 L1828.06 241.08 L1828.06 257.585 L1823.38 257.585 L1823.38 223.025 Z" fill="#000000" fill-rule="nonzero" fill-opacity="1" /><path clip-path="url(#clip450)" d="M1857.89 244.553 Q1852.73 244.553 1850.74 245.733 Q1848.75 246.914 1848.75 249.761 Q1848.75 252.029 1850.23 253.372 Q1851.74 254.691 1854.31 254.691 Q1857.85 254.691 1859.98 252.191 Q1862.13 249.668 1862.13 245.502 L1862.13 244.553 L1857.89 244.553 M1866.39 242.793 L1866.39 257.585 L1862.13 257.585 L1862.13 253.65 Q1860.67 256.011 1858.5 257.145 Q1856.32 258.256 1853.17 258.256 Q1849.19 258.256 1846.83 256.034 Q1844.49 253.789 1844.49 250.039 Q1844.49 245.664 1847.41 243.442 Q1850.35 241.219 1856.16 241.219 L1862.13 241.219 L1862.13 240.803 Q1862.13 237.863 1860.19 236.266 Q1858.26 234.645 1854.77 234.645 Q1852.55 234.645 1850.44 235.178 Q1848.33 235.71 1846.39 236.775 L1846.39 232.84 Q1848.73 231.937 1850.93 231.497 Q1853.12 231.034 1855.21 231.034 Q1860.83 231.034 1863.61 233.951 Q1866.39 236.868 1866.39 242.793 Z" fill="#000000" fill-rule="nonzero" fill-opacity="1" /><path clip-path="url(#clip450)" d="M1893.82 232.655 L1893.82 236.636 Q1892.01 235.641 1890.18 235.155 Q1888.38 234.645 1886.53 234.645 Q1882.38 234.645 1880.09 237.284 Q1877.8 239.9 1877.8 244.645 Q1877.8 249.391 1880.09 252.029 Q1882.38 254.645 1886.53 254.645 Q1888.38 254.645 1890.18 254.159 Q1892.01 253.65 1893.82 252.654 L1893.82 256.59 Q1892.04 257.423 1890.12 257.84 Q1888.22 258.256 1886.06 258.256 Q1880.21 258.256 1876.76 254.576 Q1873.31 250.895 1873.31 244.645 Q1873.31 238.303 1876.78 234.668 Q1880.28 231.034 1886.34 231.034 Q1888.31 231.034 1890.18 231.451 Q1892.06 231.844 1893.82 232.655 Z" fill="#000000" fill-rule="nonzero" fill-opacity="1" /><path clip-path="url(#clip450)" d="M1905.44 224.298 L1905.44 231.659 L1914.21 231.659 L1914.21 234.969 L1905.44 234.969 L1905.44 249.043 Q1905.44 252.215 1906.3 253.117 Q1907.18 254.02 1909.84 254.02 L1914.21 254.02 L1914.21 257.585 L1909.84 257.585 Q1904.91 257.585 1903.03 255.756 Q1901.16 253.904 1901.16 249.043 L1901.16 234.969 L1898.03 234.969 L1898.03 231.659 L1901.16 231.659 L1901.16 224.298 L1905.44 224.298 Z" fill="#000000" fill-rule="nonzero" fill-opacity="1" /><path clip-path="url(#clip450)" d="M1919.37 247.354 L1919.37 231.659 L1923.63 231.659 L1923.63 247.192 Q1923.63 250.872 1925.07 252.724 Q1926.5 254.553 1929.37 254.553 Q1932.82 254.553 1934.81 252.354 Q1936.83 250.154 1936.83 246.358 L1936.83 231.659 L1941.09 231.659 L1941.09 257.585 L1936.83 257.585 L1936.83 253.604 Q1935.28 255.965 1933.22 257.122 Q1931.18 258.256 1928.47 258.256 Q1924 258.256 1921.69 255.479 Q1919.37 252.701 1919.37 247.354 M1930.09 231.034 L1930.09 231.034 Z" fill="#000000" fill-rule="nonzero" fill-opacity="1" /><path clip-path="url(#clip450)" d="M1961.64 244.553 Q1956.48 244.553 1954.49 245.733 Q1952.5 246.914 1952.5 249.761 Q1952.5 252.029 1953.98 253.372 Q1955.49 254.691 1958.05 254.691 Q1961.6 254.691 1963.73 252.191 Q1965.88 249.668 1965.88 245.502 L1965.88 244.553 L1961.64 244.553 M1970.14 242.793 L1970.14 257.585 L1965.88 257.585 L1965.88 253.65 Q1964.42 256.011 1962.24 257.145 Q1960.07 258.256 1956.92 258.256 Q1952.94 258.256 1950.58 256.034 Q1948.24 253.789 1948.24 250.039 Q1948.24 245.664 1951.16 243.442 Q1954.1 241.219 1959.91 241.219 L1965.88 241.219 L1965.88 240.803 Q1965.88 237.863 1963.93 236.266 Q1962.01 234.645 1958.52 234.645 Q1956.3 234.645 1954.19 235.178 Q1952.08 235.71 1950.14 236.775 L1950.14 232.84 Q1952.48 231.937 1954.68 231.497 Q1956.87 231.034 1958.96 231.034 Q1964.58 231.034 1967.36 233.951 Q1970.14 236.868 1970.14 242.793 Z" fill="#000000" fill-rule="nonzero" fill-opacity="1" /><path clip-path="url(#clip450)" d="M1978.91 221.567 L1983.17 221.567 L1983.17 257.585 L1978.91 257.585 L1978.91 221.567 Z" fill="#000000" fill-rule="nonzero" fill-opacity="1" /></svg>
