<?xml version="1.0" encoding="utf-8"?>
<svg xmlns="http://www.w3.org/2000/svg" xmlns:xlink="http://www.w3.org/1999/xlink" width="528" height="336" viewBox="0 0 2112 1344">
<defs>
  <clipPath id="clip390">
    <rect x="0" y="0" width="2112" height="1344"/>
  </clipPath>
</defs>
<path clip-path="url(#clip390)" d="M0 1344 L2112 1344 L2112 0 L0 0  Z" fill="#ffffff" fill-rule="evenodd" fill-opacity="1"/>
<defs>
  <clipPath id="clip391">
    <rect x="422" y="0" width="1479" height="1344"/>
  </clipPath>
</defs>
<path clip-path="url(#clip390)" d="M230.243 1173.47 L2064.76 1173.47 L2064.76 47.2441 L230.243 47.2441  Z" fill="#ffffff" fill-rule="evenodd" fill-opacity="1"/>
<defs>
  <clipPath id="clip392">
    <rect x="230" y="47" width="1836" height="1127"/>
  </clipPath>
</defs>
<polyline clip-path="url(#clip392)" style="stroke:#000000; stroke-linecap:round; stroke-linejoin:round; stroke-width:2; stroke-opacity:0.1; fill:none" points="444.46,1173.47 444.46,47.2441 "/>
<polyline clip-path="url(#clip392)" style="stroke:#000000; stroke-linecap:round; stroke-linejoin:round; stroke-width:2; stroke-opacity:0.1; fill:none" points="795.98,1173.47 795.98,47.2441 "/>
<polyline clip-path="url(#clip392)" style="stroke:#000000; stroke-linecap:round; stroke-linejoin:round; stroke-width:2; stroke-opacity:0.1; fill:none" points="1147.5,1173.47 1147.5,47.2441 "/>
<polyline clip-path="url(#clip392)" style="stroke:#000000; stroke-linecap:round; stroke-linejoin:round; stroke-width:2; stroke-opacity:0.1; fill:none" points="1499.02,1173.47 1499.02,47.2441 "/>
<polyline clip-path="url(#clip392)" style="stroke:#000000; stroke-linecap:round; stroke-linejoin:round; stroke-width:2; stroke-opacity:0.1; fill:none" points="1850.54,1173.47 1850.54,47.2441 "/>
<polyline clip-path="url(#clip390)" style="stroke:#000000; stroke-linecap:round; stroke-linejoin:round; stroke-width:4; stroke-opacity:1; fill:none" points="230.243,1173.47 2064.76,1173.47 "/>
<polyline clip-path="url(#clip390)" style="stroke:#000000; stroke-linecap:round; stroke-linejoin:round; stroke-width:4; stroke-opacity:1; fill:none" points="444.46,1173.47 444.46,1154.57 "/>
<polyline clip-path="url(#clip390)" style="stroke:#000000; stroke-linecap:round; stroke-linejoin:round; stroke-width:4; stroke-opacity:1; fill:none" points="795.98,1173.47 795.98,1154.57 "/>
<polyline clip-path="url(#clip390)" style="stroke:#000000; stroke-linecap:round; stroke-linejoin:round; stroke-width:4; stroke-opacity:1; fill:none" points="1147.5,1173.47 1147.5,1154.57 "/>
<polyline clip-path="url(#clip390)" style="stroke:#000000; stroke-linecap:round; stroke-linejoin:round; stroke-width:4; stroke-opacity:1; fill:none" points="1499.02,1173.47 1499.02,1154.57 "/>
<polyline clip-path="url(#clip390)" style="stroke:#000000; stroke-linecap:round; stroke-linejoin:round; stroke-width:4; stroke-opacity:1; fill:none" points="1850.54,1173.47 1850.54,1154.57 "/>
<path clip-path="url(#clip390)" d="M444.46 1202.09 Q440.849 1202.09 439.02 1205.65 Q437.214 1209.19 437.214 1216.32 Q437.214 1223.43 439.02 1226.99 Q440.849 1230.53 444.46 1230.53 Q448.094 1230.53 449.9 1226.99 Q451.728 1223.43 451.728 1216.32 Q451.728 1209.19 449.9 1205.65 Q448.094 1202.09 444.46 1202.09 M444.46 1198.38 Q450.27 1198.38 453.325 1202.99 Q456.404 1207.57 456.404 1216.32 Q456.404 1225.05 453.325 1229.65 Q450.27 1234.24 444.46 1234.24 Q438.65 1234.24 435.571 1229.65 Q432.515 1225.05 432.515 1216.32 Q432.515 1207.57 435.571 1202.99 Q438.65 1198.38 444.46 1198.38 Z" fill="#000000" fill-rule="nonzero" fill-opacity="1" /><path clip-path="url(#clip390)" d="M786.362 1229.63 L794 1229.63 L794 1203.27 L785.69 1204.93 L785.69 1200.67 L793.954 1199.01 L798.63 1199.01 L798.63 1229.63 L806.269 1229.63 L806.269 1233.57 L786.362 1233.57 L786.362 1229.63 Z" fill="#000000" fill-rule="nonzero" fill-opacity="1" /><path clip-path="url(#clip390)" d="M1142.15 1229.63 L1158.47 1229.63 L1158.47 1233.57 L1136.53 1233.57 L1136.53 1229.63 Q1139.19 1226.88 1143.77 1222.25 Q1148.38 1217.59 1149.56 1216.25 Q1151.8 1213.73 1152.68 1211.99 Q1153.59 1210.23 1153.59 1208.54 Q1153.59 1205.79 1151.64 1204.05 Q1149.72 1202.32 1146.62 1202.32 Q1144.42 1202.32 1141.97 1203.08 Q1139.54 1203.84 1136.76 1205.4 L1136.76 1200.67 Q1139.58 1199.54 1142.04 1198.96 Q1144.49 1198.38 1146.53 1198.38 Q1151.9 1198.38 1155.09 1201.07 Q1158.29 1203.75 1158.29 1208.24 Q1158.29 1210.37 1157.48 1212.29 Q1156.69 1214.19 1154.58 1216.78 Q1154 1217.46 1150.9 1220.67 Q1147.8 1223.87 1142.15 1229.63 Z" fill="#000000" fill-rule="nonzero" fill-opacity="1" /><path clip-path="url(#clip390)" d="M1503.27 1214.93 Q1506.62 1215.65 1508.5 1217.92 Q1510.4 1220.19 1510.4 1223.52 Q1510.4 1228.64 1506.88 1231.44 Q1503.36 1234.24 1496.88 1234.24 Q1494.7 1234.24 1492.39 1233.8 Q1490.1 1233.38 1487.64 1232.53 L1487.64 1228.01 Q1489.59 1229.15 1491.9 1229.72 Q1494.22 1230.3 1496.74 1230.3 Q1501.14 1230.3 1503.43 1228.57 Q1505.74 1226.83 1505.74 1223.52 Q1505.74 1220.46 1503.59 1218.75 Q1501.46 1217.02 1497.64 1217.02 L1493.61 1217.02 L1493.61 1213.17 L1497.83 1213.17 Q1501.28 1213.17 1503.1 1211.81 Q1504.93 1210.42 1504.93 1207.83 Q1504.93 1205.16 1503.04 1203.75 Q1501.16 1202.32 1497.64 1202.32 Q1495.72 1202.32 1493.52 1202.73 Q1491.32 1203.15 1488.68 1204.03 L1488.68 1199.86 Q1491.35 1199.12 1493.66 1198.75 Q1496 1198.38 1498.06 1198.38 Q1503.38 1198.38 1506.48 1200.81 Q1509.59 1203.22 1509.59 1207.34 Q1509.59 1210.21 1507.94 1212.2 Q1506.3 1214.17 1503.27 1214.93 Z" fill="#000000" fill-rule="nonzero" fill-opacity="1" /><path clip-path="url(#clip390)" d="M1853.55 1203.08 L1841.74 1221.53 L1853.55 1221.53 L1853.55 1203.08 M1852.32 1199.01 L1858.2 1199.01 L1858.2 1221.53 L1863.13 1221.53 L1863.13 1225.42 L1858.2 1225.42 L1858.2 1233.57 L1853.55 1233.57 L1853.55 1225.42 L1837.95 1225.42 L1837.95 1220.9 L1852.32 1199.01 Z" fill="#000000" fill-rule="nonzero" fill-opacity="1" /><path clip-path="url(#clip390)" d="M1061.18 1278.37 L1067.39 1278.37 L1078.53 1308.29 L1089.67 1278.37 L1095.87 1278.37 L1082.51 1314.01 L1074.55 1314.01 L1061.18 1278.37 Z" fill="#000000" fill-rule="nonzero" fill-opacity="1" /><path clip-path="url(#clip390)" d="M1120.16 1296.1 Q1113.06 1296.1 1110.32 1297.72 Q1107.59 1299.34 1107.59 1303.26 Q1107.59 1306.38 1109.62 1308.22 Q1111.69 1310.04 1115.23 1310.04 Q1120.1 1310.04 1123.02 1306.6 Q1125.98 1303.13 1125.98 1297.4 L1125.98 1296.1 L1120.16 1296.1 M1131.84 1293.68 L1131.84 1314.01 L1125.98 1314.01 L1125.98 1308.6 Q1123.98 1311.85 1120.99 1313.41 Q1117.99 1314.94 1113.67 1314.94 Q1108.19 1314.94 1104.94 1311.88 Q1101.73 1308.79 1101.73 1303.64 Q1101.73 1297.62 1105.74 1294.57 Q1109.78 1291.51 1117.77 1291.51 L1125.98 1291.51 L1125.98 1290.94 Q1125.98 1286.9 1123.31 1284.7 Q1120.67 1282.47 1115.86 1282.47 Q1112.81 1282.47 1109.91 1283.2 Q1107.01 1283.94 1104.34 1285.4 L1104.34 1279.99 Q1107.55 1278.75 1110.58 1278.14 Q1113.6 1277.51 1116.47 1277.51 Q1124.2 1277.51 1128.02 1281.52 Q1131.84 1285.53 1131.84 1293.68 Z" fill="#000000" fill-rule="nonzero" fill-opacity="1" /><path clip-path="url(#clip390)" d="M1143.9 1264.49 L1149.76 1264.49 L1149.76 1314.01 L1143.9 1314.01 L1143.9 1264.49 Z" fill="#000000" fill-rule="nonzero" fill-opacity="1" /><path clip-path="url(#clip390)" d="M1161.41 1299.95 L1161.41 1278.37 L1167.26 1278.37 L1167.26 1299.72 Q1167.26 1304.78 1169.24 1307.33 Q1171.21 1309.85 1175.16 1309.85 Q1179.9 1309.85 1182.64 1306.82 Q1185.41 1303.8 1185.41 1298.58 L1185.41 1278.37 L1191.26 1278.37 L1191.26 1314.01 L1185.41 1314.01 L1185.41 1308.54 Q1183.27 1311.79 1180.44 1313.38 Q1177.64 1314.94 1173.92 1314.94 Q1167.77 1314.94 1164.59 1311.12 Q1161.41 1307.3 1161.41 1299.95 M1176.15 1277.51 L1176.15 1277.51 Z" fill="#000000" fill-rule="nonzero" fill-opacity="1" /><path clip-path="url(#clip390)" d="M1233.82 1294.73 L1233.82 1297.59 L1206.89 1297.59 Q1207.27 1303.64 1210.52 1306.82 Q1213.8 1309.97 1219.62 1309.97 Q1223 1309.97 1226.15 1309.14 Q1229.33 1308.32 1232.45 1306.66 L1232.45 1312.2 Q1229.3 1313.54 1225.99 1314.24 Q1222.68 1314.94 1219.27 1314.94 Q1210.74 1314.94 1205.75 1309.97 Q1200.78 1305.01 1200.78 1296.54 Q1200.78 1287.79 1205.49 1282.66 Q1210.23 1277.51 1218.25 1277.51 Q1225.45 1277.51 1229.62 1282.15 Q1233.82 1286.77 1233.82 1294.73 M1227.96 1293.01 Q1227.9 1288.2 1225.26 1285.34 Q1222.65 1282.47 1218.32 1282.47 Q1213.42 1282.47 1210.46 1285.24 Q1207.53 1288.01 1207.08 1293.04 L1227.96 1293.01 Z" fill="#000000" fill-rule="nonzero" fill-opacity="1" /><polyline clip-path="url(#clip392)" style="stroke:#000000; stroke-linecap:round; stroke-linejoin:round; stroke-width:2; stroke-opacity:0.1; fill:none" points="230.243,1173.47 2064.76,1173.47 "/>
<polyline clip-path="url(#clip392)" style="stroke:#000000; stroke-linecap:round; stroke-linejoin:round; stroke-width:2; stroke-opacity:0.1; fill:none" points="230.243,960.573 2064.76,960.573 "/>
<polyline clip-path="url(#clip392)" style="stroke:#000000; stroke-linecap:round; stroke-linejoin:round; stroke-width:2; stroke-opacity:0.1; fill:none" points="230.243,747.676 2064.76,747.676 "/>
<polyline clip-path="url(#clip392)" style="stroke:#000000; stroke-linecap:round; stroke-linejoin:round; stroke-width:2; stroke-opacity:0.1; fill:none" points="230.243,534.779 2064.76,534.779 "/>
<polyline clip-path="url(#clip392)" style="stroke:#000000; stroke-linecap:round; stroke-linejoin:round; stroke-width:2; stroke-opacity:0.1; fill:none" points="230.243,321.882 2064.76,321.882 "/>
<polyline clip-path="url(#clip392)" style="stroke:#000000; stroke-linecap:round; stroke-linejoin:round; stroke-width:2; stroke-opacity:0.1; fill:none" points="230.243,108.984 2064.76,108.984 "/>
<polyline clip-path="url(#clip390)" style="stroke:#000000; stroke-linecap:round; stroke-linejoin:round; stroke-width:4; stroke-opacity:1; fill:none" points="230.243,1173.47 230.243,47.2441 "/>
<polyline clip-path="url(#clip390)" style="stroke:#000000; stroke-linecap:round; stroke-linejoin:round; stroke-width:4; stroke-opacity:1; fill:none" points="230.243,1173.47 249.14,1173.47 "/>
<polyline clip-path="url(#clip390)" style="stroke:#000000; stroke-linecap:round; stroke-linejoin:round; stroke-width:4; stroke-opacity:1; fill:none" points="230.243,960.573 249.14,960.573 "/>
<polyline clip-path="url(#clip390)" style="stroke:#000000; stroke-linecap:round; stroke-linejoin:round; stroke-width:4; stroke-opacity:1; fill:none" points="230.243,747.676 249.14,747.676 "/>
<polyline clip-path="url(#clip390)" style="stroke:#000000; stroke-linecap:round; stroke-linejoin:round; stroke-width:4; stroke-opacity:1; fill:none" points="230.243,534.779 249.14,534.779 "/>
<polyline clip-path="url(#clip390)" style="stroke:#000000; stroke-linecap:round; stroke-linejoin:round; stroke-width:4; stroke-opacity:1; fill:none" points="230.243,321.882 249.14,321.882 "/>
<polyline clip-path="url(#clip390)" style="stroke:#000000; stroke-linecap:round; stroke-linejoin:round; stroke-width:4; stroke-opacity:1; fill:none" points="230.243,108.984 249.14,108.984 "/>
<path clip-path="url(#clip390)" d="M186.618 1159.27 Q183.007 1159.27 181.179 1162.83 Q179.373 1166.38 179.373 1173.51 Q179.373 1180.61 181.179 1184.18 Q183.007 1187.72 186.618 1187.72 Q190.253 1187.72 192.058 1184.18 Q193.887 1180.61 193.887 1173.51 Q193.887 1166.38 192.058 1162.83 Q190.253 1159.27 186.618 1159.27 M186.618 1155.57 Q192.429 1155.57 195.484 1160.17 Q198.563 1164.76 198.563 1173.51 Q198.563 1182.23 195.484 1186.84 Q192.429 1191.42 186.618 1191.42 Q180.808 1191.42 177.73 1186.84 Q174.674 1182.23 174.674 1173.51 Q174.674 1164.76 177.73 1160.17 Q180.808 1155.57 186.618 1155.57 Z" fill="#000000" fill-rule="nonzero" fill-opacity="1" /><path clip-path="url(#clip390)" d="M117.105 973.918 L124.744 973.918 L124.744 947.553 L116.434 949.219 L116.434 944.96 L124.698 943.293 L129.373 943.293 L129.373 973.918 L137.012 973.918 L137.012 977.853 L117.105 977.853 L117.105 973.918 Z" fill="#000000" fill-rule="nonzero" fill-opacity="1" /><path clip-path="url(#clip390)" d="M156.457 946.372 Q152.846 946.372 151.017 949.937 Q149.211 953.479 149.211 960.608 Q149.211 967.715 151.017 971.279 Q152.846 974.821 156.457 974.821 Q160.091 974.821 161.896 971.279 Q163.725 967.715 163.725 960.608 Q163.725 953.479 161.896 949.937 Q160.091 946.372 156.457 946.372 M156.457 942.668 Q162.267 942.668 165.322 947.275 Q168.401 951.858 168.401 960.608 Q168.401 969.335 165.322 973.941 Q162.267 978.525 156.457 978.525 Q150.646 978.525 147.568 973.941 Q144.512 969.335 144.512 960.608 Q144.512 951.858 147.568 947.275 Q150.646 942.668 156.457 942.668 Z" fill="#000000" fill-rule="nonzero" fill-opacity="1" /><path clip-path="url(#clip390)" d="M186.618 946.372 Q183.007 946.372 181.179 949.937 Q179.373 953.479 179.373 960.608 Q179.373 967.715 181.179 971.279 Q183.007 974.821 186.618 974.821 Q190.253 974.821 192.058 971.279 Q193.887 967.715 193.887 960.608 Q193.887 953.479 192.058 949.937 Q190.253 946.372 186.618 946.372 M186.618 942.668 Q192.429 942.668 195.484 947.275 Q198.563 951.858 198.563 960.608 Q198.563 969.335 195.484 973.941 Q192.429 978.525 186.618 978.525 Q180.808 978.525 177.73 973.941 Q174.674 969.335 174.674 960.608 Q174.674 951.858 177.73 947.275 Q180.808 942.668 186.618 942.668 Z" fill="#000000" fill-rule="nonzero" fill-opacity="1" /><path clip-path="url(#clip390)" d="M120.323 761.021 L136.642 761.021 L136.642 764.956 L114.698 764.956 L114.698 761.021 Q117.36 758.266 121.943 753.637 Q126.549 748.984 127.73 747.641 Q129.975 745.118 130.855 743.382 Q131.758 741.623 131.758 739.933 Q131.758 737.179 129.813 735.442 Q127.892 733.706 124.79 733.706 Q122.591 733.706 120.137 734.47 Q117.707 735.234 114.929 736.785 L114.929 732.063 Q117.753 730.929 120.207 730.35 Q122.66 729.771 124.698 729.771 Q130.068 729.771 133.262 732.456 Q136.457 735.142 136.457 739.632 Q136.457 741.762 135.647 743.683 Q134.859 745.581 132.753 748.174 Q132.174 748.845 129.072 752.063 Q125.971 755.257 120.323 761.021 Z" fill="#000000" fill-rule="nonzero" fill-opacity="1" /><path clip-path="url(#clip390)" d="M156.457 733.475 Q152.846 733.475 151.017 737.04 Q149.211 740.581 149.211 747.711 Q149.211 754.817 151.017 758.382 Q152.846 761.924 156.457 761.924 Q160.091 761.924 161.896 758.382 Q163.725 754.817 163.725 747.711 Q163.725 740.581 161.896 737.04 Q160.091 733.475 156.457 733.475 M156.457 729.771 Q162.267 729.771 165.322 734.378 Q168.401 738.961 168.401 747.711 Q168.401 756.438 165.322 761.044 Q162.267 765.627 156.457 765.627 Q150.646 765.627 147.568 761.044 Q144.512 756.438 144.512 747.711 Q144.512 738.961 147.568 734.378 Q150.646 729.771 156.457 729.771 Z" fill="#000000" fill-rule="nonzero" fill-opacity="1" /><path clip-path="url(#clip390)" d="M186.618 733.475 Q183.007 733.475 181.179 737.04 Q179.373 740.581 179.373 747.711 Q179.373 754.817 181.179 758.382 Q183.007 761.924 186.618 761.924 Q190.253 761.924 192.058 758.382 Q193.887 754.817 193.887 747.711 Q193.887 740.581 192.058 737.04 Q190.253 733.475 186.618 733.475 M186.618 729.771 Q192.429 729.771 195.484 734.378 Q198.563 738.961 198.563 747.711 Q198.563 756.438 195.484 761.044 Q192.429 765.627 186.618 765.627 Q180.808 765.627 177.73 761.044 Q174.674 756.438 174.674 747.711 Q174.674 738.961 177.73 734.378 Q180.808 729.771 186.618 729.771 Z" fill="#000000" fill-rule="nonzero" fill-opacity="1" /><path clip-path="url(#clip390)" d="M130.461 533.425 Q133.818 534.142 135.693 536.411 Q137.591 538.679 137.591 542.013 Q137.591 547.128 134.072 549.929 Q130.554 552.73 124.073 552.73 Q121.897 552.73 119.582 552.29 Q117.29 551.874 114.836 551.017 L114.836 546.503 Q116.781 547.638 119.096 548.216 Q121.41 548.795 123.934 548.795 Q128.332 548.795 130.623 547.059 Q132.938 545.323 132.938 542.013 Q132.938 538.957 130.785 537.244 Q128.656 535.508 124.836 535.508 L120.809 535.508 L120.809 531.665 L125.022 531.665 Q128.471 531.665 130.299 530.3 Q132.128 528.911 132.128 526.318 Q132.128 523.656 130.23 522.244 Q128.355 520.809 124.836 520.809 Q122.915 520.809 120.716 521.226 Q118.517 521.642 115.878 522.522 L115.878 518.355 Q118.54 517.615 120.855 517.244 Q123.193 516.874 125.253 516.874 Q130.577 516.874 133.679 519.304 Q136.781 521.712 136.781 525.832 Q136.781 528.703 135.137 530.693 Q133.494 532.661 130.461 533.425 Z" fill="#000000" fill-rule="nonzero" fill-opacity="1" /><path clip-path="url(#clip390)" d="M156.457 520.578 Q152.846 520.578 151.017 524.142 Q149.211 527.684 149.211 534.814 Q149.211 541.92 151.017 545.485 Q152.846 549.026 156.457 549.026 Q160.091 549.026 161.896 545.485 Q163.725 541.92 163.725 534.814 Q163.725 527.684 161.896 524.142 Q160.091 520.578 156.457 520.578 M156.457 516.874 Q162.267 516.874 165.322 521.48 Q168.401 526.064 168.401 534.814 Q168.401 543.54 165.322 548.147 Q162.267 552.73 156.457 552.73 Q150.646 552.73 147.568 548.147 Q144.512 543.54 144.512 534.814 Q144.512 526.064 147.568 521.48 Q150.646 516.874 156.457 516.874 Z" fill="#000000" fill-rule="nonzero" fill-opacity="1" /><path clip-path="url(#clip390)" d="M186.618 520.578 Q183.007 520.578 181.179 524.142 Q179.373 527.684 179.373 534.814 Q179.373 541.92 181.179 545.485 Q183.007 549.026 186.618 549.026 Q190.253 549.026 192.058 545.485 Q193.887 541.92 193.887 534.814 Q193.887 527.684 192.058 524.142 Q190.253 520.578 186.618 520.578 M186.618 516.874 Q192.429 516.874 195.484 521.48 Q198.563 526.064 198.563 534.814 Q198.563 543.54 195.484 548.147 Q192.429 552.73 186.618 552.73 Q180.808 552.73 177.73 548.147 Q174.674 543.54 174.674 534.814 Q174.674 526.064 177.73 521.48 Q180.808 516.874 186.618 516.874 Z" fill="#000000" fill-rule="nonzero" fill-opacity="1" /><path clip-path="url(#clip390)" d="M129.142 308.676 L117.336 327.125 L129.142 327.125 L129.142 308.676 M127.915 304.602 L133.795 304.602 L133.795 327.125 L138.725 327.125 L138.725 331.013 L133.795 331.013 L133.795 339.162 L129.142 339.162 L129.142 331.013 L113.54 331.013 L113.54 326.5 L127.915 304.602 Z" fill="#000000" fill-rule="nonzero" fill-opacity="1" /><path clip-path="url(#clip390)" d="M156.457 307.68 Q152.846 307.68 151.017 311.245 Q149.211 314.787 149.211 321.916 Q149.211 329.023 151.017 332.588 Q152.846 336.129 156.457 336.129 Q160.091 336.129 161.896 332.588 Q163.725 329.023 163.725 321.916 Q163.725 314.787 161.896 311.245 Q160.091 307.68 156.457 307.68 M156.457 303.977 Q162.267 303.977 165.322 308.583 Q168.401 313.166 168.401 321.916 Q168.401 330.643 165.322 335.25 Q162.267 339.833 156.457 339.833 Q150.646 339.833 147.568 335.25 Q144.512 330.643 144.512 321.916 Q144.512 313.166 147.568 308.583 Q150.646 303.977 156.457 303.977 Z" fill="#000000" fill-rule="nonzero" fill-opacity="1" /><path clip-path="url(#clip390)" d="M186.618 307.68 Q183.007 307.68 181.179 311.245 Q179.373 314.787 179.373 321.916 Q179.373 329.023 181.179 332.588 Q183.007 336.129 186.618 336.129 Q190.253 336.129 192.058 332.588 Q193.887 329.023 193.887 321.916 Q193.887 314.787 192.058 311.245 Q190.253 307.68 186.618 307.68 M186.618 303.977 Q192.429 303.977 195.484 308.583 Q198.563 313.166 198.563 321.916 Q198.563 330.643 195.484 335.25 Q192.429 339.833 186.618 339.833 Q180.808 339.833 177.73 335.25 Q174.674 330.643 174.674 321.916 Q174.674 313.166 177.73 308.583 Q180.808 303.977 186.618 303.977 Z" fill="#000000" fill-rule="nonzero" fill-opacity="1" /><path clip-path="url(#clip390)" d="M116.341 91.7043 L134.697 91.7043 L134.697 95.6395 L120.623 95.6395 L120.623 104.112 Q121.642 103.764 122.66 103.602 Q123.679 103.417 124.698 103.417 Q130.485 103.417 133.864 106.588 Q137.244 109.76 137.244 115.176 Q137.244 120.755 133.772 123.857 Q130.299 126.936 123.98 126.936 Q121.804 126.936 119.535 126.565 Q117.29 126.195 114.883 125.454 L114.883 120.755 Q116.966 121.889 119.188 122.445 Q121.41 123 123.887 123 Q127.892 123 130.23 120.894 Q132.568 118.787 132.568 115.176 Q132.568 111.565 130.23 109.459 Q127.892 107.352 123.887 107.352 Q122.012 107.352 120.137 107.769 Q118.286 108.186 116.341 109.065 L116.341 91.7043 Z" fill="#000000" fill-rule="nonzero" fill-opacity="1" /><path clip-path="url(#clip390)" d="M156.457 94.783 Q152.846 94.783 151.017 98.3478 Q149.211 101.889 149.211 109.019 Q149.211 116.125 151.017 119.69 Q152.846 123.232 156.457 123.232 Q160.091 123.232 161.896 119.69 Q163.725 116.125 163.725 109.019 Q163.725 101.889 161.896 98.3478 Q160.091 94.783 156.457 94.783 M156.457 91.0793 Q162.267 91.0793 165.322 95.6858 Q168.401 100.269 168.401 109.019 Q168.401 117.746 165.322 122.352 Q162.267 126.936 156.457 126.936 Q150.646 126.936 147.568 122.352 Q144.512 117.746 144.512 109.019 Q144.512 100.269 147.568 95.6858 Q150.646 91.0793 156.457 91.0793 Z" fill="#000000" fill-rule="nonzero" fill-opacity="1" /><path clip-path="url(#clip390)" d="M186.618 94.783 Q183.007 94.783 181.179 98.3478 Q179.373 101.889 179.373 109.019 Q179.373 116.125 181.179 119.69 Q183.007 123.232 186.618 123.232 Q190.253 123.232 192.058 119.69 Q193.887 116.125 193.887 109.019 Q193.887 101.889 192.058 98.3478 Q190.253 94.783 186.618 94.783 M186.618 91.0793 Q192.429 91.0793 195.484 95.6858 Q198.563 100.269 198.563 109.019 Q198.563 117.746 195.484 122.352 Q192.429 126.936 186.618 126.936 Q180.808 126.936 177.73 122.352 Q174.674 117.746 174.674 109.019 Q174.674 100.269 177.73 95.6858 Q180.808 91.0793 186.618 91.0793 Z" fill="#000000" fill-rule="nonzero" fill-opacity="1" /><path clip-path="url(#clip390)" d="M33.3248 671.532 L38.7993 671.532 Q37.4307 674.014 36.7623 676.529 Q36.0621 679.012 36.0621 681.558 Q36.0621 687.255 39.6905 690.406 Q43.2872 693.557 49.812 693.557 Q56.3369 693.557 59.9653 690.406 Q63.5619 687.255 63.5619 681.558 Q63.5619 679.012 62.8935 676.529 Q62.1933 674.014 60.8247 671.532 L66.2355 671.532 Q67.3814 673.983 67.9543 676.624 Q68.5272 679.234 68.5272 682.194 Q68.5272 690.247 63.4664 694.989 Q58.4057 699.732 49.812 699.732 Q41.091 699.732 36.0939 694.958 Q31.0968 690.152 31.0968 681.812 Q31.0968 679.107 31.6697 676.529 Q32.2108 673.951 33.3248 671.532 Z" fill="#000000" fill-rule="nonzero" fill-opacity="1" /><path clip-path="url(#clip390)" d="M36.0621 647.533 Q36.0621 652.244 39.7542 654.981 Q43.4145 657.718 49.812 657.718 Q56.2095 657.718 59.9017 655.013 Q63.5619 652.276 63.5619 647.533 Q63.5619 642.854 59.8698 640.117 Q56.1777 637.38 49.812 637.38 Q43.4781 637.38 39.786 640.117 Q36.0621 642.854 36.0621 647.533 M31.0968 647.533 Q31.0968 639.894 36.0621 635.534 Q41.0273 631.173 49.812 631.173 Q58.5649 631.173 63.5619 635.534 Q68.5272 639.894 68.5272 647.533 Q68.5272 655.204 63.5619 659.564 Q58.5649 663.893 49.812 663.893 Q41.0273 663.893 36.0621 659.564 Q31.0968 655.204 31.0968 647.533 Z" fill="#000000" fill-rule="nonzero" fill-opacity="1" /><path clip-path="url(#clip390)" d="M53.5359 622.07 L31.9562 622.07 L31.9562 616.214 L53.3131 616.214 Q58.3739 616.214 60.9202 614.241 Q63.4346 612.267 63.4346 608.32 Q63.4346 603.578 60.4109 600.841 Q57.3872 598.072 52.1673 598.072 L31.9562 598.072 L31.9562 592.215 L67.6042 592.215 L67.6042 598.072 L62.1296 598.072 Q65.3762 600.204 66.9676 603.037 Q68.5272 605.838 68.5272 609.562 Q68.5272 615.705 64.7078 618.887 Q60.8883 622.07 53.5359 622.07 M31.0968 607.334 L31.0968 607.334 Z" fill="#000000" fill-rule="nonzero" fill-opacity="1" /><path clip-path="url(#clip390)" d="M46.0881 550.52 L67.6042 550.52 L67.6042 556.376 L46.279 556.376 Q41.2183 556.376 38.7038 558.35 Q36.1894 560.323 36.1894 564.27 Q36.1894 569.012 39.2131 571.749 Q42.2368 574.487 47.4567 574.487 L67.6042 574.487 L67.6042 580.375 L31.9562 580.375 L31.9562 574.487 L37.4944 574.487 Q34.2797 572.386 32.6883 569.553 Q31.0968 566.689 31.0968 562.965 Q31.0968 556.822 34.9163 553.671 Q38.7038 550.52 46.0881 550.52 Z" fill="#000000" fill-rule="nonzero" fill-opacity="1" /><path clip-path="url(#clip390)" d="M21.8347 533.046 L31.9562 533.046 L31.9562 520.983 L36.5077 520.983 L36.5077 533.046 L55.8594 533.046 Q60.2199 533.046 61.4613 531.868 Q62.7026 530.659 62.7026 526.998 L62.7026 520.983 L67.6042 520.983 L67.6042 526.998 Q67.6042 533.778 65.0897 536.356 Q62.5434 538.934 55.8594 538.934 L36.5077 538.934 L36.5077 543.231 L31.9562 543.231 L31.9562 538.934 L21.8347 538.934 L21.8347 533.046 Z" fill="#000000" fill-rule="nonzero" fill-opacity="1" /><path clip-path="url(#clip392)" d="M326.701 394.267 L326.701 1173.47 L405.207 1173.47 L405.207 394.267 L326.701 394.267 L326.701 394.267  Z" fill="#009af9" fill-rule="evenodd" fill-opacity="1"/>
<polyline clip-path="url(#clip392)" style="stroke:#000000; stroke-linecap:round; stroke-linejoin:round; stroke-width:0; stroke-opacity:1; fill:none" points="326.701,394.267 326.701,1173.47 405.207,1173.47 405.207,394.267 326.701,394.267 "/>
<path clip-path="url(#clip392)" d="M678.22 189.885 L678.22 1173.47 L756.727 1173.47 L756.727 189.885 L678.22 189.885 L678.22 189.885  Z" fill="#009af9" fill-rule="evenodd" fill-opacity="1"/>
<polyline clip-path="url(#clip392)" style="stroke:#000000; stroke-linecap:round; stroke-linejoin:round; stroke-width:0; stroke-opacity:1; fill:none" points="678.22,189.885 678.22,1173.47 756.727,1173.47 756.727,189.885 678.22,189.885 "/>
<path clip-path="url(#clip392)" d="M1029.74 609.293 L1029.74 1173.47 L1108.25 1173.47 L1108.25 609.293 L1029.74 609.293 L1029.74 609.293  Z" fill="#009af9" fill-rule="evenodd" fill-opacity="1"/>
<polyline clip-path="url(#clip392)" style="stroke:#000000; stroke-linecap:round; stroke-linejoin:round; stroke-width:0; stroke-opacity:1; fill:none" points="1029.74,609.293 1029.74,1173.47 1108.25,1173.47 1108.25,609.293 1029.74,609.293 "/>
<path clip-path="url(#clip392)" d="M1381.26 743.418 L1381.26 1173.47 L1459.77 1173.47 L1459.77 743.418 L1381.26 743.418 L1381.26 743.418  Z" fill="#009af9" fill-rule="evenodd" fill-opacity="1"/>
<polyline clip-path="url(#clip392)" style="stroke:#000000; stroke-linecap:round; stroke-linejoin:round; stroke-width:0; stroke-opacity:1; fill:none" points="1381.26,743.418 1381.26,1173.47 1459.77,1173.47 1459.77,743.418 1381.26,743.418 "/>
<path clip-path="url(#clip392)" d="M1732.78 828.577 L1732.78 1173.47 L1811.29 1173.47 L1811.29 828.577 L1732.78 828.577 L1732.78 828.577  Z" fill="#009af9" fill-rule="evenodd" fill-opacity="1"/>
<polyline clip-path="url(#clip392)" style="stroke:#000000; stroke-linecap:round; stroke-linejoin:round; stroke-width:0; stroke-opacity:1; fill:none" points="1732.78,828.577 1732.78,1173.47 1811.29,1173.47 1811.29,828.577 1732.78,828.577 "/>
<circle clip-path="url(#clip392)" style="fill:#009af9; stroke:none; fill-opacity:0" cx="365.954" cy="394.267" r="2"/>
<circle clip-path="url(#clip392)" style="fill:#009af9; stroke:none; fill-opacity:0" cx="717.473" cy="189.885" r="2"/>
<circle clip-path="url(#clip392)" style="fill:#009af9; stroke:none; fill-opacity:0" cx="1068.99" cy="609.293" r="2"/>
<circle clip-path="url(#clip392)" style="fill:#009af9; stroke:none; fill-opacity:0" cx="1420.51" cy="743.418" r="2"/>
<circle clip-path="url(#clip392)" style="fill:#009af9; stroke:none; fill-opacity:0" cx="1772.03" cy="828.577" r="2"/>
<path clip-path="url(#clip392)" d="M405.207 494.328 L405.207 1173.47 L483.713 1173.47 L483.713 494.328 L405.207 494.328 L405.207 494.328  Z" fill="#e26f46" fill-rule="evenodd" fill-opacity="1"/>
<polyline clip-path="url(#clip392)" style="stroke:#000000; stroke-linecap:round; stroke-linejoin:round; stroke-width:0; stroke-opacity:1; fill:none" points="405.207,494.328 405.207,1173.47 483.713,1173.47 483.713,494.328 405.207,494.328 "/>
<path clip-path="url(#clip392)" d="M756.727 47.2441 L756.727 1173.47 L835.233 1173.47 L835.233 47.2441 L756.727 47.2441 L756.727 47.2441  Z" fill="#e26f46" fill-rule="evenodd" fill-opacity="1"/>
<polyline clip-path="url(#clip392)" style="stroke:#000000; stroke-linecap:round; stroke-linejoin:round; stroke-width:0; stroke-opacity:1; fill:none" points="756.727,47.2441 756.727,1173.47 835.233,1173.47 835.233,47.2441 756.727,47.2441 "/>
<path clip-path="url(#clip392)" d="M1108.25 613.551 L1108.25 1173.47 L1186.75 1173.47 L1186.75 613.551 L1108.25 613.551 L1108.25 613.551  Z" fill="#e26f46" fill-rule="evenodd" fill-opacity="1"/>
<polyline clip-path="url(#clip392)" style="stroke:#000000; stroke-linecap:round; stroke-linejoin:round; stroke-width:0; stroke-opacity:1; fill:none" points="1108.25,613.551 1108.25,1173.47 1186.75,1173.47 1186.75,613.551 1108.25,613.551 "/>
<path clip-path="url(#clip392)" d="M1459.77 807.287 L1459.77 1173.47 L1538.27 1173.47 L1538.27 807.287 L1459.77 807.287 L1459.77 807.287  Z" fill="#e26f46" fill-rule="evenodd" fill-opacity="1"/>
<polyline clip-path="url(#clip392)" style="stroke:#000000; stroke-linecap:round; stroke-linejoin:round; stroke-width:0; stroke-opacity:1; fill:none" points="1459.77,807.287 1459.77,1173.47 1538.27,1173.47 1538.27,807.287 1459.77,807.287 "/>
<path clip-path="url(#clip392)" d="M1811.29 803.029 L1811.29 1173.47 L1889.79 1173.47 L1889.79 803.029 L1811.29 803.029 L1811.29 803.029  Z" fill="#e26f46" fill-rule="evenodd" fill-opacity="1"/>
<polyline clip-path="url(#clip392)" style="stroke:#000000; stroke-linecap:round; stroke-linejoin:round; stroke-width:0; stroke-opacity:1; fill:none" points="1811.29,803.029 1811.29,1173.47 1889.79,1173.47 1889.79,803.029 1811.29,803.029 "/>
<circle clip-path="url(#clip392)" style="fill:#e26f46; stroke:none; fill-opacity:0" cx="444.46" cy="494.328" r="2"/>
<circle clip-path="url(#clip392)" style="fill:#e26f46; stroke:none; fill-opacity:0" cx="795.98" cy="47.2441" r="2"/>
<circle clip-path="url(#clip392)" style="fill:#e26f46; stroke:none; fill-opacity:0" cx="1147.5" cy="613.551" r="2"/>
<circle clip-path="url(#clip392)" style="fill:#e26f46; stroke:none; fill-opacity:0" cx="1499.02" cy="807.287" r="2"/>
<circle clip-path="url(#clip392)" style="fill:#e26f46; stroke:none; fill-opacity:0" cx="1850.54" cy="803.029" r="2"/>
<path clip-path="url(#clip392)" d="M483.713 598.648 L483.713 1173.47 L562.219 1173.47 L562.219 598.648 L483.713 598.648 L483.713 598.648  Z" fill="#3da44d" fill-rule="evenodd" fill-opacity="1"/>
<polyline clip-path="url(#clip392)" style="stroke:#000000; stroke-linecap:round; stroke-linejoin:round; stroke-width:0; stroke-opacity:1; fill:none" points="483.713,598.648 483.713,1173.47 562.219,1173.47 562.219,598.648 483.713,598.648 "/>
<path clip-path="url(#clip392)" d="M835.233 151.564 L835.233 1173.47 L913.739 1173.47 L913.739 151.564 L835.233 151.564 L835.233 151.564  Z" fill="#3da44d" fill-rule="evenodd" fill-opacity="1"/>
<polyline clip-path="url(#clip392)" style="stroke:#000000; stroke-linecap:round; stroke-linejoin:round; stroke-width:0; stroke-opacity:1; fill:none" points="835.233,151.564 835.233,1173.47 913.739,1173.47 913.739,151.564 835.233,151.564 "/>
<path clip-path="url(#clip392)" d="M1186.75 545.424 L1186.75 1173.47 L1265.26 1173.47 L1265.26 545.424 L1186.75 545.424 L1186.75 545.424  Z" fill="#3da44d" fill-rule="evenodd" fill-opacity="1"/>
<polyline clip-path="url(#clip392)" style="stroke:#000000; stroke-linecap:round; stroke-linejoin:round; stroke-width:0; stroke-opacity:1; fill:none" points="1186.75,545.424 1186.75,1173.47 1265.26,1173.47 1265.26,545.424 1186.75,545.424 "/>
<path clip-path="url(#clip392)" d="M1538.27 726.386 L1538.27 1173.47 L1616.78 1173.47 L1616.78 726.386 L1538.27 726.386 L1538.27 726.386  Z" fill="#3da44d" fill-rule="evenodd" fill-opacity="1"/>
<polyline clip-path="url(#clip392)" style="stroke:#000000; stroke-linecap:round; stroke-linejoin:round; stroke-width:0; stroke-opacity:1; fill:none" points="1538.27,726.386 1538.27,1173.47 1616.78,1173.47 1616.78,726.386 1538.27,726.386 "/>
<path clip-path="url(#clip392)" d="M1889.79 743.418 L1889.79 1173.47 L1968.3 1173.47 L1968.3 743.418 L1889.79 743.418 L1889.79 743.418  Z" fill="#3da44d" fill-rule="evenodd" fill-opacity="1"/>
<polyline clip-path="url(#clip392)" style="stroke:#000000; stroke-linecap:round; stroke-linejoin:round; stroke-width:0; stroke-opacity:1; fill:none" points="1889.79,743.418 1889.79,1173.47 1968.3,1173.47 1968.3,743.418 1889.79,743.418 "/>
<circle clip-path="url(#clip392)" style="fill:#3da44d; stroke:none; fill-opacity:0" cx="522.966" cy="598.648" r="2"/>
<circle clip-path="url(#clip392)" style="fill:#3da44d; stroke:none; fill-opacity:0" cx="874.486" cy="151.564" r="2"/>
<circle clip-path="url(#clip392)" style="fill:#3da44d; stroke:none; fill-opacity:0" cx="1226.01" cy="545.424" r="2"/>
<circle clip-path="url(#clip392)" style="fill:#3da44d; stroke:none; fill-opacity:0" cx="1577.53" cy="726.386" r="2"/>
<circle clip-path="url(#clip392)" style="fill:#3da44d; stroke:none; fill-opacity:0" cx="1929.05" cy="743.418" r="2"/>
<path clip-path="url(#clip390)" d="M1468.93 292.145 L2003.61 292.145 L2003.61 84.785 L1468.93 84.785  Z" fill="#ffffff" fill-rule="evenodd" fill-opacity="1"/>
<polyline clip-path="url(#clip390)" style="stroke:#000000; stroke-linecap:round; stroke-linejoin:round; stroke-width:4; stroke-opacity:1; fill:none" points="1468.93,292.145 2003.61,292.145 2003.61,84.785 1468.93,84.785 1468.93,292.145 "/>
<path clip-path="url(#clip390)" d="M1489.31 157.361 L1611.61 157.361 L1611.61 115.889 L1489.31 115.889 L1489.31 157.361  Z" fill="#009af9" fill-rule="evenodd" fill-opacity="1"/>
<polyline clip-path="url(#clip390)" style="stroke:#000000; stroke-linecap:round; stroke-linejoin:round; stroke-width:0.8; stroke-opacity:1; fill:none" points="1489.31,157.361 1611.61,157.361 1611.61,115.889 1489.31,115.889 1489.31,157.361 "/>
<path clip-path="url(#clip390)" d="M1647.83 123.951 L1641.49 141.15 L1654.2 141.15 L1647.83 123.951 M1645.19 119.345 L1650.49 119.345 L1663.66 153.905 L1658.8 153.905 L1655.65 145.039 L1640.08 145.039 L1636.93 153.905 L1632 153.905 L1645.19 119.345 Z" fill="#000000" fill-rule="nonzero" fill-opacity="1" /><path clip-path="url(#clip390)" d="M1686.35 128.975 L1686.35 132.956 Q1684.54 131.961 1682.71 131.475 Q1680.91 130.965 1679.06 130.965 Q1674.91 130.965 1672.62 133.604 Q1670.33 136.22 1670.33 140.965 Q1670.33 145.711 1672.62 148.349 Q1674.91 150.965 1679.06 150.965 Q1680.91 150.965 1682.71 150.479 Q1684.54 149.97 1686.35 148.974 L1686.35 152.91 Q1684.57 153.743 1682.64 154.16 Q1680.75 154.576 1678.59 154.576 Q1672.74 154.576 1669.29 150.896 Q1665.84 147.215 1665.84 140.965 Q1665.84 134.623 1669.31 130.988 Q1672.81 127.354 1678.87 127.354 Q1680.84 127.354 1682.71 127.771 Q1684.59 128.164 1686.35 128.975 Z" fill="#000000" fill-rule="nonzero" fill-opacity="1" /><path clip-path="url(#clip390)" d="M1697.97 120.618 L1697.97 127.979 L1706.74 127.979 L1706.74 131.289 L1697.97 131.289 L1697.97 145.363 Q1697.97 148.535 1698.83 149.437 Q1699.7 150.34 1702.37 150.34 L1706.74 150.34 L1706.74 153.905 L1702.37 153.905 Q1697.44 153.905 1695.56 152.076 Q1693.69 150.224 1693.69 145.363 L1693.69 131.289 L1690.56 131.289 L1690.56 127.979 L1693.69 127.979 L1693.69 120.618 L1697.97 120.618 Z" fill="#000000" fill-rule="nonzero" fill-opacity="1" /><path clip-path="url(#clip390)" d="M1711.9 143.674 L1711.9 127.979 L1716.16 127.979 L1716.16 143.512 Q1716.16 147.192 1717.6 149.044 Q1719.03 150.873 1721.9 150.873 Q1725.35 150.873 1727.34 148.674 Q1729.36 146.474 1729.36 142.678 L1729.36 127.979 L1733.62 127.979 L1733.62 153.905 L1729.36 153.905 L1729.36 149.924 Q1727.81 152.285 1725.75 153.442 Q1723.71 154.576 1721 154.576 Q1716.53 154.576 1714.22 151.799 Q1711.9 149.021 1711.9 143.674 M1722.62 127.354 L1722.62 127.354 Z" fill="#000000" fill-rule="nonzero" fill-opacity="1" /><path clip-path="url(#clip390)" d="M1754.17 140.873 Q1749.01 140.873 1747.02 142.053 Q1745.03 143.234 1745.03 146.081 Q1745.03 148.349 1746.51 149.692 Q1748.01 151.011 1750.58 151.011 Q1754.13 151.011 1756.26 148.511 Q1758.41 145.988 1758.41 141.822 L1758.41 140.873 L1754.17 140.873 M1762.67 139.113 L1762.67 153.905 L1758.41 153.905 L1758.41 149.97 Q1756.95 152.331 1754.77 153.465 Q1752.6 154.576 1749.45 154.576 Q1745.47 154.576 1743.11 152.354 Q1740.77 150.109 1740.77 146.359 Q1740.77 141.984 1743.69 139.762 Q1746.63 137.539 1752.44 137.539 L1758.41 137.539 L1758.41 137.123 Q1758.41 134.183 1756.46 132.586 Q1754.54 130.965 1751.05 130.965 Q1748.83 130.965 1746.72 131.498 Q1744.61 132.03 1742.67 133.095 L1742.67 129.16 Q1745.01 128.257 1747.2 127.817 Q1749.4 127.354 1751.49 127.354 Q1757.11 127.354 1759.89 130.271 Q1762.67 133.188 1762.67 139.113 Z" fill="#000000" fill-rule="nonzero" fill-opacity="1" /><path clip-path="url(#clip390)" d="M1771.44 117.887 L1775.7 117.887 L1775.7 153.905 L1771.44 153.905 L1771.44 117.887 Z" fill="#000000" fill-rule="nonzero" fill-opacity="1" /><path clip-path="url(#clip390)" d="M1489.31 209.201 L1611.61 209.201 L1611.61 167.729 L1489.31 167.729 L1489.31 209.201  Z" fill="#e26f46" fill-rule="evenodd" fill-opacity="1"/>
<polyline clip-path="url(#clip390)" style="stroke:#000000; stroke-linecap:round; stroke-linejoin:round; stroke-width:0.8; stroke-opacity:1; fill:none" points="1489.31,209.201 1611.61,209.201 1611.61,167.729 1489.31,167.729 1489.31,209.201 "/>
<path clip-path="url(#clip390)" d="M1636.67 175.028 L1636.67 188.014 L1642.55 188.014 Q1645.82 188.014 1647.6 186.324 Q1649.38 184.634 1649.38 181.509 Q1649.38 178.407 1647.6 176.717 Q1645.82 175.028 1642.55 175.028 L1636.67 175.028 M1632 171.185 L1642.55 171.185 Q1648.36 171.185 1651.33 173.824 Q1654.31 176.44 1654.31 181.509 Q1654.31 186.625 1651.33 189.24 Q1648.36 191.856 1642.55 191.856 L1636.67 191.856 L1636.67 205.745 L1632 205.745 L1632 171.185 Z" fill="#000000" fill-rule="nonzero" fill-opacity="1" /><path clip-path="url(#clip390)" d="M1674.59 183.801 Q1673.87 183.384 1673.02 183.199 Q1672.18 182.99 1671.16 182.99 Q1667.55 182.99 1665.61 185.352 Q1663.69 187.69 1663.69 192.088 L1663.69 205.745 L1659.4 205.745 L1659.4 179.819 L1663.69 179.819 L1663.69 183.847 Q1665.03 181.486 1667.18 180.352 Q1669.33 179.194 1672.41 179.194 Q1672.85 179.194 1673.39 179.264 Q1673.92 179.31 1674.57 179.426 L1674.59 183.801 Z" fill="#000000" fill-rule="nonzero" fill-opacity="1" /><path clip-path="url(#clip390)" d="M1700.19 191.717 L1700.19 193.801 L1680.61 193.801 Q1680.89 198.199 1683.25 200.514 Q1685.63 202.805 1689.87 202.805 Q1692.32 202.805 1694.61 202.203 Q1696.93 201.601 1699.2 200.398 L1699.2 204.426 Q1696.9 205.398 1694.5 205.907 Q1692.09 206.416 1689.61 206.416 Q1683.41 206.416 1679.77 202.805 Q1676.16 199.194 1676.16 193.037 Q1676.16 186.671 1679.59 182.944 Q1683.04 179.194 1688.87 179.194 Q1694.1 179.194 1697.14 182.574 Q1700.19 185.93 1700.19 191.717 M1695.93 190.467 Q1695.89 186.972 1693.96 184.889 Q1692.07 182.805 1688.92 182.805 Q1685.35 182.805 1683.2 184.819 Q1681.07 186.833 1680.75 190.49 L1695.93 190.467 Z" fill="#000000" fill-rule="nonzero" fill-opacity="1" /><path clip-path="url(#clip390)" d="M1724.24 183.754 L1724.24 169.727 L1728.5 169.727 L1728.5 205.745 L1724.24 205.745 L1724.24 201.856 Q1722.9 204.171 1720.84 205.305 Q1718.8 206.416 1715.93 206.416 Q1711.23 206.416 1708.27 202.666 Q1705.33 198.916 1705.33 192.805 Q1705.33 186.694 1708.27 182.944 Q1711.23 179.194 1715.93 179.194 Q1718.8 179.194 1720.84 180.328 Q1722.9 181.44 1724.24 183.754 M1709.73 192.805 Q1709.73 197.504 1711.65 200.189 Q1713.59 202.851 1716.97 202.851 Q1720.35 202.851 1722.3 200.189 Q1724.24 197.504 1724.24 192.805 Q1724.24 188.106 1722.3 185.444 Q1720.35 182.759 1716.97 182.759 Q1713.59 182.759 1711.65 185.444 Q1709.73 188.106 1709.73 192.805 Z" fill="#000000" fill-rule="nonzero" fill-opacity="1" /><path clip-path="url(#clip390)" d="M1737.27 179.819 L1741.53 179.819 L1741.53 205.745 L1737.27 205.745 L1737.27 179.819 M1737.27 169.727 L1741.53 169.727 L1741.53 175.12 L1737.27 175.12 L1737.27 169.727 Z" fill="#000000" fill-rule="nonzero" fill-opacity="1" /><path clip-path="url(#clip390)" d="M1769.1 180.815 L1769.1 184.796 Q1767.3 183.801 1765.47 183.315 Q1763.66 182.805 1761.81 182.805 Q1757.67 182.805 1755.38 185.444 Q1753.08 188.06 1753.08 192.805 Q1753.08 197.551 1755.38 200.189 Q1757.67 202.805 1761.81 202.805 Q1763.66 202.805 1765.47 202.319 Q1767.3 201.81 1769.1 200.814 L1769.1 204.75 Q1767.32 205.583 1765.4 206 Q1763.5 206.416 1761.35 206.416 Q1755.49 206.416 1752.04 202.736 Q1748.59 199.055 1748.59 192.805 Q1748.59 186.463 1752.07 182.828 Q1755.56 179.194 1761.63 179.194 Q1763.59 179.194 1765.47 179.611 Q1767.34 180.004 1769.1 180.815 Z" fill="#000000" fill-rule="nonzero" fill-opacity="1" /><path clip-path="url(#clip390)" d="M1780.72 172.458 L1780.72 179.819 L1789.5 179.819 L1789.5 183.129 L1780.72 183.129 L1780.72 197.203 Q1780.72 200.375 1781.58 201.277 Q1782.46 202.18 1785.12 202.18 L1789.5 202.18 L1789.5 205.745 L1785.12 205.745 Q1780.19 205.745 1778.32 203.916 Q1776.44 202.064 1776.44 197.203 L1776.44 183.129 L1773.32 183.129 L1773.32 179.819 L1776.44 179.819 L1776.44 172.458 L1780.72 172.458 Z" fill="#000000" fill-rule="nonzero" fill-opacity="1" /><path clip-path="url(#clip390)" d="M1489.31 261.041 L1611.61 261.041 L1611.61 219.569 L1489.31 219.569 L1489.31 261.041  Z" fill="#3da44d" fill-rule="evenodd" fill-opacity="1"/>
<polyline clip-path="url(#clip390)" style="stroke:#000000; stroke-linecap:round; stroke-linejoin:round; stroke-width:0.8; stroke-opacity:1; fill:none" points="1489.31,261.041 1611.61,261.041 1611.61,219.569 1489.31,219.569 1489.31,261.041 "/>
<path clip-path="url(#clip390)" d="M1659.87 225.687 L1659.87 230.618 Q1657.51 228.418 1654.82 227.331 Q1652.16 226.243 1649.15 226.243 Q1643.22 226.243 1640.08 229.877 Q1636.93 233.488 1636.93 240.34 Q1636.93 247.168 1640.08 250.803 Q1643.22 254.414 1649.15 254.414 Q1652.16 254.414 1654.82 253.326 Q1657.51 252.238 1659.87 250.039 L1659.87 254.923 Q1657.41 256.59 1654.66 257.423 Q1651.93 258.256 1648.87 258.256 Q1641.02 258.256 1636.51 253.465 Q1632 248.65 1632 240.34 Q1632 232.006 1636.51 227.215 Q1641.02 222.4 1648.87 222.4 Q1651.97 222.4 1654.71 223.233 Q1657.46 224.043 1659.87 225.687 Z" fill="#000000" fill-rule="nonzero" fill-opacity="1" /><path clip-path="url(#clip390)" d="M1676.95 234.645 Q1673.52 234.645 1671.53 237.33 Q1669.54 239.992 1669.54 244.645 Q1669.54 249.298 1671.51 251.983 Q1673.5 254.645 1676.95 254.645 Q1680.35 254.645 1682.34 251.96 Q1684.33 249.275 1684.33 244.645 Q1684.33 240.039 1682.34 237.354 Q1680.35 234.645 1676.95 234.645 M1676.95 231.034 Q1682.51 231.034 1685.68 234.645 Q1688.85 238.256 1688.85 244.645 Q1688.85 251.011 1685.68 254.645 Q1682.51 258.256 1676.95 258.256 Q1671.37 258.256 1668.2 254.645 Q1665.05 251.011 1665.05 244.645 Q1665.05 238.256 1668.2 234.645 Q1671.37 231.034 1676.95 231.034 Z" fill="#000000" fill-rule="nonzero" fill-opacity="1" /><path clip-path="url(#clip390)" d="M1695.47 247.354 L1695.47 231.659 L1699.73 231.659 L1699.73 247.192 Q1699.73 250.872 1701.16 252.724 Q1702.6 254.553 1705.47 254.553 Q1708.92 254.553 1710.91 252.354 Q1712.92 250.154 1712.92 246.358 L1712.92 231.659 L1717.18 231.659 L1717.18 257.585 L1712.92 257.585 L1712.92 253.604 Q1711.37 255.965 1709.31 257.122 Q1707.27 258.256 1704.57 258.256 Q1700.1 258.256 1697.78 255.479 Q1695.47 252.701 1695.47 247.354 M1706.19 231.034 L1706.19 231.034 Z" fill="#000000" fill-rule="nonzero" fill-opacity="1" /><path clip-path="url(#clip390)" d="M1747.51 241.937 L1747.51 257.585 L1743.25 257.585 L1743.25 242.076 Q1743.25 238.395 1741.81 236.567 Q1740.38 234.738 1737.51 234.738 Q1734.06 234.738 1732.07 236.937 Q1730.08 239.136 1730.08 242.932 L1730.08 257.585 L1725.79 257.585 L1725.79 231.659 L1730.08 231.659 L1730.08 235.687 Q1731.6 233.349 1733.66 232.192 Q1735.75 231.034 1738.45 231.034 Q1742.92 231.034 1745.21 233.812 Q1747.51 236.567 1747.51 241.937 Z" fill="#000000" fill-rule="nonzero" fill-opacity="1" /><path clip-path="url(#clip390)" d="M1760.21 224.298 L1760.21 231.659 L1768.99 231.659 L1768.99 234.969 L1760.21 234.969 L1760.21 249.043 Q1760.21 252.215 1761.07 253.117 Q1761.95 254.02 1764.61 254.02 L1768.99 254.02 L1768.99 257.585 L1764.61 257.585 Q1759.68 257.585 1757.81 255.756 Q1755.93 253.904 1755.93 249.043 L1755.93 234.969 L1752.81 234.969 L1752.81 231.659 L1755.93 231.659 L1755.93 224.298 L1760.21 224.298 Z" fill="#000000" fill-rule="nonzero" fill-opacity="1" /><path clip-path="url(#clip390)" d="M1796.76 243.557 L1796.76 245.641 L1777.18 245.641 Q1777.46 250.039 1779.82 252.354 Q1782.2 254.645 1786.44 254.645 Q1788.89 254.645 1791.19 254.043 Q1793.5 253.441 1795.77 252.238 L1795.77 256.266 Q1793.48 257.238 1791.07 257.747 Q1788.66 258.256 1786.19 258.256 Q1779.98 258.256 1776.35 254.645 Q1772.74 251.034 1772.74 244.877 Q1772.74 238.511 1776.16 234.784 Q1779.61 231.034 1785.45 231.034 Q1790.68 231.034 1793.71 234.414 Q1796.76 237.77 1796.76 243.557 M1792.51 242.307 Q1792.46 238.812 1790.54 236.729 Q1788.64 234.645 1785.49 234.645 Q1781.93 234.645 1779.77 236.659 Q1777.64 238.673 1777.32 242.33 L1792.51 242.307 Z" fill="#000000" fill-rule="nonzero" fill-opacity="1" /><path clip-path="url(#clip390)" d="M1818.78 235.641 Q1818.06 235.224 1817.2 235.039 Q1816.37 234.83 1815.35 234.83 Q1811.74 234.83 1809.8 237.192 Q1807.88 239.53 1807.88 243.928 L1807.88 257.585 L1803.59 257.585 L1803.59 231.659 L1807.88 231.659 L1807.88 235.687 Q1809.22 233.326 1811.37 232.192 Q1813.52 231.034 1816.6 231.034 Q1817.04 231.034 1817.57 231.104 Q1818.11 231.15 1818.76 231.266 L1818.78 235.641 Z" fill="#000000" fill-rule="nonzero" fill-opacity="1" /><path clip-path="url(#clip390)" d="M1823.43 223.025 L1843.29 223.025 L1843.29 226.96 L1828.11 226.96 L1828.11 237.145 L1841.81 237.145 L1841.81 241.08 L1828.11 241.08 L1828.11 257.585 L1823.43 257.585 L1823.43 223.025 Z" fill="#000000" fill-rule="nonzero" fill-opacity="1" /><path clip-path="url(#clip390)" d="M1857.94 244.553 Q1852.78 244.553 1850.79 245.733 Q1848.8 246.914 1848.8 249.761 Q1848.8 252.029 1850.28 253.372 Q1851.79 254.691 1854.36 254.691 Q1857.9 254.691 1860.03 252.191 Q1862.18 249.668 1862.18 245.502 L1862.18 244.553 L1857.94 244.553 M1866.44 242.793 L1866.44 257.585 L1862.18 257.585 L1862.18 253.65 Q1860.72 256.011 1858.55 257.145 Q1856.37 258.256 1853.22 258.256 Q1849.24 258.256 1846.88 256.034 Q1844.54 253.789 1844.54 250.039 Q1844.54 245.664 1847.46 243.442 Q1850.4 241.219 1856.21 241.219 L1862.18 241.219 L1862.18 240.803 Q1862.18 237.863 1860.24 236.266 Q1858.32 234.645 1854.82 234.645 Q1852.6 234.645 1850.49 235.178 Q1848.38 235.71 1846.44 236.775 L1846.44 232.84 Q1848.78 231.937 1850.98 231.497 Q1853.18 231.034 1855.26 231.034 Q1860.88 231.034 1863.66 233.951 Q1866.44 236.868 1866.44 242.793 Z" fill="#000000" fill-rule="nonzero" fill-opacity="1" /><path clip-path="url(#clip390)" d="M1893.87 232.655 L1893.87 236.636 Q1892.07 235.641 1890.24 235.155 Q1888.43 234.645 1886.58 234.645 Q1882.44 234.645 1880.14 237.284 Q1877.85 239.9 1877.85 244.645 Q1877.85 249.391 1880.14 252.029 Q1882.44 254.645 1886.58 254.645 Q1888.43 254.645 1890.24 254.159 Q1892.07 253.65 1893.87 252.654 L1893.87 256.59 Q1892.09 257.423 1890.17 257.84 Q1888.27 258.256 1886.12 258.256 Q1880.26 258.256 1876.81 254.576 Q1873.36 250.895 1873.36 244.645 Q1873.36 238.303 1876.83 234.668 Q1880.33 231.034 1886.39 231.034 Q1888.36 231.034 1890.24 231.451 Q1892.11 231.844 1893.87 232.655 Z" fill="#000000" fill-rule="nonzero" fill-opacity="1" /><path clip-path="url(#clip390)" d="M1905.49 224.298 L1905.49 231.659 L1914.26 231.659 L1914.26 234.969 L1905.49 234.969 L1905.49 249.043 Q1905.49 252.215 1906.35 253.117 Q1907.23 254.02 1909.89 254.02 L1914.26 254.02 L1914.26 257.585 L1909.89 257.585 Q1904.96 257.585 1903.08 255.756 Q1901.21 253.904 1901.21 249.043 L1901.21 234.969 L1898.08 234.969 L1898.08 231.659 L1901.21 231.659 L1901.21 224.298 L1905.49 224.298 Z" fill="#000000" fill-rule="nonzero" fill-opacity="1" /><path clip-path="url(#clip390)" d="M1919.43 247.354 L1919.43 231.659 L1923.69 231.659 L1923.69 247.192 Q1923.69 250.872 1925.12 252.724 Q1926.56 254.553 1929.43 254.553 Q1932.88 254.553 1934.87 252.354 Q1936.88 250.154 1936.88 246.358 L1936.88 231.659 L1941.14 231.659 L1941.14 257.585 L1936.88 257.585 L1936.88 253.604 Q1935.33 255.965 1933.27 257.122 Q1931.23 258.256 1928.52 258.256 Q1924.06 258.256 1921.74 255.479 Q1919.43 252.701 1919.43 247.354 M1930.14 231.034 L1930.14 231.034 Z" fill="#000000" fill-rule="nonzero" fill-opacity="1" /><path clip-path="url(#clip390)" d="M1961.69 244.553 Q1956.53 244.553 1954.54 245.733 Q1952.55 246.914 1952.55 249.761 Q1952.55 252.029 1954.03 253.372 Q1955.54 254.691 1958.11 254.691 Q1961.65 254.691 1963.78 252.191 Q1965.93 249.668 1965.93 245.502 L1965.93 244.553 L1961.69 244.553 M1970.19 242.793 L1970.19 257.585 L1965.93 257.585 L1965.93 253.65 Q1964.47 256.011 1962.3 257.145 Q1960.12 258.256 1956.97 258.256 Q1952.99 258.256 1950.63 256.034 Q1948.29 253.789 1948.29 250.039 Q1948.29 245.664 1951.21 243.442 Q1954.15 241.219 1959.96 241.219 L1965.93 241.219 L1965.93 240.803 Q1965.93 237.863 1963.99 236.266 Q1962.06 234.645 1958.57 234.645 Q1956.35 234.645 1954.24 235.178 Q1952.13 235.71 1950.19 236.775 L1950.19 232.84 Q1952.53 231.937 1954.73 231.497 Q1956.93 231.034 1959.01 231.034 Q1964.63 231.034 1967.41 233.951 Q1970.19 236.868 1970.19 242.793 Z" fill="#000000" fill-rule="nonzero" fill-opacity="1" /><path clip-path="url(#clip390)" d="M1978.96 221.567 L1983.22 221.567 L1983.22 257.585 L1978.96 257.585 L1978.96 221.567 Z" fill="#000000" fill-rule="nonzero" fill-opacity="1" /></svg>
