<?xml version="1.0" encoding="utf-8"?>
<svg xmlns="http://www.w3.org/2000/svg" xmlns:xlink="http://www.w3.org/1999/xlink" width="528" height="336" viewBox="0 0 2112 1344">
<defs>
  <clipPath id="clip330">
    <rect x="0" y="0" width="2112" height="1344"/>
  </clipPath>
</defs>
<path clip-path="url(#clip330)" d="M0 1344 L2112 1344 L2112 0 L0 0  Z" fill="#ffffff" fill-rule="evenodd" fill-opacity="1"/>
<defs>
  <clipPath id="clip331">
    <rect x="422" y="0" width="1479" height="1344"/>
  </clipPath>
</defs>
<path clip-path="url(#clip330)" d="M230.243 1173.47 L2064.76 1173.47 L2064.76 47.2441 L230.243 47.2441  Z" fill="#ffffff" fill-rule="evenodd" fill-opacity="1"/>
<defs>
  <clipPath id="clip332">
    <rect x="230" y="47" width="1836" height="1127"/>
  </clipPath>
</defs>
<polyline clip-path="url(#clip332)" style="stroke:#000000; stroke-linecap:round; stroke-linejoin:round; stroke-width:2; stroke-opacity:0.1; fill:none" points="445.415,1173.47 445.415,47.2441 "/>
<polyline clip-path="url(#clip332)" style="stroke:#000000; stroke-linecap:round; stroke-linejoin:round; stroke-width:2; stroke-opacity:0.1; fill:none" points="796.457,1173.47 796.457,47.2441 "/>
<polyline clip-path="url(#clip332)" style="stroke:#000000; stroke-linecap:round; stroke-linejoin:round; stroke-width:2; stroke-opacity:0.1; fill:none" points="1147.5,1173.47 1147.5,47.2441 "/>
<polyline clip-path="url(#clip332)" style="stroke:#000000; stroke-linecap:round; stroke-linejoin:round; stroke-width:2; stroke-opacity:0.1; fill:none" points="1498.54,1173.47 1498.54,47.2441 "/>
<polyline clip-path="url(#clip332)" style="stroke:#000000; stroke-linecap:round; stroke-linejoin:round; stroke-width:2; stroke-opacity:0.1; fill:none" points="1849.58,1173.47 1849.58,47.2441 "/>
<polyline clip-path="url(#clip330)" style="stroke:#000000; stroke-linecap:round; stroke-linejoin:round; stroke-width:4; stroke-opacity:1; fill:none" points="230.243,1173.47 2064.76,1173.47 "/>
<polyline clip-path="url(#clip330)" style="stroke:#000000; stroke-linecap:round; stroke-linejoin:round; stroke-width:4; stroke-opacity:1; fill:none" points="445.415,1173.47 445.415,1154.57 "/>
<polyline clip-path="url(#clip330)" style="stroke:#000000; stroke-linecap:round; stroke-linejoin:round; stroke-width:4; stroke-opacity:1; fill:none" points="796.457,1173.47 796.457,1154.57 "/>
<polyline clip-path="url(#clip330)" style="stroke:#000000; stroke-linecap:round; stroke-linejoin:round; stroke-width:4; stroke-opacity:1; fill:none" points="1147.5,1173.47 1147.5,1154.57 "/>
<polyline clip-path="url(#clip330)" style="stroke:#000000; stroke-linecap:round; stroke-linejoin:round; stroke-width:4; stroke-opacity:1; fill:none" points="1498.54,1173.47 1498.54,1154.57 "/>
<polyline clip-path="url(#clip330)" style="stroke:#000000; stroke-linecap:round; stroke-linejoin:round; stroke-width:4; stroke-opacity:1; fill:none" points="1849.58,1173.47 1849.58,1154.57 "/>
<path clip-path="url(#clip330)" d="M445.415 1202.09 Q441.804 1202.09 439.975 1205.65 Q438.17 1209.19 438.17 1216.32 Q438.17 1223.43 439.975 1226.99 Q441.804 1230.53 445.415 1230.53 Q449.049 1230.53 450.855 1226.99 Q452.684 1223.43 452.684 1216.32 Q452.684 1209.19 450.855 1205.65 Q449.049 1202.09 445.415 1202.09 M445.415 1198.38 Q451.225 1198.38 454.281 1202.99 Q457.36 1207.57 457.36 1216.32 Q457.36 1225.05 454.281 1229.65 Q451.225 1234.24 445.415 1234.24 Q439.605 1234.24 436.526 1229.65 Q433.471 1225.05 433.471 1216.32 Q433.471 1207.57 436.526 1202.99 Q439.605 1198.38 445.415 1198.38 Z" fill="#000000" fill-rule="nonzero" fill-opacity="1" /><path clip-path="url(#clip330)" d="M786.839 1229.63 L794.478 1229.63 L794.478 1203.27 L786.168 1204.93 L786.168 1200.67 L794.432 1199.01 L799.108 1199.01 L799.108 1229.63 L806.747 1229.63 L806.747 1233.57 L786.839 1233.57 L786.839 1229.63 Z" fill="#000000" fill-rule="nonzero" fill-opacity="1" /><path clip-path="url(#clip330)" d="M1142.15 1229.63 L1158.47 1229.63 L1158.47 1233.57 L1136.53 1233.57 L1136.53 1229.63 Q1139.19 1226.88 1143.77 1222.25 Q1148.38 1217.59 1149.56 1216.25 Q1151.8 1213.73 1152.68 1211.99 Q1153.59 1210.23 1153.59 1208.54 Q1153.59 1205.79 1151.64 1204.05 Q1149.72 1202.32 1146.62 1202.32 Q1144.42 1202.32 1141.97 1203.08 Q1139.54 1203.84 1136.76 1205.4 L1136.76 1200.67 Q1139.58 1199.54 1142.04 1198.96 Q1144.49 1198.38 1146.53 1198.38 Q1151.9 1198.38 1155.09 1201.07 Q1158.29 1203.75 1158.29 1208.24 Q1158.29 1210.37 1157.48 1212.29 Q1156.69 1214.19 1154.58 1216.78 Q1154 1217.46 1150.9 1220.67 Q1147.8 1223.87 1142.15 1229.63 Z" fill="#000000" fill-rule="nonzero" fill-opacity="1" /><path clip-path="url(#clip330)" d="M1502.79 1214.93 Q1506.15 1215.65 1508.02 1217.92 Q1509.92 1220.19 1509.92 1223.52 Q1509.92 1228.64 1506.4 1231.44 Q1502.88 1234.24 1496.4 1234.24 Q1494.22 1234.24 1491.91 1233.8 Q1489.62 1233.38 1487.16 1232.53 L1487.16 1228.01 Q1489.11 1229.15 1491.42 1229.72 Q1493.74 1230.3 1496.26 1230.3 Q1500.66 1230.3 1502.95 1228.57 Q1505.27 1226.83 1505.27 1223.52 Q1505.27 1220.46 1503.11 1218.75 Q1500.98 1217.02 1497.16 1217.02 L1493.14 1217.02 L1493.14 1213.17 L1497.35 1213.17 Q1500.8 1213.17 1502.63 1211.81 Q1504.46 1210.42 1504.46 1207.83 Q1504.46 1205.16 1502.56 1203.75 Q1500.68 1202.32 1497.16 1202.32 Q1495.24 1202.32 1493.04 1202.73 Q1490.84 1203.15 1488.21 1204.03 L1488.21 1199.86 Q1490.87 1199.12 1493.18 1198.75 Q1495.52 1198.38 1497.58 1198.38 Q1502.9 1198.38 1506.01 1200.81 Q1509.11 1203.22 1509.11 1207.34 Q1509.11 1210.21 1507.47 1212.2 Q1505.82 1214.17 1502.79 1214.93 Z" fill="#000000" fill-rule="nonzero" fill-opacity="1" /><path clip-path="url(#clip330)" d="M1852.59 1203.08 L1840.79 1221.53 L1852.59 1221.53 L1852.59 1203.08 M1851.37 1199.01 L1857.25 1199.01 L1857.25 1221.53 L1862.18 1221.53 L1862.18 1225.42 L1857.25 1225.42 L1857.25 1233.57 L1852.59 1233.57 L1852.59 1225.42 L1836.99 1225.42 L1836.99 1220.9 L1851.37 1199.01 Z" fill="#000000" fill-rule="nonzero" fill-opacity="1" /><path clip-path="url(#clip330)" d="M1061.18 1278.37 L1067.39 1278.37 L1078.53 1308.29 L1089.67 1278.37 L1095.87 1278.37 L1082.51 1314.01 L1074.55 1314.01 L1061.18 1278.37 Z" fill="#000000" fill-rule="nonzero" fill-opacity="1" /><path clip-path="url(#clip330)" d="M1120.16 1296.1 Q1113.06 1296.1 1110.32 1297.72 Q1107.59 1299.34 1107.59 1303.26 Q1107.59 1306.38 1109.62 1308.22 Q1111.69 1310.04 1115.23 1310.04 Q1120.1 1310.04 1123.02 1306.6 Q1125.98 1303.13 1125.98 1297.4 L1125.98 1296.1 L1120.16 1296.1 M1131.84 1293.68 L1131.84 1314.01 L1125.98 1314.01 L1125.98 1308.6 Q1123.98 1311.85 1120.99 1313.41 Q1117.99 1314.94 1113.67 1314.94 Q1108.19 1314.94 1104.94 1311.88 Q1101.73 1308.79 1101.73 1303.64 Q1101.73 1297.62 1105.74 1294.57 Q1109.78 1291.51 1117.77 1291.51 L1125.98 1291.51 L1125.98 1290.94 Q1125.98 1286.9 1123.31 1284.7 Q1120.67 1282.47 1115.86 1282.47 Q1112.81 1282.47 1109.91 1283.2 Q1107.01 1283.94 1104.34 1285.4 L1104.34 1279.99 Q1107.55 1278.75 1110.58 1278.14 Q1113.6 1277.51 1116.47 1277.51 Q1124.2 1277.51 1128.02 1281.52 Q1131.84 1285.53 1131.84 1293.68 Z" fill="#000000" fill-rule="nonzero" fill-opacity="1" /><path clip-path="url(#clip330)" d="M1143.9 1264.49 L1149.76 1264.49 L1149.76 1314.01 L1143.9 1314.01 L1143.9 1264.49 Z" fill="#000000" fill-rule="nonzero" fill-opacity="1" /><path clip-path="url(#clip330)" d="M1161.41 1299.95 L1161.41 1278.37 L1167.26 1278.37 L1167.26 1299.72 Q1167.26 1304.78 1169.24 1307.33 Q1171.21 1309.85 1175.16 1309.85 Q1179.9 1309.85 1182.64 1306.82 Q1185.41 1303.8 1185.41 1298.58 L1185.41 1278.37 L1191.26 1278.37 L1191.26 1314.01 L1185.41 1314.01 L1185.41 1308.54 Q1183.27 1311.79 1180.44 1313.38 Q1177.64 1314.94 1173.92 1314.94 Q1167.77 1314.94 1164.59 1311.12 Q1161.41 1307.3 1161.41 1299.95 M1176.15 1277.51 L1176.15 1277.51 Z" fill="#000000" fill-rule="nonzero" fill-opacity="1" /><path clip-path="url(#clip330)" d="M1233.82 1294.73 L1233.82 1297.59 L1206.89 1297.59 Q1207.27 1303.64 1210.52 1306.82 Q1213.8 1309.97 1219.62 1309.97 Q1223 1309.97 1226.15 1309.14 Q1229.33 1308.32 1232.45 1306.66 L1232.45 1312.2 Q1229.3 1313.54 1225.99 1314.24 Q1222.68 1314.94 1219.27 1314.94 Q1210.74 1314.94 1205.75 1309.97 Q1200.78 1305.01 1200.78 1296.54 Q1200.78 1287.79 1205.49 1282.66 Q1210.23 1277.51 1218.25 1277.51 Q1225.45 1277.51 1229.62 1282.15 Q1233.82 1286.77 1233.82 1294.73 M1227.96 1293.01 Q1227.9 1288.2 1225.26 1285.34 Q1222.65 1282.47 1218.32 1282.47 Q1213.42 1282.47 1210.46 1285.24 Q1207.53 1288.01 1207.08 1293.04 L1227.96 1293.01 Z" fill="#000000" fill-rule="nonzero" fill-opacity="1" /><polyline clip-path="url(#clip332)" style="stroke:#000000; stroke-linecap:round; stroke-linejoin:round; stroke-width:2; stroke-opacity:0.1; fill:none" points="230.243,1173.47 2064.76,1173.47 "/>
<polyline clip-path="url(#clip332)" style="stroke:#000000; stroke-linecap:round; stroke-linejoin:round; stroke-width:2; stroke-opacity:0.1; fill:none" points="230.243,960.573 2064.76,960.573 "/>
<polyline clip-path="url(#clip332)" style="stroke:#000000; stroke-linecap:round; stroke-linejoin:round; stroke-width:2; stroke-opacity:0.1; fill:none" points="230.243,747.676 2064.76,747.676 "/>
<polyline clip-path="url(#clip332)" style="stroke:#000000; stroke-linecap:round; stroke-linejoin:round; stroke-width:2; stroke-opacity:0.1; fill:none" points="230.243,534.779 2064.76,534.779 "/>
<polyline clip-path="url(#clip332)" style="stroke:#000000; stroke-linecap:round; stroke-linejoin:round; stroke-width:2; stroke-opacity:0.1; fill:none" points="230.243,321.882 2064.76,321.882 "/>
<polyline clip-path="url(#clip332)" style="stroke:#000000; stroke-linecap:round; stroke-linejoin:round; stroke-width:2; stroke-opacity:0.1; fill:none" points="230.243,108.984 2064.76,108.984 "/>
<polyline clip-path="url(#clip330)" style="stroke:#000000; stroke-linecap:round; stroke-linejoin:round; stroke-width:4; stroke-opacity:1; fill:none" points="230.243,1173.47 230.243,47.2441 "/>
<polyline clip-path="url(#clip330)" style="stroke:#000000; stroke-linecap:round; stroke-linejoin:round; stroke-width:4; stroke-opacity:1; fill:none" points="230.243,1173.47 249.14,1173.47 "/>
<polyline clip-path="url(#clip330)" style="stroke:#000000; stroke-linecap:round; stroke-linejoin:round; stroke-width:4; stroke-opacity:1; fill:none" points="230.243,960.573 249.14,960.573 "/>
<polyline clip-path="url(#clip330)" style="stroke:#000000; stroke-linecap:round; stroke-linejoin:round; stroke-width:4; stroke-opacity:1; fill:none" points="230.243,747.676 249.14,747.676 "/>
<polyline clip-path="url(#clip330)" style="stroke:#000000; stroke-linecap:round; stroke-linejoin:round; stroke-width:4; stroke-opacity:1; fill:none" points="230.243,534.779 249.14,534.779 "/>
<polyline clip-path="url(#clip330)" style="stroke:#000000; stroke-linecap:round; stroke-linejoin:round; stroke-width:4; stroke-opacity:1; fill:none" points="230.243,321.882 249.14,321.882 "/>
<polyline clip-path="url(#clip330)" style="stroke:#000000; stroke-linecap:round; stroke-linejoin:round; stroke-width:4; stroke-opacity:1; fill:none" points="230.243,108.984 249.14,108.984 "/>
<path clip-path="url(#clip330)" d="M186.618 1159.27 Q183.007 1159.27 181.179 1162.83 Q179.373 1166.38 179.373 1173.51 Q179.373 1180.61 181.179 1184.18 Q183.007 1187.72 186.618 1187.72 Q190.253 1187.72 192.058 1184.18 Q193.887 1180.61 193.887 1173.51 Q193.887 1166.38 192.058 1162.83 Q190.253 1159.27 186.618 1159.27 M186.618 1155.57 Q192.429 1155.57 195.484 1160.17 Q198.563 1164.76 198.563 1173.51 Q198.563 1182.23 195.484 1186.84 Q192.429 1191.42 186.618 1191.42 Q180.808 1191.42 177.73 1186.84 Q174.674 1182.23 174.674 1173.51 Q174.674 1164.76 177.73 1160.17 Q180.808 1155.57 186.618 1155.57 Z" fill="#000000" fill-rule="nonzero" fill-opacity="1" /><path clip-path="url(#clip330)" d="M117.105 973.918 L124.744 973.918 L124.744 947.553 L116.434 949.219 L116.434 944.96 L124.698 943.293 L129.373 943.293 L129.373 973.918 L137.012 973.918 L137.012 977.853 L117.105 977.853 L117.105 973.918 Z" fill="#000000" fill-rule="nonzero" fill-opacity="1" /><path clip-path="url(#clip330)" d="M156.457 946.372 Q152.846 946.372 151.017 949.937 Q149.211 953.479 149.211 960.608 Q149.211 967.715 151.017 971.279 Q152.846 974.821 156.457 974.821 Q160.091 974.821 161.896 971.279 Q163.725 967.715 163.725 960.608 Q163.725 953.479 161.896 949.937 Q160.091 946.372 156.457 946.372 M156.457 942.668 Q162.267 942.668 165.322 947.275 Q168.401 951.858 168.401 960.608 Q168.401 969.335 165.322 973.941 Q162.267 978.525 156.457 978.525 Q150.646 978.525 147.568 973.941 Q144.512 969.335 144.512 960.608 Q144.512 951.858 147.568 947.275 Q150.646 942.668 156.457 942.668 Z" fill="#000000" fill-rule="nonzero" fill-opacity="1" /><path clip-path="url(#clip330)" d="M186.618 946.372 Q183.007 946.372 181.179 949.937 Q179.373 953.479 179.373 960.608 Q179.373 967.715 181.179 971.279 Q183.007 974.821 186.618 974.821 Q190.253 974.821 192.058 971.279 Q193.887 967.715 193.887 960.608 Q193.887 953.479 192.058 949.937 Q190.253 946.372 186.618 946.372 M186.618 942.668 Q192.429 942.668 195.484 947.275 Q198.563 951.858 198.563 960.608 Q198.563 969.335 195.484 973.941 Q192.429 978.525 186.618 978.525 Q180.808 978.525 177.73 973.941 Q174.674 969.335 174.674 960.608 Q174.674 951.858 177.73 947.275 Q180.808 942.668 186.618 942.668 Z" fill="#000000" fill-rule="nonzero" fill-opacity="1" /><path clip-path="url(#clip330)" d="M120.323 761.021 L136.642 761.021 L136.642 764.956 L114.698 764.956 L114.698 761.021 Q117.36 758.266 121.943 753.637 Q126.549 748.984 127.73 747.641 Q129.975 745.118 130.855 743.382 Q131.758 741.623 131.758 739.933 Q131.758 737.179 129.813 735.442 Q127.892 733.706 124.79 733.706 Q122.591 733.706 120.137 734.47 Q117.707 735.234 114.929 736.785 L114.929 732.063 Q117.753 730.929 120.207 730.35 Q122.66 729.771 124.698 729.771 Q130.068 729.771 133.262 732.456 Q136.457 735.142 136.457 739.632 Q136.457 741.762 135.647 743.683 Q134.859 745.581 132.753 748.174 Q132.174 748.845 129.072 752.063 Q125.971 755.257 120.323 761.021 Z" fill="#000000" fill-rule="nonzero" fill-opacity="1" /><path clip-path="url(#clip330)" d="M156.457 733.475 Q152.846 733.475 151.017 737.04 Q149.211 740.581 149.211 747.711 Q149.211 754.817 151.017 758.382 Q152.846 761.924 156.457 761.924 Q160.091 761.924 161.896 758.382 Q163.725 754.817 163.725 747.711 Q163.725 740.581 161.896 737.04 Q160.091 733.475 156.457 733.475 M156.457 729.771 Q162.267 729.771 165.322 734.378 Q168.401 738.961 168.401 747.711 Q168.401 756.438 165.322 761.044 Q162.267 765.627 156.457 765.627 Q150.646 765.627 147.568 761.044 Q144.512 756.438 144.512 747.711 Q144.512 738.961 147.568 734.378 Q150.646 729.771 156.457 729.771 Z" fill="#000000" fill-rule="nonzero" fill-opacity="1" /><path clip-path="url(#clip330)" d="M186.618 733.475 Q183.007 733.475 181.179 737.04 Q179.373 740.581 179.373 747.711 Q179.373 754.817 181.179 758.382 Q183.007 761.924 186.618 761.924 Q190.253 761.924 192.058 758.382 Q193.887 754.817 193.887 747.711 Q193.887 740.581 192.058 737.04 Q190.253 733.475 186.618 733.475 M186.618 729.771 Q192.429 729.771 195.484 734.378 Q198.563 738.961 198.563 747.711 Q198.563 756.438 195.484 761.044 Q192.429 765.627 186.618 765.627 Q180.808 765.627 177.73 761.044 Q174.674 756.438 174.674 747.711 Q174.674 738.961 177.73 734.378 Q180.808 729.771 186.618 729.771 Z" fill="#000000" fill-rule="nonzero" fill-opacity="1" /><path clip-path="url(#clip330)" d="M130.461 533.425 Q133.818 534.142 135.693 536.411 Q137.591 538.679 137.591 542.013 Q137.591 547.128 134.072 549.929 Q130.554 552.73 124.073 552.73 Q121.897 552.73 119.582 552.29 Q117.29 551.874 114.836 551.017 L114.836 546.503 Q116.781 547.638 119.096 548.216 Q121.41 548.795 123.934 548.795 Q128.332 548.795 130.623 547.059 Q132.938 545.323 132.938 542.013 Q132.938 538.957 130.785 537.244 Q128.656 535.508 124.836 535.508 L120.809 535.508 L120.809 531.665 L125.022 531.665 Q128.471 531.665 130.299 530.3 Q132.128 528.911 132.128 526.318 Q132.128 523.656 130.23 522.244 Q128.355 520.809 124.836 520.809 Q122.915 520.809 120.716 521.226 Q118.517 521.642 115.878 522.522 L115.878 518.355 Q118.54 517.615 120.855 517.244 Q123.193 516.874 125.253 516.874 Q130.577 516.874 133.679 519.304 Q136.781 521.712 136.781 525.832 Q136.781 528.703 135.137 530.693 Q133.494 532.661 130.461 533.425 Z" fill="#000000" fill-rule="nonzero" fill-opacity="1" /><path clip-path="url(#clip330)" d="M156.457 520.578 Q152.846 520.578 151.017 524.142 Q149.211 527.684 149.211 534.814 Q149.211 541.92 151.017 545.485 Q152.846 549.026 156.457 549.026 Q160.091 549.026 161.896 545.485 Q163.725 541.92 163.725 534.814 Q163.725 527.684 161.896 524.142 Q160.091 520.578 156.457 520.578 M156.457 516.874 Q162.267 516.874 165.322 521.48 Q168.401 526.064 168.401 534.814 Q168.401 543.54 165.322 548.147 Q162.267 552.73 156.457 552.73 Q150.646 552.73 147.568 548.147 Q144.512 543.54 144.512 534.814 Q144.512 526.064 147.568 521.48 Q150.646 516.874 156.457 516.874 Z" fill="#000000" fill-rule="nonzero" fill-opacity="1" /><path clip-path="url(#clip330)" d="M186.618 520.578 Q183.007 520.578 181.179 524.142 Q179.373 527.684 179.373 534.814 Q179.373 541.92 181.179 545.485 Q183.007 549.026 186.618 549.026 Q190.253 549.026 192.058 545.485 Q193.887 541.92 193.887 534.814 Q193.887 527.684 192.058 524.142 Q190.253 520.578 186.618 520.578 M186.618 516.874 Q192.429 516.874 195.484 521.48 Q198.563 526.064 198.563 534.814 Q198.563 543.54 195.484 548.147 Q192.429 552.73 186.618 552.73 Q180.808 552.73 177.73 548.147 Q174.674 543.54 174.674 534.814 Q174.674 526.064 177.73 521.48 Q180.808 516.874 186.618 516.874 Z" fill="#000000" fill-rule="nonzero" fill-opacity="1" /><path clip-path="url(#clip330)" d="M129.142 308.676 L117.336 327.125 L129.142 327.125 L129.142 308.676 M127.915 304.602 L133.795 304.602 L133.795 327.125 L138.725 327.125 L138.725 331.013 L133.795 331.013 L133.795 339.162 L129.142 339.162 L129.142 331.013 L113.54 331.013 L113.54 326.5 L127.915 304.602 Z" fill="#000000" fill-rule="nonzero" fill-opacity="1" /><path clip-path="url(#clip330)" d="M156.457 307.68 Q152.846 307.68 151.017 311.245 Q149.211 314.787 149.211 321.916 Q149.211 329.023 151.017 332.588 Q152.846 336.129 156.457 336.129 Q160.091 336.129 161.896 332.588 Q163.725 329.023 163.725 321.916 Q163.725 314.787 161.896 311.245 Q160.091 307.68 156.457 307.68 M156.457 303.977 Q162.267 303.977 165.322 308.583 Q168.401 313.166 168.401 321.916 Q168.401 330.643 165.322 335.25 Q162.267 339.833 156.457 339.833 Q150.646 339.833 147.568 335.25 Q144.512 330.643 144.512 321.916 Q144.512 313.166 147.568 308.583 Q150.646 303.977 156.457 303.977 Z" fill="#000000" fill-rule="nonzero" fill-opacity="1" /><path clip-path="url(#clip330)" d="M186.618 307.68 Q183.007 307.68 181.179 311.245 Q179.373 314.787 179.373 321.916 Q179.373 329.023 181.179 332.588 Q183.007 336.129 186.618 336.129 Q190.253 336.129 192.058 332.588 Q193.887 329.023 193.887 321.916 Q193.887 314.787 192.058 311.245 Q190.253 307.68 186.618 307.68 M186.618 303.977 Q192.429 303.977 195.484 308.583 Q198.563 313.166 198.563 321.916 Q198.563 330.643 195.484 335.25 Q192.429 339.833 186.618 339.833 Q180.808 339.833 177.73 335.25 Q174.674 330.643 174.674 321.916 Q174.674 313.166 177.73 308.583 Q180.808 303.977 186.618 303.977 Z" fill="#000000" fill-rule="nonzero" fill-opacity="1" /><path clip-path="url(#clip330)" d="M116.341 91.7043 L134.697 91.7043 L134.697 95.6395 L120.623 95.6395 L120.623 104.112 Q121.642 103.764 122.66 103.602 Q123.679 103.417 124.698 103.417 Q130.485 103.417 133.864 106.588 Q137.244 109.76 137.244 115.176 Q137.244 120.755 133.772 123.857 Q130.299 126.936 123.98 126.936 Q121.804 126.936 119.535 126.565 Q117.29 126.195 114.883 125.454 L114.883 120.755 Q116.966 121.889 119.188 122.445 Q121.41 123 123.887 123 Q127.892 123 130.23 120.894 Q132.568 118.787 132.568 115.176 Q132.568 111.565 130.23 109.459 Q127.892 107.352 123.887 107.352 Q122.012 107.352 120.137 107.769 Q118.286 108.186 116.341 109.065 L116.341 91.7043 Z" fill="#000000" fill-rule="nonzero" fill-opacity="1" /><path clip-path="url(#clip330)" d="M156.457 94.783 Q152.846 94.783 151.017 98.3478 Q149.211 101.889 149.211 109.019 Q149.211 116.125 151.017 119.69 Q152.846 123.232 156.457 123.232 Q160.091 123.232 161.896 119.69 Q163.725 116.125 163.725 109.019 Q163.725 101.889 161.896 98.3478 Q160.091 94.783 156.457 94.783 M156.457 91.0793 Q162.267 91.0793 165.322 95.6858 Q168.401 100.269 168.401 109.019 Q168.401 117.746 165.322 122.352 Q162.267 126.936 156.457 126.936 Q150.646 126.936 147.568 122.352 Q144.512 117.746 144.512 109.019 Q144.512 100.269 147.568 95.6858 Q150.646 91.0793 156.457 91.0793 Z" fill="#000000" fill-rule="nonzero" fill-opacity="1" /><path clip-path="url(#clip330)" d="M186.618 94.783 Q183.007 94.783 181.179 98.3478 Q179.373 101.889 179.373 109.019 Q179.373 116.125 181.179 119.69 Q183.007 123.232 186.618 123.232 Q190.253 123.232 192.058 119.69 Q193.887 116.125 193.887 109.019 Q193.887 101.889 192.058 98.3478 Q190.253 94.783 186.618 94.783 M186.618 91.0793 Q192.429 91.0793 195.484 95.6858 Q198.563 100.269 198.563 109.019 Q198.563 117.746 195.484 122.352 Q192.429 126.936 186.618 126.936 Q180.808 126.936 177.73 122.352 Q174.674 117.746 174.674 109.019 Q174.674 100.269 177.73 95.6858 Q180.808 91.0793 186.618 91.0793 Z" fill="#000000" fill-rule="nonzero" fill-opacity="1" /><path clip-path="url(#clip330)" d="M33.3248 671.532 L38.7993 671.532 Q37.4307 674.014 36.7623 676.529 Q36.0621 679.012 36.0621 681.558 Q36.0621 687.255 39.6905 690.406 Q43.2872 693.557 49.812 693.557 Q56.3369 693.557 59.9653 690.406 Q63.5619 687.255 63.5619 681.558 Q63.5619 679.012 62.8935 676.529 Q62.1933 674.014 60.8247 671.532 L66.2355 671.532 Q67.3814 673.983 67.9543 676.624 Q68.5272 679.234 68.5272 682.194 Q68.5272 690.247 63.4664 694.989 Q58.4057 699.732 49.812 699.732 Q41.091 699.732 36.0939 694.958 Q31.0968 690.152 31.0968 681.812 Q31.0968 679.107 31.6697 676.529 Q32.2108 673.951 33.3248 671.532 Z" fill="#000000" fill-rule="nonzero" fill-opacity="1" /><path clip-path="url(#clip330)" d="M36.0621 647.533 Q36.0621 652.244 39.7542 654.981 Q43.4145 657.718 49.812 657.718 Q56.2095 657.718 59.9017 655.013 Q63.5619 652.276 63.5619 647.533 Q63.5619 642.854 59.8698 640.117 Q56.1777 637.38 49.812 637.38 Q43.4781 637.38 39.786 640.117 Q36.0621 642.854 36.0621 647.533 M31.0968 647.533 Q31.0968 639.894 36.0621 635.534 Q41.0273 631.173 49.812 631.173 Q58.5649 631.173 63.5619 635.534 Q68.5272 639.894 68.5272 647.533 Q68.5272 655.204 63.5619 659.564 Q58.5649 663.893 49.812 663.893 Q41.0273 663.893 36.0621 659.564 Q31.0968 655.204 31.0968 647.533 Z" fill="#000000" fill-rule="nonzero" fill-opacity="1" /><path clip-path="url(#clip330)" d="M53.5359 622.07 L31.9562 622.07 L31.9562 616.214 L53.3131 616.214 Q58.3739 616.214 60.9202 614.241 Q63.4346 612.267 63.4346 608.32 Q63.4346 603.578 60.4109 600.841 Q57.3872 598.072 52.1673 598.072 L31.9562 598.072 L31.9562 592.215 L67.6042 592.215 L67.6042 598.072 L62.1296 598.072 Q65.3762 600.204 66.9676 603.037 Q68.5272 605.838 68.5272 609.562 Q68.5272 615.705 64.7078 618.887 Q60.8883 622.07 53.5359 622.07 M31.0968 607.334 L31.0968 607.334 Z" fill="#000000" fill-rule="nonzero" fill-opacity="1" /><path clip-path="url(#clip330)" d="M46.0881 550.52 L67.6042 550.52 L67.6042 556.376 L46.279 556.376 Q41.2183 556.376 38.7038 558.35 Q36.1894 560.323 36.1894 564.27 Q36.1894 569.012 39.2131 571.749 Q42.2368 574.487 47.4567 574.487 L67.6042 574.487 L67.6042 580.375 L31.9562 580.375 L31.9562 574.487 L37.4944 574.487 Q34.2797 572.386 32.6883 569.553 Q31.0968 566.689 31.0968 562.965 Q31.0968 556.822 34.9163 553.671 Q38.7038 550.52 46.0881 550.52 Z" fill="#000000" fill-rule="nonzero" fill-opacity="1" /><path clip-path="url(#clip330)" d="M21.8347 533.046 L31.9562 533.046 L31.9562 520.983 L36.5077 520.983 L36.5077 533.046 L55.8594 533.046 Q60.2199 533.046 61.4613 531.868 Q62.7026 530.659 62.7026 526.998 L62.7026 520.983 L67.6042 520.983 L67.6042 526.998 Q67.6042 533.778 65.0897 536.356 Q62.5434 538.934 55.8594 538.934 L36.5077 538.934 L36.5077 543.231 L31.9562 543.231 L31.9562 538.934 L21.8347 538.934 L21.8347 533.046 Z" fill="#000000" fill-rule="nonzero" fill-opacity="1" /><path clip-path="url(#clip332)" d="M327.816 394.267 L327.816 1173.47 L445.415 1173.47 L445.415 394.267 L327.816 394.267 L327.816 394.267  Z" fill="#009af9" fill-rule="evenodd" fill-opacity="1"/>
<polyline clip-path="url(#clip332)" style="stroke:#000000; stroke-linecap:round; stroke-linejoin:round; stroke-width:0; stroke-opacity:1; fill:none" points="327.816,394.267 327.816,1173.47 445.415,1173.47 445.415,394.267 327.816,394.267 "/>
<path clip-path="url(#clip332)" d="M678.858 189.885 L678.858 1173.47 L796.457 1173.47 L796.457 189.885 L678.858 189.885 L678.858 189.885  Z" fill="#009af9" fill-rule="evenodd" fill-opacity="1"/>
<polyline clip-path="url(#clip332)" style="stroke:#000000; stroke-linecap:round; stroke-linejoin:round; stroke-width:0; stroke-opacity:1; fill:none" points="678.858,189.885 678.858,1173.47 796.457,1173.47 796.457,189.885 678.858,189.885 "/>
<path clip-path="url(#clip332)" d="M1029.9 609.293 L1029.9 1173.47 L1147.5 1173.47 L1147.5 609.293 L1029.9 609.293 L1029.9 609.293  Z" fill="#009af9" fill-rule="evenodd" fill-opacity="1"/>
<polyline clip-path="url(#clip332)" style="stroke:#000000; stroke-linecap:round; stroke-linejoin:round; stroke-width:0; stroke-opacity:1; fill:none" points="1029.9,609.293 1029.9,1173.47 1147.5,1173.47 1147.5,609.293 1029.9,609.293 "/>
<path clip-path="url(#clip332)" d="M1380.94 743.418 L1380.94 1173.47 L1498.54 1173.47 L1498.54 743.418 L1380.94 743.418 L1380.94 743.418  Z" fill="#009af9" fill-rule="evenodd" fill-opacity="1"/>
<polyline clip-path="url(#clip332)" style="stroke:#000000; stroke-linecap:round; stroke-linejoin:round; stroke-width:0; stroke-opacity:1; fill:none" points="1380.94,743.418 1380.94,1173.47 1498.54,1173.47 1498.54,743.418 1380.94,743.418 "/>
<path clip-path="url(#clip332)" d="M1731.98 828.577 L1731.98 1173.47 L1849.58 1173.47 L1849.58 828.577 L1731.98 828.577 L1731.98 828.577  Z" fill="#009af9" fill-rule="evenodd" fill-opacity="1"/>
<polyline clip-path="url(#clip332)" style="stroke:#000000; stroke-linecap:round; stroke-linejoin:round; stroke-width:0; stroke-opacity:1; fill:none" points="1731.98,828.577 1731.98,1173.47 1849.58,1173.47 1849.58,828.577 1731.98,828.577 "/>
<circle clip-path="url(#clip332)" style="fill:#009af9; stroke:none; fill-opacity:0" cx="386.616" cy="394.267" r="2"/>
<circle clip-path="url(#clip332)" style="fill:#009af9; stroke:none; fill-opacity:0" cx="737.658" cy="189.885" r="2"/>
<circle clip-path="url(#clip332)" style="fill:#009af9; stroke:none; fill-opacity:0" cx="1088.7" cy="609.293" r="2"/>
<circle clip-path="url(#clip332)" style="fill:#009af9; stroke:none; fill-opacity:0" cx="1439.74" cy="743.418" r="2"/>
<circle clip-path="url(#clip332)" style="fill:#009af9; stroke:none; fill-opacity:0" cx="1790.78" cy="828.577" r="2"/>
<path clip-path="url(#clip332)" d="M445.415 494.328 L445.415 1173.47 L563.014 1173.47 L563.014 494.328 L445.415 494.328 L445.415 494.328  Z" fill="#e26f46" fill-rule="evenodd" fill-opacity="1"/>
<polyline clip-path="url(#clip332)" style="stroke:#000000; stroke-linecap:round; stroke-linejoin:round; stroke-width:0; stroke-opacity:1; fill:none" points="445.415,494.328 445.415,1173.47 563.014,1173.47 563.014,494.328 445.415,494.328 "/>
<path clip-path="url(#clip332)" d="M796.457 47.2441 L796.457 1173.47 L914.056 1173.47 L914.056 47.2441 L796.457 47.2441 L796.457 47.2441  Z" fill="#e26f46" fill-rule="evenodd" fill-opacity="1"/>
<polyline clip-path="url(#clip332)" style="stroke:#000000; stroke-linecap:round; stroke-linejoin:round; stroke-width:0; stroke-opacity:1; fill:none" points="796.457,47.2441 796.457,1173.47 914.056,1173.47 914.056,47.2441 796.457,47.2441 "/>
<path clip-path="url(#clip332)" d="M1147.5 613.551 L1147.5 1173.47 L1265.1 1173.47 L1265.1 613.551 L1147.5 613.551 L1147.5 613.551  Z" fill="#e26f46" fill-rule="evenodd" fill-opacity="1"/>
<polyline clip-path="url(#clip332)" style="stroke:#000000; stroke-linecap:round; stroke-linejoin:round; stroke-width:0; stroke-opacity:1; fill:none" points="1147.5,613.551 1147.5,1173.47 1265.1,1173.47 1265.1,613.551 1147.5,613.551 "/>
<path clip-path="url(#clip332)" d="M1498.54 807.287 L1498.54 1173.47 L1616.14 1173.47 L1616.14 807.287 L1498.54 807.287 L1498.54 807.287  Z" fill="#e26f46" fill-rule="evenodd" fill-opacity="1"/>
<polyline clip-path="url(#clip332)" style="stroke:#000000; stroke-linecap:round; stroke-linejoin:round; stroke-width:0; stroke-opacity:1; fill:none" points="1498.54,807.287 1498.54,1173.47 1616.14,1173.47 1616.14,807.287 1498.54,807.287 "/>
<path clip-path="url(#clip332)" d="M1849.58 803.029 L1849.58 1173.47 L1967.18 1173.47 L1967.18 803.029 L1849.58 803.029 L1849.58 803.029  Z" fill="#e26f46" fill-rule="evenodd" fill-opacity="1"/>
<polyline clip-path="url(#clip332)" style="stroke:#000000; stroke-linecap:round; stroke-linejoin:round; stroke-width:0; stroke-opacity:1; fill:none" points="1849.58,803.029 1849.58,1173.47 1967.18,1173.47 1967.18,803.029 1849.58,803.029 "/>
<circle clip-path="url(#clip332)" style="fill:#e26f46; stroke:none; fill-opacity:0" cx="504.215" cy="494.328" r="2"/>
<circle clip-path="url(#clip332)" style="fill:#e26f46; stroke:none; fill-opacity:0" cx="855.257" cy="47.2441" r="2"/>
<circle clip-path="url(#clip332)" style="fill:#e26f46; stroke:none; fill-opacity:0" cx="1206.3" cy="613.551" r="2"/>
<circle clip-path="url(#clip332)" style="fill:#e26f46; stroke:none; fill-opacity:0" cx="1557.34" cy="807.287" r="2"/>
<circle clip-path="url(#clip332)" style="fill:#e26f46; stroke:none; fill-opacity:0" cx="1908.38" cy="803.029" r="2"/>
<path clip-path="url(#clip330)" d="M1662.66 240.305 L2003.61 240.305 L2003.61 84.785 L1662.66 84.785  Z" fill="#ffffff" fill-rule="evenodd" fill-opacity="1"/>
<polyline clip-path="url(#clip330)" style="stroke:#000000; stroke-linecap:round; stroke-linejoin:round; stroke-width:4; stroke-opacity:1; fill:none" points="1662.66,240.305 2003.61,240.305 2003.61,84.785 1662.66,84.785 1662.66,240.305 "/>
<path clip-path="url(#clip330)" d="M1683.04 157.361 L1805.34 157.361 L1805.34 115.889 L1683.04 115.889 L1683.04 157.361  Z" fill="#009af9" fill-rule="evenodd" fill-opacity="1"/>
<polyline clip-path="url(#clip330)" style="stroke:#000000; stroke-linecap:round; stroke-linejoin:round; stroke-width:0.8; stroke-opacity:1; fill:none" points="1683.04,157.361 1805.34,157.361 1805.34,115.889 1683.04,115.889 1683.04,157.361 "/>
<path clip-path="url(#clip330)" d="M1841.56 123.951 L1835.21 141.15 L1847.92 141.15 L1841.56 123.951 M1838.92 119.345 L1844.22 119.345 L1857.39 153.905 L1852.53 153.905 L1849.38 145.039 L1833.8 145.039 L1830.65 153.905 L1825.72 153.905 L1838.92 119.345 Z" fill="#000000" fill-rule="nonzero" fill-opacity="1" /><path clip-path="url(#clip330)" d="M1880.07 128.975 L1880.07 132.956 Q1878.27 131.961 1876.44 131.475 Q1874.63 130.965 1872.78 130.965 Q1868.64 130.965 1866.35 133.604 Q1864.06 136.22 1864.06 140.965 Q1864.06 145.711 1866.35 148.349 Q1868.64 150.965 1872.78 150.965 Q1874.63 150.965 1876.44 150.479 Q1878.27 149.97 1880.07 148.974 L1880.07 152.91 Q1878.29 153.743 1876.37 154.16 Q1874.47 154.576 1872.32 154.576 Q1866.46 154.576 1863.01 150.896 Q1859.57 147.215 1859.57 140.965 Q1859.57 134.623 1863.04 130.988 Q1866.53 127.354 1872.6 127.354 Q1874.57 127.354 1876.44 127.771 Q1878.32 128.164 1880.07 128.975 Z" fill="#000000" fill-rule="nonzero" fill-opacity="1" /><path clip-path="url(#clip330)" d="M1891.69 120.618 L1891.69 127.979 L1900.47 127.979 L1900.47 131.289 L1891.69 131.289 L1891.69 145.363 Q1891.69 148.535 1892.55 149.437 Q1893.43 150.34 1896.09 150.34 L1900.47 150.34 L1900.47 153.905 L1896.09 153.905 Q1891.16 153.905 1889.29 152.076 Q1887.41 150.224 1887.41 145.363 L1887.41 131.289 L1884.29 131.289 L1884.29 127.979 L1887.41 127.979 L1887.41 120.618 L1891.69 120.618 Z" fill="#000000" fill-rule="nonzero" fill-opacity="1" /><path clip-path="url(#clip330)" d="M1905.63 143.674 L1905.63 127.979 L1909.89 127.979 L1909.89 143.512 Q1909.89 147.192 1911.32 149.044 Q1912.76 150.873 1915.63 150.873 Q1919.08 150.873 1921.07 148.674 Q1923.08 146.474 1923.08 142.678 L1923.08 127.979 L1927.34 127.979 L1927.34 153.905 L1923.08 153.905 L1923.08 149.924 Q1921.53 152.285 1919.47 153.442 Q1917.44 154.576 1914.73 154.576 Q1910.26 154.576 1907.94 151.799 Q1905.63 149.021 1905.63 143.674 M1916.35 127.354 L1916.35 127.354 Z" fill="#000000" fill-rule="nonzero" fill-opacity="1" /><path clip-path="url(#clip330)" d="M1947.9 140.873 Q1942.74 140.873 1940.75 142.053 Q1938.75 143.234 1938.75 146.081 Q1938.75 148.349 1940.24 149.692 Q1941.74 151.011 1944.31 151.011 Q1947.85 151.011 1949.98 148.511 Q1952.13 145.988 1952.13 141.822 L1952.13 140.873 L1947.9 140.873 M1956.39 139.113 L1956.39 153.905 L1952.13 153.905 L1952.13 149.97 Q1950.68 152.331 1948.5 153.465 Q1946.32 154.576 1943.18 154.576 Q1939.19 154.576 1936.83 152.354 Q1934.5 150.109 1934.5 146.359 Q1934.5 141.984 1937.41 139.762 Q1940.35 137.539 1946.16 137.539 L1952.13 137.539 L1952.13 137.123 Q1952.13 134.183 1950.19 132.586 Q1948.27 130.965 1944.77 130.965 Q1942.55 130.965 1940.44 131.498 Q1938.34 132.03 1936.39 133.095 L1936.39 129.16 Q1938.73 128.257 1940.93 127.817 Q1943.13 127.354 1945.21 127.354 Q1950.84 127.354 1953.62 130.271 Q1956.39 133.188 1956.39 139.113 Z" fill="#000000" fill-rule="nonzero" fill-opacity="1" /><path clip-path="url(#clip330)" d="M1965.17 117.887 L1969.43 117.887 L1969.43 153.905 L1965.17 153.905 L1965.17 117.887 Z" fill="#000000" fill-rule="nonzero" fill-opacity="1" /><path clip-path="url(#clip330)" d="M1683.04 209.201 L1805.34 209.201 L1805.34 167.729 L1683.04 167.729 L1683.04 209.201  Z" fill="#e26f46" fill-rule="evenodd" fill-opacity="1"/>
<polyline clip-path="url(#clip330)" style="stroke:#000000; stroke-linecap:round; stroke-linejoin:round; stroke-width:0.8; stroke-opacity:1; fill:none" points="1683.04,209.201 1805.34,209.201 1805.34,167.729 1683.04,167.729 1683.04,209.201 "/>
<path clip-path="url(#clip330)" d="M1830.4 175.028 L1830.4 188.014 L1836.28 188.014 Q1839.54 188.014 1841.32 186.324 Q1843.11 184.634 1843.11 181.509 Q1843.11 178.407 1841.32 176.717 Q1839.54 175.028 1836.28 175.028 L1830.4 175.028 M1825.72 171.185 L1836.28 171.185 Q1842.09 171.185 1845.05 173.824 Q1848.04 176.44 1848.04 181.509 Q1848.04 186.625 1845.05 189.24 Q1842.09 191.856 1836.28 191.856 L1830.4 191.856 L1830.4 205.745 L1825.72 205.745 L1825.72 171.185 Z" fill="#000000" fill-rule="nonzero" fill-opacity="1" /><path clip-path="url(#clip330)" d="M1868.32 183.801 Q1867.6 183.384 1866.74 183.199 Q1865.91 182.99 1864.89 182.99 Q1861.28 182.99 1859.33 185.352 Q1857.41 187.69 1857.41 192.088 L1857.41 205.745 L1853.13 205.745 L1853.13 179.819 L1857.41 179.819 L1857.41 183.847 Q1858.76 181.486 1860.91 180.352 Q1863.06 179.194 1866.14 179.194 Q1866.58 179.194 1867.11 179.264 Q1867.64 179.31 1868.29 179.426 L1868.32 183.801 Z" fill="#000000" fill-rule="nonzero" fill-opacity="1" /><path clip-path="url(#clip330)" d="M1893.92 191.717 L1893.92 193.801 L1874.33 193.801 Q1874.61 198.199 1876.97 200.514 Q1879.36 202.805 1883.59 202.805 Q1886.05 202.805 1888.34 202.203 Q1890.65 201.601 1892.92 200.398 L1892.92 204.426 Q1890.63 205.398 1888.22 205.907 Q1885.82 206.416 1883.34 206.416 Q1877.13 206.416 1873.5 202.805 Q1869.89 199.194 1869.89 193.037 Q1869.89 186.671 1873.32 182.944 Q1876.76 179.194 1882.6 179.194 Q1887.83 179.194 1890.86 182.574 Q1893.92 185.93 1893.92 191.717 M1889.66 190.467 Q1889.61 186.972 1887.69 184.889 Q1885.79 182.805 1882.64 182.805 Q1879.08 182.805 1876.93 184.819 Q1874.8 186.833 1874.47 190.49 L1889.66 190.467 Z" fill="#000000" fill-rule="nonzero" fill-opacity="1" /><path clip-path="url(#clip330)" d="M1917.97 183.754 L1917.97 169.727 L1922.23 169.727 L1922.23 205.745 L1917.97 205.745 L1917.97 201.856 Q1916.63 204.171 1914.56 205.305 Q1912.53 206.416 1909.66 206.416 Q1904.96 206.416 1902 202.666 Q1899.06 198.916 1899.06 192.805 Q1899.06 186.694 1902 182.944 Q1904.96 179.194 1909.66 179.194 Q1912.53 179.194 1914.56 180.328 Q1916.63 181.44 1917.97 183.754 M1903.45 192.805 Q1903.45 197.504 1905.38 200.189 Q1907.32 202.851 1910.7 202.851 Q1914.08 202.851 1916.02 200.189 Q1917.97 197.504 1917.97 192.805 Q1917.97 188.106 1916.02 185.444 Q1914.08 182.759 1910.7 182.759 Q1907.32 182.759 1905.38 185.444 Q1903.45 188.106 1903.45 192.805 Z" fill="#000000" fill-rule="nonzero" fill-opacity="1" /><path clip-path="url(#clip330)" d="M1931 179.819 L1935.26 179.819 L1935.26 205.745 L1931 205.745 L1931 179.819 M1931 169.727 L1935.26 169.727 L1935.26 175.12 L1931 175.12 L1931 169.727 Z" fill="#000000" fill-rule="nonzero" fill-opacity="1" /><path clip-path="url(#clip330)" d="M1962.83 180.815 L1962.83 184.796 Q1961.02 183.801 1959.19 183.315 Q1957.39 182.805 1955.54 182.805 Q1951.39 182.805 1949.1 185.444 Q1946.81 188.06 1946.81 192.805 Q1946.81 197.551 1949.1 200.189 Q1951.39 202.805 1955.54 202.805 Q1957.39 202.805 1959.19 202.319 Q1961.02 201.81 1962.83 200.814 L1962.83 204.75 Q1961.05 205.583 1959.12 206 Q1957.23 206.416 1955.07 206.416 Q1949.22 206.416 1945.77 202.736 Q1942.32 199.055 1942.32 192.805 Q1942.32 186.463 1945.79 182.828 Q1949.29 179.194 1955.35 179.194 Q1957.32 179.194 1959.19 179.611 Q1961.07 180.004 1962.83 180.815 Z" fill="#000000" fill-rule="nonzero" fill-opacity="1" /><path clip-path="url(#clip330)" d="M1974.45 172.458 L1974.45 179.819 L1983.22 179.819 L1983.22 183.129 L1974.45 183.129 L1974.45 197.203 Q1974.45 200.375 1975.31 201.277 Q1976.18 202.18 1978.85 202.18 L1983.22 202.18 L1983.22 205.745 L1978.85 205.745 Q1973.92 205.745 1972.04 203.916 Q1970.17 202.064 1970.17 197.203 L1970.17 183.129 L1967.04 183.129 L1967.04 179.819 L1970.17 179.819 L1970.17 172.458 L1974.45 172.458 Z" fill="#000000" fill-rule="nonzero" fill-opacity="1" /></svg>
